{
    "asset" : {
        "generator" : "Khronos glTF Blender I/O v1.8.19",
        "version" : "2.0"
    },
    "scene" : 0,
    "scenes" : [
        {
            "name" : "Scene",
            "nodes" : [
                0
            ]
        }
    ],
    "nodes" : [
        {
            "mesh" : 0,
            "name" : "Box003",
            "rotation" : [
                0.7071068286895752,
                0,
                0,
                0.7071067094802856
            ],
            "scale" : [
                0.004187906626611948,
                0.04915580153465271,
                0.02215779945254326
            ],
            "translation" : [
                0,
                0.46812283992767334,
                -0.07486708462238312
            ]
        }
    ],
    "animations" : [
        {
            "channels" : [
                {
                    "sampler" : 0,
                    "target" : {
                        "node" : 0,
                        "path" : "translation"
                    }
                },
                {
                    "sampler" : 1,
                    "target" : {
                        "node" : 0,
                        "path" : "rotation"
                    }
                },
                {
                    "sampler" : 2,
                    "target" : {
                        "node" : 0,
                        "path" : "scale"
                    }
                }
            ],
            "name" : "Box003|Take 001|BaseLayer",
            "samplers" : [
                {
                    "input" : 4,
                    "interpolation" : "LINEAR",
                    "output" : 5
                },
                {
                    "input" : 6,
                    "interpolation" : "LINEAR",
                    "output" : 7
                },
                {
                    "input" : 4,
                    "interpolation" : "LINEAR",
                    "output" : 8
                }
            ]
        }
    ],
    "materials" : [
        {
            "doubleSided" : true,
            "name" : "Material.001",
            "pbrMetallicRoughness" : {
                "baseColorFactor" : [
                    0.1943684220314026,
                    0.04192621633410454,
                    0.8000000715255737,
                    1
                ],
                "metallicFactor" : 0,
                "roughnessFactor" : 0.23394495248794556
            }
        }
    ],
    "meshes" : [
        {
            "name" : "Mesh",
            "primitives" : [
                {
                    "attributes" : {
                        "POSITION" : 0,
                        "NORMAL" : 1,
                        "TEXCOORD_0" : 2
                    },
                    "indices" : 3,
                    "material" : 0
                }
            ]
        }
    ],
    "accessors" : [
        {
            "bufferView" : 0,
            "componentType" : 5126,
            "count" : 3993,
            "max" : [
                324.40338134765625,
                3.968179225921631,
                8.90892505645752
            ],
            "min" : [
                -320.741455078125,
                -0.24505877494812012,
                -114.437255859375
            ],
            "type" : "VEC3"
        },
        {
            "bufferView" : 1,
            "componentType" : 5126,
            "count" : 3993,
            "type" : "VEC3"
        },
        {
            "bufferView" : 2,
            "componentType" : 5126,
            "count" : 3993,
            "type" : "VEC2"
        },
        {
            "bufferView" : 3,
            "componentType" : 5123,
            "count" : 20736,
            "type" : "SCALAR"
        },
        {
            "bufferView" : 4,
            "componentType" : 5126,
            "count" : 2,
            "max" : [
                3.3666666666666667
            ],
            "min" : [
                0.03333333333333333
            ],
            "type" : "SCALAR"
        },
        {
            "bufferView" : 5,
            "componentType" : 5126,
            "count" : 2,
            "type" : "VEC3"
        },
        {
            "bufferView" : 6,
            "componentType" : 5126,
            "count" : 101,
            "max" : [
                3.3666666666666667
            ],
            "min" : [
                0.03333333333333333
            ],
            "type" : "SCALAR"
        },
        {
            "bufferView" : 7,
            "componentType" : 5126,
            "count" : 101,
            "type" : "VEC4"
        },
        {
            "bufferView" : 8,
            "componentType" : 5126,
            "count" : 2,
            "type" : "VEC3"
        }
    ],
    "bufferViews" : [
        {
            "buffer" : 0,
            "byteLength" : 47916,
            "byteOffset" : 0
        },
        {
            "buffer" : 0,
            "byteLength" : 47916,
            "byteOffset" : 47916
        },
        {
            "buffer" : 0,
            "byteLength" : 31944,
            "byteOffset" : 95832
        },
        {
            "buffer" : 0,
            "byteLength" : 41472,
            "byteOffset" : 127776
        },
        {
            "buffer" : 0,
            "byteLength" : 8,
            "byteOffset" : 169248
        },
        {
            "buffer" : 0,
            "byteLength" : 24,
            "byteOffset" : 169256
        },
        {
            "buffer" : 0,
            "byteLength" : 404,
            "byteOffset" : 169280
        },
        {
            "buffer" : 0,
            "byteLength" : 1616,
            "byteOffset" : 169684
        },
        {
            "buffer" : 0,
            "byteLength" : 24,
            "byteOffset" : 171300
        }
    ],
    "buffers" : [
        {
            "byteLength" : 171324,
            "uri" : "data:application/octet-stream;base64,"
        }
    ]
}
