<svg width="49" height="57" viewBox="0 0 49 57" fill="none" xmlns="http://www.w3.org/2000/svg">
<path d="M36.2368 13.3262C31.11 13.3262 28.9462 15.7711 25.3787 15.7711C21.7192 15.7711 18.9295 13.3439 14.4887 13.3439C12.0663 13.4747 9.71289 14.197 7.63421 15.4476C5.55553 16.6982 3.81487 18.439 2.56445 20.5178C-1.56526 26.8927 -0.866957 38.9 5.82615 49.127C8.21983 52.7883 11.4179 56.895 15.6112 56.9392H15.6873C19.3326 56.9392 20.4145 54.5526 25.4317 54.5243H25.5077C30.4577 54.5243 31.4406 56.9251 35.07 56.9251H35.1461C39.3394 56.8809 42.709 52.3286 45.1026 48.6833C46.5561 46.5082 47.7908 44.1946 48.7886 41.7763C46.5559 40.9303 44.6112 39.4641 43.1836 37.5503C41.756 35.6364 40.9048 33.3546 40.7302 30.9734C40.5556 28.5921 41.0649 26.2105 42.1981 24.1089C43.3313 22.0073 45.0413 20.2732 47.1268 19.1106C45.8489 17.4021 44.2086 15.9977 42.3236 14.9982C40.4386 13.9987 38.3557 13.4289 36.2245 13.3297L36.2368 13.3262Z" fill="#8F98B7"/>
<path d="M35.1076 0C31.7205 0.401627 28.6129 2.07646 26.4151 4.68482C25.3356 5.90396 24.5257 7.33723 24.0383 8.8909C23.5509 10.4446 23.3969 12.0836 23.5865 13.7009H23.8305C25.4888 13.6203 27.1097 13.1794 28.5803 12.4088C30.051 11.6382 31.3361 10.5565 32.3462 9.23882C33.4002 7.96136 34.1876 6.48567 34.6619 4.89887C35.1362 3.31207 35.2877 1.64634 35.1076 0Z" fill="#8F98B7"/>
</svg>
