<svg width="533" height="253" viewBox="0 0 533 253" fill="none" xmlns="http://www.w3.org/2000/svg">
<g filter="url(#filter0_b_1085_7144)">
<rect width="48" height="48" transform="matrix(0.882948 0.469471 -0.469472 0.882947 420.535 3.08398)" fill="white" fill-opacity="0.0792572"/>
<rect x="-0.620213" y="-2.02863" width="51" height="51" transform="matrix(0.882948 0.469471 -0.469472 0.882947 419.51 3.1377)" stroke="#5087F7" stroke-width="3" stroke-linejoin="round"/>
</g>
<rect x="-1.92258" y="-0.896515" width="12" height="12" transform="matrix(0.939695 -0.342014 0.342027 0.93969 197.191 29.3665)" stroke="#5087F7" stroke-width="3" stroke-linecap="square" stroke-linejoin="round"/>
<rect x="499.628" y="81.9177" width="12" height="12" transform="rotate(34 499.628 81.9177)" stroke="#5087F7" stroke-width="3" stroke-linecap="square" stroke-linejoin="round"/>
<g filter="url(#filter1_b_1085_7144)">
<circle cx="129" cy="115" r="16" fill="white" fill-opacity="0.0792572"/>
<circle cx="129" cy="115" r="17.5" stroke="#5087F7" stroke-width="3" stroke-linejoin="round"/>
</g>
<g filter="url(#filter2_b_1085_7144)">
<circle cx="9.97461" cy="85.5" r="6.5" fill="white" fill-opacity="0.0792572"/>
<circle cx="9.97461" cy="85.5" r="8" stroke="#5087F7" stroke-width="3" stroke-linejoin="round"/>
</g>
<g filter="url(#filter3_b_1085_7144)">
<circle cx="463.5" cy="218.25" r="6.5" fill="white" fill-opacity="0.0792572"/>
<circle cx="463.5" cy="218.25" r="8" stroke="#5087F7" stroke-width="3" stroke-linejoin="round"/>
</g>
<g filter="url(#filter4_b_1085_7144)">
<path d="M57.2276 172.233L60.66 202.835L30.9998 188.369L57.2276 172.233Z" fill="white" fill-opacity="0.0792572"/>
<path d="M58.7182 172.066C58.661 171.556 58.3467 171.11 57.8851 170.885C57.4236 170.66 56.879 170.686 56.4416 170.956L30.2138 187.091C29.7478 187.378 29.4749 187.895 29.5016 188.442C29.5283 188.988 29.8505 189.477 30.3423 189.717L60.0025 204.183C60.4942 204.423 61.0776 204.376 61.5247 204.061C61.9718 203.745 62.2117 203.211 62.1507 202.668L58.7182 172.066Z" stroke="#6357F6" stroke-width="3" stroke-linejoin="round"/>
</g>
<path d="M323.021 188.226L324.933 188.811L325.518 186.898L323.605 186.314L323.021 188.226ZM322.436 190.139L324.348 190.724L324.348 190.724L322.436 190.139ZM319.195 187.057L319.78 185.144L317.867 184.559L317.283 186.472L319.195 187.057ZM318.611 188.969L320.523 189.554L320.523 189.554L318.611 188.969ZM312.179 210.008L311.594 211.921L313.507 212.505L314.091 210.593L312.179 210.008ZM291.14 203.575L290.555 205.488L290.555 205.488L291.14 203.575ZM289.227 202.991L289.812 201.078L287.899 200.493L287.315 202.406L289.227 202.991ZM288.058 206.816L286.145 206.231L285.561 208.144L287.473 208.729L288.058 206.816ZM289.971 207.401L289.386 209.313L289.386 209.313L289.971 207.401ZM311.009 213.833L312.922 214.418L313.507 212.505L311.594 211.921L311.009 213.833ZM304.577 234.872L302.665 234.287L304.577 234.872ZM303.992 236.785L302.08 236.2L301.495 238.113L303.408 238.697L303.992 236.785ZM307.818 237.954L307.233 239.867L309.146 240.452L309.73 238.539L307.818 237.954ZM308.402 236.042L306.49 235.457L308.402 236.042ZM314.834 215.003L315.419 213.09L313.507 212.505L312.922 214.418L314.834 215.003ZM335.873 221.435L335.288 223.348L335.873 221.435ZM337.786 222.02L337.201 223.933L339.113 224.517L339.698 222.605L337.786 222.02ZM338.955 218.195L340.868 218.78L341.452 216.867L339.54 216.282L338.955 218.195ZM337.042 217.61L336.458 219.523L337.042 217.61ZM316.004 211.178L314.091 210.593L313.507 212.505L315.419 213.09L316.004 211.178ZM321.108 187.642L320.523 189.554L324.348 190.724L324.933 188.811L321.108 187.642ZM318.611 188.969L322.436 190.139L323.605 186.314L319.78 185.144L318.611 188.969ZM320.523 189.554L321.108 187.641L317.283 186.472L316.698 188.385L320.523 189.554ZM314.091 210.593L320.523 189.554L316.698 188.385L310.266 209.423L314.091 210.593ZM290.555 205.488L311.594 211.921L312.763 208.095L291.725 201.663L290.555 205.488ZM288.643 204.903L290.555 205.488L291.725 201.663L289.812 201.078L288.643 204.903ZM289.971 207.401L291.14 203.575L287.315 202.406L286.145 206.231L289.971 207.401ZM290.555 205.488L288.643 204.903L287.473 208.729L289.386 209.313L290.555 205.488ZM311.594 211.921L290.555 205.488L289.386 209.313L310.424 215.746L311.594 211.921ZM306.49 235.457L312.922 214.418L309.097 213.249L302.665 234.287L306.49 235.457ZM305.905 237.369L306.49 235.457L302.665 234.287L302.08 236.2L305.905 237.369ZM308.402 236.042L304.577 234.872L303.408 238.697L307.233 239.867L308.402 236.042ZM306.49 235.457L305.905 237.369L309.73 238.539L310.315 236.626L306.49 235.457ZM312.922 214.418L306.49 235.457L310.315 236.626L316.747 215.588L312.922 214.418ZM336.458 219.523L315.419 213.09L314.25 216.915L335.288 223.348L336.458 219.523ZM338.37 220.107L336.458 219.523L335.288 223.348L337.201 223.933L338.37 220.107ZM337.042 217.61L335.873 221.435L339.698 222.605L340.868 218.78L337.042 217.61ZM336.458 219.523L338.37 220.107L339.54 216.282L337.627 215.697L336.458 219.523ZM315.419 213.09L336.458 219.523L337.627 215.697L316.589 209.265L315.419 213.09ZM320.523 189.554L314.091 210.593L317.916 211.762L324.348 190.724L320.523 189.554Z" fill="#5087F7"/>
<path d="M173.332 223.287L174.657 222.583L173.952 221.258L172.628 221.963L173.332 223.287ZM174.271 225.053L172.947 225.757L172.947 225.757L174.271 225.053ZM169.8 225.165L169.096 223.84L167.772 224.545L168.476 225.869L169.8 225.165ZM170.739 226.931L169.415 227.635L170.739 226.931ZM173.812 232.709L174.546 234.017L175.825 233.299L175.136 232.005L173.812 232.709ZM168.102 235.913L168.836 237.221L168.836 237.221L168.102 235.913ZM166.358 236.891L165.624 235.583L164.316 236.317L165.05 237.625L166.358 236.891ZM168.316 240.38L167.008 241.114L167.742 242.422L169.05 241.688L168.316 240.38ZM170.06 239.401L170.794 240.709L170.794 240.709L170.06 239.401ZM175.69 236.241L177.015 235.537L176.294 234.182L174.956 234.933L175.69 236.241ZM178.721 241.941L177.396 242.645L178.721 241.941ZM179.66 243.706L178.335 244.411L179.04 245.735L180.364 245.031L179.66 243.706ZM183.192 241.829L183.896 243.153L185.22 242.449L184.516 241.124L183.192 241.829ZM182.253 240.063L180.928 240.767L182.253 240.063ZM179.179 234.284L178.445 232.975L177.167 233.693L177.855 234.988L179.179 234.284ZM184.889 231.08L185.623 232.388L184.889 231.08ZM186.633 230.101L187.367 231.409L188.675 230.675L187.941 229.367L186.633 230.101ZM184.676 226.613L185.984 225.879L185.25 224.571L183.942 225.305L184.676 226.613ZM182.931 227.591L183.665 228.9L183.665 228.9L182.931 227.591ZM177.301 230.751L175.977 231.455L176.697 232.81L178.035 232.059L177.301 230.751ZM172.008 223.991L172.947 225.757L175.596 224.349L174.657 222.583L172.008 223.991ZM170.504 226.489L174.036 224.611L172.628 221.963L169.096 223.84L170.504 226.489ZM172.064 226.226L171.125 224.461L168.476 225.869L169.415 227.635L172.064 226.226ZM175.136 232.005L172.064 226.226L169.415 227.635L172.487 233.413L175.136 232.005ZM168.836 237.221L174.546 234.017L173.078 231.401L167.368 234.604L168.836 237.221ZM167.092 238.199L168.836 237.221L167.368 234.604L165.624 235.583L167.092 238.199ZM169.624 239.645L167.666 236.157L165.05 237.625L167.008 241.114L169.624 239.645ZM169.326 238.093L167.582 239.071L169.05 241.688L170.794 240.709L169.326 238.093ZM174.956 234.933L169.326 238.093L170.794 240.709L176.424 237.55L174.956 234.933ZM180.045 241.236L177.015 235.537L174.366 236.946L177.396 242.645L180.045 241.236ZM180.984 243.002L180.045 241.236L177.396 242.645L178.335 244.411L180.984 243.002ZM182.487 240.504L178.956 242.382L180.364 245.031L183.896 243.153L182.487 240.504ZM180.928 240.767L181.867 242.533L184.516 241.124L183.577 239.359L180.928 240.767ZM177.855 234.988L180.928 240.767L183.577 239.359L180.504 233.579L177.855 234.988ZM184.155 229.772L178.445 232.975L179.914 235.592L185.623 232.388L184.155 229.772ZM185.899 228.793L184.155 229.772L185.623 232.388L187.367 231.409L185.899 228.793ZM183.368 227.347L185.325 230.835L187.941 229.367L185.984 225.879L183.368 227.347ZM183.665 228.9L185.41 227.921L183.942 225.305L182.197 226.283L183.665 228.9ZM178.035 232.059L183.665 228.9L182.197 226.283L176.567 229.443L178.035 232.059ZM172.947 225.757L175.977 231.455L178.625 230.047L175.596 224.349L172.947 225.757Z" fill="#5087F7"/>
<defs>
<filter id="filter0_b_1085_7144" x="386.845" y="-8.07135" width="87.2267" height="87.2269" filterUnits="userSpaceOnUse" color-interpolation-filters="sRGB">
<feFlood flood-opacity="0" result="BackgroundImageFix"/>
<feGaussianBlur in="BackgroundImage" stdDeviation="4.07742"/>
<feComposite in2="SourceAlpha" operator="in" result="effect1_backgroundBlur_1085_7144"/>
<feBlend mode="normal" in="SourceGraphic" in2="effect1_backgroundBlur_1085_7144" result="shape"/>
</filter>
<filter id="filter1_b_1085_7144" x="101.845" y="87.8452" width="54.3097" height="54.3097" filterUnits="userSpaceOnUse" color-interpolation-filters="sRGB">
<feFlood flood-opacity="0" result="BackgroundImageFix"/>
<feGaussianBlur in="BackgroundImage" stdDeviation="4.07742"/>
<feComposite in2="SourceAlpha" operator="in" result="effect1_backgroundBlur_1085_7144"/>
<feBlend mode="normal" in="SourceGraphic" in2="effect1_backgroundBlur_1085_7144" result="shape"/>
</filter>
<filter id="filter2_b_1085_7144" x="-7.68024" y="67.8452" width="35.3097" height="35.3097" filterUnits="userSpaceOnUse" color-interpolation-filters="sRGB">
<feFlood flood-opacity="0" result="BackgroundImageFix"/>
<feGaussianBlur in="BackgroundImage" stdDeviation="4.07742"/>
<feComposite in2="SourceAlpha" operator="in" result="effect1_backgroundBlur_1085_7144"/>
<feBlend mode="normal" in="SourceGraphic" in2="effect1_backgroundBlur_1085_7144" result="shape"/>
</filter>
<filter id="filter3_b_1085_7144" x="445.845" y="200.595" width="35.3097" height="35.3097" filterUnits="userSpaceOnUse" color-interpolation-filters="sRGB">
<feFlood flood-opacity="0" result="BackgroundImageFix"/>
<feGaussianBlur in="BackgroundImage" stdDeviation="4.07742"/>
<feComposite in2="SourceAlpha" operator="in" result="effect1_backgroundBlur_1085_7144"/>
<feBlend mode="normal" in="SourceGraphic" in2="effect1_backgroundBlur_1085_7144" result="shape"/>
</filter>
<filter id="filter4_b_1085_7144" x="19.8452" y="161.078" width="51.9698" height="52.9115" filterUnits="userSpaceOnUse" color-interpolation-filters="sRGB">
<feFlood flood-opacity="0" result="BackgroundImageFix"/>
<feGaussianBlur in="BackgroundImage" stdDeviation="4.07742"/>
<feComposite in2="SourceAlpha" operator="in" result="effect1_backgroundBlur_1085_7144"/>
<feBlend mode="normal" in="SourceGraphic" in2="effect1_backgroundBlur_1085_7144" result="shape"/>
</filter>
</defs>
</svg>
