<svg width="86" height="86" viewBox="0 0 86 86" fill="none" xmlns="http://www.w3.org/2000/svg">
<rect width="86" height="86" rx="16" fill="#728CF7"/>
<path fill-rule="evenodd" clip-rule="evenodd" d="M29.7812 20L40.5625 26.4604L29.7812 32.9207L19 26.4604L29.7812 20ZM19 29.7359L28.375 35.3536V45.6527L19 40.035V29.7359ZM40.5625 29.7359L31.1875 35.3536V45.6527L40.5625 40.035V29.7359ZM45.4375 47.8075L56.2188 41.3472L67 47.8075L56.2188 54.2679L45.4375 47.8075ZM45.4375 61.3823L54.8125 67V56.7009L45.4375 51.0832V61.3823ZM67 61.3823L57.625 67V56.7009L67 51.0832V61.3823ZM57.625 37.1801C57.625 37.9558 56.9955 38.5845 56.2188 38.5845C55.442 38.5845 54.8125 37.9558 54.8125 37.1801C54.8125 36.4044 55.442 35.7757 56.2188 35.7757C56.9955 35.7757 57.625 36.4044 57.625 37.1801ZM56.2188 32.9668C56.9955 32.9668 57.625 32.3381 57.625 31.5624C57.625 30.7867 56.9955 30.158 56.2188 30.158C55.442 30.158 54.8125 30.7867 54.8125 31.5624C54.8125 32.3381 55.442 32.9668 56.2188 32.9668ZM52 31.5624C52 32.3381 51.3705 32.9668 50.5938 32.9668C49.817 32.9668 49.1875 32.3381 49.1875 31.5624C49.1875 30.7867 49.817 30.158 50.5938 30.158C51.3705 30.158 52 30.7867 52 31.5624ZM44.9688 32.9668C45.7455 32.9668 46.375 32.3381 46.375 31.5624C46.375 30.7867 45.7455 30.158 44.9688 30.158C44.192 30.158 43.5625 30.7867 43.5625 31.5624C43.5625 32.3381 44.192 32.9668 44.9688 32.9668ZM31.1875 50.6626C31.1875 51.4383 30.558 52.067 29.7812 52.067C29.0045 52.067 28.375 51.4383 28.375 50.6626C28.375 49.8868 29.0045 49.2581 29.7812 49.2581C30.558 49.2581 31.1875 49.8868 31.1875 50.6626ZM29.7812 57.6846C30.558 57.6846 31.1875 57.0559 31.1875 56.2802C31.1875 55.5044 30.558 54.8757 29.7812 54.8757C29.0045 54.8757 28.375 55.5044 28.375 56.2802C28.375 57.0559 29.0045 57.6846 29.7812 57.6846ZM36.8125 56.2802C36.8125 57.0559 36.183 57.6846 35.4062 57.6846C34.6295 57.6846 34 57.0559 34 56.2802C34 55.5044 34.6295 54.8757 35.4062 54.8757C36.183 54.8757 36.8125 55.5044 36.8125 56.2802ZM41.0312 57.6846C41.808 57.6846 42.4375 57.0559 42.4375 56.2802C42.4375 55.5044 41.808 54.8757 41.0312 54.8757C40.2545 54.8757 39.625 55.5044 39.625 56.2802C39.625 57.0559 40.2545 57.6846 41.0312 57.6846Z" fill="white"/>
</svg>
