<svg width="307" height="97" viewBox="0 0 307 97" fill="none" xmlns="http://www.w3.org/2000/svg">
<path d="M294.086 0.59668H12.091C5.74288 0.59668 0.59668 6.44586 0.59668 13.6612V83.3386C0.59668 90.5539 5.74288 96.4031 12.091 96.4031H294.086C300.434 96.4031 305.581 90.5539 305.581 83.3386V13.6612C305.581 6.44586 300.434 0.59668 294.086 0.59668Z" stroke="#8F98B7"/>
<path d="M63.979 33.0845C58.8522 33.0845 56.6884 35.5294 53.1208 35.5294C49.4614 35.5294 46.6717 33.1022 42.2308 33.1022C39.8085 33.233 37.4551 33.9553 35.3764 35.2059C33.2977 36.4565 31.5571 38.1973 30.3066 40.2761C26.1769 46.651 26.8752 58.6583 33.5683 68.8853C35.962 72.5466 39.1601 76.6533 43.3534 76.6975H43.4294C47.0748 76.6975 48.1567 74.3109 53.1739 74.2826H53.2499C58.1999 74.2826 59.1828 76.6834 62.8122 76.6834H62.8882C67.0816 76.6392 70.4511 72.0869 72.8448 68.4416C74.2983 66.2665 75.533 63.9529 76.5308 61.5346C74.298 60.6886 72.3534 59.2224 70.9258 57.3086C69.4982 55.3947 68.647 53.1129 68.4724 50.7317C68.2978 48.3504 68.8071 45.9688 69.9403 43.8672C71.0735 41.7656 72.7835 40.0315 74.869 38.8689C73.5911 37.1604 71.9507 35.756 70.0658 34.7565C68.1808 33.757 66.0979 33.1872 63.9666 33.088L63.979 33.0845Z" fill="#8F98B7"/>
<path d="M62.8498 19.7583C59.4627 20.1599 56.3551 21.8348 54.1573 24.4431C53.0778 25.6623 52.2679 27.0955 51.7805 28.6492C51.293 30.2029 51.1391 31.8419 51.3287 33.4592H51.5726C53.231 33.3786 54.8519 32.9377 56.3225 32.1671C57.7932 31.3965 59.0783 30.3148 60.0884 28.9971C61.1424 27.7197 61.9298 26.244 62.4041 24.6572C62.8784 23.0704 63.0299 21.4046 62.8498 19.7583Z" fill="#8F98B7"/>
<path d="M100.562 30.5387C101.141 30.603 101.809 30.6416 102.606 30.6416C104.291 30.6416 105.628 30.2045 106.438 29.3945C107.248 28.5845 107.685 27.4402 107.685 26.0259C107.685 24.6245 107.235 23.6216 106.463 22.9145C105.705 22.2073 104.561 21.8345 102.953 21.8345C102.066 21.8345 101.256 21.9116 100.562 22.0145V30.5387ZM101.693 29.6773V22.8373C101.989 22.7859 102.426 22.7216 103.005 22.7216C105.371 22.7216 106.528 24.0202 106.515 26.0645C106.515 28.4045 105.216 29.7416 102.825 29.7416C102.388 29.7416 101.976 29.7287 101.693 29.6773ZM108.682 27.4787C108.682 29.4845 109.993 30.7059 111.639 30.7059C113.079 30.7059 114.763 29.7545 114.763 27.453C114.763 25.4602 113.529 24.2002 111.781 24.2002C110.096 24.2002 108.682 25.3959 108.682 27.4787ZM109.826 27.4787C109.826 26.373 110.328 25.0616 111.716 25.0616C113.105 25.0616 113.619 26.3859 113.619 27.4659C113.619 28.7259 112.951 29.8702 111.716 29.8702C110.469 29.8702 109.826 28.713 109.826 27.4787ZM117.28 30.5645H118.309L119.312 27.6073C119.53 26.9387 119.723 26.2959 119.878 25.5502H119.903C120.058 26.283 120.225 26.9002 120.456 27.5945L121.408 30.5645H122.423L124.442 24.3416H123.323L122.436 27.4659C122.23 28.1987 122.063 28.8545 121.96 29.4973H121.922C121.78 28.8545 121.6 28.1987 121.369 27.4659L120.405 24.3416H119.453L118.438 27.5173C118.232 28.1859 118.013 28.8545 117.885 29.4973H117.846C117.718 28.8545 117.563 28.1987 117.383 27.5045L116.548 24.3416H115.403L117.28 30.5645ZM125.567 30.5645H126.686V26.823C126.686 26.6302 126.725 26.4373 126.776 26.2959C126.982 25.653 127.547 25.1387 128.293 25.1387C129.347 25.1387 129.733 25.9745 129.733 26.9902V30.5645H130.852V26.8487C130.852 24.7273 129.515 24.2002 128.666 24.2002C127.637 24.2002 126.917 24.7916 126.609 25.3702H126.57L126.519 24.3416H125.516C125.542 24.8687 125.567 25.383 125.567 26.0259V30.5645ZM132.704 30.5645H133.823V21.4359H132.704V30.5645ZM135.278 27.4787C135.278 29.4845 136.589 30.7059 138.235 30.7059C139.675 30.7059 141.359 29.7545 141.359 27.453C141.359 25.4602 140.125 24.2002 138.376 24.2002C136.692 24.2002 135.278 25.3959 135.278 27.4787ZM136.422 27.4787C136.422 26.373 136.923 25.0616 138.312 25.0616C139.7 25.0616 140.215 26.3859 140.215 27.4659C140.215 28.7259 139.546 29.8702 138.312 29.8702C137.065 29.8702 136.422 28.713 136.422 27.4787ZM142.305 28.9187C142.305 29.8187 142.961 30.7059 144.208 30.7059C145.095 30.7059 145.764 30.2559 146.111 29.7802H146.137L146.24 30.5645H147.255C147.191 30.1402 147.165 29.613 147.165 29.073V26.7587C147.165 25.4987 146.703 24.2002 144.8 24.2002C144.028 24.2002 143.27 24.4187 142.743 24.753L143.013 25.4987C143.45 25.2159 144.054 25.0359 144.633 25.0359C145.893 25.0359 146.047 25.9616 146.047 26.4759V26.6173C143.643 26.5916 142.305 27.4145 142.305 28.9187ZM143.437 28.7902C143.437 27.5816 144.838 27.3759 146.073 27.3887V28.4816C146.073 28.5845 146.047 28.713 146.021 28.8287C145.828 29.3559 145.327 29.8702 144.504 29.8702C143.925 29.8702 143.437 29.5359 143.437 28.7902ZM148.549 27.543C148.549 29.433 149.706 30.7059 151.223 30.7059C152.226 30.7059 152.985 30.1916 153.319 29.4973H153.358L153.409 30.5645H154.412C154.386 30.1402 154.361 29.523 154.361 28.9702V21.4359H153.242V25.1516H153.216C152.933 24.6502 152.291 24.2002 151.339 24.2002C149.822 24.2002 148.536 25.473 148.549 27.543ZM149.693 27.4916C149.693 26.1287 150.388 25.1002 151.558 25.1002C152.406 25.1002 153.023 25.6787 153.191 26.3859C153.229 26.553 153.242 26.733 153.242 26.8745V27.9545C153.242 28.1345 153.229 28.2887 153.191 28.443C152.972 29.2916 152.291 29.8059 151.532 29.8059C150.311 29.8059 149.693 28.7516 149.693 27.4916ZM159.237 27.4787C159.237 29.4845 160.548 30.7059 162.194 30.7059C163.634 30.7059 165.318 29.7545 165.318 27.453C165.318 25.4602 164.084 24.2002 162.335 24.2002C160.651 24.2002 159.237 25.3959 159.237 27.4787ZM160.381 27.4787C160.381 26.373 160.882 25.0616 162.271 25.0616C163.659 25.0616 164.174 26.3859 164.174 27.4659C164.174 28.7259 163.505 29.8702 162.271 29.8702C161.024 29.8702 160.381 28.713 160.381 27.4787ZM166.753 30.5645H167.872V26.823C167.872 26.6302 167.91 26.4373 167.962 26.2959C168.167 25.653 168.733 25.1387 169.479 25.1387C170.533 25.1387 170.919 25.9745 170.919 26.9902V30.5645H172.037V26.8487C172.037 24.7273 170.7 24.2002 169.852 24.2002C168.823 24.2002 168.103 24.7916 167.794 25.3702H167.756L167.704 24.3416H166.702C166.727 24.8687 166.753 25.383 166.753 26.0259V30.5645Z" fill="#8F98B7"/>
<path d="M100.011 64.9194H103.848L105.013 60.718H109.701L110.963 64.9194H114.971L109.871 48.5509H105.013L100.011 64.9194ZM105.548 57.9737L106.519 54.4766C106.762 53.5537 107.029 52.2909 107.248 51.3437H107.321C107.563 52.2909 107.855 53.5051 108.146 54.4766L109.142 57.9737H105.548ZM120.542 63.8266H120.591C121.101 64.628 122.242 65.1866 123.675 65.1866C126.322 65.1866 129.091 63.1466 129.091 58.8237C129.091 55.0351 126.735 52.7766 124.136 52.7766C122.412 52.7766 121.076 53.4323 120.178 54.6951H120.129L119.959 53.0437H116.729C116.778 54.1609 116.826 55.4723 116.826 57.0266V69.728H120.542V63.8266ZM120.615 60.5966C120.566 60.378 120.542 60.1109 120.542 59.8194V58.1923C120.542 57.9737 120.566 57.7309 120.615 57.5366C120.858 56.468 121.781 55.6666 122.825 55.6666C124.476 55.6666 125.326 57.0994 125.326 58.9937C125.326 61.0094 124.379 62.3694 122.776 62.3694C121.708 62.3694 120.858 61.5923 120.615 60.5966ZM135.052 63.8266H135.1C135.61 64.628 136.752 65.1866 138.185 65.1866C140.832 65.1866 143.6 63.1466 143.6 58.8237C143.6 55.0351 141.245 52.7766 138.646 52.7766C136.922 52.7766 135.586 53.4323 134.687 54.6951H134.639L134.469 53.0437H131.239C131.287 54.1609 131.336 55.4723 131.336 57.0266V69.728H135.052V63.8266ZM135.125 60.5966C135.076 60.378 135.052 60.1109 135.052 59.8194V58.1923C135.052 57.9737 135.076 57.7309 135.125 57.5366C135.367 56.468 136.29 55.6666 137.335 55.6666C138.986 55.6666 139.836 57.0994 139.836 58.9937C139.836 61.0094 138.889 62.3694 137.286 62.3694C136.217 62.3694 135.367 61.5923 135.125 60.5966ZM151.237 64.1666C152.16 64.6766 154.006 65.1866 155.876 65.1866C160.393 65.1866 162.457 62.8309 162.457 60.0866C162.457 57.7794 161.121 56.2737 158.231 55.2051C156.118 54.4037 155.196 53.918 155.196 52.898C155.196 52.0723 155.973 51.3194 157.576 51.3194C159.178 51.3194 160.344 51.8051 161 52.0966L161.801 49.1094C160.854 48.6723 159.518 48.308 157.624 48.308C153.787 48.308 151.431 50.4209 151.431 53.2137C151.431 55.618 153.228 57.0751 155.973 58.0709C157.916 58.7509 158.693 59.358 158.693 60.3537C158.693 61.4223 157.794 62.1266 156.094 62.1266C154.516 62.1266 152.961 61.6166 151.99 61.1066L151.237 64.1666ZM166.235 64.1423C166.842 64.7737 167.838 65.1866 169.052 65.1866C170.072 65.1866 170.947 65.0166 171.432 64.8466L171.408 62.0294C171.141 62.1023 170.777 62.1509 170.291 62.1509C169.198 62.1509 168.858 61.4951 168.858 60.0623V55.7637H171.505V53.0437H168.858V49.6437L165.239 50.4937V53.0437H163.637V55.7637H165.239V60.6209C165.239 62.3209 165.555 63.438 166.235 64.1423ZM172.815 58.9937C172.815 62.9037 175.462 65.1866 178.862 65.1866C181.825 65.1866 185.225 63.4137 185.225 58.9694C185.225 55.1566 182.724 52.7766 179.154 52.7766C175.657 52.7766 172.815 54.9866 172.815 58.9937ZM176.628 58.9937C176.628 57.3423 177.211 55.3994 179.032 55.3994C180.829 55.3994 181.412 57.3423 181.412 59.018C181.412 60.9609 180.635 62.5394 179.032 62.5394C177.405 62.5394 176.628 60.888 176.628 58.9937ZM187.449 64.9194H191.165V58.8966C191.165 58.6294 191.189 58.3137 191.238 58.0709C191.481 56.9294 192.428 56.2009 193.764 56.2009C194.176 56.2009 194.492 56.2494 194.784 56.298V52.8251C194.492 52.7766 194.322 52.7766 193.982 52.7766C192.816 52.7766 191.384 53.4809 190.776 55.2294H190.679L190.534 53.0437H187.352C187.425 54.0637 187.449 55.2051 187.449 56.9537V64.9194ZM195.792 59.1151C195.792 62.8309 198.099 65.1866 202.13 65.1866C203.709 65.1866 205.215 64.9194 206.429 64.4337L205.943 61.908C204.923 62.248 203.927 62.418 202.665 62.418C200.94 62.418 199.435 61.6894 199.313 60.1594H206.963C207.012 59.8923 207.109 59.358 207.109 58.7023C207.109 55.7637 205.627 52.7766 201.79 52.7766C197.662 52.7766 195.792 56.1037 195.792 59.1151ZM199.289 57.6337C199.386 56.6623 200.017 55.2294 201.572 55.2294C203.247 55.2294 203.66 56.7594 203.66 57.6337H199.289Z" fill="#8F98B7"/>
</svg>
