<svg width="309" height="99" viewBox="0 0 309 99" fill="none" xmlns="http://www.w3.org/2000/svg">
<path d="M295.85 0.884277H12.3272C5.9446 0.884277 0.770508 6.8205 0.770508 14.1432V84.8575C0.770508 92.1802 5.9446 98.1164 12.3272 98.1164H295.85C302.233 98.1164 307.407 92.1802 307.407 84.8575V14.1432C307.407 6.8205 302.233 0.884277 295.85 0.884277Z" stroke="#8F98B7"/>
<path d="M28.7422 24.2132V73.8387C28.7425 73.9463 28.7746 74.0513 28.8345 74.1408C28.8943 74.2302 28.9792 74.2999 29.0785 74.3413C29.1778 74.3826 29.2871 74.3937 29.3927 74.3732C29.4983 74.3527 29.5955 74.3014 29.6721 74.2259L55.5111 49.0268L29.6721 23.826C29.5955 23.7505 29.4983 23.6992 29.3927 23.6787C29.2871 23.6581 29.1778 23.6693 29.0785 23.7106C28.9792 23.7519 28.8943 23.8217 28.8345 23.9111C28.7746 24.0005 28.7425 24.1056 28.7422 24.2132ZM66.3463 38.6725L33.9468 20.8224L33.9273 20.8118C33.8103 20.7562 33.6775 20.7434 33.5521 20.7759C33.4267 20.8084 33.3167 20.8839 33.2414 20.9894C33.1661 21.0948 33.1304 21.2234 33.1404 21.3525C33.1504 21.4817 33.2056 21.6032 33.2962 21.6957L58.6915 45.9879L66.3463 38.6725ZM33.298 76.3526C33.2073 76.4452 33.1522 76.5667 33.1422 76.6958C33.1321 76.825 33.1679 76.9535 33.2432 77.059C33.3185 77.1644 33.4284 77.24 33.5539 77.2724C33.6793 77.3049 33.8121 77.2922 33.9291 77.2365L33.9485 77.2259L66.3463 59.3829L58.6915 52.0587L33.298 76.3526ZM79.4284 45.8712L70.377 40.8876L61.8701 49.0197L70.377 57.1519L79.4284 52.1842C79.9883 51.869 80.4543 51.4106 80.7786 50.8559C81.1028 50.3012 81.2737 49.6702 81.2737 49.0277C81.2737 48.3852 81.1028 47.7542 80.7786 47.1995C80.4543 46.6448 79.9883 46.1864 79.4284 45.8712Z" fill="#8F98B7"/>
<path d="M103.865 30.5102C104.713 31.3202 105.793 31.6545 107.105 31.6545C108.275 31.6545 109.265 31.3716 109.766 31.1787V27.013H106.912V27.913H108.661V30.4973C108.403 30.6259 107.915 30.7287 107.182 30.7287C105.151 30.7287 103.839 29.4302 103.839 27.2316C103.839 25.0587 105.215 23.7473 107.323 23.7473C108.198 23.7473 108.776 23.9145 109.239 24.1202L109.509 23.2073C109.136 23.0402 108.339 22.8087 107.349 22.8087C104.443 22.8087 102.656 24.7116 102.656 27.283C102.656 28.633 103.119 29.7902 103.865 30.5102ZM111.067 28.5687C111.067 30.433 112.211 31.7059 114.127 31.7059C115.104 31.7059 115.811 31.4873 116.197 31.3073L116.004 30.4973C115.58 30.6773 115.091 30.8187 114.268 30.8187C113.137 30.8187 112.172 30.1887 112.147 28.6587H116.505C116.544 28.5302 116.557 28.3759 116.557 28.1316C116.557 26.9873 116.017 25.2002 113.998 25.2002C112.172 25.2002 111.067 26.6787 111.067 28.5687ZM112.16 27.8487C112.25 27.0645 112.751 26.023 113.895 26.023C115.168 26.023 115.477 27.1416 115.464 27.8487H112.16ZM118.632 31.2302C118.902 31.5387 119.339 31.7059 119.866 31.7059C120.303 31.7059 120.65 31.6287 120.869 31.5387L120.817 30.6773C120.663 30.7287 120.457 30.7673 120.162 30.7673C119.532 30.7673 119.313 30.3302 119.313 29.5587V26.203H120.933V25.3416H119.313V23.5545L118.195 23.8502V25.3416H117.23V26.203H118.195V29.5973C118.195 30.3302 118.323 30.8702 118.632 31.2302ZM125.658 31.5645H126.789V22.8987H125.658V31.5645ZM128.831 31.5645H129.95V27.823C129.95 27.6302 129.988 27.4373 130.04 27.2959C130.245 26.653 130.811 26.1387 131.557 26.1387C132.611 26.1387 132.997 26.9745 132.997 27.9902V31.5645H134.115V27.8487C134.115 25.7273 132.778 25.2002 131.93 25.2002C130.901 25.2002 130.181 25.7916 129.873 26.3702H129.834L129.783 25.3416H128.78C128.805 25.8687 128.831 26.383 128.831 27.0259V31.5645Z" fill="#8F98B7"/>
<path d="M105.351 63.9037C106.856 65.3366 109.018 66.0894 112.005 66.0894C114.166 66.0894 116.328 65.5794 117.469 65.1666V56.5451H111.373V59.4351H113.875V62.8594C113.583 63.0051 112.903 63.1023 112.078 63.1023C109.066 63.1023 106.905 61.1109 106.905 57.7351C106.905 54.1651 109.261 52.4409 112.369 52.4409C114.142 52.4409 115.259 52.7566 116.158 53.1451L116.935 50.158C116.133 49.7937 114.506 49.3809 112.393 49.3809C107.026 49.3809 103.043 52.4894 103.043 57.9294C103.019 60.3337 103.845 62.4709 105.351 63.9037ZM119.729 59.9937C119.729 63.9037 122.376 66.1866 125.776 66.1866C128.739 66.1866 132.139 64.4137 132.139 59.9694C132.139 56.1566 129.638 53.7766 126.068 53.7766C122.571 53.7766 119.729 55.9866 119.729 59.9937ZM123.542 59.9937C123.542 58.3423 124.125 56.3994 125.946 56.3994C127.743 56.3994 128.326 58.3423 128.326 60.018C128.326 61.9609 127.549 63.5394 125.946 63.5394C124.319 63.5394 123.542 61.888 123.542 59.9937ZM133.774 59.9937C133.774 63.9037 136.421 66.1866 139.821 66.1866C142.784 66.1866 146.184 64.4137 146.184 59.9694C146.184 56.1566 143.683 53.7766 140.113 53.7766C136.616 53.7766 133.774 55.9866 133.774 59.9937ZM137.587 59.9937C137.587 58.3423 138.17 56.3994 139.991 56.3994C141.788 56.3994 142.371 58.3423 142.371 60.018C142.371 61.9609 141.594 63.5394 139.991 63.5394C138.364 63.5394 137.587 61.888 137.587 59.9937ZM149.568 67.3037L148.839 70.0966C149.908 70.6794 151.535 70.9951 153.113 70.9951C154.862 70.9951 156.635 70.6794 157.922 69.538C159.282 68.348 159.743 66.478 159.743 64.1951V57.5894C159.743 55.8166 159.792 54.8209 159.84 54.0437H156.635L156.513 55.4523H156.465C155.858 54.4809 154.838 53.7766 153.21 53.7766C150.272 53.7766 147.819 56.1809 147.819 60.0423C147.819 63.418 149.908 65.8223 152.846 65.8223C154.206 65.8223 155.348 65.2637 156.052 64.268H156.1V65.0451C156.1 67.2551 154.765 68.178 153.016 68.178C151.608 68.178 150.32 67.7166 149.568 67.3037ZM151.583 59.9451C151.583 57.7837 152.652 56.5694 153.988 56.5694C155.008 56.5694 155.712 57.2251 155.979 58.1966C156.028 58.3909 156.052 58.6337 156.052 58.9009V60.6251C156.052 60.9409 156.003 61.3294 155.955 61.6209C155.688 62.4709 154.935 63.1023 153.988 63.1023C152.433 63.1023 151.583 61.718 151.583 59.9451ZM162.652 65.9194H166.368V48.6766H162.652V65.9194ZM168.637 60.1151C168.637 63.8309 170.945 66.1866 174.976 66.1866C176.555 66.1866 178.06 65.9194 179.275 65.4337L178.789 62.908C177.769 63.248 176.773 63.418 175.51 63.418C173.786 63.418 172.28 62.6894 172.159 61.1594H179.809C179.857 60.8923 179.955 60.358 179.955 59.7023C179.955 56.7637 178.473 53.7766 174.636 53.7766C170.507 53.7766 168.637 57.1037 168.637 60.1151ZM172.135 58.6337C172.232 57.6623 172.863 56.2294 174.417 56.2294C176.093 56.2294 176.506 57.7594 176.506 58.6337H172.135ZM188.132 65.9194H191.799V60.0909C192.139 60.1151 192.576 60.1637 193.086 60.1637C195.248 60.1637 197.118 59.6051 198.381 58.4151C199.352 57.5166 199.886 56.1566 199.886 54.5537C199.886 52.9266 199.182 51.5666 198.138 50.7651C197.045 49.8666 195.394 49.4294 193.135 49.4294C190.925 49.4294 189.274 49.5751 188.132 49.7694V65.9194ZM191.799 57.2251V52.3437C192.066 52.2709 192.552 52.2466 193.305 52.2466C195.175 52.2466 196.195 53.1451 196.195 54.6509C196.195 56.3023 194.981 57.298 193.038 57.298C192.504 57.298 192.091 57.2737 191.799 57.2251ZM202.065 65.9194H205.78V48.6766H202.065V65.9194ZM207.952 62.568C207.952 64.4623 209.385 66.1866 211.789 66.1866C213.198 66.1866 214.412 65.6766 215.189 64.7537H215.262L215.481 65.9194H218.808C218.687 65.2394 218.614 64.1709 218.614 63.0294V58.9009C218.614 56.108 217.375 53.7766 213.417 53.7766C211.255 53.7766 209.628 54.3594 208.802 54.8451L209.482 57.2009C210.284 56.7394 211.522 56.3023 212.737 56.3023C214.582 56.3023 214.922 57.2009 214.922 57.8323V58.0023C210.721 58.0023 207.952 59.4594 207.952 62.568ZM211.595 62.1794C211.595 60.7709 213.077 60.3094 215.044 60.2851V61.6209C215.044 61.8151 215.044 62.058 214.971 62.228C214.728 62.9809 213.975 63.588 213.077 63.588C212.227 63.588 211.595 63.1266 211.595 62.1794ZM222.704 67.5223C222.121 67.8623 221.563 68.0566 221.101 68.178L221.878 71.2866C222.801 71.1651 224.186 70.7766 225.448 69.6594C226.784 68.4694 227.926 66.5751 229.626 61.8637L232.394 54.0437H228.436L226.978 59.8723C226.808 60.5523 226.614 61.4509 226.468 62.0823H226.371C226.201 61.4509 225.983 60.5766 225.788 59.8723L224.016 54.0437H219.911L224.258 64.9237C224.404 65.1909 224.428 65.3851 224.428 65.5309C224.428 65.6766 224.356 65.8709 224.21 66.0409C223.894 66.648 223.263 67.2309 222.704 67.5223Z" fill="#8F98B7"/>
</svg>
