<svg width="1472" height="1206" viewBox="0 0 1472 1206" fill="none" xmlns="http://www.w3.org/2000/svg">
<path d="M16 998.698H1456V1158.95C1456 1158.95 1244.51 1206.74 1033.48 1195.92C713.39 1179.53 718.108 1104.71 393.766 1072.53C209.37 1054.23 16 1158.95 16 1158.95V998.698Z" fill="#DFE9FF"/>
<path d="M16 998.698H1456V1158.95C1456 1158.95 1244.51 1206.74 1033.48 1195.92C713.39 1179.53 718.108 1104.71 393.766 1072.53C209.37 1054.23 16 1158.95 16 1158.95V998.698Z" fill="#1D1E4F"/>
<g filter="url(#filter0_d_1080_106)">
<path d="M16 991H1456V1119.25C1456 1119.25 1244.51 1199.04 1033.48 1188.23C713.39 1171.83 718.108 1081.02 393.766 1048.83C209.37 1030.53 16 1119.25 16 1119.25V991Z" fill="#DEE8FF"/>
<path d="M16 991H1456V1119.25C1456 1119.25 1244.51 1199.04 1033.48 1188.23C713.39 1171.83 718.108 1081.02 393.766 1048.83C209.37 1030.53 16 1119.25 16 1119.25V991Z" fill="#181942"/>
</g>
<path d="M18 246.818H1458V86.5684C1458 86.5684 1246.51 38.78 1035.48 49.5918C715.39 65.9909 720.108 140.802 395.766 172.99C211.37 191.29 18 86.5684 18 86.5684V246.818Z" fill="#DFE9FF"/>
<path d="M18 246.818H1458V86.5684C1458 86.5684 1246.51 38.78 1035.48 49.5918C715.39 65.9909 720.108 140.802 395.766 172.99C211.37 191.29 18 86.5684 18 86.5684V246.818Z" fill="#1D1E4F"/>
<path d="M18 198.517H1458V70.2668C1458 70.2668 1246.51 -9.52154 1035.48 1.29028C715.39 17.6894 720.108 108.5 395.766 140.689C211.37 158.989 18 70.2668 18 70.2668V198.517Z" fill="#DEE8FF"/>
<path d="M18 198.517H1458V70.2668C1458 70.2668 1246.51 -9.52154 1035.48 1.29028C715.39 17.6894 720.108 108.5 395.766 140.689C211.37 158.989 18 70.2668 18 70.2668V198.517Z" fill="#181942"/>
<path d="M18 1044.93H1458V164.93C1458 164.93 1246.51 53.1415 1035.48 63.9534C715.39 80.3525 720.108 187.163 395.766 219.352C211.37 237.652 18 164.93 18 164.93V1044.93Z" fill="#D7E2FC"/>
<path d="M18 1044.93H1458V164.93C1458 164.93 1246.51 53.1415 1035.48 63.9534C715.39 80.3525 720.108 187.163 395.766 219.352C211.37 237.652 18 164.93 18 164.93V1044.93Z" fill="#1D1E4F"/>
<defs>
<filter id="filter0_d_1080_106" x="0" y="975" width="1472" height="230.234" filterUnits="userSpaceOnUse" color-interpolation-filters="sRGB">
<feFlood flood-opacity="0" result="BackgroundImageFix"/>
<feColorMatrix in="SourceAlpha" type="matrix" values="0 0 0 0 0 0 0 0 0 0 0 0 0 0 0 0 0 0 127 0" result="hardAlpha"/>
<feOffset/>
<feGaussianBlur stdDeviation="8"/>
<feColorMatrix type="matrix" values="0 0 0 0 0 0 0 0 0 0.054902 0 0 0 0 0.188235 0 0 0 0.16 0"/>
<feBlend mode="normal" in2="BackgroundImageFix" result="effect1_dropShadow_1080_106"/>
<feBlend mode="normal" in="SourceGraphic" in2="effect1_dropShadow_1080_106" result="shape"/>
</filter>
</defs>
</svg>
