<svg width="1162" height="485" viewBox="0 0 1162 485" fill="none" xmlns="http://www.w3.org/2000/svg">
<g clip-path="url(#clip0_1289_76)">
<path style="mix-blend-mode:screen" opacity="0.85" fill-rule="evenodd" clip-rule="evenodd" d="M0.658203 393.511C0.658203 393.511 31.9059 222.955 110.774 199.563C189.642 176.171 287.969 326.745 322.548 327.519C357.127 328.294 381.234 252.233 415.516 247.482C449.798 242.731 486.288 298.499 512.965 298.628C539.642 298.758 545 266.588 566.758 266.046C588.515 265.503 593.873 297.312 611.731 299.997C629.589 302.682 643.947 182.768 730.007 168.645C816.068 154.523 819.631 331.547 869.757 334.168C890.042 335.226 951.62 244.41 1032.45 234.65C1113.28 224.891 1161.44 421.563 1161.44 421.563V475.963C1161.44 475.963 966.495 358.501 562.264 358.501C158.033 358.501 0.658203 451.797 0.658203 451.797V393.511Z" fill="url(#paint0_linear_1289_76)"/>
<path d="M1160.77 421.628C1160.64 421.137 1148.47 371.953 1126.59 324.615C1106.45 281.046 1073.81 230.21 1032.48 235.205C980.609 241.466 937.456 282.337 908.894 309.446C892.47 325.015 880.59 336.311 873.127 335.859C849.02 334.568 834.855 299.855 819.877 263.064C800.431 215.299 778.39 161.261 730.111 169.188C672.638 178.624 646.84 236.612 631.422 271.261C623.326 289.463 618.007 301.507 611.628 300.539C603.196 299.248 597.657 291.941 591.769 284.183C585.119 275.392 578.211 266.265 566.771 266.601C556.802 266.846 550.32 273.972 543.464 281.524C535.575 290.212 527.414 299.184 513.133 299.184H512.952C500.776 299.119 486.741 287.785 471.866 275.792C453.375 260.869 434.252 245.429 415.607 248.037C399.312 250.309 384.992 269.428 371.15 287.914C356.34 307.678 341.026 328.113 323.039 328.113H322.535C309.765 327.842 289.105 308.155 263.023 283.215C219.857 241.905 160.758 185.44 110.955 200.183C70.4751 212.162 42.8171 264.07 26.7542 305.574C15.8357 334.167 7.31857 363.62 1.29123 393.628L0 393.395C6.04313 363.291 14.5862 333.742 25.5404 305.057C41.7195 263.348 69.5971 211.078 110.593 198.943C161.119 183.994 218.088 238.446 263.914 282.337C288.77 306.09 310.23 326.616 322.561 326.874H323.039C340.38 326.874 355.487 306.71 370.117 287.191C384.114 268.498 398.601 249.16 415.426 246.811C434.627 244.139 453.969 259.72 472.679 274.837C487.36 286.687 501.241 297.88 512.965 297.944H513.12C526.846 297.944 534.8 289.179 542.509 280.71C549.559 272.965 556.221 265.62 566.745 265.361C578.882 265.039 585.958 274.398 592.802 283.434C598.522 290.973 603.906 298.099 611.822 299.287C617.154 300.113 622.668 287.798 630.247 270.77C645.742 235.915 671.747 177.488 729.904 167.935C779.19 159.854 801.451 214.409 821.065 262.612C835.901 299.003 849.898 333.393 873.192 334.594H873.514C880.5 334.594 892.663 323.066 908.003 308.53C936.681 281.33 980.028 240.253 1032.32 233.94C1050.97 231.694 1069.41 240.201 1087.11 259.229C1101.21 274.385 1114.88 296.202 1127.78 324.098C1149.73 371.553 1161.91 420.84 1162.03 421.331L1160.77 421.628Z" fill="url(#paint1_radial_1289_76)"/>
<path style="mix-blend-mode:screen" opacity="0.2" d="M562.239 466.449C745.704 466.449 894.432 440.278 894.432 407.995C894.432 375.713 745.704 349.542 562.239 349.542C378.773 349.542 230.045 375.713 230.045 407.995C230.045 440.278 378.773 466.449 562.239 466.449Z" fill="url(#paint2_radial_1289_76)"/>
<path style="mix-blend-mode:screen" opacity="0.2" d="M562.238 457.515C717.663 457.515 843.661 435.344 843.661 407.995C843.661 380.646 717.663 358.475 562.238 358.475C406.813 358.475 280.815 380.646 280.815 407.995C280.815 435.344 406.813 457.515 562.238 457.515Z" fill="url(#paint3_radial_1289_76)"/>
<g opacity="0.8">
<g opacity="0.5">
<path opacity="0.5" d="M514.876 421.395C485.63 418.465 466.959 413.237 464.944 407.402L490.498 407.143C491.996 411.481 505.889 415.367 527.672 417.548L514.876 421.395ZM619.995 420.84L605.882 417.135C626.838 414.734 639.35 410.681 639.35 406.356H664.942C664.942 412.204 648.144 417.613 619.995 420.84ZM527.478 395.164L514.566 391.291C529.764 389.755 547.131 388.941 564.795 388.941C580.457 388.941 595.461 389.561 609.407 390.762L597.979 394.738C587.65 393.847 576.455 393.382 564.795 393.382C551.702 393.421 538.777 394.028 527.478 395.164Z" fill="#1B60F6"/>
</g>
<path opacity="0.8" d="M564.86 429.502C491.389 429.502 431.631 419.175 431.631 406.394C431.631 393.614 491.389 383.274 564.86 383.274C638.33 383.274 698.075 393.601 698.075 406.394C698.075 419.187 638.317 429.502 564.86 429.502ZM564.86 383.455C491.944 383.455 432.638 393.782 432.638 406.394C432.638 419.007 491.944 429.334 564.86 429.334C637.775 429.334 697.133 418.994 697.133 406.356C697.133 393.718 637.736 383.416 564.86 383.416V383.455Z" fill="#1B60F6"/>
<path opacity="0.8" d="M564.86 416.593C532.489 416.593 506.161 412.023 506.161 406.407C506.161 400.792 532.489 396.222 564.86 396.222C597.231 396.222 623.533 400.74 623.533 406.356C623.533 411.971 597.218 416.593 564.86 416.593ZM564.86 396.39C533.044 396.39 507.168 400.882 507.168 406.407C507.168 411.933 532.993 416.412 564.86 416.412C596.728 416.412 622.539 411.92 622.539 406.407C622.539 400.895 596.663 396.338 564.86 396.338V396.39Z" fill="#1B60F6"/>
<g opacity="0.5">
<path opacity="0.5" d="M564.859 442.553C509.13 442.553 456.745 438.784 417.337 431.942C377.929 425.1 356.249 416.025 356.249 406.356C356.249 396.687 377.942 387.586 417.35 380.757C456.758 373.928 509.13 370.12 564.859 370.12C620.589 370.12 672.974 373.876 712.369 380.718C751.764 387.56 773.47 396.648 773.47 406.317C773.47 415.986 751.777 425.074 712.369 431.903C672.961 438.732 620.576 442.553 564.859 442.553ZM564.859 370.262C450.186 370.262 356.972 386.437 356.972 406.343C356.972 426.249 450.186 442.411 564.859 442.411C679.533 442.411 772.747 426.223 772.747 406.33C772.747 386.437 679.52 370.275 564.859 370.275V370.262Z" fill="#1B60F6"/>
</g>
<g opacity="0.5">
<path opacity="0.5" d="M564.86 444.993C441.909 444.993 341.891 427.643 341.891 406.265C341.891 384.888 441.909 367.538 564.86 367.538C687.81 367.538 787.828 384.888 787.828 406.265C787.828 427.643 687.797 444.993 564.86 444.993ZM564.86 368.829C445.628 368.829 348.618 385.611 348.618 406.356C348.618 427.101 445.628 443.87 564.86 443.87C684.091 443.87 781.062 427.036 781.062 406.356C781.062 385.675 684.091 368.829 564.86 368.829Z" fill="#1B60F6"/>
</g>
<g style="mix-blend-mode:soft-light" opacity="0.8">
<g style="mix-blend-mode:soft-light" opacity="0.8">
<path d="M564.86 427.772C559.605 427.772 554.324 427.708 549.146 427.605L550.166 426.21C555.008 426.314 559.954 426.365 564.86 426.365C588.913 426.515 612.949 425.058 636.807 422.002L641.856 423.099C616.324 426.374 590.601 427.935 564.86 427.772ZM537.461 427.243C505.18 425.952 476.657 422.415 459.328 417.471L466.236 416.748C482.428 421.357 509.041 424.687 539.242 425.875L537.461 427.243ZM650.766 421.757L645.136 420.75C667.758 416.942 680.218 411.842 680.218 406.382H688.301C688.301 412.204 674.976 417.665 650.766 421.757ZM453.66 415.689C445.525 412.772 441.406 409.635 441.406 406.382C441.406 403.8 443.989 401.36 448.921 398.998L456.514 399.488C451.852 401.683 449.489 404.007 449.489 406.382C449.489 409.428 453.363 412.359 460.942 415.083L453.66 415.689ZM679.624 404.407C676.616 399.062 660.928 394.079 636.562 390.697L641.598 389.6C667.668 393.202 684.454 398.546 687.669 404.278L679.624 404.407ZM460.839 397.681L453.557 397.074C467.967 391.911 494.295 387.844 525.788 386.024L528.37 387.315C498.905 389.058 474.294 392.827 460.839 397.681ZM627.627 389.548C606.783 387.331 585.834 386.258 564.873 386.334C556.145 386.334 547.442 386.502 539.049 386.837L537.241 385.469C546.28 385.107 555.563 384.927 564.899 384.927C587.326 384.853 609.741 386.003 632.043 388.373L627.627 389.548Z" fill="#1B60F6"/>
</g>
</g>
<path opacity="0.8" d="M514.902 421.563C485.591 418.62 466.869 413.353 464.828 407.453L464.751 407.247H464.983L490.653 406.975V407.079C492.125 411.365 505.967 415.225 527.698 417.406L528.499 417.484L514.902 421.563ZM465.177 407.556C467.54 413.249 486.056 418.349 514.863 421.24L526.859 417.639C505.644 415.444 492.073 411.597 490.382 407.311L465.177 407.556ZM619.982 421.008L605.043 417.135L605.895 417.032C626.761 414.644 639.208 410.668 639.208 406.407V406.201H665.11V406.407C665.11 412.346 648.247 417.819 620.021 421.059L619.982 421.008ZM606.747 417.2L620.008 420.685C647.86 417.484 664.555 412.178 664.775 406.485H639.505C639.299 410.81 627.11 414.799 606.747 417.2ZM527.466 395.331L513.779 391.252L514.579 391.162C529.79 389.638 547.17 388.825 564.834 388.825C580.509 388.825 595.526 389.432 609.472 390.645L610.22 390.71L598.057 394.944C587.727 394.053 576.545 393.653 564.886 393.653C551.715 393.653 538.803 394.247 527.517 395.396L527.466 395.331ZM515.445 391.459L527.492 395.06C538.777 393.911 551.702 393.318 564.847 393.318C576.468 393.318 587.676 393.769 598.031 394.608L608.697 390.891C594.984 389.729 580.29 389.148 564.86 389.148C547.506 389.148 530.449 389.922 515.445 391.407V391.459Z" fill="#1B60F6"/>
<g opacity="0.71">
<path opacity="0.71" d="M590.22 449.421L589.135 447.562C622.927 446.969 654.988 445.174 684.299 442.218L689.709 443.844C659.004 446.93 625.535 448.866 590.22 449.421ZM440.244 443.857C409.978 440.837 383.146 436.628 362.616 431.71L371.344 430.613C390.984 435.324 416.679 439.339 445.628 442.231L440.244 443.857ZM792.516 424.093L782.69 423.319C796.558 417.974 803.582 412.269 803.582 406.356V406.266H814.364V406.356C814.364 412.527 807.004 418.504 792.516 424.093ZM326.125 406.395H315.344C315.344 400.224 322.665 394.273 337.088 388.696L346.914 389.458C333.124 394.789 326.125 400.495 326.125 406.395ZM758.208 382.048C738.53 377.349 712.822 373.334 683.847 370.43L689.231 368.816C719.51 371.837 746.381 376.032 766.924 380.951L758.208 382.048ZM445.177 370.507L439.766 368.829C470.446 365.744 503.901 363.859 539.191 363.239L540.288 365.098C506.536 365.744 474.526 367.538 445.177 370.507Z" fill="#1B60F6"/>
</g>
<path opacity="0.8" d="M564.976 432.084H563.917V431.619H569.301L569.379 432.084H564.976ZM551.767 431.981L546.382 431.89L546.718 431.426L551.999 431.516L551.767 431.981ZM581.465 431.981L581.168 431.516L586.436 431.387L586.836 431.852L581.465 431.981ZM534.374 431.593L529.093 431.387L529.751 430.922L534.916 431.129L534.374 431.593ZM598.793 431.464L598.173 431L603.338 430.78L604.048 431.232L598.793 431.464ZM517.446 430.793L512.281 430.47L513.236 430.031L518.246 430.354L517.446 430.793ZM615.657 430.586L614.74 430.148L619.698 429.812L620.705 430.251L615.657 430.586ZM501.125 429.644C499.498 429.515 497.871 429.373 496.283 429.218L497.574 428.805L502.339 429.218L501.125 429.644ZM631.784 429.373L630.57 428.96L635.257 428.534L636.549 428.934L631.784 429.373ZM485.72 428.172L481.201 427.656L482.725 427.269C484.184 427.437 485.682 427.617 487.167 427.772L485.72 428.172ZM646.956 427.837L645.458 427.45L649.822 426.933L651.398 427.308L646.956 427.837ZM471.439 426.391L467.295 425.784L469.077 425.436L473.144 426.03L471.439 426.391ZM660.991 426.004L659.235 425.655L663.225 425.036L665.033 425.384C663.677 425.552 662.27 425.771 660.979 425.965L660.991 426.004ZM458.437 424.338L454.744 423.654L456.745 423.344C457.92 423.577 459.134 423.796 460.374 424.016L458.437 424.338ZM673.645 423.912L671.67 423.59L675.221 422.906L677.261 423.215L673.645 423.912ZM446.958 422.041L443.743 421.279L445.951 421.008C446.958 421.266 448.017 421.511 449.088 421.757L446.958 422.041ZM684.827 421.55L682.645 421.279L685.706 420.53L687.939 420.788C686.932 420.995 685.886 421.253 684.827 421.498V421.55ZM437.119 419.51L434.446 418.697L436.822 418.478L439.404 419.278L437.119 419.51ZM694.331 418.981L691.981 418.762L694.563 417.948L696.965 418.155C696.087 418.387 695.222 418.658 694.331 418.929V418.981ZM429.074 416.748C428.364 416.464 427.654 416.18 426.983 415.883L429.488 415.715L431.541 416.567L429.074 416.748ZM702.014 416.193L699.522 416.012C700.206 415.728 700.813 415.431 701.471 415.147L704.054 415.315L702.014 416.193ZM422.941 413.895C422.412 413.598 421.921 413.288 421.456 412.991L424.039 412.875C424.491 413.172 424.981 413.469 425.498 413.753L422.941 413.895ZM707.76 413.301L705.177 413.185C705.642 412.888 706.094 412.591 706.468 412.281L709.051 412.397C708.754 412.72 708.237 413.004 707.76 413.301ZM418.809 410.926C418.508 410.637 418.223 410.331 417.957 410.009L420.617 409.932C420.884 410.253 421.168 410.559 421.469 410.848L418.809 410.926ZM711.478 410.319L708.818 410.254C709.079 409.968 709.316 409.662 709.529 409.338H712.214C711.987 409.678 711.741 410.005 711.478 410.319ZM416.743 407.905C416.64 407.598 416.562 407.283 416.511 406.963H419.209C419.252 407.279 419.325 407.59 419.429 407.892L416.743 407.905ZM713.144 407.285H710.445C710.508 406.984 710.538 406.677 710.536 406.369V406.265H713.234C713.243 406.608 713.212 406.95 713.144 407.285ZM419.403 404.884H416.717C416.825 404.558 416.964 404.242 417.131 403.942H419.803C419.645 404.245 419.511 404.56 419.403 404.884ZM710.045 404.226C709.896 403.905 709.719 403.599 709.516 403.309H712.189C712.391 403.606 712.572 403.916 712.731 404.239L710.045 404.226ZM421.417 401.902L418.835 401.825C419.166 401.5 419.515 401.194 419.881 400.908L422.463 400.999C422.102 401.295 421.714 401.605 421.404 401.902H421.417ZM707.605 401.257C707.243 400.955 706.856 400.659 706.443 400.366L709.025 400.25C709.451 400.56 709.839 400.869 710.2 401.166L707.605 401.257ZM425.446 398.998L422.864 398.856C423.393 398.559 423.961 398.262 424.542 397.965L427.125 398.12C426.505 398.404 425.975 398.701 425.433 398.998H425.446ZM703.15 398.365C702.582 398.068 701.975 397.784 701.368 397.5L703.951 397.332C704.57 397.629 705.177 397.926 705.745 398.223L703.15 398.365ZM431.437 396.183L428.984 395.99L431.257 395.138L433.671 395.344C432.896 395.615 432.147 395.938 431.424 396.183H431.437ZM696.733 395.59C695.984 395.318 695.196 395.034 694.383 394.763L696.784 394.557C697.598 394.828 698.411 395.112 699.173 395.396L696.733 395.59ZM439.327 393.511L437.002 393.279C437.919 393.008 438.875 392.737 439.843 392.478L442.116 392.737L439.327 393.511ZM688.533 392.969C687.604 392.711 686.622 392.44 685.641 392.194L687.875 391.936C688.869 392.181 689.863 392.453 690.819 392.711L688.533 392.969ZM448.959 391.033L446.816 390.749C447.913 390.503 449.05 390.245 450.173 390.013L452.265 390.31C451.141 390.542 450.031 390.774 448.959 391.033ZM678.462 390.529C677.364 390.284 676.228 390.051 675.066 389.819L677.106 389.509L680.566 390.232L678.462 390.529ZM460.245 388.761L458.308 388.438C459.599 388.205 460.89 387.986 462.181 387.779L464.054 388.115L460.245 388.761ZM666.905 388.309C665.614 388.089 664.323 387.883 663.032 387.676L664.852 387.328L668.726 387.973L666.905 388.309ZM472.963 386.734L471.272 386.372L475.52 385.791L477.147 386.166L472.963 386.734ZM653.903 386.334L649.629 385.791L651.204 385.404L655.542 385.972L653.903 386.334ZM486.96 385.043L485.527 384.643L490.136 384.152L491.492 384.565L486.96 385.043ZM639.635 384.707C638.124 384.539 636.574 384.384 635.025 384.242L636.316 383.829L641.016 384.294L639.635 384.707ZM502.054 383.584L500.879 383.171C502.506 383.029 504.159 382.9 505.799 382.784L506.871 383.21L502.054 383.584ZM624.321 383.313L619.414 382.951L620.434 382.525L625.418 382.887L624.321 383.313ZM518.001 382.461L517.136 382.022C518.853 381.919 520.584 381.815 522.301 381.738L523.063 382.177L518.001 382.461ZM608.154 382.254L603.054 381.996L603.751 381.544L608.916 381.815L608.154 382.254ZM534.645 381.673L534.09 381.209L539.41 381.041L539.862 381.493L534.645 381.673ZM591.394 381.544L586.152 381.389L586.552 380.925L591.885 381.08L591.394 381.544ZM551.715 381.222L551.47 380.757L556.867 380.692L557.009 381.157L551.715 381.222ZM574.273 381.222H568.966L569.043 380.757H574.441L574.273 381.222Z" fill="#1B60F6"/>
<g opacity="0.2">
<path opacity="0.2" d="M569.469 440.1L568.527 433.091H573.304L575.474 440.088L569.469 440.1ZM533.509 439.675L527.582 439.494L535.329 432.613L540.017 432.755L533.509 439.675ZM611.176 439.158L601.582 432.342L606.205 432.136L617.012 438.887L611.176 439.158ZM492.926 437.738L487.347 437.325L503.449 430.87L507.865 431.193L492.926 437.738ZM650.726 436.654L632.882 430.367L637.104 429.993L656.085 436.176C654.303 436.344 652.508 436.512 650.726 436.654ZM455.751 434.304L450.819 433.71L474.526 428.03L478.399 428.508L455.751 434.304ZM686.261 432.742L660.979 427.269L664.672 426.739L690.871 432.084L686.261 432.742ZM423.69 429.592L419.61 428.818L449.786 424.158L453.014 424.764L423.69 429.592ZM716.101 427.604L684.698 423.189L687.655 422.531L719.82 426.778L716.101 427.604ZM398.201 423.732C397.155 423.435 396.135 423.138 395.167 422.828L430.392 419.394C431.166 419.639 431.967 419.872 432.78 420.104L398.201 423.732ZM738.917 421.421L702.763 418.271C703.486 418.026 704.17 417.78 704.842 417.522L741.512 420.478L738.917 421.421ZM380.473 417.109C379.84 416.786 379.182 416.451 378.639 416.115L417.311 414.075C417.776 414.347 418.254 414.605 418.758 414.863L380.473 417.109ZM753.637 414.527L714.461 412.797C714.849 412.539 715.21 412.268 715.546 411.997L755.032 413.495C754.515 414.011 754.05 414.295 753.56 414.631L753.637 414.527ZM371.434 409.932C371.229 409.594 371.044 409.245 370.879 408.886L411.178 408.344C411.301 408.631 411.448 408.907 411.617 409.17L371.434 409.932ZM759.396 407.285L719.006 407.079C719.057 406.806 719.083 406.53 719.084 406.252V406.265H759.486V406.33C759.478 406.686 759.434 407.041 759.357 407.389L759.396 407.285ZM411.578 403.412L371.395 402.677C371.611 402.316 371.853 401.97 372.119 401.644L412.147 402.599C411.925 402.878 411.722 403.171 411.54 403.477L411.578 403.412ZM716.398 401.282C716.101 401.011 715.778 400.74 715.443 400.482L754.902 398.959C755.329 399.307 755.742 399.643 756.103 399.992L716.398 401.282ZM418.68 397.771L380.357 395.538C381.002 395.215 381.648 394.879 382.371 394.557L420.268 396.984C419.674 397.306 419.145 397.577 418.641 397.836L418.68 397.771ZM706.701 395.77C706.068 395.512 705.41 395.254 704.751 395.009L741.345 392.065C742.171 392.362 742.997 392.685 743.798 393.008L706.701 395.77ZM432.612 392.582L397.982 388.967L401.171 388.076L435.13 391.885L432.612 392.582ZM690.302 390.774L687.462 390.116L719.574 385.856C720.788 386.127 721.989 386.411 723.151 386.695L690.302 390.774ZM452.794 387.96L423.393 383.158L427.602 382.409L456.1 387.379L452.794 387.96ZM668.067 386.463L664.478 385.92L690.599 380.563C692.11 380.795 693.634 381.015 695.119 381.26L668.067 386.463ZM478.18 384.204L455.441 378.407L460.464 377.839L482.157 383.752L478.18 384.204ZM641.042 383.029L636.846 382.629L655.736 376.432L661.03 376.936L641.042 383.029ZM507.581 381.506L492.564 375.051L498.194 374.677L512.023 381.26L507.581 381.506ZM610.453 380.783L605.882 380.55L616.612 373.799L622.397 374.083L610.453 380.783ZM539.603 379.956L533.147 373.037C535.11 372.973 537.124 372.921 539.113 372.882L544.42 379.827L539.603 379.956ZM577.708 379.685H572.93L575.022 372.688L581.026 372.753L577.708 379.685Z" fill="#1B60F6"/>
</g>
<g style="mix-blend-mode:soft-light" opacity="0.8">
<g style="mix-blend-mode:soft-light" opacity="0.8">
<path d="M552.619 454.197C547.131 454.197 541.592 454.081 536.156 453.978L537.68 451.396C542.845 451.486 548.009 451.564 553.265 451.603L552.619 454.197ZM585.597 454.107L584.499 451.525C589.664 451.461 594.894 451.37 599.994 451.254L601.97 453.836C596.585 453.939 591.059 454.03 585.597 454.107ZM503.591 453.061C498.233 452.842 492.848 452.61 487.606 452.339L491.738 449.873C496.709 450.118 501.796 450.35 506.858 450.544L503.591 453.061ZM634.405 452.739L630.687 450.26C635.697 450.028 640.745 449.77 645.678 449.498L650.262 451.938C645.045 452.197 639.712 452.468 634.405 452.739ZM456.5 450.441C451.464 450.079 446.416 449.666 441.496 449.24L448.133 446.942C452.782 447.343 457.546 447.73 462.337 448.078L456.5 450.441ZM680.98 449.847L674.743 447.51C679.43 447.136 684.118 446.723 688.689 446.297L695.726 448.569C690.896 448.982 685.938 449.408 680.98 449.808V449.847ZM412.908 446.284C408.338 445.755 403.792 445.2 399.402 444.632L408.299 442.579C412.444 443.121 416.743 443.638 421.082 444.141L412.908 446.284ZM723.771 445.458L715.21 443.405C719.445 442.889 723.642 442.347 727.696 441.779L736.942 443.793C732.681 444.386 728.252 444.993 723.771 445.51V445.458ZM374.223 440.927C370.259 440.268 366.36 439.636 362.602 438.887L373.461 437.144C376.987 437.803 380.679 438.435 384.437 439.068L374.223 440.927ZM761.475 439.907L750.926 438.1C754.567 437.467 758.144 436.809 761.552 436.112L772.709 437.803C769.106 438.539 765.323 439.287 761.475 439.959V439.907ZM341.646 434.472C338.418 433.711 335.28 432.91 332.336 432.11L344.809 430.728C347.598 431.477 350.568 432.226 353.628 432.962L341.646 434.472ZM792.916 433.375L780.688 431.916C783.619 431.18 786.447 430.406 789.12 429.631L801.826 430.922C799.011 431.735 796.015 432.549 792.916 433.375ZM316.221 427.166C313.833 426.314 311.573 425.436 309.494 424.584L323.194 423.603C325.17 424.429 327.3 425.268 329.56 426.081L316.221 427.166ZM817.062 425.875L803.53 424.829C805.648 424.003 807.649 423.151 809.47 422.247L823.338 423.151C821.414 424.067 819.296 424.958 817.062 425.836V425.875ZM298.803 419.175C297.456 418.329 296.163 417.402 294.929 416.399L309.43 415.857C310.61 416.794 311.848 417.656 313.135 418.439L298.803 419.175ZM833.06 417.742L818.663 417.135C819.804 416.33 820.883 415.441 821.891 414.476L836.482 414.94C835.404 415.936 834.261 416.859 833.06 417.703V417.742ZM289.971 410.732C289.495 409.833 289.16 408.867 288.977 407.866L303.787 407.789C303.959 408.736 304.277 409.65 304.73 410.5L289.971 410.732ZM840.382 409.248L825.584 409.106C825.888 408.234 826.045 407.318 826.049 406.395V406.265H840.859V406.369C840.857 407.335 840.696 408.295 840.382 409.209V409.248ZM304.678 402.393L289.919 402.16C290.447 401.142 291.093 400.189 291.843 399.32L306.499 399.695C305.789 400.52 305.178 401.426 304.678 402.393ZM824.138 400.895C823.441 399.928 822.654 399.03 821.788 398.21L836.366 397.758C837.285 398.615 838.116 399.562 838.845 400.585L824.138 400.895ZM312.929 394.441L298.635 393.769C300.094 392.853 301.721 391.923 303.49 391.033L317.513 391.859C315.847 392.608 314.31 393.472 312.929 394.337V394.441ZM814.351 393.008C812.814 392.143 811.11 391.278 809.276 390.426L823.144 389.522C825.068 390.413 826.875 391.317 828.502 392.233L814.351 393.008ZM329.34 386.837L315.976 385.611C318.352 384.746 320.922 383.894 323.594 383.029L336.507 384.32C334.002 385.107 331.587 385.921 329.34 386.734V386.837ZM796.506 385.546C794.104 384.759 791.535 383.958 788.862 383.184L801.568 381.893C804.382 382.706 807.107 383.545 809.638 384.384L796.506 385.546ZM353.344 379.905L341.362 378.394C344.577 377.633 347.973 376.871 351.459 376.135L362.899 377.762C359.607 378.304 356.391 379.027 353.344 379.75V379.905ZM771.211 378.717C768.034 378.007 764.755 377.31 761.255 376.626L772.399 374.935C776.014 375.658 779.552 376.394 782.909 377.142L771.211 378.717ZM384.127 373.786L373.875 371.927C377.839 371.269 381.958 370.636 386.128 370.016L395.722 371.966C391.784 372.392 387.884 373.011 384.127 373.631V373.786ZM739.292 372.779C735.418 372.172 731.415 371.578 727.361 371.023L736.58 369.009C740.867 369.603 745.115 370.223 749.195 370.868L739.292 372.779ZM420.682 368.558L412.482 366.415C417.053 365.885 421.766 365.382 426.505 364.904L433.943 367.125C429.462 367.538 424.994 368.054 420.682 368.558ZM701.794 367.757C697.378 367.28 692.756 366.828 688.249 366.402L695.261 364.13C700.09 364.582 704.906 365.059 709.581 365.563L701.794 367.757ZM461.82 364.698L455.971 362.374C460.994 362 466.159 361.638 471.311 361.316L476.333 363.665C471.453 364.001 466.572 364.336 461.82 364.698ZM659.881 364.13C655.039 363.794 650.081 363.484 645.148 363.213L649.693 360.76C654.858 361.057 660.165 361.38 665.279 361.729L659.881 364.13ZM506.29 362.18L502.984 359.676C508.317 359.457 513.766 359.276 519.176 359.108L521.617 361.69C516.504 361.793 511.339 361.974 506.29 362.18ZM614.882 361.858C609.795 361.69 604.552 361.548 599.465 361.432L601.402 358.85C606.851 358.979 612.325 359.134 617.697 359.315L614.882 361.858ZM552.671 361.083L551.999 358.501C557.461 358.501 563.026 358.437 568.501 358.501L568.308 361.083C563.117 361.083 557.849 361.083 552.671 361.083Z" fill="#1B60F6"/>
</g>
</g>
<path opacity="0.8" d="M723.771 445.51L715.236 443.405L727.722 441.779L736.968 443.793L723.771 445.51Z" fill="#1BB6F6"/>
<path opacity="0.8" d="M718.968 407.182L719.045 406.356H759.461L759.37 407.402L718.968 407.182Z" fill="#1BB6F6"/>
<path opacity="0.8" d="M434.446 418.646L436.822 418.426L439.443 419.227L437.119 419.459L434.446 418.646Z" fill="#1BB6F6"/>
<path opacity="0.8" d="M539.668 379.956L533.108 373.037L539.074 372.882L544.381 379.827L539.668 379.956Z" fill="#1BB6F6"/>
<path opacity="0.8" d="M421.082 444.193L412.909 446.336L399.402 444.683L408.299 442.631L421.082 444.193Z" fill="#1BB6F6"/>
<path opacity="0.8" d="M487.605 452.339L491.737 449.873L506.858 450.557L503.591 453.062L487.605 452.339Z" fill="#1BB6F6"/>
<path opacity="0.8" d="M487.348 437.325L492.926 437.738L507.865 431.219L503.449 430.896L487.348 437.325Z" fill="#1BB6F6"/>
<path opacity="0.8" d="M440.244 443.857L445.628 442.243C445.628 442.243 405.252 438.306 371.344 430.625L362.615 431.722C388.183 437.541 414.12 441.596 440.244 443.857Z" fill="#1BB6F6"/>
<path opacity="0.8" d="M421.469 410.848L420.63 409.945L417.957 410.009L418.809 410.939L421.469 410.848Z" fill="#1BB6F6"/>
<path opacity="0.8" d="M750.926 438.151L761.553 436.163L772.709 437.867L761.475 439.958L750.926 438.151Z" fill="#1BB6F6"/>
<path opacity="0.8" d="M605.882 380.563L610.453 380.783L622.397 374.096L616.612 373.799L605.882 380.563Z" fill="#1BB6F6"/>
</g>
<path d="M567.623 406.782C564.55 406.782 561.451 406.782 558.404 406.666L559.256 405.233C562.135 405.233 565.079 405.323 567.985 405.336L567.623 406.782ZM586.113 406.782L585.494 405.349C588.399 405.349 591.33 405.259 594.21 405.194L595.32 406.614C592.273 406.64 589.174 406.691 586.088 406.73L586.113 406.782ZM540.146 406.188C537.15 406.072 534.129 405.943 531.185 405.788L533.509 404.407C536.285 404.549 539.139 404.678 541.979 404.794L540.146 406.188ZM613.475 405.994L611.383 404.6C614.185 404.471 617.013 404.329 619.789 404.174L622.371 405.543C619.427 405.659 616.444 405.814 613.475 405.943V405.994ZM513.753 404.703C510.925 404.484 508.098 404.265 505.347 404.019L509.066 402.728C511.649 402.961 514.347 403.18 517.02 403.374L513.753 404.703ZM639.57 404.355L636.071 403.064C638.653 402.857 641.326 402.625 643.896 402.393L647.834 403.684C645.123 403.851 642.346 404.097 639.57 404.316V404.355ZM489.323 402.393C486.741 402.096 484.158 401.786 481.757 401.463L486.741 400.314C489.065 400.611 491.48 400.908 493.907 401.192L489.323 402.393ZM663.561 401.915L658.784 400.74L665.782 399.824L670.947 400.947C668.545 401.283 666.066 401.605 663.561 401.915ZM467.656 399.333C465.436 398.972 463.253 398.585 461.2 398.197L467.295 397.229C469.27 397.59 471.336 397.965 473.441 398.313L467.656 399.333ZM684.699 398.765L678.785 397.758C680.825 397.397 682.826 397.022 684.75 396.635L691 397.59C688.96 398.029 686.803 398.417 684.686 398.804L684.699 398.765ZM449.399 395.719C447.591 395.293 445.835 394.841 444.234 394.428L451.219 393.653C452.782 394.079 454.447 394.505 456.165 394.944L449.399 395.719ZM702.298 395.086L695.442 394.273C697.081 393.86 698.67 393.421 700.167 392.982L707.295 393.718C705.72 394.195 704.041 394.647 702.298 395.086ZM435.118 391.639C433.826 391.149 432.535 390.658 431.347 390.168L439.03 389.625C440.127 390.09 441.328 390.555 442.594 391.007L435.118 391.639ZM715.83 390.891L708.238 390.297C709.426 389.832 710.549 389.367 711.569 388.89L719.316 389.393C718.283 389.897 717.095 390.4 715.843 390.891H715.83ZM425.304 387.134C424.543 386.657 423.81 386.135 423.109 385.572L431.231 385.275C431.892 385.809 432.586 386.301 433.31 386.747L425.304 387.134ZM724.74 386.334L716.669 385.985C717.311 385.539 717.915 385.043 718.477 384.501L726.663 384.759C726.077 385.322 725.456 385.848 724.804 386.334H724.74ZM420.423 382.396C420.153 381.896 419.965 381.356 419.868 380.796H428.171C428.261 381.323 428.435 381.833 428.687 382.306L420.423 382.396ZM728.91 381.57L720.621 381.48C720.788 380.994 720.875 380.483 720.879 379.969V379.905H729.181V379.969C729.18 380.514 729.088 381.055 728.91 381.57ZM428.661 377.697L420.385 377.581C420.683 377.007 421.047 376.47 421.469 375.98L429.681 376.2C429.286 376.663 428.944 377.17 428.661 377.71V377.697ZM719.807 376.871C719.425 376.328 718.993 375.823 718.516 375.361L726.689 375.103C727.204 375.582 727.667 376.115 728.071 376.69L719.807 376.871ZM433.284 373.218L425.278 372.843C426.092 372.327 427.009 371.811 427.99 371.307L435.854 371.772C434.924 372.263 434.059 372.701 433.284 373.231V373.218ZM714.319 372.417C713.454 371.94 712.499 371.449 711.479 370.985L719.226 370.468C720.311 370.972 721.318 371.475 722.222 371.991L714.319 372.417ZM442.478 368.958L435.001 368.338C436.293 367.848 437.765 367.37 439.262 366.905L446.519 367.602C445.099 368.067 443.743 368.519 442.478 368.971V368.958ZM704.312 368.209C703.021 367.757 701.536 367.318 700.038 366.918L707.153 366.182C708.741 366.634 710.252 367.112 711.672 367.577L704.312 368.209ZM455.945 365.046L449.218 364.194C451.025 363.768 452.924 363.342 454.886 362.903L461.342 363.82C459.457 364.246 457.649 364.646 455.945 365.059V365.046ZM690.135 364.375C688.366 363.988 686.481 363.588 684.557 363.213L690.806 362.258C692.833 362.658 694.822 363.071 696.694 363.549L690.135 364.375ZM473.209 361.612L467.463 360.58C469.684 360.205 471.995 359.844 474.332 359.495L479.704 360.593C477.483 360.941 475.301 361.277 473.196 361.625L473.209 361.612ZM672.251 361.083C670.082 360.748 667.835 360.425 665.563 360.102L670.728 358.979C673.129 359.315 675.505 359.663 677.791 360.012L672.251 361.083ZM493.675 358.811L489.091 357.611C491.673 357.314 494.256 357.03 496.941 356.759L501.112 358.049C498.594 358.23 496.102 358.501 493.675 358.785V358.811ZM651.204 358.359C648.738 358.088 646.181 357.843 643.612 357.598L647.55 356.307C650.249 356.552 652.96 356.823 655.569 357.107L651.204 358.359ZM516.71 356.642L513.43 355.351C516.245 355.132 519.138 354.938 522.03 354.758L524.845 356.113C522.133 356.229 519.409 356.423 516.736 356.617L516.71 356.642ZM627.756 356.32C625.044 356.139 622.268 355.971 619.492 355.816L622.074 354.448C625.005 354.603 627.936 354.783 630.803 354.977L627.756 356.32ZM541.67 355.235L539.823 353.828C542.819 353.712 545.866 353.609 548.862 353.518L550.217 354.938C547.351 354.99 544.497 355.093 541.657 355.209L541.67 355.235ZM602.538 355.055C599.684 354.964 596.779 354.874 593.9 354.809L594.984 353.389C598.032 353.454 601.105 353.544 604.113 353.647L602.538 355.055ZM567.675 354.616L567.287 353.183C570.348 353.183 573.472 353.183 576.546 353.183L576.429 354.616C573.511 354.629 570.593 354.629 567.662 354.629L567.675 354.616Z" fill="#B0F4F6"/>
<path style="mix-blend-mode:screen" opacity="0.5" d="M563.917 415.767C573.444 415.767 581.168 411.496 581.168 406.227C581.168 400.958 573.444 396.687 563.917 396.687C554.389 396.687 546.666 400.958 546.666 406.227C546.666 411.496 554.389 415.767 563.917 415.767Z" fill="url(#paint4_radial_1289_76)"/>
<path style="mix-blend-mode:screen" opacity="0.5" d="M453.891 374.754C463.419 374.754 471.142 370.483 471.142 365.214C471.142 359.946 463.419 355.674 453.891 355.674C444.364 355.674 436.641 359.946 436.641 365.214C436.641 370.483 444.364 374.754 453.891 374.754Z" fill="url(#paint5_radial_1289_76)"/>
<path style="mix-blend-mode:screen" opacity="0.5" d="M413.954 463.221C432.289 463.221 447.152 454.997 447.152 444.851C447.152 434.706 432.289 426.481 413.954 426.481C395.62 426.481 380.757 434.706 380.757 444.851C380.757 454.997 395.62 463.221 413.954 463.221Z" fill="url(#paint6_radial_1289_76)"/>
<path style="mix-blend-mode:screen" opacity="0.5" d="M724.752 454.766C735.97 454.766 745.063 449.732 745.063 443.522C745.063 437.312 735.97 432.278 724.752 432.278C713.535 432.278 704.441 437.312 704.441 443.522C704.441 449.732 713.535 454.766 724.752 454.766Z" fill="url(#paint7_radial_1289_76)"/>
<path style="mix-blend-mode:screen" opacity="0.5" d="M571.51 463.75C643.222 463.75 701.355 437.176 701.355 404.394C701.355 371.612 643.222 345.037 571.51 345.037C499.798 345.037 441.664 371.612 441.664 404.394C441.664 437.176 499.798 463.75 571.51 463.75Z" fill="url(#paint8_radial_1289_76)"/>
<path style="mix-blend-mode:screen" opacity="0.5" d="M539.254 389.806C550.472 389.806 559.565 384.772 559.565 378.562C559.565 372.352 550.472 367.318 539.254 367.318C528.037 367.318 518.943 372.352 518.943 378.562C518.943 384.772 528.037 389.806 539.254 389.806Z" fill="url(#paint9_radial_1289_76)"/>
<path style="mix-blend-mode:screen" opacity="0.5" d="M678.461 400.082C678.461 404.084 672.612 407.311 665.394 407.311C658.176 407.311 652.327 404.084 652.327 400.082C652.327 396.08 658.176 392.853 665.394 392.853C672.612 392.853 678.461 396.093 678.461 400.082Z" fill="url(#paint10_radial_1289_76)"/>
<path style="mix-blend-mode:screen" opacity="0.5" d="M702.762 363.329C702.762 365.614 697.326 367.46 690.625 367.46C683.923 367.46 678.5 365.614 678.5 363.329C678.5 361.045 683.923 359.211 690.625 359.211C697.326 359.211 702.762 361.083 702.762 363.329Z" fill="url(#paint11_radial_1289_76)"/>
<path d="M565.376 416.541C597.502 416.541 623.546 411.981 623.546 406.356C623.546 400.731 597.502 396.17 565.376 396.17C533.25 396.17 507.206 400.731 507.206 406.356C507.206 411.981 533.25 416.541 565.376 416.541Z" fill="white"/>
<path d="M559.643 338.04C560.327 338.04 560.882 337.485 560.882 336.801C560.882 336.116 560.327 335.562 559.643 335.562C558.958 335.562 558.403 336.116 558.403 336.801C558.403 337.485 558.958 338.04 559.643 338.04Z" fill="#B0F4F6"/>
<path d="M541.501 155.852C542.186 155.852 542.741 155.297 542.741 154.613C542.741 153.928 542.186 153.374 541.501 153.374C540.817 153.374 540.262 153.928 540.262 154.613C540.262 155.297 540.817 155.852 541.501 155.852Z" fill="#B0F4F6"/>
<path d="M518.195 335.536C518.879 335.536 519.434 334.981 519.434 334.296C519.434 333.612 518.879 333.057 518.195 333.057C517.51 333.057 516.955 333.612 516.955 334.296C516.955 334.981 517.51 335.536 518.195 335.536Z" fill="#B0F4F6"/>
<path d="M213.646 348.084C214.33 348.084 214.885 347.529 214.885 346.844C214.885 346.16 214.33 345.605 213.646 345.605C212.961 345.605 212.406 346.16 212.406 346.844C212.406 347.529 212.961 348.084 213.646 348.084Z" fill="#B0F4F6"/>
<path d="M562.239 388.489C562.923 388.489 563.478 387.934 563.478 387.25C563.478 386.566 562.923 386.011 562.239 386.011C561.554 386.011 560.999 386.566 560.999 387.25C560.999 387.934 561.554 388.489 562.239 388.489Z" fill="#B0F4F6"/>
<path d="M567.985 289.553C568.669 289.553 569.224 288.998 569.224 288.314C569.224 287.63 568.669 287.075 567.985 287.075C567.3 287.075 566.745 287.63 566.745 288.314C566.745 288.998 567.3 289.553 567.985 289.553Z" fill="#B0F4F6"/>
<path d="M640.474 327.635C641.158 327.635 641.713 327.08 641.713 326.396C641.713 325.712 641.158 325.157 640.474 325.157C639.789 325.157 639.234 325.712 639.234 326.396C639.234 327.08 639.789 327.635 640.474 327.635Z" fill="#B0F4F6"/>
<path d="M492.292 65.0357C492.977 65.0357 493.532 64.4809 493.532 63.7964C493.532 63.112 492.977 62.5571 492.292 62.5571C491.608 62.5571 491.053 63.112 491.053 63.7964C491.053 64.4809 491.608 65.0357 492.292 65.0357Z" fill="#B0F4F6"/>
<path d="M908.907 256.931C909.591 256.931 910.146 256.376 910.146 255.692C910.146 255.007 909.591 254.453 908.907 254.453C908.222 254.453 907.667 255.007 907.667 255.692C907.667 256.376 908.222 256.931 908.907 256.931Z" fill="#B0F4F6"/>
<path d="M559.566 398.584C560.25 398.584 560.805 398.03 560.805 397.345C560.805 396.661 560.25 396.106 559.566 396.106C558.881 396.106 558.326 396.661 558.326 397.345C558.326 398.03 558.881 398.584 559.566 398.584Z" fill="#B0F4F6"/>
<path d="M593.15 340.88C593.135 340.956 593.094 341.025 593.034 341.074C592.974 341.123 592.899 341.15 592.821 341.15C592.743 341.15 592.668 341.123 592.608 341.074C592.548 341.025 592.507 340.956 592.492 340.88C592.482 340.832 592.483 340.781 592.495 340.733C592.507 340.685 592.53 340.64 592.562 340.602C592.593 340.563 592.633 340.532 592.678 340.511C592.722 340.49 592.771 340.479 592.821 340.479C592.871 340.479 592.92 340.49 592.965 340.511C593.009 340.532 593.049 340.563 593.081 340.602C593.112 340.64 593.135 340.685 593.147 340.733C593.159 340.781 593.16 340.832 593.15 340.88Z" fill="#B0F4F6"/>
<path d="M531.172 330.798C531.172 330.862 531.153 330.925 531.118 330.978C531.082 331.031 531.032 331.072 530.973 331.096C530.914 331.121 530.849 331.127 530.786 331.115C530.724 331.102 530.666 331.072 530.621 331.027C530.576 330.981 530.545 330.924 530.533 330.861C530.52 330.799 530.527 330.734 530.551 330.675C530.575 330.616 530.617 330.565 530.67 330.53C530.723 330.494 530.785 330.476 530.849 330.476C530.935 330.476 531.017 330.51 531.077 330.57C531.138 330.631 531.172 330.713 531.172 330.798Z" fill="#B0F4F6"/>
<path d="M601.427 311.137C601.427 311.223 601.393 311.305 601.332 311.365C601.272 311.426 601.19 311.46 601.104 311.46C601.018 311.46 600.936 311.426 600.876 311.365C600.815 311.305 600.781 311.223 600.781 311.137C600.781 311.052 600.815 310.97 600.876 310.909C600.936 310.848 601.018 310.814 601.104 310.814C601.19 310.814 601.272 310.848 601.332 310.909C601.393 310.97 601.427 311.052 601.427 311.137Z" fill="#B0F4F6"/>
<path d="M531.714 361.083C531.717 361.15 531.699 361.216 531.664 361.273C531.629 361.33 531.577 361.375 531.516 361.402C531.455 361.43 531.387 361.438 531.321 361.427C531.255 361.415 531.194 361.384 531.146 361.338C531.098 361.291 531.064 361.232 531.05 361.166C531.036 361.101 531.042 361.033 531.067 360.971C531.092 360.909 531.135 360.855 531.191 360.818C531.246 360.78 531.312 360.76 531.378 360.76C531.465 360.76 531.549 360.794 531.611 360.854C531.674 360.914 531.711 360.996 531.714 361.083Z" fill="#B0F4F6"/>
<path d="M489.762 345.024C489.762 345.11 489.728 345.192 489.667 345.252C489.607 345.313 489.525 345.347 489.439 345.347C489.353 345.347 489.271 345.313 489.211 345.252C489.15 345.192 489.116 345.11 489.116 345.024C489.116 344.938 489.15 344.856 489.211 344.796C489.271 344.735 489.353 344.701 489.439 344.701C489.525 344.701 489.607 344.735 489.667 344.796C489.728 344.856 489.762 344.938 489.762 345.024Z" fill="#B0F4F6"/>
<path d="M602.344 394.04C602.344 394.104 602.325 394.167 602.289 394.22C602.254 394.273 602.204 394.314 602.145 394.339C602.086 394.363 602.021 394.369 601.958 394.357C601.895 394.345 601.838 394.314 601.793 394.269C601.748 394.224 601.717 394.166 601.704 394.103C601.692 394.041 601.698 393.976 601.723 393.917C601.747 393.858 601.789 393.808 601.842 393.772C601.895 393.737 601.957 393.718 602.021 393.718C602.107 393.718 602.189 393.752 602.249 393.812C602.31 393.873 602.344 393.955 602.344 394.04Z" fill="#B0F4F6"/>
<path d="M578.34 389.483C578.34 389.569 578.306 389.651 578.245 389.712C578.185 389.772 578.103 389.806 578.017 389.806C577.932 389.806 577.849 389.772 577.789 389.712C577.728 389.651 577.694 389.569 577.694 389.483C577.694 389.398 577.728 389.316 577.789 389.255C577.849 389.195 577.932 389.161 578.017 389.161C578.103 389.161 578.185 389.195 578.245 389.255C578.306 389.316 578.34 389.398 578.34 389.483Z" fill="#B0F4F6"/>
<path d="M549.275 366.673C549.275 366.844 549.207 367.008 549.086 367.129C548.964 367.25 548.8 367.318 548.629 367.318C548.458 367.318 548.294 367.25 548.172 367.129C548.051 367.008 547.983 366.844 547.983 366.673C547.983 366.502 548.051 366.337 548.172 366.216C548.294 366.095 548.458 366.027 548.629 366.027C548.8 366.027 548.964 366.095 549.086 366.216C549.207 366.337 549.275 366.502 549.275 366.673Z" fill="#B0F4F6"/>
<path d="M519.692 393.55C520.049 393.55 520.338 393.261 520.338 392.904C520.338 392.548 520.049 392.259 519.692 392.259C519.336 392.259 519.047 392.548 519.047 392.904C519.047 393.261 519.336 393.55 519.692 393.55Z" fill="#B0F4F6"/>
<path d="M582.459 372.43C582.459 372.558 582.421 372.683 582.35 372.789C582.279 372.895 582.179 372.978 582.061 373.026C581.943 373.075 581.813 373.088 581.688 373.063C581.562 373.038 581.447 372.977 581.357 372.887C581.267 372.796 581.205 372.681 581.18 372.556C581.155 372.431 581.168 372.301 581.217 372.183C581.266 372.065 581.349 371.964 581.455 371.893C581.561 371.823 581.686 371.785 581.814 371.785C581.985 371.785 582.149 371.853 582.27 371.974C582.391 372.095 582.459 372.259 582.459 372.43Z" fill="#B0F4F6"/>
<path d="M572.646 301.352C572.642 301.522 572.573 301.685 572.453 301.805C572.333 301.925 572.17 301.994 572 301.998C571.829 301.998 571.665 301.93 571.544 301.809C571.423 301.687 571.354 301.523 571.354 301.352C571.354 301.181 571.423 301.017 571.544 300.896C571.665 300.775 571.829 300.707 572 300.707C572.171 300.707 572.336 300.775 572.457 300.896C572.578 301.017 572.646 301.181 572.646 301.352Z" fill="#B0F4F6"/>
<path d="M632.882 367.938C633.239 367.938 633.528 367.649 633.528 367.292C633.528 366.936 633.239 366.647 632.882 366.647C632.525 366.647 632.236 366.936 632.236 367.292C632.236 367.649 632.525 367.938 632.882 367.938Z" fill="#B0F4F6"/>
<path fill-rule="evenodd" clip-rule="evenodd" d="M932.485 63.8224C932.487 65.0158 932.136 66.1831 931.474 67.1765C930.812 68.1699 929.871 68.9446 928.768 69.4025C927.666 69.8604 926.453 69.9808 925.282 69.7486C924.111 69.5164 923.035 68.942 922.191 68.0981C921.347 67.2542 920.772 66.1788 920.54 65.0082C920.308 63.8376 920.428 62.6244 920.886 61.5222C921.344 60.4201 922.119 59.4787 923.113 58.8173C924.106 58.1558 925.274 57.8041 926.468 57.8067C928.062 57.8101 929.591 58.445 930.719 59.5724C931.846 60.6998 932.481 62.2279 932.485 63.8224Z" fill="url(#paint12_radial_1289_76)"/>
<path d="M633.23 47.4275C638.044 47.4275 641.946 43.5262 641.946 38.7137C641.946 33.9013 638.044 30 633.23 30C628.417 30 624.515 33.9013 624.515 38.7137C624.515 43.5262 628.417 47.4275 633.23 47.4275Z" fill="url(#paint13_radial_1289_76)"/>
<path fill-rule="evenodd" clip-rule="evenodd" d="M534.723 124.999C534.723 126.276 534.344 127.524 533.635 128.585C532.925 129.647 531.917 130.474 530.737 130.962C529.558 131.451 528.259 131.579 527.007 131.33C525.755 131.081 524.604 130.466 523.702 129.563C522.799 128.66 522.184 127.51 521.935 126.258C521.685 125.006 521.813 123.708 522.302 122.529C522.791 121.35 523.618 120.342 524.68 119.632C525.742 118.923 526.99 118.544 528.267 118.544C529.979 118.544 531.621 119.224 532.832 120.435C534.043 121.645 534.723 123.287 534.723 124.999Z" fill="url(#paint14_radial_1289_76)"/>
<path d="M978.156 152.496C991.142 152.496 1001.67 141.971 1001.67 128.988C1001.67 116.005 991.142 105.48 978.156 105.48C965.17 105.48 954.643 116.005 954.643 128.988C954.643 141.971 965.17 152.496 978.156 152.496Z" fill="url(#paint15_radial_1289_76)"/>
<path d="M115.836 85.3549C123.103 85.3549 128.994 79.4654 128.994 72.2004C128.994 64.9354 123.103 59.0459 115.836 59.0459C108.57 59.0459 102.679 64.9354 102.679 72.2004C102.679 79.4654 108.57 85.3549 115.836 85.3549Z" fill="url(#paint16_radial_1289_76)"/>
<path fill-rule="evenodd" clip-rule="evenodd" d="M266.47 159.325C266.47 159.708 266.357 160.082 266.144 160.4C265.931 160.719 265.629 160.967 265.275 161.114C264.921 161.26 264.531 161.298 264.156 161.224C263.78 161.149 263.435 160.965 263.164 160.694C262.893 160.423 262.709 160.078 262.634 159.702C262.559 159.327 262.598 158.937 262.744 158.584C262.891 158.23 263.139 157.927 263.457 157.715C263.776 157.502 264.15 157.388 264.534 157.388C265.047 157.388 265.54 157.592 265.903 157.955C266.266 158.318 266.47 158.811 266.47 159.325Z" fill="url(#paint17_radial_1289_76)"/>
<path fill-rule="evenodd" clip-rule="evenodd" d="M836.74 315.165C836.74 315.548 836.626 315.922 836.413 316.241C836.201 316.559 835.898 316.807 835.544 316.954C835.19 317.101 834.801 317.139 834.425 317.064C834.05 316.989 833.704 316.805 833.433 316.534C833.163 316.263 832.978 315.918 832.903 315.543C832.829 315.167 832.867 314.778 833.014 314.424C833.16 314.07 833.408 313.768 833.727 313.555C834.045 313.342 834.42 313.229 834.803 313.229C835.317 313.229 835.809 313.433 836.173 313.796C836.536 314.159 836.74 314.651 836.74 315.165Z" fill="url(#paint18_radial_1289_76)"/>
<path fill-rule="evenodd" clip-rule="evenodd" d="M591.252 147.087C591.252 147.776 591.048 148.45 590.664 149.023C590.281 149.596 589.737 150.043 589.1 150.307C588.463 150.571 587.762 150.64 587.085 150.505C586.409 150.371 585.788 150.039 585.3 149.551C584.813 149.064 584.481 148.443 584.346 147.767C584.212 147.09 584.281 146.39 584.545 145.753C584.809 145.116 585.255 144.571 585.829 144.188C586.402 143.805 587.076 143.601 587.766 143.601C588.69 143.601 589.577 143.968 590.231 144.622C590.885 145.276 591.252 146.162 591.252 147.087Z" fill="url(#paint19_radial_1289_76)"/>
<path d="M71.4951 385.882C73.4205 385.882 74.9814 384.321 74.9814 382.396C74.9814 380.471 73.4205 378.911 71.4951 378.911C69.5697 378.911 68.0088 380.471 68.0088 382.396C68.0088 384.321 69.5697 385.882 71.4951 385.882Z" fill="url(#paint20_radial_1289_76)"/>
<path d="M345.919 166.335C349.243 166.335 351.937 163.641 351.937 160.319C351.937 156.997 349.243 154.303 345.919 154.303C342.596 154.303 339.902 156.997 339.902 160.319C339.902 163.641 342.596 166.335 345.919 166.335Z" fill="url(#paint21_radial_1289_76)"/>
<path style="mix-blend-mode:screen" opacity="0.85" d="M514.877 403.684L442.413 290.56L466.83 285.642L522.624 398.791C522.624 398.791 527.621 408.447 524.006 410.526C520.39 412.604 514.877 403.684 514.877 403.684Z" fill="url(#paint22_linear_1289_76)"/>
<path style="mix-blend-mode:screen" opacity="0.85" d="M548.164 405.865L514.476 271.674L641.016 279.613L597.23 405.491C597.23 405.491 594.648 416.361 572.258 416.361C549.868 416.361 548.164 405.865 548.164 405.865Z" fill="url(#paint23_linear_1289_76)"/>
<ellipse cx="983.262" cy="119.031" rx="12.5077" ry="12.5083" fill="url(#paint24_radial_1289_76)"/>
</g>
<defs>
<linearGradient id="paint0_linear_1289_76" x1="581.026" y1="475.872" x2="581.026" y2="167.742" gradientUnits="userSpaceOnUse">
<stop/>
<stop offset="0.96" stop-color="#001A43"/>
</linearGradient>
<radialGradient id="paint1_radial_1289_76" cx="0" cy="0" r="1" gradientUnits="userSpaceOnUse" gradientTransform="translate(581.607 294.368) scale(420.978 420.88)">
<stop stop-color="#00226D"/>
<stop offset="1" stop-color="#3D59FF"/>
</radialGradient>
<radialGradient id="paint2_radial_1289_76" cx="0" cy="0" r="1" gradientUnits="userSpaceOnUse" gradientTransform="translate(563.053 407.197) scale(332.236 58.4014)">
<stop offset="0.86"/>
<stop offset="0.91" stop-color="#1F1B43"/>
<stop offset="0.96" stop-color="#453D98"/>
</radialGradient>
<radialGradient id="paint3_radial_1289_76" cx="0" cy="0" r="1" gradientUnits="userSpaceOnUse" gradientTransform="translate(563.052 407.197) scale(281.522 49.4868)">
<stop offset="0.64"/>
<stop offset="0.78" stop-color="#1F1B43"/>
<stop offset="0.96" stop-color="#453D98"/>
</radialGradient>
<radialGradient id="paint4_radial_1289_76" cx="0" cy="0" r="1" gradientUnits="userSpaceOnUse" gradientTransform="translate(561.675 405.157) scale(17.1655 9.48934)">
<stop offset="0.04" stop-color="#0054FF"/>
<stop offset="1"/>
</radialGradient>
<radialGradient id="paint5_radial_1289_76" cx="0" cy="0" r="1" gradientUnits="userSpaceOnUse" gradientTransform="translate(12054 4923.58) scale(539.604 298.409)">
<stop offset="0.04" stop-color="#0054FF"/>
<stop offset="1"/>
</radialGradient>
<radialGradient id="paint6_radial_1289_76" cx="0" cy="0" r="1" gradientUnits="userSpaceOnUse" gradientTransform="translate(20332.4 14017.6) scale(1998.49 1105.86)">
<stop offset="0.04" stop-color="#0054FF"/>
<stop offset="1"/>
</radialGradient>
<radialGradient id="paint7_radial_1289_76" cx="0" cy="0" r="1" gradientUnits="userSpaceOnUse" gradientTransform="translate(24361 8701.77) scale(748.663 414.453)">
<stop offset="0.04" stop-color="#0054FF"/>
<stop offset="1"/>
</radialGradient>
<radialGradient id="paint8_radial_1289_76" cx="0" cy="0" r="1" gradientUnits="userSpaceOnUse" gradientTransform="translate(119206 17321.2) scale(26018 5427.2)">
<stop offset="0.04" stop-color="#0054FF"/>
<stop offset="1"/>
</radialGradient>
<radialGradient id="paint9_radial_1289_76" cx="0" cy="0" r="1" gradientUnits="userSpaceOnUse" gradientTransform="translate(17341.7 6243.41) scale(748.664 414.452)">
<stop offset="0.04" stop-color="#0054FF"/>
<stop offset="1"/>
</radialGradient>
<radialGradient id="paint10_radial_1289_76" cx="0" cy="0" r="1" gradientUnits="userSpaceOnUse" gradientTransform="translate(12378 2427.08) scale(263.238 80.5259)">
<stop offset="0.04" stop-color="#0054FF"/>
<stop offset="1"/>
</radialGradient>
<radialGradient id="paint11_radial_1289_76" cx="0" cy="0" r="1" gradientUnits="userSpaceOnUse" gradientTransform="translate(19299.5 1312.31) scale(227.977 26.2088)">
<stop offset="0.04" stop-color="#0054FF"/>
<stop offset="1"/>
</radialGradient>
<radialGradient id="paint12_radial_1289_76" cx="0" cy="0" r="1" gradientUnits="userSpaceOnUse" gradientTransform="translate(924.673 61.8731) scale(6.01712 6.0157)">
<stop stop-color="#E300EB"/>
<stop offset="1" stop-color="#5E00CC"/>
</radialGradient>
<radialGradient id="paint13_radial_1289_76" cx="0" cy="0" r="1" gradientUnits="userSpaceOnUse" gradientTransform="translate(630.635 35.8737) scale(8.71576 8.71373)">
<stop stop-color="#FF84EB"/>
<stop offset="1" stop-color="#C939CC"/>
</radialGradient>
<radialGradient id="paint14_radial_1289_76" cx="0" cy="0" r="1" gradientUnits="userSpaceOnUse" gradientTransform="translate(526.343 122.895) scale(6.45611 6.45461)">
<stop stop-color="#24BDEB"/>
<stop offset="1" stop-color="#6639FF"/>
</radialGradient>
<radialGradient id="paint15_radial_1289_76" cx="0" cy="0" r="1" gradientUnits="userSpaceOnUse" gradientTransform="translate(36323.3 4515.06) scale(856.352 856.151)">
<stop stop-color="#24BDEB"/>
<stop offset="1" stop-color="#6639FF"/>
</radialGradient>
<radialGradient id="paint16_radial_1289_76" cx="0" cy="0" r="1" gradientUnits="userSpaceOnUse" gradientTransform="translate(2383.15 1437.9) scale(268.152 268.089)">
<stop stop-color="#E300EB"/>
<stop offset="1" stop-color="#5E00CC"/>
</radialGradient>
<radialGradient id="paint17_radial_1289_76" cx="0" cy="0" r="1" gradientUnits="userSpaceOnUse" gradientTransform="translate(1054.88 684.939) scale(5.81053 5.80918)">
<stop stop-color="#FF84EB"/>
<stop offset="1" stop-color="#C939CC"/>
</radialGradient>
<radialGradient id="paint18_radial_1289_76" cx="0" cy="0" r="1" gradientUnits="userSpaceOnUse" gradientTransform="translate(3335.91 1308.31) scale(5.81049 5.8092)">
<stop stop-color="#FF84EB"/>
<stop offset="1" stop-color="#C939CC"/>
</radialGradient>
<radialGradient id="paint19_radial_1289_76" cx="0" cy="0" r="1" gradientUnits="userSpaceOnUse" gradientTransform="translate(3753.63 1024.38) scale(18.8262 18.8216)">
<stop stop-color="#E300EB"/>
<stop offset="1" stop-color="#5E00CC"/>
</radialGradient>
<radialGradient id="paint20_radial_1289_76" cx="0" cy="0" r="1" gradientUnits="userSpaceOnUse" gradientTransform="translate(448.365 2436.33) scale(18.8261 18.8217)">
<stop stop-color="#E300EB"/>
<stop offset="1" stop-color="#5E00CC"/>
</radialGradient>
<radialGradient id="paint21_radial_1289_76" cx="0" cy="0" r="1" gradientUnits="userSpaceOnUse" gradientTransform="translate(3546.91 1627.67) scale(56.0796 56.0663)">
<stop stop-color="#E300EB"/>
<stop offset="1" stop-color="#5E00CC"/>
</radialGradient>
<linearGradient id="paint22_linear_1289_76" x1="48791.3" y1="21772.6" x2="41786.6" y2="9612.87" gradientUnits="userSpaceOnUse">
<stop offset="0.04" stop-color="#451D98"/>
<stop offset="0.56" stop-color="#1F0D43"/>
<stop offset="1"/>
</linearGradient>
<linearGradient id="paint23_linear_1289_76" x1="57145" y1="48860.4" x2="57145" y2="32643.9" gradientUnits="userSpaceOnUse">
<stop offset="0.04" stop-color="#451D98"/>
<stop offset="0.56" stop-color="#1F0D43"/>
<stop offset="1"/>
</linearGradient>
<radialGradient id="paint24_radial_1289_76" cx="0" cy="0" r="1" gradientUnits="userSpaceOnUse" gradientTransform="translate(984.651 119.726) rotate(124.731) scale(10.9376 10.9374)">
<stop stop-color="#25BCEC"/>
<stop offset="0.593496" stop-color="#467AF6"/>
<stop offset="1" stop-color="#6639FF"/>
</radialGradient>
<clipPath id="clip0_1289_76">
<rect width="1162" height="485" fill="white"/>
</clipPath>
</defs>
</svg>
