<svg width="86" height="86" viewBox="0 0 86 86" fill="none" xmlns="http://www.w3.org/2000/svg">
<rect width="86" height="86" rx="16" fill="#443796"/>
<path fill-rule="evenodd" clip-rule="evenodd" d="M57.4671 28C53.2901 28 48.823 28.9422 48.0764 30.9944C49.521 31.2044 50.8572 31.5035 52.0186 31.8854C53.5591 32.3918 54.8088 33.0485 55.7332 33.8373C56.2613 34.288 56.6585 34.7556 56.9552 35.2192C57.1262 35.2223 57.297 35.2241 57.4671 35.2241C62.0428 35.2241 66.9674 34.0938 66.9674 31.612C66.9674 29.1303 62.0428 28 57.4671 28ZM19.0325 31.6121C19.0325 29.1305 23.9571 28 28.5329 28.0001C32.7062 28.0001 37.1691 28.9407 37.9218 30.9891C36.4629 31.1992 35.1138 31.5004 33.9424 31.8855C32.4019 32.3919 31.1521 33.0485 30.2277 33.8374C29.6992 34.2884 29.3019 34.7562 29.0052 35.22C28.8474 35.2227 28.6899 35.2242 28.5328 35.2242C23.9571 35.2242 19.0325 34.0938 19.0325 31.6121ZM28.1895 38.0102C25.5707 37.9814 23.0938 37.6245 21.1823 36.996C20.3147 36.7107 19.5956 36.3791 19 36.0202V38.7869L19.2265 39.0841C20.274 40.3481 23.8488 41.6485 28.1482 41.7356V38.7543C28.1482 38.5797 28.1652 38.4091 28.1961 38.2435C28.1921 38.1635 28.1898 38.0856 28.1895 38.0102ZM19 42.4056V44.1857C19 45.852 20.7428 46.8202 22.2048 47.339C23.8196 47.912 25.9176 48.2411 28.1481 48.2751V44.5251C24.548 44.4627 21.2192 43.666 19 42.4056ZM57.8128 44.5269V48.2755C60.0578 48.2447 62.1708 47.9154 63.7952 47.339C66.444 46.3991 67 45.1053 67 44.1856V42.4808C64.731 43.715 61.365 44.4891 57.8128 44.5269ZM57.7714 38.0105C60.4047 37.9848 62.8968 37.6275 64.8177 36.996C65.6853 36.7107 66.4044 36.3791 66.9998 36.0201V39.0271C66.946 39.0702 66.8937 39.1162 66.8454 39.1683C65.7121 40.3899 62.1811 41.6858 57.8127 41.7381V38.7543C57.8127 38.5797 57.7957 38.4091 57.7648 38.2434C57.7689 38.1635 57.7711 38.0858 57.7714 38.0105ZM30.9596 51.1623C33.8226 52.8399 38.3422 53.9083 43.0727 53.9083C47.7205 53.9083 52.1322 52.8977 55.0014 51.2747V53.8387C55.0014 54.9986 54.3003 56.6299 50.9599 57.8152C48.8071 58.5793 45.9732 59 42.9805 59C39.9878 59 37.1539 58.5793 35.001 57.8152C33.1573 57.161 30.9596 55.9401 30.9596 53.8387V51.1623ZM52.0186 44.0817C49.5756 44.8849 46.3658 45.3272 42.9804 45.3272C39.5951 45.3272 36.3853 44.8849 33.9423 44.0817C32.7764 43.6985 31.7774 43.2289 30.9595 42.6813V47.6331C32.359 49.3266 37.0664 51.1195 43.0726 51.1195C48.8172 51.1195 53.3837 49.4799 55.0012 47.8348V42.6813C54.1835 43.2289 53.1845 43.6984 52.0186 44.0817ZM31.0007 37.9835C31.0007 34.8541 37.2107 33.4287 42.9805 33.4287C48.7502 33.4287 54.9603 34.8541 54.9603 37.9835C54.9603 41.113 48.7503 42.5384 42.9805 42.5384C37.2107 42.5384 31.0007 41.113 31.0007 37.9835Z" fill="white"/>
</svg>
