<svg width="935" height="105" viewBox="0 0 935 105" fill="none" xmlns="http://www.w3.org/2000/svg">
<path d="M89.3725 45.1H90.3725V44.1H89.3725V45.1ZM51.7225 45.1V44.1H50.7225V45.1H51.7225ZM51.7225 62.95H50.7225V63.95H51.7225V62.95ZM67.3225 62.95H68.3225V61.95H67.3225V62.95ZM67.3225 84.1L67.7697 84.9944L68.3225 84.718V84.1H67.3225ZM81.2725 24.1L80.8756 25.0179L81.9443 25.48L82.2397 24.3537L81.2725 24.1ZM86.0725 5.8L87.0397 6.05371L87.2483 5.25874L86.5087 4.90019L86.0725 5.8ZM0.272461 53.65L1.27243 53.6601L1.27245 53.6545L0.272461 53.65ZM14.5225 90.4L15.2179 89.6814L15.2118 89.6755L15.2056 89.6697L14.5225 90.4ZM89.3725 98.35L89.6947 99.2966L90.3725 99.0659V98.35H89.3725ZM89.3725 44.1H51.7225V46.1H89.3725V44.1ZM50.7225 45.1V62.95H52.7225V45.1H50.7225ZM51.7225 63.95H67.3225V61.95H51.7225V63.95ZM66.3225 62.95V84.1H68.3225V62.95H66.3225ZM66.8753 83.2056C66.1277 83.5793 64.7624 83.9376 62.8565 84.1966C60.9787 84.4518 58.6623 84.6 56.0725 84.6V86.6C58.7327 86.6 61.1412 86.4482 63.1259 86.1784C65.0825 85.9124 66.7172 85.5207 67.7697 84.9944L66.8753 83.2056ZM56.0725 84.6C46.9198 84.6 39.2419 81.6023 33.853 76.1414C28.4644 70.6806 25.2725 62.663 25.2725 52.45H23.2725C23.2725 63.087 26.6056 71.6444 32.4294 77.5461C38.2531 83.4477 46.4751 86.6 56.0725 86.6V84.6ZM25.2725 52.45C25.2725 41.7307 28.7886 33.8436 34.5264 28.6274C40.2792 23.3976 48.3789 20.75 57.7225 20.75V18.75C48.016 18.75 39.3907 21.5024 33.181 27.1476C26.9563 32.8064 23.2725 41.2693 23.2725 52.45H25.2725ZM57.7225 20.75C68.686 20.75 75.4509 22.6721 80.8756 25.0179L81.6694 23.1821C75.994 20.7279 68.9589 18.75 57.7225 18.75V20.75ZM82.2397 24.3537L87.0397 6.05371L85.1052 5.54629L80.3052 23.8463L82.2397 24.3537ZM86.5087 4.90019C81.3868 2.41681 71.1778 -0.150008 58.0225 -0.150008V1.84999C70.9672 1.84999 80.8581 4.38318 85.6362 6.69981L86.5087 4.90019ZM58.0225 -0.150008C41.2605 -0.150008 26.6087 4.70493 16.1136 13.8978C5.60296 23.1041 -0.651373 36.5866 -0.727529 53.6455L1.27245 53.6545C1.3463 37.1134 7.39197 24.1959 17.4314 15.4022C27.4862 6.59505 41.6344 1.84999 58.0225 1.84999V-0.150008ZM-0.727488 53.6399C-0.879788 68.7176 4.29914 82.2056 13.8393 91.1303L15.2056 89.6697C6.14578 81.1944 1.12471 68.2824 1.27241 53.6601L-0.727488 53.6399ZM13.827 91.1186C23.3712 100.355 37.006 105.05 55.6225 105.05V103.05C37.3389 103.05 24.2738 98.4451 15.2179 89.6814L13.827 91.1186ZM55.6225 105.05C69.113 105.05 82.575 101.72 89.6947 99.2966L89.0502 97.4033C82.0699 99.7796 68.8319 103.05 55.6225 103.05V105.05ZM90.3725 98.35V45.1H88.3725V98.35H90.3725ZM166.719 -0.750009C151.525 -0.750009 138.951 5.0217 130.184 14.6908C121.425 24.3505 116.519 37.8389 116.519 53.2H118.519C118.519 38.2611 123.287 25.2745 131.666 16.0342C140.036 6.80328 152.062 1.24999 166.719 1.24999V-0.750009ZM116.519 53.2C116.519 67.7977 120.967 80.9087 129.292 90.385C137.631 99.876 149.798 105.65 165.069 105.65V103.65C150.339 103.65 138.732 98.099 130.795 89.065C122.845 80.0163 118.519 67.4023 118.519 53.2H116.519ZM165.069 105.65C180.078 105.65 192.766 100.54 201.699 91.1453C210.629 81.755 215.719 68.1775 215.719 51.4H213.719C213.719 67.7725 208.758 80.82 200.25 89.7671C191.746 98.7102 179.61 103.65 165.069 103.65V105.65ZM215.719 51.4C215.719 37.2545 211.421 24.2191 203.116 14.7048C194.795 5.17348 182.513 -0.750009 166.719 -0.750009V1.24999C181.974 1.24999 193.692 6.95151 201.609 16.0201C209.541 25.1059 213.719 37.6455 213.719 51.4H215.719ZM166.119 19.4C173.612 19.4 179.433 23.0914 183.42 29.0264C187.426 34.9898 189.569 43.2186 189.569 52.15H191.569C191.569 42.9314 189.362 34.2852 185.08 27.9111C180.779 21.5086 174.375 17.4 166.119 17.4V19.4ZM189.569 52.15C189.569 61.8413 187.384 70.2151 183.384 76.1338C179.406 82.0196 173.627 85.5 166.269 85.5V87.5C174.36 87.5 180.731 83.6304 185.041 77.2537C189.328 70.9098 191.569 62.1087 191.569 52.15H189.569ZM166.269 85.5C158.964 85.5 153.109 82.1875 149.046 76.4707C144.962 70.724 142.669 62.5079 142.669 52.75H140.669C140.669 62.792 143.025 71.451 147.416 77.6293C151.828 83.8375 158.273 87.5 166.269 87.5V85.5ZM142.669 52.75C142.669 43.0619 144.889 34.6888 148.926 28.7697C152.941 22.8819 158.759 19.4 166.119 19.4V17.4C158.029 17.4 151.621 21.2681 147.274 27.6428C142.948 33.9862 140.669 42.7881 140.669 52.75H142.669ZM329.138 45.1H330.138V44.1H329.138V45.1ZM291.488 45.1V44.1H290.488V45.1H291.488ZM291.488 62.95H290.488V63.95H291.488V62.95ZM307.088 62.95H308.088V61.95H307.088V62.95ZM307.088 84.1L307.535 84.9944L308.088 84.718V84.1H307.088ZM321.038 24.1L320.641 25.0179L321.71 25.48L322.005 24.3537L321.038 24.1ZM325.838 5.8L326.805 6.05371L327.014 5.25874L326.274 4.90019L325.838 5.8ZM240.038 53.65L241.038 53.6601L241.038 53.6545L240.038 53.65ZM254.288 90.4L254.984 89.6814L254.977 89.6755L254.971 89.6697L254.288 90.4ZM329.138 98.35L329.46 99.2966L330.138 99.0659V98.35H329.138ZM329.138 44.1H291.488V46.1H329.138V44.1ZM290.488 45.1V62.95H292.488V45.1H290.488ZM291.488 63.95H307.088V61.95H291.488V63.95ZM306.088 62.95V84.1H308.088V62.95H306.088ZM306.641 83.2056C305.893 83.5793 304.528 83.9376 302.622 84.1966C300.744 84.4518 298.428 84.6 295.838 84.6V86.6C298.498 86.6 300.907 86.4482 302.892 86.1784C304.848 85.9124 306.483 85.5207 307.535 84.9944L306.641 83.2056ZM295.838 84.6C286.685 84.6 279.007 81.6023 273.619 76.1414C268.23 70.6806 265.038 62.663 265.038 52.45H263.038C263.038 63.087 266.371 71.6444 272.195 77.5461C278.019 83.4477 286.241 86.6 295.838 86.6V84.6ZM265.038 52.45C265.038 41.7307 268.554 33.8436 274.292 28.6274C280.045 23.3976 288.145 20.75 297.488 20.75V18.75C287.782 18.75 279.156 21.5024 272.947 27.1476C266.722 32.8064 263.038 41.2693 263.038 52.45H265.038ZM297.488 20.75C308.452 20.75 315.217 22.6721 320.641 25.0179L321.435 23.1821C315.76 20.7279 308.725 18.75 297.488 18.75V20.75ZM322.005 24.3537L326.805 6.05371L324.871 5.54629L320.071 23.8463L322.005 24.3537ZM326.274 4.90019C321.152 2.41681 310.943 -0.150008 297.788 -0.150008V1.84999C310.733 1.84999 320.624 4.38318 325.402 6.69981L326.274 4.90019ZM297.788 -0.150008C281.026 -0.150008 266.374 4.70493 255.879 13.8978C245.369 23.1041 239.114 36.5866 239.038 53.6455L241.038 53.6545C241.112 37.1134 247.158 24.1959 257.197 15.4022C267.252 6.59505 281.4 1.84999 297.788 1.84999V-0.150008ZM239.038 53.6399C238.886 68.7176 244.065 82.2056 253.605 91.1303L254.971 89.6697C245.911 81.1944 240.89 68.2824 241.038 53.6601L239.038 53.6399ZM253.593 91.1186C263.137 100.355 276.772 105.05 295.388 105.05V103.05C277.105 103.05 264.039 98.4451 254.984 89.6814L253.593 91.1186ZM295.388 105.05C308.879 105.05 322.341 101.72 329.46 99.2966L328.816 97.4033C321.836 99.7796 308.598 103.05 295.388 103.05V105.05ZM330.138 98.35V45.1H328.138V98.35H330.138ZM406.484 -0.750009C391.291 -0.750009 378.717 5.0217 369.95 14.6908C361.191 24.3505 356.284 37.8389 356.284 53.2H358.284C358.284 38.2611 363.053 25.2745 371.431 16.0342C379.801 6.80328 391.828 1.24999 406.484 1.24999V-0.750009ZM356.284 53.2C356.284 67.7977 360.733 80.9087 369.058 90.385C377.396 99.876 389.563 105.65 404.834 105.65V103.65C390.105 103.65 378.497 98.099 370.56 89.065C362.611 80.0163 358.284 67.4023 358.284 53.2H356.284ZM404.834 105.65C419.843 105.65 432.532 100.54 441.465 91.1453C450.395 81.755 455.484 68.1775 455.484 51.4H453.484C453.484 67.7725 448.524 80.82 440.016 89.7671C431.512 98.7102 419.375 103.65 404.834 103.65V105.65ZM455.484 51.4C455.484 37.2545 451.187 24.2191 442.881 14.7048C434.561 5.17348 422.279 -0.750009 406.484 -0.750009V1.24999C421.739 1.24999 433.458 6.95151 441.375 16.0201C449.306 25.1059 453.484 37.6455 453.484 51.4H455.484ZM405.884 19.4C413.378 19.4 419.199 23.0914 423.185 29.0264C427.191 34.9898 429.334 43.2186 429.334 52.15H431.334C431.334 42.9314 429.127 34.2852 424.846 27.9111C420.545 21.5086 414.141 17.4 405.884 17.4V19.4ZM429.334 52.15C429.334 61.8413 427.149 70.2151 423.149 76.1338C419.172 82.0196 413.393 85.5 406.034 85.5V87.5C414.126 87.5 420.497 83.6304 424.806 77.2537C429.094 70.9098 431.334 62.1087 431.334 52.15H429.334ZM406.034 85.5C398.73 85.5 392.875 82.1875 388.812 76.4707C384.728 70.724 382.434 62.5079 382.434 52.75H380.434C380.434 62.792 382.791 71.451 387.182 77.6293C391.594 83.8375 398.039 87.5 406.034 87.5V85.5ZM382.434 52.75C382.434 43.0619 384.655 34.6888 388.692 28.7697C392.707 22.8819 398.524 19.4 405.884 19.4V17.4C397.794 17.4 391.387 21.2681 387.039 27.6428C382.713 33.9862 380.434 42.7881 380.434 52.75H382.434ZM484.454 103H483.454V104H484.454V103ZM547.604 103V104H548.604V103H547.604ZM547.604 83.8H548.604V82.8H547.604V83.8ZM507.404 83.8H506.404V84.8H507.404V83.8ZM507.404 1.9H508.404V0.899996H507.404V1.9ZM484.454 1.9V0.899996H483.454V1.9H484.454ZM484.454 104H547.604V102H484.454V104ZM548.604 103V83.8H546.604V103H548.604ZM547.604 82.8H507.404V84.8H547.604V82.8ZM508.404 83.8V1.9H506.404V83.8H508.404ZM507.404 0.899996H484.454V2.9H507.404V0.899996ZM483.454 1.9V103H485.454V1.9H483.454ZM641.152 82.3L642.134 82.1102L641.904 80.9221L640.781 81.3715L641.152 82.3ZM641.152 22.9L640.765 23.8222L641.833 24.2701L642.121 23.1482L641.152 22.9ZM645.802 4.75L646.771 4.99818L646.968 4.22815L646.262 3.86224L645.802 4.75ZM644.602 100.15L645.049 101.044L645.728 100.705L645.584 99.9602L644.602 100.15ZM640.781 81.3715C636.414 83.1182 628.892 84.6 622.102 84.6V86.6C629.112 86.6 636.89 85.0818 641.524 83.2285L640.781 81.3715ZM622.102 84.6C612.115 84.6 604.295 81.484 598.97 75.9973C593.641 70.5065 590.702 62.5289 590.702 52.6H588.702C588.702 62.9211 591.763 71.4435 597.535 77.3902C603.31 83.341 611.69 86.6 622.102 86.6V84.6ZM590.702 52.6C590.702 41.5658 594.153 33.485 599.713 28.1596C605.281 22.8259 613.074 20.15 621.952 20.15V18.15C612.68 18.15 604.349 20.9491 598.329 26.7154C592.301 32.49 588.702 41.1342 588.702 52.6H590.702ZM621.952 20.15C629.9 20.15 636.219 21.9156 640.765 23.8222L641.539 21.9778C636.785 19.9844 630.204 18.15 621.952 18.15V20.15ZM642.121 23.1482L646.771 4.99818L644.833 4.50181L640.183 22.6518L642.121 23.1482ZM646.262 3.86224C642.027 1.66616 632.856 -0.750009 620.902 -0.750009V1.24999C632.649 1.24999 641.477 3.63383 645.342 5.63775L646.262 3.86224ZM620.902 -0.750009C605.397 -0.750009 591.342 4.11554 581.153 13.4242C570.95 22.7443 564.702 36.4471 564.702 53.95H566.702C566.702 36.9529 572.754 23.8057 582.502 14.9008C592.262 5.98444 605.807 1.24999 620.902 1.24999V-0.750009ZM564.702 53.95C564.702 68.5572 569.27 81.4652 578.357 90.7254C587.45 99.9909 600.964 105.5 618.652 105.5V103.5C601.39 103.5 588.43 98.1341 579.785 89.3246C571.134 80.5098 566.702 68.1428 566.702 53.95H564.702ZM618.652 105.5C631.036 105.5 640.658 103.24 645.049 101.044L644.155 99.2556C640.146 101.26 630.869 103.5 618.652 103.5V105.5ZM645.584 99.9602L642.134 82.1102L640.17 82.4898L643.62 100.34L645.584 99.9602ZM714.57 -0.750009C699.377 -0.750009 686.803 5.0217 678.036 14.6908C669.277 24.3505 664.37 37.8389 664.37 53.2H666.37C666.37 38.2611 671.139 25.2745 679.517 16.0342C687.887 6.80328 699.913 1.24999 714.57 1.24999V-0.750009ZM664.37 53.2C664.37 67.7977 668.819 80.9087 677.144 90.385C685.482 99.876 697.649 105.65 712.92 105.65V103.65C698.191 103.65 686.583 98.099 678.646 89.065C670.697 80.0163 666.37 67.4023 666.37 53.2H664.37ZM712.92 105.65C727.929 105.65 740.618 100.54 749.551 91.1453C758.481 81.755 763.57 68.1775 763.57 51.4H761.57C761.57 67.7725 756.61 80.82 748.102 89.7671C739.598 98.7102 727.461 103.65 712.92 103.65V105.65ZM763.57 51.4C763.57 37.2545 759.273 24.2191 750.967 14.7048C742.646 5.17348 730.365 -0.750009 714.57 -0.750009V1.24999C729.825 1.24999 741.544 6.95151 749.461 16.0201C757.392 25.1059 761.57 37.6455 761.57 51.4H763.57ZM713.97 19.4C721.464 19.4 727.285 23.0914 731.271 29.0264C735.277 34.9898 737.42 43.2186 737.42 52.15H739.42C739.42 42.9314 737.213 34.2852 732.931 27.9111C728.631 21.5086 722.227 17.4 713.97 17.4V19.4ZM737.42 52.15C737.42 61.8413 735.235 70.2151 731.235 76.1338C727.257 82.0196 721.479 85.5 714.12 85.5V87.5C722.212 87.5 728.583 83.6304 732.892 77.2537C737.18 70.9098 739.42 62.1087 739.42 52.15H737.42ZM714.12 85.5C706.816 85.5 700.961 82.1875 696.898 76.4707C692.814 70.724 690.52 62.5079 690.52 52.75H688.52C688.52 62.792 690.877 71.451 695.268 77.6293C699.68 83.8375 706.125 87.5 714.12 87.5V85.5ZM690.52 52.75C690.52 43.0619 692.741 34.6888 696.778 28.7697C700.793 22.8819 706.61 19.4 713.97 19.4V17.4C705.88 17.4 699.472 21.2681 695.125 27.6428C690.799 33.9862 688.52 42.7881 688.52 52.75H690.52ZM792.54 1.9V0.899996H791.54V1.9H792.54ZM792.54 103H791.54V104H792.54V103ZM815.49 103V104H816.49V103H815.49ZM815.49 1.9H816.49V0.899996H815.49V1.9ZM791.54 1.9V103H793.54V1.9H791.54ZM792.54 104H815.49V102H792.54V104ZM816.49 103V1.9H814.49V103H816.49ZM815.49 0.899996H792.54V2.9H815.49V0.899996ZM871.313 103V104H872.313V103H871.313ZM870.413 28.45L870.097 27.5013L869.38 27.7402L869.414 28.4949L870.413 28.45ZM870.863 28.3L871.786 27.9146L871.428 27.0576L870.547 27.3513L870.863 28.3ZM888.413 64L889.288 63.5155L889.287 63.5144L888.413 64ZM910.013 103L909.138 103.484L909.424 104H910.013V103ZM934.013 103V104H935.013V103H934.013ZM934.013 1.9H935.013V0.899996H934.013V1.9ZM913.013 1.9V0.899996H912.013V1.9H913.013ZM914.963 73.6V74.6H916.082L915.957 73.4883L914.963 73.6ZM914.513 73.6L913.583 73.9672L913.833 74.6H914.513V73.6ZM898.013 38.95L898.884 38.4592L898.883 38.4569L898.013 38.95ZM877.013 1.9L877.883 1.40689L877.596 0.899996H877.013V1.9ZM850.313 1.9V0.899996H849.313V1.9H850.313ZM850.313 103H849.313V104H850.313V103ZM872.313 103V72.55H870.313V103H872.313ZM872.313 72.55C872.313 56.0377 872.013 41.7725 871.412 28.4051L869.414 28.4949C870.013 41.8275 870.313 56.0623 870.313 72.55H872.313ZM870.729 29.3987L871.179 29.2487L870.547 27.3513L870.097 27.5013L870.729 29.3987ZM869.94 28.6854C874.909 40.5794 881.527 53.6639 887.539 64.4856L889.287 63.5144C883.299 52.7361 876.717 39.7205 871.786 27.9146L869.94 28.6854ZM887.538 64.4845L909.138 103.484L910.888 102.516L889.288 63.5155L887.538 64.4845ZM910.013 104H934.013V102H910.013V104ZM935.013 103V1.9H933.013V103H935.013ZM934.013 0.899996H913.013V2.9H934.013V0.899996ZM912.013 1.9V31.45H914.013V1.9H912.013ZM912.013 31.45C912.013 46.618 912.463 60.3094 913.969 73.7117L915.957 73.4883C914.463 60.1906 914.013 46.582 914.013 31.45H912.013ZM914.963 72.6H914.513V74.6H914.963V72.6ZM915.443 73.2328C910.927 61.7904 904.907 49.1491 898.884 38.4592L897.142 39.4408C903.119 50.0509 909.1 62.6096 913.583 73.9672L915.443 73.2328ZM898.883 38.4569L877.883 1.40689L876.143 2.3931L897.143 39.4431L898.883 38.4569ZM877.013 0.899996H850.313V2.9H877.013V0.899996ZM849.313 1.9V103H851.313V1.9H849.313ZM850.313 104H871.313V102H850.313V104Z" fill="url(#paint0_linear_1085_7496)"/>
<defs>
<linearGradient id="paint0_linear_1085_7496" x1="469.921" y1="22.9149" x2="470.226" y2="140.999" gradientUnits="userSpaceOnUse">
<stop stop-color="#DDA46F"/>
<stop offset="0.552083" stop-color="#FFF4FA" stop-opacity="0"/>
</linearGradient>
</defs>
</svg>
