<svg width="16" height="16" viewBox="0 0 16 16" fill="none" xmlns="http://www.w3.org/2000/svg">
<path fill-rule="evenodd" clip-rule="evenodd" d="M8 0C5.82667 0 5.556 0.00933333 4.70133 0.0493333C1.79467 0.182667 0.181333 1.79467 0.048 4.70133C0.00933333 5.556 0 5.828 0 8C0 10.1733 0.00933333 10.4453 0.048 11.2987C0.181333 14.204 1.79467 15.8187 4.70133 15.952C5.556 15.9907 5.82667 16 8 16C10.1733 16 10.4453 15.9907 11.3 15.952C14.2013 15.8187 15.8213 14.2067 15.952 11.2987C15.9907 10.4453 16 10.1733 16 8C16 5.828 15.9907 5.556 15.952 4.70133C15.8213 1.79867 14.2067 0.181333 11.3 0.0493333C10.4453 0.00933333 10.1733 0 8 0ZM8.00006 1.44141C10.1361 1.44141 10.3894 1.44941 11.2334 1.48808C13.4027 1.58675 14.4134 2.61485 14.5134 4.76704C14.5507 5.61112 14.5587 5.86314 14.5587 7.99933C14.5587 10.1355 14.5507 10.3889 14.5134 11.2316C14.4134 13.3825 13.4041 14.4132 11.2334 14.5119C10.3894 14.5493 10.1374 14.5586 8.00006 14.5586C5.86407 14.5586 5.61073 14.5506 4.76807 14.5119C2.59474 14.4119 1.58807 13.3798 1.48807 11.2316C1.45074 10.3889 1.44141 10.1355 1.44141 7.99933C1.44141 5.86314 1.45074 5.60978 1.48807 4.76704C1.58674 2.61351 2.5974 1.58542 4.76807 1.48674C5.61073 1.44807 5.86407 1.44141 8.00006 1.44141ZM3.89209 7.99862C3.89209 5.72929 5.73209 3.89062 8.00009 3.89062C10.2681 3.89062 12.1081 5.73063 12.1081 7.99862C12.1081 10.268 10.2681 12.1066 8.00009 12.1066C5.73209 12.1066 3.89209 10.268 3.89209 7.99862ZM8.00016 10.6654C6.52683 10.6654 5.3335 9.47203 5.3335 7.9987C5.3335 6.5267 6.52683 5.33203 8.00016 5.33203C9.47216 5.33203 10.6682 6.52536 10.6682 7.9987C10.6682 9.47203 9.47216 10.6654 8.00016 10.6654ZM11.3093 3.73047C11.3093 3.19928 11.74 2.76953 12.2694 2.76953C12.8014 2.76953 13.2307 3.19928 13.2307 3.73047C13.2307 4.26165 12.8 4.69141 12.2694 4.69141C11.7387 4.69141 11.3093 4.26032 11.3093 3.73047Z" fill="white"/>
</svg>
