<svg width="540" height="355" viewBox="0 0 540 355" fill="none" xmlns="http://www.w3.org/2000/svg">
<g clip-path="url(#clip0_541_176)">
<path d="M25.8613 355H517.907C545.183 332.101 546.738 292.31 507.929 247.351C477.507 212.081 516.557 164.68 448.47 134.083C405.247 114.666 355.467 158.978 330.081 135.163C304.695 111.348 249.961 79.3131 208.939 114.613C167.917 149.913 120.162 147.317 88.5482 159.419C56.9348 171.52 45.1545 187.197 44.1861 217.136C43.1119 250.369 17.2976 265.318 3.72715 296.473C-5.29437 317.182 2.03084 351.237 25.8613 355Z" fill="#333679"/>
<path d="M410.224 0H112.197C101.95 0 93.6431 8.30959 93.6431 18.56V173.816C93.6431 184.066 101.95 192.376 112.197 192.376H410.224C420.471 192.376 428.778 184.066 428.778 173.816V18.56C428.778 8.30959 420.471 0 410.224 0Z" fill="url(#paint0_linear_541_176)"/>
<path d="M411.316 186.891H111.093C107.704 186.888 104.454 185.54 102.057 183.142C99.6603 180.745 98.3124 177.494 98.3093 174.103V18.2839C98.3124 14.8926 99.6601 11.6411 102.057 9.24256C104.453 6.84404 107.703 5.49441 111.093 5.48975H411.316C414.706 5.49441 417.956 6.84404 420.352 9.24256C422.749 11.6411 424.096 14.8926 424.1 18.2839V174.103C424.096 177.494 422.749 180.745 420.352 183.142C417.955 185.54 414.705 186.888 411.316 186.891ZM111.093 6.31764C107.922 6.32229 104.882 7.58451 102.64 9.82761C100.398 12.0707 99.1357 15.1117 99.1311 18.2839V174.103C99.1357 177.275 100.398 180.315 102.64 182.557C104.883 184.799 107.923 186.06 111.093 186.064H411.316C414.486 186.06 417.526 184.799 419.769 182.557C422.011 180.315 423.273 177.275 423.278 174.103V18.2839C423.275 15.1112 422.013 12.0693 419.771 9.82589C417.528 7.58246 414.487 6.32074 411.316 6.31764H111.093Z" fill="white"/>
<path d="M403.286 14.4263H318.389C311.695 14.4263 306.268 19.8547 306.268 26.551V71.4097C306.268 78.106 311.695 83.5345 318.389 83.5345H403.286C409.98 83.5345 415.407 78.106 415.407 71.4097V26.551C415.407 19.8547 409.98 14.4263 403.286 14.4263Z" fill="#E7DFF7"/>
<path d="M307.283 76.7001C307.174 76.7001 307.07 76.6568 306.993 76.5798C306.916 76.5027 306.873 76.3981 306.873 76.2891C306.873 76.2173 306.891 76.1466 306.925 76.0836C311.686 67.7343 319.527 57.2947 329.858 54.8756C339.132 52.7266 342.994 57.8114 346.099 61.8745C348.77 65.3974 350.883 68.1512 355.49 66.1901C359.528 64.4697 362.082 58.4807 365.046 51.5464C369.712 40.6194 375.523 27.0268 390.156 22.7758C396.454 20.9497 408.216 22.2474 413.904 25.3886C414 25.4416 414.071 25.5304 414.101 25.6356C414.131 25.7407 414.118 25.8536 414.066 25.9494C414.013 26.0451 413.924 26.116 413.819 26.1462C413.714 26.1765 413.601 26.1638 413.505 26.1108C407.97 23.0165 396.513 21.7776 390.361 23.5567C376.098 27.702 370.405 41.1009 365.774 51.8635C362.745 58.9622 360.127 65.0921 355.795 66.9416C350.607 69.1552 348.1 65.8789 345.441 62.3559C342.331 58.2459 338.797 53.6367 330.046 55.6624C320.009 58.011 312.331 68.251 307.653 76.4594C307.62 76.5297 307.567 76.5894 307.502 76.6319C307.437 76.6744 307.361 76.698 307.283 76.7001Z" fill="#A193E5"/>
<path d="M352.866 67.6401C352.812 67.6401 352.759 67.6295 352.709 67.6088C352.659 67.5882 352.614 67.5579 352.576 67.5197C352.538 67.4815 352.507 67.4362 352.487 67.3864C352.466 67.3365 352.456 67.2831 352.456 67.2291V41.7054C352.456 41.5964 352.499 41.4919 352.576 41.4148C352.653 41.3377 352.757 41.2944 352.866 41.2944C352.975 41.2944 353.08 41.3377 353.157 41.4148C353.234 41.4919 353.277 41.5964 353.277 41.7054V67.2408C353.274 67.3478 353.23 67.4493 353.153 67.5239C353.076 67.5985 352.973 67.6401 352.866 67.6401Z" fill="#A193E5"/>
<path d="M332.57 55.2571C332.46 55.2571 332.355 55.214 332.277 55.1371C332.199 55.0601 332.154 54.9556 332.153 54.8461V37.6307C332.165 37.5294 332.214 37.436 332.29 37.3683C332.366 37.3006 332.465 37.2632 332.567 37.2632C332.669 37.2632 332.767 37.3006 332.843 37.3683C332.92 37.436 332.968 37.5294 332.98 37.6307V54.8461C332.979 54.9546 332.935 55.0583 332.858 55.135C332.782 55.2118 332.678 55.2556 332.57 55.2571Z" fill="#A193E5"/>
<path d="M332.57 39.2925C333.941 39.2925 335.052 38.1806 335.052 36.8089C335.052 35.4372 333.941 34.3252 332.57 34.3252C331.198 34.3252 330.087 35.4372 330.087 36.8089C330.087 38.1806 331.198 39.2925 332.57 39.2925Z" fill="#A193E5"/>
<path d="M353.189 42.5923C354.561 42.5923 355.672 41.4804 355.672 40.1087C355.672 38.737 354.561 37.625 353.189 37.625C351.818 37.625 350.707 38.737 350.707 40.1087C350.707 41.4804 351.818 42.5923 353.189 42.5923Z" fill="#A193E5"/>
<path d="M274.402 37.6601C274.402 37.6601 276.826 23.8502 263.291 17.1802C249.756 10.5101 231.372 19.4055 224.3 38.8051C217.227 58.2047 195.615 70.9342 164.307 76.1893C132.998 81.4443 127.405 135.087 149.762 149.437C172.119 163.787 189.957 149.537 197.634 151.052C205.311 152.566 268.75 99.2234 274.402 80.2289C280.055 61.2344 274.402 37.6601 274.402 37.6601Z" fill="url(#paint1_linear_541_176)"/>
<path d="M291.635 110.544L296.619 139.508C296.619 139.508 300.663 146.396 303.492 159.389C306.321 172.383 309.549 192.182 309.549 192.182H291.635C291.635 192.182 283.353 170.956 279.896 149.437C276.439 127.918 279.896 114.584 279.896 114.584L291.635 110.544Z" fill="url(#paint2_linear_541_176)"/>
<path d="M270.475 71.3394C270.475 71.3394 282.86 75.8605 291.753 98.419L294.987 109.387L279.884 114.613L270.475 71.3394Z" fill="url(#paint3_linear_541_176)"/>
<path d="M283.694 128.335C283.694 137.641 279.89 192.182 279.89 192.182H247.919C254.252 177.263 268.985 139.661 268.744 113.503C268.538 91.1563 267.382 77.9277 266.643 71.6392L270.475 71.3691C270.475 71.3691 288.137 85.5137 289.757 98.4429C291.377 111.372 283.694 119.029 283.694 128.335Z" fill="url(#paint4_linear_541_176)"/>
<path d="M246.322 67.0942L245.09 73.1595H237.23C237.23 73.1595 231.977 121.659 221.47 149.437C210.964 177.215 199.254 192.182 199.254 192.182H257.433C257.433 192.182 278.887 124.236 276.914 101.243C274.942 78.2502 270.458 71.3394 270.458 71.3394H264.201V67.0942H246.322Z" fill="url(#paint5_linear_541_176)"/>
<path d="M243.939 72.819C245.483 83.7929 248.893 114.143 243.288 138.023C238.005 160.528 228.555 182.746 224.282 192.182H146.422C146.422 192.182 155.62 181.672 168.55 167.727C181.481 153.782 196.419 113.374 208.939 89.1243C219.815 68.0571 239.067 71.539 243.939 72.819Z" fill="url(#paint6_linear_541_176)"/>
<path d="M309.115 84.4155L310.594 90.9388L304.947 86.5469L309.115 84.4155Z" fill="url(#paint7_linear_541_176)"/>
<path d="M299.897 66.3274C299.309 65.175 297.899 64.717 296.749 65.3045C295.598 65.8919 295.142 67.3024 295.73 68.4548L304.949 86.5236C305.537 87.676 306.947 88.134 308.097 87.5465C309.248 86.959 309.704 85.5486 309.116 84.3961L299.897 66.3274Z" fill="url(#paint8_linear_541_176)"/>
<path d="M295.795 64.4015L296.553 64.0145C296.934 63.8198 297.377 63.7846 297.784 63.9167C298.192 64.0487 298.53 64.3372 298.724 64.7186L298.861 64.9853L295.201 66.8538L295.065 66.5871C294.87 66.2057 294.835 65.7625 294.967 65.3551C295.099 64.9478 295.387 64.6096 295.769 64.4149L295.795 64.4015Z" fill="url(#paint9_linear_541_176)"/>
<path d="M220.261 128.334C220.261 128.334 221.776 141.534 230.868 142.961C239.959 144.387 293.59 88.0086 293.59 88.0086C293.59 88.0086 310.253 84.9789 311.163 82.8593C312.073 80.7397 309.361 73.1595 309.361 73.1595C309.361 73.1595 311.85 70.4292 311.363 68.609C310.876 66.7889 297.241 71.3393 297.241 71.3393L295.48 67.3584C295.48 67.3584 289.992 70.7345 289.992 74.6861V78.6259C289.992 78.6259 240.394 111.36 233.526 118.635C226.659 125.91 220.261 128.334 220.261 128.334Z" fill="url(#paint10_linear_541_176)"/>
<path d="M221.776 85.4432C221.776 85.4432 210.259 92.2542 214.198 113.169C218.136 134.083 219.792 134.083 219.792 134.083L237.324 116.809C237.324 116.809 236.039 78.9434 221.776 85.4432Z" fill="url(#paint11_linear_541_176)"/>
<path d="M117.544 144.693C117.544 143.353 116.459 142.268 115.12 142.268C113.781 142.268 112.696 143.353 112.696 144.693V154.181C112.696 155.52 113.781 156.606 115.12 156.606C116.459 156.606 117.544 155.52 117.544 154.181V144.693Z" fill="white"/>
<path d="M125.791 144.693C125.791 143.353 124.705 142.268 123.367 142.268C122.028 142.268 120.942 143.353 120.942 144.693V154.181C120.942 155.52 122.028 156.606 123.367 156.606C124.705 156.606 125.791 155.52 125.791 154.181V144.693Z" fill="white"/>
<path d="M152.186 144.693C152.186 143.353 151.101 142.268 149.762 142.268C148.423 142.268 147.338 143.353 147.338 144.693V154.181C147.338 155.52 148.423 156.606 149.762 156.606C151.101 156.606 152.186 155.52 152.186 154.181V144.693Z" fill="white"/>
<path d="M135.534 143.789V154.944C135.533 155.098 135.575 155.249 135.656 155.38C135.736 155.511 135.852 155.616 135.989 155.685C136.127 155.753 136.281 155.782 136.434 155.767C136.587 155.753 136.733 155.695 136.855 155.602L144.79 149.595C144.895 149.515 144.98 149.411 145.037 149.291C145.093 149.172 145.12 149.04 145.116 148.908C145.111 148.776 145.075 148.647 145.01 148.531C144.945 148.416 144.854 148.318 144.743 148.245L136.796 143.096C136.672 143.017 136.529 142.973 136.382 142.968C136.235 142.964 136.089 142.998 135.96 143.069C135.831 143.14 135.724 143.244 135.649 143.371C135.574 143.497 135.534 143.641 135.534 143.789Z" fill="white"/>
<path d="M396.196 146.301H163.585C161.854 146.301 160.45 147.705 160.45 149.437C160.45 151.168 161.854 152.572 163.585 152.572H396.196C397.927 152.572 399.33 151.168 399.33 149.437C399.33 147.705 397.927 146.301 396.196 146.301Z" fill="white"/>
<path d="M256.623 155.972C260.231 155.972 263.156 153.046 263.156 149.437C263.156 145.828 260.231 142.902 256.623 142.902C253.015 142.902 250.09 145.828 250.09 149.437C250.09 153.046 253.015 155.972 256.623 155.972Z" fill="#FFC260"/>
<path d="M254.299 146.301H163.585C161.854 146.301 160.45 147.705 160.45 149.437C160.45 151.168 161.854 152.572 163.585 152.572H254.299C256.03 152.572 257.433 151.168 257.433 149.437C257.433 147.705 256.03 146.301 254.299 146.301Z" fill="#FFC260"/>
<path d="M263.221 57.8174H247.297V67.0944H263.221V57.8174Z" fill="url(#paint12_linear_541_176)"/>
<path opacity="0.2" d="M263.221 59.7023L247.297 57.9937V60.2718C248.864 62.1155 251.405 64.6755 255.262 65.2626C259.764 65.9496 262.07 64.5404 263.221 62.6439V59.7023Z" fill="#393150"/>
<path d="M261.401 35.1649C256.749 33.5448 252.562 30.8139 249.204 27.209C248.652 31.9062 247.314 37.9304 244.098 42.475C243.22 43.7331 242.127 44.8264 240.869 45.7044C240.705 45.675 234.841 44.7825 236.033 51.159C237.007 56.3612 242.806 57.5238 245.037 57.7763C247.429 60.1928 250.485 61.8439 253.816 62.5201C257.148 63.1963 260.606 62.8672 263.75 61.5744C266.894 60.2816 269.584 58.0835 271.477 55.259C273.371 52.4345 274.383 49.111 274.385 45.7102V37.6604C269.951 37.5344 265.566 36.6917 261.401 35.1649Z" fill="url(#paint13_linear_541_176)"/>
<path d="M269.595 45.8569C270.334 45.8569 270.933 44.5977 270.933 43.0444C270.933 41.4911 270.334 40.2319 269.595 40.2319C268.856 40.2319 268.257 41.4911 268.257 43.0444C268.257 44.5977 268.856 45.8569 269.595 45.8569Z" fill="url(#paint14_linear_541_176)"/>
<path d="M253.923 45.8569C254.663 45.8569 255.262 44.5977 255.262 43.0444C255.262 41.4911 254.663 40.2319 253.923 40.2319C253.184 40.2319 252.585 41.4911 252.585 43.0444C252.585 44.5977 253.184 45.8569 253.923 45.8569Z" fill="url(#paint15_linear_541_176)"/>
<path d="M261.853 53.4019C261.784 53.4021 261.716 53.385 261.656 53.3521C261.595 53.3193 261.544 53.2718 261.507 53.214C261.473 53.1686 261.45 53.1167 261.438 53.0617C261.425 53.0067 261.425 52.9497 261.436 52.8945C261.447 52.8392 261.469 52.7869 261.502 52.7408C261.534 52.6947 261.576 52.6559 261.624 52.6268L263.438 51.4114C264.506 50.7009 263.514 46.3031 262.469 43.4085C262.434 43.3049 262.44 43.1913 262.487 43.0924C262.534 42.9935 262.619 42.9172 262.722 42.88C262.825 42.8439 262.937 42.8495 263.036 42.8956C263.135 42.9417 263.212 43.0246 263.25 43.1266C263.702 44.3949 265.885 50.7597 263.896 52.0984L262.076 53.3138C262.013 53.3653 261.935 53.3961 261.853 53.4019Z" fill="black"/>
<path d="M249.046 35.3762C248.985 35.3765 248.924 35.3625 248.87 35.3351C248.82 35.3118 248.776 35.279 248.74 35.2386C248.704 35.1982 248.675 35.1509 248.657 35.0996C248.639 35.0482 248.632 34.9938 248.635 34.9395C248.638 34.8852 248.652 34.832 248.676 34.7831C249.316 33.462 250.208 32.6987 251.317 32.5108C253.706 32.1057 256.201 34.5659 256.306 34.6716C256.384 34.7494 256.428 34.855 256.428 34.9651C256.428 35.0753 256.384 35.1809 256.306 35.2587C256.229 35.3366 256.123 35.3803 256.013 35.3803C255.903 35.3803 255.797 35.3366 255.719 35.2587C255.719 35.2587 253.413 32.9864 251.452 33.3211C250.613 33.462 249.926 34.0785 249.415 35.1472C249.38 35.2153 249.327 35.2726 249.262 35.3129C249.197 35.3532 249.122 35.3751 249.046 35.3762Z" fill="black"/>
<path d="M255.262 56.2202H264.941C264.941 56.2202 258.883 63.2426 255.262 56.2202Z" fill="#F46060"/>
<path d="M264.236 35.3762C264.175 35.3772 264.114 35.3631 264.06 35.3351C264.011 35.3118 263.967 35.279 263.93 35.2386C263.894 35.1982 263.866 35.1509 263.848 35.0996C263.83 35.0482 263.822 34.9938 263.825 34.9395C263.829 34.8852 263.842 34.832 263.866 34.7831C264.506 33.462 265.392 32.6987 266.508 32.5108C268.897 32.1057 271.391 34.5659 271.497 34.6716C271.575 34.7494 271.618 34.855 271.618 34.9651C271.618 35.0753 271.575 35.1809 271.497 35.2587C271.419 35.3366 271.313 35.3803 271.203 35.3803C271.093 35.3803 270.988 35.3366 270.91 35.2587C270.91 35.2587 268.603 32.9864 266.637 33.3211C265.803 33.462 265.117 34.0785 264.6 35.1472C264.567 35.2157 264.515 35.2735 264.451 35.314C264.387 35.3544 264.312 35.376 264.236 35.3762Z" fill="black"/>
<path d="M495.761 260.832H409.707V298.721H495.761V260.832Z" fill="url(#paint16_linear_541_176)"/>
<path d="M498.197 263.862C499.286 263.862 500.332 263.429 501.102 262.658C501.873 261.887 502.305 260.842 502.305 259.751V254.579H290.872C287.591 254.579 284.443 255.883 282.123 258.204C279.803 260.525 278.499 263.673 278.499 266.956V292.72C278.5 294.345 278.82 295.953 279.443 297.454C280.065 298.955 280.976 300.318 282.125 301.466C283.274 302.615 284.638 303.525 286.139 304.146C287.64 304.767 289.248 305.087 290.872 305.086H502.323V299.919C502.323 298.829 501.89 297.783 501.12 297.013C500.349 296.242 499.304 295.809 498.214 295.809H418.676C417.586 295.809 416.541 295.376 415.771 294.605C415 293.834 414.567 292.789 414.567 291.699V267.989C414.567 266.899 415 265.854 415.771 265.083C416.541 264.312 417.586 263.879 418.676 263.879L498.197 263.862Z" fill="url(#paint17_linear_541_176)"/>
<path d="M376.045 258.695V300.97C376.045 302.825 377.841 304.393 380.312 304.921V305.092H373.627C370.287 305.092 367.581 303.242 367.581 300.981V258.706C367.581 256.434 370.287 254.596 373.627 254.596H380.312V254.778C377.841 255.271 376.045 256.839 376.045 258.695Z" fill="#F5DAC6"/>
<path d="M392.539 258.695V300.97C392.539 302.825 394.341 304.393 396.806 304.921V305.092H390.121C386.787 305.092 384.081 303.242 384.081 300.981V258.706C384.081 256.434 386.787 254.596 390.121 254.596H396.818V254.778C394.341 255.271 392.539 256.839 392.539 258.695Z" fill="#F5DAC6"/>
<path d="M272.148 348.535H358.202V310.646H272.148V348.535Z" fill="url(#paint18_linear_541_176)"/>
<path d="M269.701 313.658C268.611 313.658 267.566 313.225 266.795 312.455C266.025 311.684 265.592 310.638 265.592 309.548V304.381H477.031C480.313 304.381 483.46 305.685 485.78 308.007C488.101 310.328 489.404 313.476 489.404 316.759V342.523C489.404 345.806 488.101 348.954 485.78 351.275C483.46 353.596 480.313 354.9 477.031 354.9H265.58V349.727C265.58 348.637 266.013 347.592 266.783 346.821C267.554 346.05 268.599 345.617 269.689 345.617H349.227C350.317 345.617 351.362 345.184 352.133 344.413C352.903 343.643 353.336 342.597 353.336 341.507V317.804C353.336 316.714 352.903 315.668 352.133 314.897C351.362 314.127 350.317 313.694 349.227 313.694L269.701 313.658Z" fill="url(#paint19_linear_541_176)"/>
<path d="M391.858 308.515V350.79C391.858 352.645 390.056 354.213 387.591 354.742V354.918H394.276C397.61 354.918 400.322 353.068 400.322 350.808V308.532C400.322 306.254 397.61 304.422 394.276 304.422H387.591V304.604C390.056 305.092 391.858 306.659 391.858 308.515Z" fill="#F5C6C6"/>
<path d="M375.364 308.515V350.79C375.364 352.645 373.562 354.213 371.097 354.742V354.918H377.777C381.117 354.918 383.822 353.068 383.822 350.808V308.532C383.822 306.254 381.117 304.422 377.777 304.422H371.097V304.604C373.562 305.092 375.364 306.659 375.364 308.515Z" fill="#F5C6C6"/>
<path d="M510.165 320.047C510.165 320.047 521.124 305.127 526.6 277.625C533.872 241.051 525.89 231.674 512.707 267.99C503.791 292.521 510.165 320.047 510.165 320.047Z" fill="url(#paint20_linear_541_176)"/>
<path d="M510.189 320.458H510.142C510.088 320.455 510.035 320.441 509.986 320.418C509.937 320.394 509.894 320.361 509.858 320.321C509.822 320.28 509.794 320.233 509.776 320.182C509.758 320.131 509.751 320.077 509.754 320.023C511.861 278.758 522.52 260.227 522.626 260.045C522.682 259.951 522.773 259.883 522.879 259.856C522.986 259.829 523.098 259.845 523.192 259.901C523.287 259.957 523.355 260.049 523.382 260.155C523.409 260.261 523.392 260.374 523.336 260.468C523.231 260.65 512.648 279.028 510.576 320.064C510.57 320.166 510.528 320.262 510.457 320.334C510.385 320.407 510.29 320.451 510.189 320.458Z" fill="white"/>
<path d="M512.172 319.072C512.172 319.072 523.465 309.549 532.857 289.233C545.341 262.224 540.898 253.416 523.876 279.146C512.384 296.496 512.172 319.072 512.172 319.072Z" fill="url(#paint21_linear_541_176)"/>
<path d="M512.143 319.53C512.112 319.536 512.08 319.536 512.049 319.53C511.995 319.515 511.944 319.488 511.9 319.453C511.856 319.417 511.819 319.374 511.792 319.324C511.765 319.274 511.749 319.219 511.744 319.163C511.738 319.106 511.744 319.05 511.761 318.996C521.106 287.336 532.892 274.959 532.992 274.824C533.074 274.763 533.174 274.733 533.276 274.739C533.378 274.745 533.474 274.787 533.549 274.857C533.623 274.927 533.67 275.021 533.682 275.122C533.694 275.223 533.67 275.326 533.614 275.411C533.496 275.534 521.875 287.806 512.583 319.225C512.554 319.317 512.495 319.398 512.416 319.453C512.336 319.509 512.24 319.536 512.143 319.53Z" fill="#5B4A77"/>
<path d="M509.103 320.117C509.103 320.117 499.535 309.719 492.991 289.321C484.333 262.183 489.586 254.379 502.717 280.807C511.574 298.645 509.103 320.117 509.103 320.117Z" fill="url(#paint22_linear_541_176)"/>
<path d="M509.126 320.516C509.024 320.523 508.923 320.491 508.844 320.427C508.764 320.363 508.712 320.271 508.698 320.17C503.603 289.233 494.024 276.204 493.912 276.075C493.879 276.031 493.854 275.981 493.84 275.927C493.826 275.874 493.823 275.818 493.831 275.764C493.838 275.709 493.857 275.657 493.885 275.609C493.913 275.562 493.95 275.52 493.994 275.487C494.038 275.453 494.088 275.428 494.141 275.414C494.195 275.399 494.25 275.396 494.305 275.403C494.36 275.411 494.413 275.43 494.46 275.458C494.508 275.487 494.549 275.525 494.581 275.57C494.681 275.699 504.389 288.863 509.519 320.029C509.529 320.083 509.527 320.138 509.515 320.191C509.503 320.244 509.48 320.294 509.448 320.338C509.417 320.382 509.377 320.42 509.33 320.448C509.284 320.477 509.233 320.496 509.179 320.505L509.126 320.516Z" fill="#5B4A77"/>
<path d="M503.755 355H516.216C516.617 355.001 517.004 354.856 517.305 354.592C517.606 354.329 517.801 353.964 517.854 353.567L522.714 317.064H497.258L502.118 353.585C502.176 353.978 502.373 354.338 502.673 354.597C502.974 354.857 503.358 355 503.755 355Z" fill="url(#paint23_linear_541_176)"/>
<path d="M31.8426 321.016C31.8426 321.016 40.8406 310.106 46.1937 289.368C53.3076 261.772 47.6259 254.291 36.01 281.418C28.1682 299.725 31.8426 321.016 31.8426 321.016Z" fill="url(#paint24_linear_541_176)"/>
<path d="M31.8424 321.427H31.7954C31.6873 321.415 31.5883 321.36 31.52 321.276C31.4518 321.191 31.42 321.083 31.4315 320.974C34.7948 289.568 43.7576 275.881 43.8398 275.763C43.8706 275.717 43.9102 275.677 43.9563 275.646C44.0025 275.615 44.0544 275.594 44.1089 275.583C44.1634 275.572 44.2196 275.572 44.2741 275.583C44.3286 275.594 44.3805 275.615 44.4267 275.646C44.4732 275.677 44.5131 275.716 44.5439 275.763C44.5748 275.809 44.5961 275.861 44.6064 275.916C44.6168 275.971 44.6162 276.027 44.6045 276.082C44.5927 276.136 44.5702 276.188 44.5383 276.233C44.4502 276.362 35.6048 289.914 32.265 321.092C32.2456 321.189 32.1925 321.275 32.1151 321.337C32.0377 321.398 31.941 321.43 31.8424 321.427Z" fill="white"/>
<path d="M30.5219 321.609C30.5219 321.609 19.6339 306.613 14.2984 279.116C7.19624 242.507 15.2258 233.165 28.2386 269.54C37.0136 294.089 30.5219 321.609 30.5219 321.609Z" fill="url(#paint25_linear_541_176)"/>
<path d="M30.4984 322.02C30.3969 322.013 30.3016 321.969 30.2302 321.896C30.1589 321.824 30.1165 321.728 30.111 321.626C28.2092 280.584 17.7379 262.153 17.644 261.989C17.6024 261.895 17.5968 261.789 17.6284 261.691C17.66 261.594 17.7265 261.511 17.8153 261.459C17.904 261.408 18.0087 261.391 18.1092 261.411C18.2098 261.432 18.2991 261.489 18.3601 261.572C18.4658 261.754 29.0545 280.361 30.9445 321.609C30.9468 321.663 30.9385 321.717 30.92 321.767C30.9015 321.818 30.8732 321.865 30.8367 321.905C30.8002 321.944 30.7561 321.977 30.7072 321.999C30.6582 322.022 30.6052 322.035 30.5512 322.037L30.4984 322.02Z" fill="#5B4A77"/>
<path d="M30.9092 320.476C30.9092 320.476 19.5575 311.516 9.73182 291.934C-3.34557 265.905 0.722036 257.192 18.1899 281.788C29.9701 298.393 30.9092 320.476 30.9092 320.476Z" fill="url(#paint26_linear_541_176)"/>
<path d="M30.9503 320.893C30.8542 320.904 30.757 320.881 30.6756 320.829C30.5942 320.776 30.5336 320.697 30.5043 320.605C20.4321 290.173 8.66361 278.541 8.54622 278.43C8.49107 278.348 8.46599 278.25 8.47529 278.152C8.48458 278.054 8.52768 277.963 8.59717 277.893C8.66665 277.824 8.75818 277.781 8.85601 277.771C8.95384 277.762 9.05185 277.787 9.13318 277.842C9.25057 277.96 21.1599 289.703 31.3084 320.364C31.3258 320.417 31.3327 320.473 31.3285 320.528C31.3244 320.584 31.3093 320.638 31.2842 320.687C31.2592 320.737 31.2245 320.781 31.1823 320.817C31.1402 320.854 31.0912 320.881 31.0384 320.898L30.9503 320.893Z" fill="white"/>
<path d="M35.9982 355H23.5137C23.1197 354.997 22.7401 354.852 22.4438 354.593C22.1475 354.333 21.9544 353.975 21.8995 353.585L17.0571 317.064H42.5076L37.6358 353.585C37.5781 353.978 37.3809 354.338 37.0802 354.597C36.7795 354.857 36.3955 355 35.9982 355Z" fill="#8CA0F2"/>
<path d="M485.284 247.186C485.279 249.12 484.508 250.973 483.139 252.338C481.77 253.703 479.915 254.469 477.982 254.467H473.521V247.932H475.869C478.886 247.932 479.696 245.478 479.702 242.46C479.702 240.053 479.62 236.588 479.367 231.668C479.21 228.455 478.818 225.258 478.193 222.103C476.937 215.956 475.012 211.646 473.551 209.626V201.77C475.215 203.8 476.675 205.989 477.912 208.305C482.052 215.852 484.428 224.239 484.861 232.836C485.178 239.389 485.284 243.986 485.284 247.186Z" fill="url(#paint27_linear_541_176)"/>
<path opacity="0.5" d="M478.164 222.097C476.908 215.95 474.983 211.64 473.521 209.62V201.77C475.185 203.8 476.646 205.989 477.882 208.305C478.51 212.797 478.857 217.952 478.164 222.097Z" fill="#393150"/>
<path d="M473.521 201.77V254.467H428.672V209.051C428.672 205.469 430.094 202.034 432.626 199.502C435.158 196.969 438.591 195.546 442.172 195.546H467.311C467.436 195.537 467.562 195.537 467.687 195.546C469.27 195.641 470.758 196.339 471.843 197.496C472.928 198.654 473.529 200.183 473.521 201.77Z" fill="url(#paint28_linear_541_176)"/>
<path d="M467.687 195.576V215.186C467.688 215.945 467.539 216.696 467.249 217.397C466.96 218.098 466.535 218.735 465.999 219.272C465.463 219.808 464.827 220.234 464.126 220.524C463.426 220.815 462.675 220.964 461.917 220.964H441.925C441.167 220.964 440.416 220.815 439.716 220.524C439.016 220.234 438.379 219.808 437.843 219.272C437.308 218.735 436.883 218.098 436.593 217.397C436.303 216.696 436.155 215.945 436.156 215.186V196.985C438.02 196.053 440.076 195.57 442.16 195.576H467.311C467.436 195.567 467.562 195.567 467.687 195.576Z" fill="url(#paint29_linear_541_176)"/>
<path d="M450.847 216.96C452.157 216.96 453.218 215.898 453.218 214.587C453.218 213.277 452.157 212.215 450.847 212.215C449.537 212.215 448.476 213.277 448.476 214.587C448.476 215.898 449.537 216.96 450.847 216.96Z" fill="url(#paint30_linear_541_176)"/>
<path d="M439.736 231.339H462.463C465.396 231.339 468.208 232.505 470.282 234.579C472.356 236.654 473.521 239.468 473.521 242.401V254.479H428.672V242.39C428.675 239.457 429.842 236.645 431.917 234.573C433.992 232.501 436.804 231.338 439.736 231.339Z" fill="url(#paint31_linear_541_176)"/>
<path d="M467.006 229.654H464.429V235.866H467.006V229.654Z" fill="url(#paint32_linear_541_176)"/>
<path d="M440.61 229.654H438.034V235.866H440.61V229.654Z" fill="url(#paint33_linear_541_176)"/>
<path d="M143.3 67.3525H50.2554C49.1657 67.3525 48.1207 66.9194 47.3501 66.1487C46.5796 65.3779 46.1467 64.3324 46.1467 63.2424V28.1775C46.1467 27.0874 46.5796 26.042 47.3501 25.2712C48.1207 24.5004 49.1657 24.0674 50.2554 24.0674H130.862C131.952 24.0674 132.997 24.5004 133.767 25.2712C134.538 26.042 134.971 27.0874 134.971 28.1775V59.0384L143.3 67.3525Z" fill="url(#paint34_linear_541_176)"/>
<path d="M69.0556 32.998C66.5373 32.9969 64.0753 33.7428 61.981 35.1415C59.8866 36.5402 58.2539 38.5288 57.2894 40.8558C56.3249 43.1827 56.0719 45.7436 56.5625 48.2144C57.0531 50.6852 58.2651 52.955 60.0454 54.7367C61.8256 56.5183 64.0941 57.7318 66.5638 58.2237C69.0336 58.7156 71.5937 58.4637 73.9203 57.5C76.247 56.5363 78.2356 54.9039 79.6348 52.8095C81.034 50.715 81.7808 48.2525 81.7808 45.7335C81.7808 42.3568 80.4403 39.1184 78.054 36.7302C75.6677 34.3421 72.431 32.9996 69.0556 32.998ZM69.0556 54.7228C67.2759 54.7228 65.5362 54.1949 64.0565 53.2058C62.5768 52.2168 61.4235 50.811 60.7425 49.1663C60.0614 47.5215 59.8832 45.7117 60.2304 43.9657C60.5776 42.2196 61.4346 40.6158 62.693 39.357C63.9514 38.0981 65.5547 37.2409 67.3001 36.8936C69.0456 36.5463 70.8548 36.7245 72.499 37.4058C74.1432 38.0871 75.5485 39.2407 76.5372 40.721C77.5259 42.2012 78.0536 43.9415 78.0536 45.7217C78.0536 48.1089 77.1056 50.3984 75.4181 52.0864C73.7307 53.7745 71.442 54.7228 69.0556 54.7228Z" fill="white"/>
<path d="M81.781 45.6981C81.7823 47.8211 81.2523 49.9106 80.2394 51.7761C79.2264 53.6417 77.7628 55.2239 75.9818 56.3784C73.9252 57.7248 71.5195 58.4392 69.0616 58.4335C66.6143 58.4329 64.2191 57.726 62.1634 56.3977C60.1077 55.0693 58.4787 53.1759 57.4718 50.9446C56.4649 48.7132 56.123 46.2387 56.4869 43.8177C56.8508 41.3968 57.9052 39.1323 59.5236 37.2959L61.5544 40.7484C60.7771 41.9197 60.2846 43.2567 60.1165 44.6526C59.9484 46.0484 60.1092 47.4642 60.5862 48.7867C61.0631 50.1092 61.843 51.3017 62.8632 52.2686C63.8835 53.2355 65.1159 53.9501 66.4617 54.3552C67.8076 54.7602 69.2296 54.8445 70.6138 54.6012C71.9981 54.3579 73.3062 53.7938 74.4334 52.9541C75.5606 52.1144 76.4757 51.0224 77.1054 49.7655C77.7351 48.5086 78.0619 47.1216 78.0596 45.7157L81.781 45.6981Z" fill="#9ECAFF"/>
<path d="M81.7809 45.6982C81.7823 47.8212 81.2523 49.9107 80.2393 51.7763C79.2264 53.6418 77.7627 55.224 75.9818 56.3786L74.0859 53.1786C75.3107 52.3533 76.3138 51.2394 77.0067 49.9349C77.6997 48.6304 78.0613 47.1755 78.0596 45.6982H81.7809Z" fill="#B08CF2"/>
<path d="M120.901 39.7563H91.6123C90.6074 39.7563 89.7927 40.57 89.7927 41.5736C89.7927 42.5772 90.6074 43.3908 91.6123 43.3908H120.901C121.906 43.3908 122.721 42.5772 122.721 41.5736C122.721 40.57 121.906 39.7563 120.901 39.7563Z" fill="white"/>
<path d="M120.901 48.0059H91.6123C90.6074 48.0059 89.7927 48.8195 89.7927 49.8231C89.7927 50.8267 90.6074 51.6403 91.6123 51.6403H120.901C121.906 51.6403 122.721 50.8267 122.721 49.8231C122.721 48.8195 121.906 48.0059 120.901 48.0059Z" fill="white"/>
<path d="M111.058 178.337H26.2723C25.1826 178.337 24.1375 177.904 23.367 177.133C22.5965 176.362 22.1636 175.317 22.1636 174.227V97.3093C22.1636 96.2192 22.5965 95.1738 23.367 94.403C24.1375 93.6322 25.1826 93.1992 26.2723 93.1992H93.9014C94.9911 93.1992 96.0362 93.6322 96.8067 94.403C97.5772 95.1738 98.0101 96.2192 98.0101 97.3093V166.241L111.058 178.337Z" fill="url(#paint35_linear_541_176)"/>
<path d="M55.4263 112.563H34.8887V157.769H55.4263V112.563Z" fill="#FF8C8C"/>
<path d="M86.7287 112.563H60.1924V125.434H86.7287V112.563Z" fill="#FF8C8C"/>
<path d="M84.7506 130.002H62.1704C61.078 130.002 60.1924 130.888 60.1924 131.981V131.987C60.1924 133.079 61.078 133.965 62.1704 133.965H84.7506C85.8431 133.965 86.7287 133.079 86.7287 131.987V131.981C86.7287 130.888 85.8431 130.002 84.7506 130.002Z" fill="white"/>
<path d="M84.7506 137.706H62.1704C61.078 137.706 60.1924 138.591 60.1924 139.684V139.69C60.1924 140.783 61.078 141.669 62.1704 141.669H84.7506C85.8431 141.669 86.7287 140.783 86.7287 139.69V139.684C86.7287 138.591 85.8431 137.706 84.7506 137.706Z" fill="white"/>
<path d="M84.7506 145.403H62.1704C61.078 145.403 60.1924 146.289 60.1924 147.382V147.388C60.1924 148.481 61.078 149.367 62.1704 149.367H84.7506C85.8431 149.367 86.7287 148.481 86.7287 147.388V147.382C86.7287 146.289 85.8431 145.403 84.7506 145.403Z" fill="white"/>
<path d="M78.5641 153.805H62.1704C61.078 153.805 60.1924 154.691 60.1924 155.784V155.79C60.1924 156.883 61.078 157.768 62.1704 157.768H78.5641C79.6566 157.768 80.5422 156.883 80.5422 155.79V155.784C80.5422 154.691 79.6566 153.805 78.5641 153.805Z" fill="white"/>
<path d="M504.607 49.3325V135.75C504.605 136.746 504.209 137.701 503.505 138.405C502.801 139.11 501.846 139.506 500.85 139.508H403.826L421.517 121.799V49.3325C421.519 48.3369 421.915 47.3826 422.619 46.6791C423.324 45.9757 424.278 45.5806 425.274 45.5806H500.85C501.845 45.5806 502.8 45.9757 503.504 46.6791C504.209 47.3826 504.605 48.3369 504.607 49.3325Z" fill="url(#paint36_linear_541_176)"/>
<path d="M487.397 70.0591H438.41C437.353 70.0591 436.496 70.9161 436.496 71.9732C436.496 73.0304 437.353 73.8873 438.41 73.8873H487.397C488.454 73.8873 489.31 73.0304 489.31 71.9732C489.31 70.9161 488.454 70.0591 487.397 70.0591Z" fill="white"/>
<path d="M487.397 60.6938H438.41C437.353 60.6938 436.496 61.5508 436.496 62.608C436.496 63.6651 437.353 64.5221 438.41 64.5221H487.397C488.454 64.5221 489.31 63.6651 489.31 62.608C489.31 61.5508 488.454 60.6938 487.397 60.6938Z" fill="white"/>
<path d="M468.837 114.184H438.41C437.353 114.184 436.496 115.041 436.496 116.098C436.496 117.155 437.353 118.012 438.41 118.012H468.837C469.894 118.012 470.751 117.155 470.751 116.098C470.751 115.041 469.894 114.184 468.837 114.184Z" fill="white"/>
<path d="M487.397 104.819H438.41C437.353 104.819 436.496 105.676 436.496 106.733C436.496 107.79 437.353 108.647 438.41 108.647H487.397C488.454 108.647 489.31 107.79 489.31 106.733C489.31 105.676 488.454 104.819 487.397 104.819Z" fill="white"/>
<path d="M489.475 78.7959H436.661V99.9041H489.475V78.7959Z" fill="#FF8C8C"/>
<path d="M141.357 208.916H152.022C163.127 208.914 174.124 211.101 184.384 215.351C194.644 219.601 203.967 225.831 211.82 233.686C219.673 241.541 225.903 250.866 230.153 261.129C234.403 271.392 236.59 282.392 236.59 293.501C236.59 309.765 230.132 325.362 218.636 336.863C207.139 348.363 191.547 354.824 175.289 354.824H118.102C101.843 354.824 86.251 348.363 74.7547 336.863C63.2584 325.362 56.7998 309.765 56.7998 293.501C56.7998 271.068 65.7085 249.553 81.566 233.69C97.4235 217.827 118.931 208.916 141.357 208.916Z" fill="url(#paint37_linear_541_176)"/>
<path opacity="0.2" d="M183.805 307.323C202.588 301.451 208.528 270.332 198.145 263.979C187.762 257.626 182.954 232.596 177.954 215.421C177.665 214.442 177.271 213.497 176.78 212.603C168.767 210.155 160.435 208.912 152.057 208.916H141.357C129.344 208.901 117.466 211.456 106.521 216.408C99.9411 227.106 97.1824 240.328 96.93 256.111C96.5602 279.222 110.63 290.389 104.877 295.18C99.1252 299.972 104.877 311.462 104.877 311.462C116.892 329.294 165.005 313.171 183.805 307.323Z" fill="#393150"/>
<path opacity="0.2" d="M185.461 338.272C184.855 338.588 184.368 339.093 184.075 339.711C183.782 340.329 183.699 341.025 183.838 341.695C183.977 342.364 184.33 342.97 184.844 343.421C185.359 343.871 186.006 344.141 186.687 344.19C193.555 344.842 202.993 342.881 209.802 330.251C213.676 323.059 212.883 318.978 210.389 316.688C206.139 312.807 199.137 315.796 198.796 321.538C198.491 326.347 195.738 332.735 185.461 338.272Z" fill="#393150"/>
<path opacity="0.2" d="M81.1409 294.224C81.1409 294.224 88.5365 297.97 89.7457 310.664C90.9548 323.358 92.7978 323.423 92.7978 323.423C92.7978 323.423 101.743 287.142 81.1409 294.224Z" fill="#393150"/>
<path d="M123.507 176.469C123.507 176.469 126.695 181.372 125.327 184.103C123.959 186.833 121.218 193.309 127.147 194.712C133.075 196.116 146.992 199.257 152.597 193.955C158.202 188.653 153.659 181.378 152.597 178.196C151.535 175.013 152.456 169.635 150.56 167.926C148.664 166.218 131.085 170.392 131.085 170.392L123.507 176.469Z" fill="url(#paint38_linear_541_176)"/>
<path d="M145.782 187.332L147.602 197.636C147.602 197.636 144.567 204.095 141.339 203.508C138.111 202.921 132.852 198.658 132.852 198.658L133.861 187.332H145.782Z" fill="url(#paint39_linear_541_176)"/>
<path opacity="0.2" d="M147.027 194.401L145.806 187.455L144.567 187.332H135.452C134.891 187.422 134.343 187.579 133.82 187.801L133.544 190.878C135.035 192.358 138.727 195.675 142.56 196.321C144.286 196.614 145.794 195.71 147.027 194.401Z" fill="#393150"/>
<path d="M148.811 167.732C148.811 167.732 153.055 181.671 148.811 188.946C144.567 196.221 133.356 188.946 133.356 188.946C133.356 188.946 125.785 188.946 126.084 184.402C126.383 179.857 131.543 183.186 131.543 183.186L130.023 173.792L148.811 167.732Z" fill="url(#paint40_linear_541_176)"/>
<path d="M132.91 157.111C129.29 158.104 126.211 160.492 124.349 163.752C122.486 167.012 121.991 170.878 122.973 174.502L123.214 175.371L150.56 167.897L150.32 167.028C149.324 163.405 146.931 160.325 143.666 158.466C140.402 156.606 136.534 156.119 132.91 157.111Z" fill="url(#paint41_linear_541_176)"/>
<path d="M122.918 174.319L157.457 164.88C158.026 164.725 158.633 164.802 159.146 165.094C159.658 165.387 160.033 165.871 160.189 166.441L123.504 176.466L122.918 174.319Z" fill="url(#paint42_linear_541_176)"/>
<path d="M138.202 178.64C138.572 178.574 138.744 177.806 138.587 176.925C138.43 176.044 138.002 175.383 137.632 175.45C137.262 175.516 137.089 176.284 137.247 177.165C137.404 178.046 137.832 178.706 138.202 178.64Z" fill="url(#paint43_linear_541_176)"/>
<path d="M147.582 176.934C147.942 176.87 148.107 176.103 147.95 175.222C147.793 174.341 147.373 173.679 147.012 173.744C146.651 173.808 146.487 174.575 146.644 175.456C146.801 176.337 147.221 176.999 147.582 176.934Z" fill="url(#paint44_linear_541_176)"/>
<path d="M144.773 172.535C144.681 172.536 144.592 172.505 144.52 172.447C144.476 172.414 144.439 172.373 144.411 172.325C144.383 172.278 144.365 172.225 144.357 172.17C144.35 172.115 144.354 172.059 144.369 172.006C144.384 171.953 144.41 171.903 144.444 171.86C144.491 171.801 145.553 170.451 146.792 170.363C147.056 170.344 147.321 170.383 147.568 170.478C147.816 170.572 148.039 170.719 148.224 170.909C148.302 170.987 148.346 171.092 148.346 171.203C148.346 171.313 148.302 171.418 148.224 171.496C148.146 171.574 148.041 171.618 147.931 171.618C147.821 171.618 147.715 171.574 147.637 171.496C147.536 171.388 147.413 171.304 147.276 171.249C147.139 171.194 146.992 171.17 146.845 171.179C146.105 171.226 145.313 172.048 145.084 172.353C145.05 172.406 145.004 172.449 144.95 172.481C144.896 172.512 144.835 172.531 144.773 172.535Z" fill="black"/>
<path d="M135.376 174.808C135.311 174.81 135.247 174.797 135.188 174.769C135.129 174.741 135.079 174.699 135.04 174.647C135.001 174.595 134.976 174.534 134.966 174.47C134.956 174.406 134.961 174.341 134.983 174.279C135.646 172.048 139.091 172.999 139.226 173.04C139.278 173.055 139.327 173.08 139.369 173.113C139.412 173.147 139.447 173.188 139.474 173.235C139.5 173.283 139.517 173.334 139.523 173.388C139.53 173.442 139.526 173.496 139.511 173.548C139.496 173.6 139.471 173.649 139.438 173.691C139.405 173.734 139.363 173.769 139.316 173.796C139.269 173.822 139.217 173.839 139.163 173.846C139.11 173.852 139.055 173.848 139.003 173.833C138.974 173.833 136.209 173.064 135.775 174.514C135.749 174.6 135.697 174.675 135.625 174.728C135.553 174.781 135.465 174.809 135.376 174.808Z" fill="black"/>
<path d="M144.773 181.936C144.671 181.929 144.574 181.884 144.503 181.811C144.431 181.737 144.389 181.64 144.385 181.537C144.381 181.435 144.414 181.334 144.479 181.255C144.544 181.176 144.636 181.123 144.738 181.108C144.896 181.102 145.047 181.039 145.163 180.932C145.28 180.824 145.353 180.678 145.372 180.521C145.413 180.027 144.427 177.861 143.452 176.052C143.426 176.005 143.409 175.953 143.403 175.899C143.396 175.845 143.401 175.791 143.416 175.739C143.432 175.687 143.457 175.638 143.492 175.596C143.526 175.554 143.569 175.52 143.617 175.494C143.664 175.469 143.716 175.452 143.77 175.447C143.823 175.441 143.878 175.446 143.929 175.461C143.981 175.476 144.029 175.502 144.071 175.536C144.113 175.57 144.148 175.611 144.174 175.659C144.526 176.311 146.275 179.605 146.193 180.585C146.163 180.94 146.007 181.273 145.753 181.523C145.499 181.773 145.164 181.923 144.808 181.947L144.773 181.936Z" fill="black"/>
<path d="M139.144 184.631H143.159C143.159 184.631 141.163 192.434 139.144 184.631Z" fill="#F46060"/>
<path d="M177.93 220.705L207.231 197.73C207.231 197.73 207.425 192.845 210.676 190.778C213.928 188.711 215.084 187.173 216.041 186.41C216.998 185.646 217.955 189.011 216.041 190.778C214.128 192.545 220.637 186.791 221.406 183.057C222.175 179.323 223.319 183.439 223.319 184.543C223.319 185.646 224.851 183.585 224.493 187.478C224.135 191.371 222.193 193.908 219.51 197.718C216.828 201.529 211.85 202.492 211.85 202.492C211.85 202.492 184.85 238.308 177.948 239.665C171.045 241.021 167.412 227.781 167.412 227.781L177.93 220.705Z" fill="url(#paint45_linear_541_176)"/>
<path opacity="0.2" d="M216.035 190.778L213.241 192.487C213.157 193.658 212.812 194.795 212.232 195.816C211.222 197.736 213.916 195.417 214.134 193.896C214.351 192.375 216.528 190.484 216.035 190.778Z" fill="#393150"/>
<path opacity="0.2" d="M222.932 182.64C222.464 183.577 222.098 184.561 221.84 185.576C221.435 187.191 221.13 188.3 221.13 188.3L219.011 190.76C219.762 189.457 220.417 188.101 220.972 186.703C221.318 185.464 222.363 182.088 222.932 182.64Z" fill="#393150"/>
<path d="M178.511 219.661L173.099 226.319L168.005 232.631L163.961 224.945L165.557 269.98H121.94L121.747 243.91L108.206 238.86C108.206 238.86 108.206 238.273 109.62 219.866C111.035 201.459 130.927 199.451 130.927 199.451L132.588 199.286L142.138 203.537L148.124 198.153C153.794 197.901 159.2 197.906 161.331 198.646C166.59 200.466 178.511 219.661 178.511 219.661Z" fill="url(#paint46_linear_541_176)"/>
<path opacity="0.2" d="M173.1 226.319L168.005 232.631L163.961 224.945L161.337 208.945C161.337 208.945 166.144 219.919 169.701 221.422C171.714 222.244 172.771 224.076 173.1 226.319Z" fill="#393150"/>
<path opacity="0.2" d="M150.695 264.219C150.369 266.323 149.505 268.307 148.189 269.979H121.94L121.747 243.91C121.747 243.91 120.731 215.221 121.747 215.421C122.762 215.621 125.99 226.824 125.891 239.406C125.791 251.989 132.934 257.772 136.544 257.315C140.154 256.857 152.18 253.41 150.695 264.219Z" fill="#393150"/>
<path d="M142.143 223.16C142.034 223.158 141.929 223.114 141.852 223.035C141.776 222.957 141.732 222.852 141.732 222.743V203.537C141.745 203.436 141.793 203.342 141.87 203.275C141.946 203.207 142.044 203.169 142.146 203.169C142.248 203.169 142.347 203.207 142.423 203.275C142.499 203.342 142.548 203.436 142.56 203.537V222.743C142.56 222.798 142.549 222.852 142.528 222.902C142.507 222.953 142.477 222.999 142.438 223.038C142.399 223.076 142.353 223.107 142.303 223.128C142.252 223.149 142.198 223.16 142.143 223.16Z" fill="url(#paint47_linear_541_176)"/>
<path d="M146.364 221.386C147.226 221.386 147.925 220.687 147.925 219.825C147.925 218.962 147.226 218.263 146.364 218.263C145.501 218.263 144.802 218.962 144.802 219.825C144.802 220.687 145.501 221.386 146.364 221.386Z" fill="url(#paint48_linear_541_176)"/>
<path d="M146.364 213.137C147.226 213.137 147.925 212.438 147.925 211.575C147.925 210.712 147.226 210.013 146.364 210.013C145.501 210.013 144.802 210.712 144.802 211.575C144.802 212.438 145.501 213.137 146.364 213.137Z" fill="url(#paint49_linear_541_176)"/>
<path d="M142.149 203.537L148.512 206.326L149.457 198.194L147.602 197.636L142.149 203.537Z" fill="url(#paint50_linear_541_176)"/>
<path d="M142.149 203.537L138.393 207.635L130.938 199.456L132.858 198.646L142.149 203.537Z" fill="url(#paint51_linear_541_176)"/>
<path d="M137.501 261.289V266.744H130.927C130.927 266.744 110.823 265.934 109.796 259.07C109.092 254.267 109.303 246.564 109.479 242.371C109.573 240.563 109.65 239.436 109.65 239.436L121.717 243.939V246.534L121.782 255.254L137.501 261.289Z" fill="url(#paint52_linear_541_176)"/>
<path opacity="0.2" d="M121.77 246.505L109.509 242.395C109.602 240.586 109.679 239.459 109.679 239.459L121.747 243.962L121.77 246.505Z" fill="#393150"/>
<path d="M143.358 261.695C143.358 261.695 145.935 262 147.144 263.668C147.865 264.653 148.524 265.683 149.116 266.75H145.835C145.835 266.75 141.997 266.098 143.358 261.695Z" fill="url(#paint53_linear_541_176)"/>
<path d="M133.509 266.75C133.509 266.75 133.462 261.794 135.482 261.542C137.501 261.289 139.115 259.422 140.025 258.97C140.934 258.518 143.664 258.512 144.421 260.937C145.178 263.362 145.835 266.75 145.835 266.75H133.509Z" fill="url(#paint54_linear_541_176)"/>
<path opacity="0.2" d="M223.537 184.907L222.703 189.146L221.488 191.166L222.515 188.694L223.537 184.907Z" fill="#393150"/>
<path d="M195.662 236.535H162.399C161.93 236.537 161.472 236.671 161.076 236.922C160.68 237.174 160.364 237.532 160.163 237.956L147.496 264.836C147.32 265.213 147.241 265.628 147.267 266.043C147.293 266.459 147.424 266.861 147.647 267.212C147.87 267.564 148.178 267.853 148.543 268.053C148.907 268.254 149.317 268.359 149.733 268.359H183.001C183.471 268.359 183.93 268.225 184.326 267.974C184.722 267.722 185.038 267.363 185.238 266.938L197.904 240.064C198.081 239.686 198.16 239.27 198.133 238.854C198.106 238.438 197.975 238.036 197.752 237.684C197.528 237.332 197.219 237.042 196.854 236.841C196.489 236.641 196.079 236.535 195.662 236.535Z" fill="url(#paint55_linear_541_176)"/>
<path d="M183.964 266.744H131.238C130.346 266.744 129.624 267.467 129.624 268.359V268.365C129.624 269.256 130.346 269.979 131.238 269.979H183.964C184.855 269.979 185.578 269.256 185.578 268.365V268.359C185.578 267.467 184.855 266.744 183.964 266.744Z" fill="url(#paint56_linear_541_176)"/>
<path d="M173.763 255.882C175.072 255.882 176.134 254.82 176.134 253.51C176.134 252.2 175.072 251.138 173.763 251.138C172.453 251.138 171.391 252.2 171.391 253.51C171.391 254.82 172.453 255.882 173.763 255.882Z" fill="url(#paint57_linear_541_176)"/>
<path d="M113.664 272C113.664 272 134.748 288.552 145.835 289.785C156.923 291.018 178.505 269.98 178.505 269.98H110.835L113.664 272Z" fill="url(#paint58_linear_541_176)"/>
<path opacity="0.5" d="M113.664 272C113.664 272 134.748 288.552 145.835 289.785C156.923 291.018 178.505 269.98 178.505 269.98H110.835L113.664 272Z" fill="#393150"/>
<path d="M134.513 306.912L130.557 294.218C130.557 294.218 184.991 261.143 192.322 258.043C201.127 254.326 218.923 265.236 201.444 280.214C183.964 295.192 134.513 306.912 134.513 306.912Z" fill="url(#paint59_linear_541_176)"/>
<path d="M123.249 298.979C123.249 298.979 105.553 304.135 101.532 305.438C97.5113 306.742 92.8039 313.658 101.186 318.356C109.567 323.053 113.295 320.64 118.284 316.565C123.273 312.49 129.541 311.092 128.884 308.121C128.227 305.15 123.249 298.979 123.249 298.979Z" fill="url(#paint60_linear_541_176)"/>
<path d="M134.513 306.912C134.513 306.912 133.715 307.17 132.476 307.458C129.201 308.216 122.897 309.22 120.678 306.46C120.128 305.624 119.851 304.637 119.886 303.636C119.881 302.592 120.157 301.565 120.686 300.665C121.215 299.765 121.977 299.025 122.891 298.522L125.756 296.919L130.563 294.224L134.513 306.912Z" fill="url(#paint61_linear_541_176)"/>
<path opacity="0.2" d="M134.513 306.912C134.513 306.912 133.715 307.17 132.476 307.458C131.686 304.711 130.734 302.013 129.624 299.379C128.872 297.752 127.335 297.101 125.756 296.919L130.563 294.224L134.513 306.912Z" fill="#393150"/>
<path d="M158.913 308.961L164.383 296.86C164.383 296.86 114.327 257.473 107.419 253.51C99.1371 248.766 80.149 257.45 95.6799 274.425C111.211 291.399 158.913 308.961 158.913 308.961Z" fill="url(#paint62_linear_541_176)"/>
<path d="M171.051 302.444C171.051 302.444 188.002 309.695 191.841 311.463C195.68 313.23 199.518 320.704 190.626 324.339C181.733 327.973 178.335 325.149 173.874 320.499C169.413 315.849 163.356 313.717 164.383 310.846C165.41 307.975 171.051 302.444 171.051 302.444Z" fill="url(#paint63_linear_541_176)"/>
<path d="M164.383 296.86L171.479 302.05C172.326 302.661 172.991 303.489 173.404 304.448C173.818 305.406 173.964 306.458 173.827 307.493C173.754 308.491 173.36 309.438 172.706 310.194C169.214 313.658 158.913 308.961 158.913 308.961L164.383 296.86Z" fill="url(#paint64_linear_541_176)"/>
<path d="M162.622 309.672C162.57 309.67 162.519 309.66 162.47 309.642C162.368 309.602 162.287 309.523 162.243 309.423C162.199 309.323 162.196 309.21 162.235 309.108L165.903 299.637C165.943 299.535 166.022 299.453 166.122 299.409C166.222 299.365 166.336 299.362 166.438 299.402C166.539 299.442 166.622 299.52 166.666 299.621C166.71 299.721 166.712 299.834 166.672 299.936L163.004 309.407C162.974 309.485 162.922 309.551 162.854 309.598C162.786 309.646 162.705 309.671 162.622 309.672Z" fill="url(#paint65_linear_541_176)"/>
<path d="M165.305 310.634C165.248 310.635 165.192 310.623 165.14 310.599C165.09 310.578 165.045 310.547 165.007 310.509C164.97 310.47 164.94 310.424 164.92 310.374C164.899 310.324 164.889 310.27 164.89 310.216C164.891 310.162 164.902 310.109 164.923 310.059L168.732 301.087C168.778 300.987 168.86 300.909 168.961 300.868C169.063 300.828 169.177 300.828 169.278 300.87C169.378 300.914 169.456 300.995 169.497 301.096C169.537 301.197 169.537 301.31 169.495 301.41L165.68 310.382C165.65 310.457 165.598 310.521 165.531 310.566C165.464 310.611 165.385 310.635 165.305 310.634Z" fill="url(#paint66_linear_541_176)"/>
<path d="M130.557 307.323C130.47 307.324 130.386 307.298 130.316 307.247C130.246 307.196 130.195 307.124 130.169 307.041L126.818 296.989C126.784 296.886 126.792 296.773 126.841 296.675C126.889 296.578 126.973 296.503 127.076 296.467C127.127 296.448 127.182 296.44 127.236 296.444C127.29 296.447 127.343 296.461 127.392 296.485C127.441 296.509 127.484 296.543 127.52 296.584C127.555 296.625 127.582 296.673 127.599 296.725L130.927 306.783C130.96 306.886 130.952 306.998 130.903 307.094C130.855 307.191 130.771 307.265 130.668 307.3C130.633 307.313 130.595 307.321 130.557 307.323Z" fill="url(#paint67_linear_541_176)"/>
<path d="M127.058 307.323C126.969 307.323 126.882 307.295 126.811 307.242C126.739 307.189 126.686 307.115 126.659 307.029L124.312 299.079C124.293 299.027 124.286 298.971 124.289 298.916C124.293 298.86 124.308 298.806 124.333 298.756C124.358 298.707 124.393 298.663 124.436 298.627C124.479 298.592 124.528 298.565 124.582 298.549C124.635 298.533 124.691 298.529 124.746 298.535C124.801 298.541 124.855 298.559 124.903 298.586C124.951 298.614 124.993 298.651 125.027 298.695C125.061 298.74 125.085 298.79 125.098 298.844L127.446 306.795C127.477 306.899 127.465 307.011 127.414 307.107C127.362 307.203 127.274 307.274 127.17 307.305L127.058 307.323Z" fill="url(#paint68_linear_541_176)"/>
<path d="M181.135 318.121H181.058C181.005 318.111 180.954 318.09 180.909 318.061C180.864 318.031 180.825 317.993 180.794 317.948C180.763 317.903 180.742 317.853 180.731 317.8C180.72 317.747 180.72 317.692 180.73 317.639L181.552 313.376L177.73 316.007C177.663 316.051 177.585 316.075 177.504 316.075C177.424 316.075 177.346 316.051 177.278 316.007C177.21 315.963 177.156 315.9 177.122 315.826C177.089 315.752 177.078 315.67 177.091 315.59L177.948 310.165L173.997 312.965C173.952 312.998 173.902 313.021 173.848 313.034C173.794 313.046 173.738 313.048 173.683 313.039C173.628 313.029 173.576 313.009 173.529 312.98C173.482 312.95 173.442 312.911 173.41 312.866C173.377 312.821 173.353 312.77 173.34 312.716C173.327 312.662 173.325 312.605 173.334 312.55C173.344 312.496 173.364 312.443 173.394 312.396C173.425 312.35 173.464 312.309 173.51 312.278L178.259 308.914C178.326 308.87 178.404 308.846 178.485 308.846C178.565 308.846 178.644 308.87 178.711 308.914C178.78 308.957 178.835 309.02 178.869 309.094C178.903 309.168 178.916 309.25 178.904 309.331L178.041 314.774L181.898 312.12C181.965 312.072 182.045 312.046 182.127 312.045C182.209 312.043 182.29 312.066 182.359 312.111C182.428 312.156 182.482 312.221 182.514 312.296C182.545 312.372 182.554 312.456 182.538 312.537L181.54 317.768C181.525 317.865 181.476 317.954 181.402 318.018C181.327 318.083 181.233 318.119 181.135 318.121Z" fill="url(#paint69_linear_541_176)"/>
<path d="M109.421 312.995H109.391C109.337 312.991 109.284 312.977 109.236 312.952C109.188 312.928 109.144 312.895 109.109 312.854C109.073 312.813 109.046 312.765 109.029 312.714C109.012 312.663 109.006 312.608 109.01 312.554L109.432 307.223C109.44 307.142 109.471 307.065 109.522 307.002C109.573 306.939 109.642 306.892 109.719 306.867C109.796 306.842 109.879 306.84 109.958 306.861C110.036 306.883 110.106 306.927 110.16 306.988L113.171 310.576L113.787 305.097C113.797 305.017 113.83 304.941 113.882 304.878C113.934 304.816 114.003 304.769 114.081 304.745C114.159 304.722 114.243 304.722 114.321 304.746C114.4 304.77 114.469 304.817 114.521 304.88L118.201 309.384C118.271 309.469 118.303 309.577 118.292 309.687C118.281 309.796 118.228 309.896 118.143 309.965C118.058 310.034 117.949 310.067 117.84 310.056C117.731 310.045 117.631 309.991 117.562 309.906L114.492 306.154L113.905 311.615C113.896 311.694 113.863 311.77 113.812 311.831C113.76 311.892 113.692 311.937 113.615 311.961C113.538 311.984 113.457 311.984 113.38 311.961C113.303 311.938 113.235 311.893 113.183 311.832L110.201 308.309L109.855 312.637C109.842 312.74 109.789 312.835 109.709 312.902C109.628 312.968 109.525 313.002 109.421 312.995Z" fill="url(#paint70_linear_541_176)"/>
<path d="M354.821 159.096C354.821 159.096 359.041 186.175 358.032 193.245C357.022 200.314 356.535 218.739 357.862 220.73C359.188 222.72 372.377 219.514 372.377 219.514L367.728 149.842L354.821 159.096Z" fill="url(#paint71_linear_541_176)"/>
<path d="M364.799 146.724L353.436 155.52L354.821 159.095L367.728 149.813L364.799 146.724Z" fill="url(#paint72_linear_541_176)"/>
<path d="M360.655 150.371C360.655 150.371 357.721 151.821 357.867 158.89C358.014 165.96 360.427 199.915 359.546 206.796C358.666 213.678 358.032 231.956 358.032 231.956C358.032 231.956 381.398 230.705 387.661 230.782C393.924 230.858 391.248 207.818 388.377 192.059C385.507 176.3 366.918 145.28 360.655 150.371Z" fill="url(#paint73_linear_541_176)"/>
<path opacity="0.2" d="M367.728 187.167C367.728 187.167 367.81 206.174 363.308 210.812C361.818 212.345 360.274 213.601 358.836 214.922C358.337 222.726 358.032 231.95 358.032 231.95C358.032 231.95 367.282 231.457 375.705 231.104L367.728 187.167Z" fill="#393150"/>
<path d="M351.716 218.48C349.187 218.649 346.673 218.995 344.191 219.514C342.059 220.055 339.981 220.788 337.981 221.704C337.534 222.237 336.979 222.669 336.353 222.973C335.727 223.276 335.044 223.444 334.348 223.465C332.071 223.465 334.348 225.28 334.348 225.28H353.436L351.716 218.48Z" fill="url(#paint74_linear_541_176)"/>
<path opacity="0.2" d="M351.716 218.48C351.716 218.48 351.241 218.51 350.495 218.58C349.862 220.753 349.583 223.013 349.668 225.274H353.436L351.716 218.48Z" fill="#393150"/>
<path d="M355.52 217.071H352.209C352.209 217.071 350.842 219.972 351.446 222.549C351.73 223.969 352.405 225.281 353.395 226.337H357.85L355.52 217.071Z" fill="url(#paint75_linear_541_176)"/>
<path d="M310.265 195.367L323.742 226.371L320.399 227.825L308.229 199.825C307.882 199.027 307.866 198.123 308.185 197.314C308.504 196.504 309.131 195.854 309.929 195.506L310.263 195.361L310.265 195.367Z" fill="url(#paint76_linear_541_176)"/>
<path d="M319.651 225.274H349.791C350.758 225.274 351.685 225.658 352.368 226.342C353.052 227.026 353.436 227.953 353.436 228.92H322.462C321.718 228.92 321.005 228.624 320.478 228.098C319.952 227.572 319.657 226.858 319.657 226.114V225.274H319.651Z" fill="url(#paint77_linear_541_176)"/>
<path d="M370.34 137.653C370.34 137.653 375.001 134.846 374.396 126.967C373.792 119.087 366.918 109.587 359.546 109.182C352.174 108.776 346.34 119.486 342.072 120.296C337.805 121.107 335.029 123.32 338.234 125.14C341.439 126.961 340.253 132.826 339.044 135.046C337.835 137.265 346.381 137.224 350.354 132.216C354.328 127.207 370.34 137.653 370.34 137.653Z" fill="url(#paint78_linear_541_176)"/>
<path d="M369.548 133.431L371.561 146.349C371.561 146.349 367.124 157.258 363.485 159.266C359.845 161.274 359.241 158.679 359.546 156.236C359.588 155.584 359.784 154.95 360.117 154.388C360.451 153.826 360.913 153.35 361.465 153.001L358.032 141.687L369.548 133.431Z" fill="url(#paint79_linear_541_176)"/>
<path opacity="0.2" d="M359.893 147.846L360.937 151.292C361.938 151.057 362.857 150.556 363.596 149.842C367.529 146.378 370.106 137.054 370.106 137.054L359.893 147.846Z" fill="#393150"/>
<path d="M350.255 130.09C349.472 130.705 348.894 131.542 348.597 132.491C348.299 133.441 348.296 134.458 348.588 135.41C349.139 137.218 350.9 140.647 350.683 141.974C350.255 144.528 353.277 143.225 355.408 145.356C357.539 147.487 357.562 151.462 362.88 146.566C368.198 141.669 371.767 137.277 371.579 132.38C371.391 127.483 366.261 129.192 365.838 132.38C365.416 135.568 363.937 124.935 359.57 125.146C356.846 125.275 352.884 128.017 350.255 130.09Z" fill="url(#paint80_linear_541_176)"/>
<path d="M355.18 136.149C355.628 135.97 355.667 135.014 355.268 134.014C354.868 133.015 354.18 132.35 353.732 132.529C353.283 132.709 353.244 133.665 353.644 134.664C354.044 135.664 354.731 136.329 355.18 136.149Z" fill="url(#paint81_linear_541_176)"/>
<path d="M359.898 144.757C359.803 144.757 359.71 144.723 359.636 144.662C359.563 144.601 359.512 144.516 359.493 144.423C359.481 144.317 359.511 144.211 359.575 144.127C359.64 144.043 359.735 143.987 359.84 143.971C360.022 143.929 361.554 143.554 361.225 141.458C361.208 141.349 361.235 141.237 361.3 141.148C361.365 141.059 361.462 140.999 361.571 140.982C361.625 140.974 361.679 140.976 361.732 140.989C361.785 141.002 361.834 141.025 361.878 141.057C361.922 141.089 361.959 141.13 361.986 141.177C362.014 141.223 362.033 141.275 362.041 141.328C362.504 144.264 360.022 144.775 359.998 144.781L359.898 144.757Z" fill="#F46060"/>
<path d="M351.076 131.834C350.983 131.833 350.892 131.802 350.818 131.746C350.775 131.712 350.738 131.67 350.711 131.622C350.684 131.574 350.667 131.521 350.661 131.467C350.654 131.412 350.658 131.357 350.673 131.304C350.688 131.251 350.713 131.202 350.748 131.159C351.267 130.531 351.973 130.087 352.763 129.89C353.553 129.693 354.386 129.755 355.138 130.067C355.24 130.107 355.322 130.186 355.365 130.287C355.409 130.388 355.41 130.502 355.37 130.604C355.329 130.706 355.25 130.787 355.149 130.831C355.049 130.874 354.935 130.876 354.833 130.836C354.246 130.59 353.597 130.539 352.979 130.689C352.361 130.839 351.808 131.182 351.399 131.669C351.361 131.719 351.312 131.76 351.256 131.789C351.201 131.817 351.139 131.832 351.076 131.834Z" fill="black"/>
<path opacity="0.2" d="M334.348 225.274C334.348 225.274 336.919 223.389 338.739 223.236C339.991 223.065 341.186 222.601 342.225 221.88C342.225 221.88 339.044 221.246 334.348 225.274Z" fill="#393150"/>
<path d="M413.329 223.471C413.234 224.476 412.861 225.435 412.253 226.241C411.644 227.046 410.824 227.667 409.884 228.034C404.601 230.106 392.862 233.905 380.46 232.243C366.009 230.329 366.114 228.268 366.155 225.538C366.174 225.08 366.16 224.621 366.114 224.164C365.709 220.723 369.947 207.595 366.114 185.565C364.271 175.037 363.596 168.566 363.391 164.691C363.162 160.47 363.491 159.313 363.491 159.313L371.567 146.395C371.567 146.395 373.123 146.325 375.676 147.893C378.975 149.895 383.97 154.592 389.516 165.601C397.029 180.374 400.34 191.73 404.501 200.138C405.72 202.703 407.208 205.132 408.939 207.383C413.429 213.079 413.681 219.626 413.329 223.471Z" fill="url(#paint82_linear_541_176)"/>
<path opacity="0.2" d="M413.329 223.471C413.234 224.476 412.861 225.435 412.253 226.241C411.644 227.046 410.824 227.667 409.884 228.033C404.601 230.106 392.862 233.905 380.459 232.243C366.009 230.329 366.114 228.268 366.155 225.538C367.769 223.806 371.045 222.086 377.519 221.375C390.279 219.972 400.281 207.9 404.519 200.138C405.732 202.702 407.214 205.131 408.939 207.383C413.429 213.079 413.681 219.625 413.329 223.471Z" fill="#393150"/>
<path d="M375.687 147.857L363.361 164.679C363.132 160.458 363.461 159.301 363.461 159.301L371.538 146.384C371.538 146.384 373.122 146.319 375.687 147.857Z" fill="url(#paint83_linear_541_176)"/>
<path d="M378.493 161.297C378.493 161.297 372.072 161.926 376.462 177.685C380.853 193.444 387.374 214.059 387.374 214.059C387.374 214.059 358.132 214.365 356.165 216.185C354.199 218.005 354.346 224.364 356.923 226.031C359.499 227.699 401.766 227.399 404.038 225.274C406.309 223.148 398.432 194.055 393.132 180.415C387.832 166.776 384.099 160.605 378.493 161.297Z" fill="url(#paint84_linear_541_176)"/>
<path d="M306.016 309.548L303.891 316.823C303.891 316.823 308.07 323.722 311.017 319.483C314.11 315.021 314.538 312.079 314.538 312.079L306.016 309.548Z" fill="url(#paint85_linear_541_176)"/>
<path d="M311.163 318.297C311.163 318.297 313.188 317.71 311.163 323.581C309.138 329.453 307.53 332.471 307.73 334.896C307.929 337.321 300.686 336.516 296.419 334.896C292.152 333.275 283.758 334.896 280.395 334.309C277.032 333.722 276.621 327.504 282.074 327.369C287.527 327.234 303.891 316.8 303.891 316.8L311.163 318.297Z" fill="url(#paint86_linear_541_176)"/>
<path d="M297.687 321.902L299.653 323.869" stroke="white" stroke-linecap="round" stroke-linejoin="round"/>
<path d="M294.048 323.869L296.319 326.623" stroke="white" stroke-linecap="round" stroke-linejoin="round"/>
<path d="M290.109 325.496L291.623 327.903" stroke="white" stroke-linecap="round" stroke-linejoin="round"/>
<path d="M285.167 288.781L280.759 294.946C280.759 294.946 282.309 300.594 287.128 298.751C291.946 296.907 292.41 294.001 292.41 294.001L285.167 288.781Z" fill="url(#paint87_linear_541_176)"/>
<path d="M287.127 298.751C287.127 298.751 289.223 298.88 285.367 303.741C281.51 308.603 278.992 310.928 278.382 313.283C277.771 315.637 271.209 312.484 267.717 309.548C264.224 306.613 255.772 305.356 252.796 303.677C249.821 301.998 251.493 296.009 256.682 297.688C261.871 299.367 280.747 294.969 280.747 294.969L287.127 298.751Z" fill="url(#paint88_linear_541_176)"/>
<path d="M273.504 297.799L275.019 300.136" stroke="white" stroke-linecap="round" stroke-linejoin="round"/>
<path d="M269.536 298.968L271.186 302.133" stroke="white" stroke-linecap="round" stroke-linejoin="round"/>
<path d="M265.345 299.737L266.326 302.403" stroke="white" stroke-linecap="round" stroke-linejoin="round"/>
<path d="M320.396 234.017C320.396 234.017 313.893 231.239 302.377 255.084C290.861 278.928 285.108 288.927 285.108 288.927L292.076 294.388C292.076 294.388 317.227 267.614 319.663 261.349C322.098 255.084 329.318 237.328 320.396 234.017Z" fill="url(#paint89_linear_541_176)"/>
<path opacity="0.3" d="M304.384 280.86C311.146 273.227 318.401 264.566 319.645 261.348C321.875 255.583 328.185 240.076 322.222 235.073C319.604 238.068 316.217 243.963 312.607 255.559C309.144 266.715 306.386 275.035 304.384 280.86Z" fill="#393150"/>
<path d="M398.391 231.457C398.391 231.457 394.212 255.107 385.707 255.113C377.202 255.119 333.339 251.978 333.339 251.978C335.021 258.428 334.469 265.258 331.771 271.354C327.223 281.335 316.012 312.513 316.012 312.513L306.033 309.578C306.033 309.578 317.849 236.4 321.488 231.486C325.127 226.571 377.542 230.182 377.542 230.182L398.391 231.457Z" fill="url(#paint90_linear_541_176)"/>
<path opacity="0.3" d="M363.08 229.331C366.466 231.093 372.905 231.715 380.46 232.267C392.199 233.089 383.887 242.659 377.525 247.28C371.162 251.901 333.544 247.727 330.568 241.65C327.592 235.573 325.186 242.36 326.935 246.905C328.684 251.449 333.35 251.972 333.35 251.972C333.35 251.972 377.22 255.107 385.719 255.107C394.218 255.107 398.391 231.457 398.391 231.457L377.525 230.153C377.525 230.153 371.344 229.695 363.08 229.331Z" fill="#393150"/>
<path d="M303.087 332.083C304.027 332.083 304.789 331.321 304.789 330.38C304.789 329.44 304.027 328.678 303.087 328.678C302.147 328.678 301.385 329.44 301.385 330.38C301.385 331.321 302.147 332.083 303.087 332.083Z" stroke="white" stroke-miterlimit="10"/>
</g>
<defs>
<linearGradient id="paint0_linear_541_176" x1="261.207" y1="0" x2="261.207" y2="192.376" gradientUnits="userSpaceOnUse">
<stop offset="0.01" stop-color="#C9B2F7"/>
<stop offset="1" stop-color="#DA98EA"/>
</linearGradient>
<linearGradient id="paint1_linear_541_176" x1="206.556" y1="14.9842" x2="206.556" y2="155.901" gradientUnits="userSpaceOnUse">
<stop stop-color="#5B4A77"/>
<stop offset="1" stop-color="#393150"/>
</linearGradient>
<linearGradient id="paint2_linear_541_176" x1="293.948" y1="110.544" x2="293.948" y2="192.182" gradientUnits="userSpaceOnUse">
<stop stop-color="#FFCCB9"/>
<stop offset="1" stop-color="#F5968F"/>
</linearGradient>
<linearGradient id="paint3_linear_541_176" x1="282.743" y1="71.3394" x2="282.743" y2="114.583" gradientUnits="userSpaceOnUse">
<stop stop-color="#5B4A77"/>
<stop offset="1" stop-color="#393150"/>
</linearGradient>
<linearGradient id="paint4_linear_541_176" x1="268.949" y1="71.3398" x2="268.949" y2="192.182" gradientUnits="userSpaceOnUse">
<stop offset="0.01" stop-color="#9489A7"/>
<stop offset="1" stop-color="#7E7496"/>
</linearGradient>
<linearGradient id="paint5_linear_541_176" x1="238.146" y1="67.0942" x2="238.146" y2="192.182" gradientUnits="userSpaceOnUse">
<stop offset="0.01" stop-color="#C9B2F7"/>
<stop offset="1" stop-color="#A193E5"/>
</linearGradient>
<linearGradient id="paint6_linear_541_176" x1="196.407" y1="71.7914" x2="196.407" y2="192.182" gradientUnits="userSpaceOnUse">
<stop offset="0.01" stop-color="#9489A7"/>
<stop offset="1" stop-color="#7E7496"/>
</linearGradient>
<linearGradient id="paint7_linear_541_176" x1="307.771" y1="84.4155" x2="307.771" y2="90.9388" gradientUnits="userSpaceOnUse">
<stop stop-color="#5B4A77"/>
<stop offset="1" stop-color="#393150"/>
</linearGradient>
<linearGradient id="paint8_linear_541_176" x1="302.41" y1="65.0625" x2="302.41" y2="87.8207" gradientUnits="userSpaceOnUse">
<stop stop-color="#5B4A77"/>
<stop offset="1" stop-color="#393150"/>
</linearGradient>
<linearGradient id="paint9_linear_541_176" x1="296.894" y1="63.854" x2="296.894" y2="66.8661" gradientUnits="userSpaceOnUse">
<stop stop-color="#5B4A77"/>
<stop offset="1" stop-color="#393150"/>
</linearGradient>
<linearGradient id="paint10_linear_541_176" x1="265.838" y1="67.3584" x2="265.838" y2="142.99" gradientUnits="userSpaceOnUse">
<stop stop-color="#FFCCB9"/>
<stop offset="1" stop-color="#F5968F"/>
</linearGradient>
<linearGradient id="paint11_linear_541_176" x1="225.35" y1="84.6917" x2="225.35" y2="134.083" gradientUnits="userSpaceOnUse">
<stop stop-color="#5B4A77"/>
<stop offset="1" stop-color="#393150"/>
</linearGradient>
<linearGradient id="paint12_linear_541_176" x1="255.262" y1="57.8174" x2="255.262" y2="67.0944" gradientUnits="userSpaceOnUse">
<stop stop-color="#FFCCB9"/>
<stop offset="1" stop-color="#F5968F"/>
</linearGradient>
<linearGradient id="paint13_linear_541_176" x1="255.138" y1="31.6303" x2="255.138" y2="72.8721" gradientUnits="userSpaceOnUse">
<stop stop-color="#FFCCB9"/>
<stop offset="1" stop-color="#F5968F"/>
</linearGradient>
<linearGradient id="paint14_linear_541_176" x1="269.595" y1="40.2319" x2="269.595" y2="45.851" gradientUnits="userSpaceOnUse">
<stop stop-color="#5B4A77"/>
<stop offset="1" stop-color="#393150"/>
</linearGradient>
<linearGradient id="paint15_linear_541_176" x1="253.923" y1="40.2319" x2="253.923" y2="45.851" gradientUnits="userSpaceOnUse">
<stop stop-color="#5B4A77"/>
<stop offset="1" stop-color="#393150"/>
</linearGradient>
<linearGradient id="paint16_linear_541_176" x1="545.153" y1="279.774" x2="399.565" y2="279.774" gradientUnits="userSpaceOnUse">
<stop stop-color="white"/>
<stop offset="1" stop-color="#F0E6F4"/>
</linearGradient>
<linearGradient id="paint17_linear_541_176" x1="390.408" y1="254.567" x2="390.408" y2="305.086" gradientUnits="userSpaceOnUse">
<stop offset="0.01" stop-color="#C9B2F7"/>
<stop offset="1" stop-color="#A193E5"/>
</linearGradient>
<linearGradient id="paint18_linear_541_176" x1="272.142" y1="329.594" x2="358.202" y2="329.594" gradientUnits="userSpaceOnUse">
<stop stop-color="white"/>
<stop offset="1" stop-color="#F0E6F4"/>
</linearGradient>
<linearGradient id="paint19_linear_541_176" x1="377.489" y1="354.906" x2="377.489" y2="304.387" gradientUnits="userSpaceOnUse">
<stop offset="0.01" stop-color="#A193E5"/>
<stop offset="1" stop-color="#856ECE"/>
</linearGradient>
<linearGradient id="paint20_linear_541_176" x1="516.88" y1="245.504" x2="521.052" y2="319.403" gradientUnits="userSpaceOnUse">
<stop offset="0.01" stop-color="#F5C6C6"/>
<stop offset="1" stop-color="#EFB1B1"/>
</linearGradient>
<linearGradient id="paint21_linear_541_176" x1="528.248" y1="263.031" x2="524.16" y2="319.891" gradientUnits="userSpaceOnUse">
<stop offset="0.01" stop-color="#FFADAD"/>
<stop offset="1" stop-color="#ED8888"/>
</linearGradient>
<linearGradient id="paint22_linear_541_176" x1="497.635" y1="264.098" x2="500.822" y2="320.545" gradientUnits="userSpaceOnUse">
<stop offset="0.01" stop-color="#FFADAD"/>
<stop offset="1" stop-color="#ED8888"/>
</linearGradient>
<linearGradient id="paint23_linear_541_176" x1="509.989" y1="317.064" x2="509.989" y2="355" gradientUnits="userSpaceOnUse">
<stop offset="0.01" stop-color="#8CA0F2"/>
<stop offset="1" stop-color="#7D7DE2"/>
</linearGradient>
<linearGradient id="paint24_linear_541_176" x1="40.1539" y1="264.472" x2="40.1539" y2="321.016" gradientUnits="userSpaceOnUse">
<stop offset="0.01" stop-color="#F5C6C6"/>
<stop offset="1" stop-color="#EFB1B1"/>
</linearGradient>
<linearGradient id="paint25_linear_541_176" x1="24.1623" y1="247.07" x2="19.6425" y2="320.942" gradientUnits="userSpaceOnUse">
<stop offset="0.01" stop-color="#FFADAD"/>
<stop offset="1" stop-color="#ED8888"/>
</linearGradient>
<linearGradient id="paint26_linear_541_176" x1="13.4139" y1="266.226" x2="19.227" y2="321.702" gradientUnits="userSpaceOnUse">
<stop offset="0.01" stop-color="#F5C6C6"/>
<stop offset="1" stop-color="#EFB1B1"/>
</linearGradient>
<linearGradient id="paint27_linear_541_176" x1="479.403" y1="201.77" x2="479.403" y2="254.467" gradientUnits="userSpaceOnUse">
<stop stop-color="#5B4A77"/>
<stop offset="1" stop-color="#393150"/>
</linearGradient>
<linearGradient id="paint28_linear_541_176" x1="451.094" y1="195.558" x2="451.094" y2="254.467" gradientUnits="userSpaceOnUse">
<stop stop-color="#5B4A77"/>
<stop offset="1" stop-color="#393150"/>
</linearGradient>
<linearGradient id="paint29_linear_541_176" x1="451.921" y1="195.558" x2="451.921" y2="220.964" gradientUnits="userSpaceOnUse">
<stop stop-color="#FF8C8C"/>
<stop offset="1" stop-color="#E26A71"/>
</linearGradient>
<linearGradient id="paint30_linear_541_176" x1="450.847" y1="212.209" x2="450.847" y2="216.96" gradientUnits="userSpaceOnUse">
<stop stop-color="white"/>
<stop offset="1" stop-color="#F0E6F4"/>
</linearGradient>
<linearGradient id="paint31_linear_541_176" x1="451.099" y1="231.322" x2="451.099" y2="254.462" gradientUnits="userSpaceOnUse">
<stop stop-color="#FF8C8C"/>
<stop offset="1" stop-color="#E26A71"/>
</linearGradient>
<linearGradient id="paint32_linear_541_176" x1="465.72" y1="229.654" x2="465.72" y2="235.872" gradientUnits="userSpaceOnUse">
<stop stop-color="white"/>
<stop offset="1" stop-color="#F0E6F4"/>
</linearGradient>
<linearGradient id="paint33_linear_541_176" x1="439.325" y1="229.654" x2="439.325" y2="235.872" gradientUnits="userSpaceOnUse">
<stop stop-color="white"/>
<stop offset="1" stop-color="#F0E6F4"/>
</linearGradient>
<linearGradient id="paint34_linear_541_176" x1="94.7115" y1="24.0498" x2="94.7115" y2="67.3525" gradientUnits="userSpaceOnUse">
<stop offset="0.01" stop-color="#DFF7EF"/>
<stop offset="1" stop-color="#C6E1E5"/>
</linearGradient>
<linearGradient id="paint35_linear_541_176" x1="66.6021" y1="93.164" x2="66.6021" y2="178.337" gradientUnits="userSpaceOnUse">
<stop stop-color="#5B4A77"/>
<stop offset="1" stop-color="#393150"/>
</linearGradient>
<linearGradient id="paint36_linear_541_176" x1="454.216" y1="45.5806" x2="454.216" y2="139.508" gradientUnits="userSpaceOnUse">
<stop stop-color="#5B4A77"/>
<stop offset="1" stop-color="#393150"/>
</linearGradient>
<linearGradient id="paint37_linear_541_176" x1="146.692" y1="208.916" x2="146.692" y2="354.824" gradientUnits="userSpaceOnUse">
<stop offset="0.01" stop-color="#C9B2F7"/>
<stop offset="1" stop-color="#A193E5"/>
</linearGradient>
<linearGradient id="paint38_linear_541_176" x1="139.42" y1="167.509" x2="139.42" y2="196.92" gradientUnits="userSpaceOnUse">
<stop stop-color="#5B4A77"/>
<stop offset="1" stop-color="#393150"/>
</linearGradient>
<linearGradient id="paint39_linear_541_176" x1="140.224" y1="187.332" x2="140.224" y2="203.537" gradientUnits="userSpaceOnUse">
<stop stop-color="#FFCCB9"/>
<stop offset="1" stop-color="#F5968F"/>
</linearGradient>
<linearGradient id="paint40_linear_541_176" x1="138.387" y1="163.487" x2="138.387" y2="207.97" gradientUnits="userSpaceOnUse">
<stop stop-color="#FFCCB9"/>
<stop offset="1" stop-color="#F5968F"/>
</linearGradient>
<linearGradient id="paint41_linear_541_176" x1="136.514" y1="156.606" x2="136.514" y2="175.395" gradientUnits="userSpaceOnUse">
<stop stop-color="#FF8C8C"/>
<stop offset="1" stop-color="#E26A71"/>
</linearGradient>
<linearGradient id="paint42_linear_541_176" x1="141.567" y1="164.793" x2="141.567" y2="176.465" gradientUnits="userSpaceOnUse">
<stop stop-color="#FF8C8C"/>
<stop offset="1" stop-color="#E26A71"/>
</linearGradient>
<linearGradient id="paint43_linear_541_176" x1="137.918" y1="175.444" x2="137.918" y2="178.644" gradientUnits="userSpaceOnUse">
<stop stop-color="#5B4A77"/>
<stop offset="1" stop-color="#393150"/>
</linearGradient>
<linearGradient id="paint44_linear_541_176" x1="147.299" y1="173.736" x2="147.299" y2="176.942" gradientUnits="userSpaceOnUse">
<stop stop-color="#5B4A77"/>
<stop offset="1" stop-color="#393150"/>
</linearGradient>
<linearGradient id="paint45_linear_541_176" x1="195.967" y1="181.519" x2="195.967" y2="239.77" gradientUnits="userSpaceOnUse">
<stop stop-color="#FFCCB9"/>
<stop offset="1" stop-color="#F5968F"/>
</linearGradient>
<linearGradient id="paint46_linear_541_176" x1="143.358" y1="198.006" x2="143.358" y2="269.98" gradientUnits="userSpaceOnUse">
<stop stop-color="#FF8C8C"/>
<stop offset="1" stop-color="#E26A71"/>
</linearGradient>
<linearGradient id="paint47_linear_541_176" x1="142.143" y1="203.126" x2="142.143" y2="223.16" gradientUnits="userSpaceOnUse">
<stop stop-color="white"/>
<stop offset="1" stop-color="#F0E6F4"/>
</linearGradient>
<linearGradient id="paint48_linear_541_176" x1="146.364" y1="218.263" x2="146.364" y2="221.392" gradientUnits="userSpaceOnUse">
<stop stop-color="white"/>
<stop offset="1" stop-color="#F0E6F4"/>
</linearGradient>
<linearGradient id="paint49_linear_541_176" x1="146.364" y1="210.013" x2="146.364" y2="213.137" gradientUnits="userSpaceOnUse">
<stop stop-color="white"/>
<stop offset="1" stop-color="#F0E6F4"/>
</linearGradient>
<linearGradient id="paint50_linear_541_176" x1="145.8" y1="197.636" x2="145.8" y2="206.326" gradientUnits="userSpaceOnUse">
<stop stop-color="white"/>
<stop offset="1" stop-color="#F0E6F4"/>
</linearGradient>
<linearGradient id="paint51_linear_541_176" x1="136.544" y1="198.646" x2="136.544" y2="207.635" gradientUnits="userSpaceOnUse">
<stop stop-color="white"/>
<stop offset="1" stop-color="#F0E6F4"/>
</linearGradient>
<linearGradient id="paint52_linear_541_176" x1="123.42" y1="239.406" x2="123.42" y2="266.744" gradientUnits="userSpaceOnUse">
<stop stop-color="#FFCCB9"/>
<stop offset="1" stop-color="#F5968F"/>
</linearGradient>
<linearGradient id="paint53_linear_541_176" x1="146.088" y1="261.695" x2="146.088" y2="266.75" gradientUnits="userSpaceOnUse">
<stop stop-color="#FFCCB9"/>
<stop offset="1" stop-color="#F5968F"/>
</linearGradient>
<linearGradient id="paint54_linear_541_176" x1="139.672" y1="258.735" x2="139.672" y2="266.75" gradientUnits="userSpaceOnUse">
<stop stop-color="#FFCCB9"/>
<stop offset="1" stop-color="#F5968F"/>
</linearGradient>
<linearGradient id="paint55_linear_541_176" x1="172.7" y1="236.535" x2="172.7" y2="268.365" gradientUnits="userSpaceOnUse">
<stop stop-color="white"/>
<stop offset="1" stop-color="#F0E6F4"/>
</linearGradient>
<linearGradient id="paint56_linear_541_176" x1="157.604" y1="266.744" x2="157.604" y2="269.979" gradientUnits="userSpaceOnUse">
<stop stop-color="white"/>
<stop offset="1" stop-color="#F0E6F4"/>
</linearGradient>
<linearGradient id="paint57_linear_541_176" x1="173.763" y1="251.138" x2="173.763" y2="255.882" gradientUnits="userSpaceOnUse">
<stop stop-color="#5B4A77"/>
<stop offset="1" stop-color="#393150"/>
</linearGradient>
<linearGradient id="paint58_linear_541_176" x1="144.673" y1="269.98" x2="144.673" y2="289.838" gradientUnits="userSpaceOnUse">
<stop stop-color="#5B4A77"/>
<stop offset="1" stop-color="#393150"/>
</linearGradient>
<linearGradient id="paint59_linear_541_176" x1="169.701" y1="257.309" x2="169.701" y2="306.912" gradientUnits="userSpaceOnUse">
<stop stop-color="#5B4A77"/>
<stop offset="1" stop-color="#393150"/>
</linearGradient>
<linearGradient id="paint60_linear_541_176" x1="112.725" y1="298.962" x2="112.725" y2="320.904" gradientUnits="userSpaceOnUse">
<stop stop-color="#5B4A77"/>
<stop offset="1" stop-color="#393150"/>
</linearGradient>
<linearGradient id="paint61_linear_541_176" x1="127.2" y1="294.224" x2="127.2" y2="308.286" gradientUnits="userSpaceOnUse">
<stop stop-color="#FF8C8C"/>
<stop offset="1" stop-color="#E26A71"/>
</linearGradient>
<linearGradient id="paint62_linear_541_176" x1="127.059" y1="252.224" x2="127.059" y2="308.985" gradientUnits="userSpaceOnUse">
<stop stop-color="#5B4A77"/>
<stop offset="1" stop-color="#393150"/>
</linearGradient>
<linearGradient id="paint63_linear_541_176" x1="180.155" y1="302.444" x2="180.155" y2="326.001" gradientUnits="userSpaceOnUse">
<stop stop-color="#5B4A77"/>
<stop offset="1" stop-color="#393150"/>
</linearGradient>
<linearGradient id="paint64_linear_541_176" x1="166.396" y1="296.86" x2="166.396" y2="311.462" gradientUnits="userSpaceOnUse">
<stop stop-color="#FF8C8C"/>
<stop offset="1" stop-color="#E26A71"/>
</linearGradient>
<linearGradient id="paint65_linear_541_176" x1="164.436" y1="299.379" x2="164.436" y2="309.672" gradientUnits="userSpaceOnUse">
<stop stop-color="white"/>
<stop offset="1" stop-color="#F0E6F4"/>
</linearGradient>
<linearGradient id="paint66_linear_541_176" x1="167.206" y1="300.841" x2="167.206" y2="310.634" gradientUnits="userSpaceOnUse">
<stop stop-color="white"/>
<stop offset="1" stop-color="#F0E6F4"/>
</linearGradient>
<linearGradient id="paint67_linear_541_176" x1="128.878" y1="296.443" x2="128.878" y2="307.323" gradientUnits="userSpaceOnUse">
<stop stop-color="white"/>
<stop offset="1" stop-color="#F0E6F4"/>
</linearGradient>
<linearGradient id="paint68_linear_541_176" x1="125.89" y1="298.551" x2="125.89" y2="307.323" gradientUnits="userSpaceOnUse">
<stop stop-color="white"/>
<stop offset="1" stop-color="#F0E6F4"/>
</linearGradient>
<linearGradient id="paint69_linear_541_176" x1="177.953" y1="308.843" x2="177.953" y2="318.121" gradientUnits="userSpaceOnUse">
<stop stop-color="white"/>
<stop offset="1" stop-color="#F0E6F4"/>
</linearGradient>
<linearGradient id="paint70_linear_541_176" x1="113.652" y1="304.722" x2="113.652" y2="312.995" gradientUnits="userSpaceOnUse">
<stop stop-color="white"/>
<stop offset="1" stop-color="#F0E6F4"/>
</linearGradient>
<linearGradient id="paint71_linear_541_176" x1="363.596" y1="149.813" x2="363.596" y2="221.381" gradientUnits="userSpaceOnUse">
<stop stop-color="#FFC260"/>
<stop offset="1" stop-color="#EDA54F"/>
</linearGradient>
<linearGradient id="paint72_linear_541_176" x1="360.585" y1="146.724" x2="360.585" y2="159.095" gradientUnits="userSpaceOnUse">
<stop stop-color="#FFD99C"/>
<stop offset="1" stop-color="#EFB681"/>
</linearGradient>
<linearGradient id="paint73_linear_541_176" x1="374.672" y1="149.813" x2="374.672" y2="231.944" gradientUnits="userSpaceOnUse">
<stop stop-color="white"/>
<stop offset="1" stop-color="#F0E6F4"/>
</linearGradient>
<linearGradient id="paint74_linear_541_176" x1="343.387" y1="218.48" x2="343.387" y2="225.274" gradientUnits="userSpaceOnUse">
<stop stop-color="#FFCCB9"/>
<stop offset="1" stop-color="#F5968F"/>
</linearGradient>
<linearGradient id="paint75_linear_541_176" x1="354.586" y1="217.071" x2="354.586" y2="226.337" gradientUnits="userSpaceOnUse">
<stop stop-color="#FFC260"/>
<stop offset="1" stop-color="#EDA54F"/>
</linearGradient>
<linearGradient id="paint76_linear_541_176" x1="315.855" y1="195.349" x2="315.855" y2="227.795" gradientUnits="userSpaceOnUse">
<stop stop-color="#5B4A77"/>
<stop offset="1" stop-color="#393150"/>
</linearGradient>
<linearGradient id="paint77_linear_541_176" x1="336.543" y1="225.274" x2="336.543" y2="228.92" gradientUnits="userSpaceOnUse">
<stop stop-color="#5B4A77"/>
<stop offset="1" stop-color="#393150"/>
</linearGradient>
<linearGradient id="paint78_linear_541_176" x1="355.643" y1="109.17" x2="355.643" y2="137.653" gradientUnits="userSpaceOnUse">
<stop stop-color="#5B4A77"/>
<stop offset="1" stop-color="#393150"/>
</linearGradient>
<linearGradient id="paint79_linear_541_176" x1="364.799" y1="133.431" x2="364.799" y2="160.018" gradientUnits="userSpaceOnUse">
<stop stop-color="#FFCCB9"/>
<stop offset="1" stop-color="#F5968F"/>
</linearGradient>
<linearGradient id="paint80_linear_541_176" x1="359.969" y1="116.239" x2="359.969" y2="161.109" gradientUnits="userSpaceOnUse">
<stop stop-color="#FFCCB9"/>
<stop offset="1" stop-color="#F5968F"/>
</linearGradient>
<linearGradient id="paint81_linear_541_176" x1="354.543" y1="132.132" x2="354.732" y2="135.861" gradientUnits="userSpaceOnUse">
<stop stop-color="#5B4A77"/>
<stop offset="1" stop-color="#393150"/>
</linearGradient>
<linearGradient id="paint82_linear_541_176" x1="388.378" y1="146.36" x2="388.378" y2="232.649" gradientUnits="userSpaceOnUse">
<stop stop-color="#FFC260"/>
<stop offset="1" stop-color="#EDA54F"/>
</linearGradient>
<linearGradient id="paint83_linear_541_176" x1="369.507" y1="146.36" x2="369.507" y2="164.679" gradientUnits="userSpaceOnUse">
<stop stop-color="#FFD99C"/>
<stop offset="1" stop-color="#EFB681"/>
</linearGradient>
<linearGradient id="paint84_linear_541_176" x1="379.632" y1="161.245" x2="379.632" y2="227.106" gradientUnits="userSpaceOnUse">
<stop stop-color="#FFD99C"/>
<stop offset="1" stop-color="#EFB681"/>
</linearGradient>
<linearGradient id="paint85_linear_541_176" x1="309.226" y1="309.542" x2="309.226" y2="320.851" gradientUnits="userSpaceOnUse">
<stop stop-color="#FFCCB9"/>
<stop offset="1" stop-color="#F5968F"/>
</linearGradient>
<linearGradient id="paint86_linear_541_176" x1="294.987" y1="316.817" x2="294.987" y2="336.434" gradientUnits="userSpaceOnUse">
<stop stop-color="#5B4A77"/>
<stop offset="1" stop-color="#393150"/>
</linearGradient>
<linearGradient id="paint87_linear_541_176" x1="286.576" y1="288.781" x2="286.576" y2="299.121" gradientUnits="userSpaceOnUse">
<stop stop-color="#FFCCB9"/>
<stop offset="1" stop-color="#F5968F"/>
</linearGradient>
<linearGradient id="paint88_linear_541_176" x1="269.513" y1="294.946" x2="269.513" y2="314.099" gradientUnits="userSpaceOnUse">
<stop stop-color="#5B4A77"/>
<stop offset="1" stop-color="#393150"/>
</linearGradient>
<linearGradient id="paint89_linear_541_176" x1="304.918" y1="233.917" x2="304.918" y2="294.388" gradientUnits="userSpaceOnUse">
<stop stop-color="#5B4A77"/>
<stop offset="1" stop-color="#393150"/>
</linearGradient>
<linearGradient id="paint90_linear_541_176" x1="352.203" y1="228.838" x2="352.203" y2="312.508" gradientUnits="userSpaceOnUse">
<stop stop-color="#5B4A77"/>
<stop offset="1" stop-color="#393150"/>
</linearGradient>
<clipPath id="clip0_541_176">
<rect width="540" height="355" fill="white"/>
</clipPath>
</defs>
</svg>
