<svg width="54" height="58" viewBox="0 0 54 58" fill="none" xmlns="http://www.w3.org/2000/svg">
<path d="M0.742188 4.21317V53.8387C0.742529 53.9463 0.774626 54.0513 0.834453 54.1408C0.894279 54.2302 0.979173 54.2999 1.07849 54.3413C1.1778 54.3826 1.28711 54.3937 1.39271 54.3732C1.49831 54.3527 1.5955 54.3014 1.67208 54.2259L27.5111 29.0268L1.67208 3.82601C1.5955 3.75046 1.49831 3.69921 1.39271 3.67868C1.28711 3.65815 1.1778 3.66925 1.07849 3.7106C0.979173 3.75195 0.894279 3.8217 0.834453 3.91111C0.774626 4.00051 0.742529 4.10559 0.742188 4.21317ZM38.3463 18.6725L5.94676 0.822421L5.92731 0.811814C5.81034 0.756151 5.6775 0.743438 5.55209 0.775901C5.42668 0.808365 5.3167 0.883934 5.24142 0.989363C5.16615 1.09479 5.13038 1.22335 5.14039 1.35251C5.15041 1.48167 5.20556 1.60318 5.29619 1.69574L30.6915 25.9879L38.3463 18.6725ZM5.29796 56.3526C5.20733 56.4452 5.15217 56.5667 5.14216 56.6958C5.13215 56.825 5.16791 56.9535 5.24319 57.059C5.31847 57.1644 5.42845 57.24 5.55386 57.2724C5.67927 57.3049 5.8121 57.2922 5.92908 57.2365L5.94853 57.2259L38.3463 39.3829L30.6915 32.0587L5.29796 56.3526ZM51.4284 25.8712L42.377 20.8876L33.8701 29.0197L42.377 37.1519L51.4284 32.1842C51.9883 31.869 52.4543 31.4106 52.7786 30.8559C53.1028 30.3012 53.2737 29.6702 53.2737 29.0277C53.2737 28.3852 53.1028 27.7542 52.7786 27.1995C52.4543 26.6448 51.9883 26.1864 51.4284 25.8712Z" fill="#8F98B7"/>
</svg>
