<svg width="72" height="73" viewBox="0 0 72 73" fill="none" xmlns="http://www.w3.org/2000/svg">
<g clip-path="url(#clip0_638_107)">
<path d="M71.7013 40.6575C70.6381 35.299 68.7439 32.5882 62.8118 33.3078C62.3567 33.3648 61.9017 33.4405 61.4466 33.5351C61.4466 33.7966 61.4585 34.0598 61.4585 34.3231C61.4635 37.9197 60.76 41.4821 59.3884 44.806C58.0168 48.13 56.004 51.1504 53.4653 53.6942C50.9266 56.238 47.9118 58.2552 44.5936 59.6304C41.2754 61.0056 37.7189 61.7117 34.1279 61.7084C19.0299 61.7084 7.97648 49.4019 6.79042 34.3282C5.78354 21.509 17.1134 6.96682 32.5817 6.5549C36.9744 6.43867 40.123 6.63352 45.3707 10.0195C53.2312 15.0942 49.8795 14.8874 59.6359 24.4779C60.8561 24.8488 62.1548 24.7411 63.5747 23.9326C67.952 21.4423 66.0424 16.1112 64.1805 13.32C63.7163 12.7577 63.3272 12.38 62.8357 11.8467L62.6378 11.6057C61.2554 10.3289 59.5045 8.43676 55.8217 5.89856C55.8106 5.88942 55.7986 5.8814 55.7859 5.87462C52.1264 3.52307 48.0723 1.85418 43.8195 0.948624H43.8007C37.4815 -0.392389 30.9194 -0.0205092 24.7915 2.02591C18.6637 4.07232 13.1919 7.71916 8.94069 12.5902C8.93907 12.5949 8.9361 12.5991 8.93215 12.6022L8.90314 12.6329C3.15576 19.2319 -0.00481119 27.6959 0.00852593 36.4528C0.00852593 56.502 16.2345 72.7534 36.2526 72.7534C44.6833 72.7511 52.8496 69.8062 59.3468 64.4254C65.844 59.0445 70.2658 51.5641 71.8515 43.2709C71.9138 42.3969 71.8633 41.5185 71.7013 40.6575V40.6575Z" fill="url(#paint0_linear_638_107)"/>
<path d="M71.9556 43.6862C71.5222 50.6189 65.0355 58.5053 65.0355 58.5053C65.0526 58.4454 65.4485 57.0439 65.4621 56.984C68.7046 44.4742 64.4109 43.0675 59.8049 43.7375C57.3235 44.0964 54.6852 45.4279 52.9599 46.7116C36.6929 58.7907 35.2355 46.1988 35.1211 45.0741C34.9863 43.7871 34.36 37.4663 34.36 37.4663C33.5647 28.6416 28.9809 28.3168 28.9809 28.3168C28.9809 28.3168 24.2486 26.8144 18.4394 34.6034C12.6303 42.3923 15.9939 53.4203 15.9939 53.4203C14.4939 51.4974 11.0739 42.6299 13.3709 33.9009C15.668 25.1718 22.0386 20.6663 24.8493 18.6973C27.66 16.7282 33.7968 13.4431 38.9046 17.6717C44.0123 21.9004 43.2137 32.8753 43.2137 32.8753C43.0259 41.9343 47.7224 40.3378 52.0229 37.709C54.0994 36.4137 56.2867 35.3057 58.5591 34.3983C59.4982 34.036 60.465 33.7502 61.45 33.5436C61.9051 33.4479 62.3602 33.3722 62.8153 33.3163C68.7473 32.5916 71.1655 34.923 71.8788 40.3105C72.0115 41.4307 72.0372 42.5611 71.9556 43.6862Z" fill="url(#paint1_linear_638_107)"/>
<path d="M8.93557 12.5816C8.98506 12.5304 9.0738 12.4381 9.20179 12.3116C9.11134 12.4056 9.02089 12.4996 8.92703 12.5936C8.93067 12.5903 8.93358 12.5862 8.93557 12.5816Z" fill="url(#paint2_linear_638_107)"/>
<path d="M45.0516 9.25721C46.4698 10.3306 46.9647 10.9989 48.3334 12.356C49.4547 13.4413 50.5074 14.5956 51.4854 15.8121C54.7159 19.8579 56.0061 23.3686 59.6359 24.4762C60.8561 24.8471 62.7675 24.989 64.1413 24.0967C67.9554 21.6286 67.4452 17.7094 65.7386 15.1541C65.245 14.3645 64.7006 13.608 64.1088 12.8893C63.9382 12.6876 63.8836 12.6158 63.689 12.4022L63.2419 11.9151L62.7453 11.3749C62.2538 10.8622 61.4688 10.134 61.4688 10.134C59.6325 8.34277 58.8287 7.80607 55.9344 5.71739L55.9003 5.69517C52.8472 3.59282 48.8556 1.5537 43.9321 0.769166H43.9133C33.7337 -1.33148 19.948 0.399972 9.52094 11.9373C11.1558 10.1289 17.5606 4.95336 27.701 4.24574C27.701 4.24574 34.5528 3.58427 39.9012 6.15153C42.0668 7.20613 43.0055 7.7189 45.0516 9.25721Z" fill="url(#paint3_linear_638_107)"/>
</g>
<defs>
<linearGradient id="paint0_linear_638_107" x1="-1.12463" y1="60.7854" x2="66.9638" y2="16.5844" gradientUnits="userSpaceOnUse">
<stop stop-color="#2B89C9"/>
<stop offset="0.79" stop-color="#4C1389"/>
</linearGradient>
<linearGradient id="paint1_linear_638_107" x1="-4.33125" y1="25.1513" x2="85.1589" y2="53.3248" gradientUnits="userSpaceOnUse">
<stop stop-color="#5313B1"/>
<stop offset="0.16" stop-color="#521FB6"/>
<stop offset="0.45" stop-color="#513FC2"/>
<stop offset="0.84" stop-color="#4F73D5"/>
<stop offset="0.97" stop-color="#4E87DD"/>
</linearGradient>
<linearGradient id="paint2_linear_638_107" x1="8.92703" y1="12.4517" x2="9.20179" y2="12.4517" gradientUnits="userSpaceOnUse">
<stop stop-color="#E87533"/>
<stop offset="0.42" stop-color="#E5913B"/>
<stop offset="1" stop-color="#E0BD49"/>
</linearGradient>
<linearGradient id="paint3_linear_638_107" x1="-5.61118" y1="12.3817" x2="82.3947" y2="12.3817" gradientUnits="userSpaceOnUse">
<stop offset="0.02" stop-color="#4E87DD"/>
<stop offset="0.44" stop-color="#5050C8"/>
<stop offset="0.81" stop-color="#5224B7"/>
<stop offset="1" stop-color="#5313B1"/>
</linearGradient>
<clipPath id="clip0_638_107">
<rect width="72" height="72.75" fill="white"/>
</clipPath>
</defs>
</svg>
