<svg width="242" height="256" viewBox="0 0 242 256" fill="none" xmlns="http://www.w3.org/2000/svg">
<g clip-path="url(#clip0_942_999)">
<path d="M240.994 143.047C237.421 124.194 231.054 114.656 211.115 117.188C209.586 117.389 208.056 117.655 206.527 117.988C206.527 118.908 206.567 119.834 206.567 120.76C206.583 133.415 204.219 145.948 199.609 157.643C194.999 169.338 188.234 179.965 179.701 188.915C171.168 197.865 161.035 204.963 149.882 209.801C138.729 214.64 126.775 217.124 114.705 217.112C63.9595 217.112 26.8077 173.813 22.8212 120.778C19.437 75.6756 57.518 24.5109 109.509 23.0616C124.273 22.6527 134.856 23.3382 152.494 35.2514C178.914 53.1061 167.648 52.3784 200.441 86.1214C204.542 87.4263 208.907 87.0475 213.679 84.203C228.392 75.441 221.974 56.6842 215.716 46.8639C214.156 44.8853 212.848 43.5563 211.196 41.68L210.53 40.8321C205.884 36.3399 199.999 29.6827 187.621 20.7523C187.584 20.7202 187.543 20.692 187.501 20.6681C175.201 12.3945 161.574 6.52273 147.28 3.33663H147.217C125.977 -1.38155 103.921 -0.0731405 83.3249 7.12691C62.7285 14.327 44.3372 27.1579 30.0485 44.296C30.0431 44.3127 30.0331 44.3273 30.0198 44.3381L29.9223 44.4464C10.6047 67.664 -0.018319 97.4436 0.0265085 128.253C0.0265085 198.794 54.564 255.973 121.847 255.973C150.183 255.965 177.631 245.603 199.469 226.671C221.307 207.74 236.169 181.421 241.499 152.242C241.708 149.167 241.538 146.077 240.994 143.047Z" fill="url(#paint0_linear_942_999)"/>
<path d="M241.852 153.702C240.395 178.093 218.592 205.841 218.592 205.841C218.65 205.63 219.98 200.699 220.026 200.488C230.925 156.474 216.493 151.525 201.012 153.882C192.671 155.145 183.804 159.83 178.005 164.346C123.329 206.845 118.431 162.542 118.047 158.585C117.594 154.057 115.488 131.818 115.488 131.818C112.815 100.769 97.4087 99.6265 97.4087 99.6265C97.4087 99.6265 81.5029 94.3404 61.9777 121.745C42.4525 149.149 53.7581 187.95 53.7581 187.95C48.7162 181.184 37.2213 149.985 44.9419 119.273C52.6625 88.5613 74.0748 72.7091 83.522 65.7813C92.9691 58.8535 113.596 47.2952 130.763 62.1731C147.931 77.051 145.247 115.665 145.247 115.665C144.616 147.538 160.401 141.921 174.856 132.672C181.835 128.114 189.187 124.216 196.824 121.023C199.981 119.749 203.23 118.743 206.541 118.016C208.071 117.68 209.6 117.413 211.13 117.217C231.068 114.667 239.196 122.869 241.593 141.825C242.039 145.766 242.126 149.743 241.852 153.702Z" fill="url(#paint1_linear_942_999)"/>
<path d="M30.0358 44.2637C30.2021 44.0832 30.5004 43.7585 30.9306 43.3135C30.6266 43.6442 30.3226 43.975 30.0071 44.3057C30.0193 44.2939 30.0291 44.2796 30.0358 44.2637Z" fill="url(#paint2_linear_942_999)"/>
<path d="M151.425 32.5686C156.192 36.3452 157.855 38.6965 162.456 43.4714C166.225 47.2899 169.763 51.351 173.05 55.6312C183.908 69.8656 188.244 82.2178 200.445 86.1146C204.546 87.4196 210.97 87.9188 215.588 84.7796C228.408 76.0958 226.692 62.3064 220.957 53.3159C219.297 50.538 217.468 47.8763 215.479 45.3477C214.905 44.6381 214.722 44.3855 214.068 43.6338L212.565 41.9199L210.896 40.0196C209.244 38.2155 206.605 35.6536 206.605 35.6536C200.433 29.3512 197.732 27.4629 188.003 20.1142L187.889 20.036C177.627 12.6391 164.211 5.46479 147.662 2.70449H147.599C113.384 -4.68636 67.0494 1.40553 32.0027 41.9981C37.4977 35.6356 59.0248 17.4261 93.1078 14.9364C93.1078 14.9364 116.138 12.6091 134.114 21.6417C141.393 25.3521 144.548 27.1562 151.425 32.5686Z" fill="url(#paint3_linear_942_999)"/>
</g>
<defs>
<linearGradient id="paint0_linear_942_999" x1="-3.78217" y1="213.865" x2="231.158" y2="68.1653" gradientUnits="userSpaceOnUse">
<stop stop-color="#2B89C9"/>
<stop offset="0.79" stop-color="#4C1389"/>
</linearGradient>
<linearGradient id="paint1_linear_942_999" x1="-14.5572" y1="88.4891" x2="288.619" y2="179.669" gradientUnits="userSpaceOnUse">
<stop stop-color="#5313B1"/>
<stop offset="0.16" stop-color="#521FB6"/>
<stop offset="0.45" stop-color="#513FC2"/>
<stop offset="0.84" stop-color="#4F73D5"/>
<stop offset="0.97" stop-color="#4E87DD"/>
</linearGradient>
<linearGradient id="paint2_linear_942_999" x1="30.0071" y1="43.8066" x2="30.9306" y2="43.8066" gradientUnits="userSpaceOnUse">
<stop stop-color="#E87533"/>
<stop offset="0.42" stop-color="#E5913B"/>
<stop offset="1" stop-color="#E0BD49"/>
</linearGradient>
<linearGradient id="paint3_linear_942_999" x1="-18.858" y1="43.5616" x2="276.939" y2="43.5616" gradientUnits="userSpaceOnUse">
<stop offset="0.02" stop-color="#4E87DD"/>
<stop offset="0.44" stop-color="#5050C8"/>
<stop offset="0.81" stop-color="#5224B7"/>
<stop offset="1" stop-color="#5313B1"/>
</linearGradient>
<clipPath id="clip0_942_999">
<rect width="242" height="255.962" fill="white"/>
</clipPath>
</defs>
</svg>
