<svg width="781" height="509" viewBox="0 0 781 509" fill="none" xmlns="http://www.w3.org/2000/svg">
<g clip-path="url(#clip0_1117_2322)">
<path style="mix-blend-mode:multiply" d="M672.927 465.302L362.521 505.525L348.281 478.667L635.108 455.496L672.927 465.302Z" fill="#1F204F"/>
<path style="mix-blend-mode:multiply" d="M716.483 444.467L13.7018 502.652L0 297.087L299.86 277.995L716.483 444.467Z" fill="#1D1E4B"/>
<path d="M614.667 232.341L544.264 230.58V25.0708L614.667 16.2476V232.341Z" fill="url(#paint0_linear_1117_2322)"/>
<path style="mix-blend-mode:multiply" d="M551.561 120.698V224.611L607.797 226.187V119.79L551.561 120.698Z" fill="url(#paint1_linear_1117_2322)"/>
<path style="mix-blend-mode:multiply" d="M607.797 113.358V23.1986L551.561 30.4091V114.081L607.797 113.358Z" fill="url(#paint2_linear_1117_2322)"/>
<path d="M607.797 40.8449V23.1986L551.561 30.4091L607.797 40.8449Z" fill="#D9DBDF"/>
<path d="M614.667 232.341L645.579 228.485V32.7447L614.667 16.2476V232.341Z" fill="#D9DBDF"/>
<path d="M696.209 238.013L621.592 232.471V17.1744L696.209 9V238.013Z" fill="url(#paint3_linear_1117_2322)"/>
<path style="mix-blend-mode:multiply" d="M655.345 121.143L629.241 121.291V226.576L655.345 228.578V121.143Z" fill="url(#paint4_linear_1117_2322)"/>
<path style="mix-blend-mode:multiply" d="M662.938 121.106V229.153L688.838 231.118V120.976L662.938 121.106Z" fill="url(#paint5_linear_1117_2322)"/>
<path style="mix-blend-mode:multiply" d="M688.838 114.155V16.2476L629.241 22.902V114.34L688.838 114.155Z" fill="url(#paint6_linear_1117_2322)"/>
<path d="M688.838 34.9319V16.2476L629.241 22.902L688.838 34.9319Z" fill="#D9DBDF"/>
<path d="M696.209 237.976L729.516 232.953V23.7547L696.209 9V237.976Z" fill="#D9DBDF"/>
<path d="M769.675 207.632V225.019L733.248 221.256L743.459 200.904L769.675 207.632Z" fill="#414A5C"/>
<path d="M299.86 266.002V277.995L531.658 451.437L538.546 431.715L299.86 266.002Z" fill="black"/>
<path d="M535.093 432.308L718.897 424.671C719.633 424.63 720.368 424.761 721.044 425.055C721.72 425.348 722.317 425.796 722.788 426.362C723.26 426.928 723.591 427.596 723.757 428.313C723.923 429.031 723.918 429.776 723.742 430.491L721.44 440.445C721.182 441.551 720.569 442.543 719.694 443.269C718.82 443.995 717.731 444.416 716.594 444.467L535.185 452.512C534.52 452.56 533.851 452.472 533.221 452.252C532.591 452.032 532.013 451.686 531.523 451.234C531.032 450.782 530.639 450.235 530.369 449.626C530.098 449.017 529.956 448.359 529.95 447.693V437.572C529.981 436.208 530.529 434.906 531.483 433.929C532.438 432.953 533.727 432.373 535.093 432.308Z" fill="#414A5C"/>
<path d="M387.956 134.786C402.048 132.654 414.617 132.654 429.953 127.686C445.288 122.719 450.116 131.097 450.617 136.454C454.126 174.527 402.791 224.129 399.43 215.065C396.07 206.001 373.809 136.899 387.956 134.786Z" fill="#414A5C"/>
<path d="M295.145 157.159V216.159L397.072 211.414V142.07L310.035 142.256C308.075 142.251 306.133 142.633 304.322 143.381C302.511 144.128 300.866 145.227 299.482 146.612C298.098 147.997 297.002 149.642 296.257 151.453C295.513 153.263 295.135 155.202 295.145 157.159Z" fill="#414A5C"/>
<path d="M300.937 209.208C321.731 206.965 366.921 207.466 377.374 207.614C378.884 207.636 380.383 207.867 381.83 208.3L487.192 239.125C497.793 242.221 505.35 250.803 504.328 255.808C503.901 257.958 501.933 259.515 498.035 259.515L346.944 262.907C343.772 262.96 340.655 262.083 337.977 260.386L337.791 260.275L295.832 233.194C294.563 232.466 293.5 231.431 292.74 230.183C291.981 228.935 291.55 227.516 291.487 226.057V217.29C291.487 213.23 295.479 209.801 300.937 209.208Z" fill="#C4C8CD"/>
<path style="mix-blend-mode:multiply" d="M330.754 231.414C328.322 230.45 294.811 214.991 292.731 213.638C291.963 214.725 291.536 216.015 291.506 217.345V226.113C291.568 227.572 291.999 228.991 292.759 230.239C293.519 231.486 294.582 232.522 295.85 233.249L337.81 260.33L337.995 260.442C340.673 262.139 343.791 263.015 346.963 262.962C346.963 262.962 341.764 235.844 330.754 231.414Z" fill="url(#paint7_linear_1117_2322)"/>
<path d="M343.584 235.603C366.123 232.693 416.177 233.119 427.762 233.249C429.498 233.324 431.216 233.636 432.868 234.176L504.328 255.974C503.901 258.125 501.933 259.682 498.035 259.682L347.464 266.225C344.382 266.225 340.761 262.184 338.069 260.479C337.513 259.412 337.118 258.269 336.9 257.087L335.043 245.965C334.003 240.719 337.735 236.363 343.584 235.603Z" fill="#697182"/>
<path d="M348.077 237.994C370.746 235.01 421.227 235.418 432.923 235.566C434.539 235.566 447.182 235.714 448.964 236.252L566.655 275.734C579.837 279.775 591.756 291.119 592.647 297.977C593.019 300.869 591.366 302.889 586.947 303.037L414.84 308.598C410.907 308.593 407.063 307.426 403.793 305.243L403.552 305.095L348.318 269.209C346.649 268.18 345.201 266.831 344.057 265.241C342.913 263.65 342.096 261.849 341.653 259.941L339.499 248.56C338.496 243.203 342.191 238.773 348.077 237.994Z" fill="#C4C8CD"/>
<path style="mix-blend-mode:multiply" d="M592.629 297.94C591.756 291.119 579.837 279.775 566.636 275.697L558.133 272.842C565.279 278.755 571.917 285.252 577.98 292.268C579.419 293.73 580.701 295.339 581.805 297.069C583.271 299.015 584.664 300.98 585.908 302.982H586.966C591.348 302.852 593 300.906 592.629 297.94Z" fill="url(#paint8_linear_1117_2322)"/>
<path style="mix-blend-mode:multiply" d="M348.077 237.994C342.191 238.773 338.496 243.203 339.499 248.523L341.653 259.904C342.096 261.812 342.913 263.613 344.057 265.204C345.201 266.794 346.649 268.143 348.318 269.172L403.533 305.058L403.775 305.206C407.044 307.389 410.888 308.556 414.822 308.561L461.237 307.041C449.243 299.052 350.249 237.716 348.077 237.994Z" fill="url(#paint9_linear_1117_2322)"/>
<path d="M403.162 271.971C427.799 268.023 484.463 268.264 497.57 268.375C499.629 268.445 501.667 268.807 503.623 269.45L592.74 297.94C593.111 300.832 591.459 302.852 587.04 303L414.933 308.561C411 308.556 407.156 307.389 403.886 305.206C402.937 303.769 402.158 302.226 401.565 300.609L396.218 285.669C393.619 278.774 396.664 273.102 403.162 271.971Z" fill="#697182"/>
<path d="M411.777 275.456C436.544 271.396 493.783 271.637 507.039 271.749C509.131 271.799 511.204 272.168 513.184 272.842L676.083 325.003C693.164 330.471 712.473 346.171 716.928 355.772C718.785 359.869 717.894 362.761 712.807 363.002L512.999 372.455C507.867 372.341 502.888 370.695 498.703 367.728L498.35 367.506L421.728 317.588C416.981 314.554 413.286 310.134 411.145 304.928L405.26 289.599C402.438 282.37 405.316 276.531 411.777 275.456Z" fill="#C4C8CD"/>
<path style="mix-blend-mode:multiply" d="M716.929 355.735C712.51 346.134 693.201 330.434 676.083 324.966L579.54 294.084C580.275 294.962 580.963 295.877 581.6 296.828C592.035 310.637 597.827 326.115 592.74 342.89C589.175 354.419 575.492 366.319 562.626 364.151C546.095 361.447 530.439 354.88 516.935 344.984C505.647 336.94 415.267 277.662 411.257 275.585C405.186 276.883 402.531 282.629 405.186 289.543L411.071 304.872C413.222 310.109 416.945 314.551 421.728 317.588L498.387 367.524L498.74 367.747C502.925 370.713 507.905 372.36 513.036 372.473L712.844 363.02C717.838 362.724 718.785 359.832 716.929 355.735Z" fill="url(#paint10_linear_1117_2322)"/>
<path d="M485.874 320.962C512.887 315.401 578.166 315.29 593.279 315.401C595.813 315.494 598.317 315.975 600.705 316.828L716.891 355.754C718.748 359.85 717.857 362.742 712.77 362.983L512.962 372.436C507.83 372.323 502.851 370.676 498.666 367.71C497.018 365.645 495.54 363.451 494.247 361.148L482.625 340.091C477.296 330.415 478.8 322.426 485.874 320.962Z" fill="#697182"/>
<path d="M455.982 126.166C538.546 122.459 577.832 154.73 577.832 154.73L516.564 256.197C515.137 258.502 512.944 260.234 510.368 261.088C507.791 261.942 504.996 261.864 502.472 260.868C424.829 230.172 405.928 212.878 405.928 212.878C411.167 184.819 422.498 158.246 439.124 135.027C443.345 129.959 449.409 126.772 455.982 126.166Z" fill="url(#paint11_linear_1117_2322)"/>
<path d="M457.375 131.023C472.599 131.894 486.449 136.454 500.95 140.458C508.19 142.46 515.524 143.998 522.895 145.407C524.417 145.666 525.921 145.963 527.443 146.241C531.157 146.871 534.87 147.464 538.583 148.095C550.595 150.356 563.369 154.86 572.652 163.201L577.813 154.656C577.813 154.656 538.527 122.385 455.964 126.092C451.244 126.524 446.741 128.271 442.968 131.134C447.764 130.808 452.575 130.771 457.375 131.023Z" fill="#C4C8CD"/>
<path d="M559.414 150.615C571.315 149.077 577.832 154.73 577.832 154.73L568.4 190.931L533.979 220.589C533.979 220.589 547.513 152.154 559.414 150.615Z" fill="#697182"/>
<path d="M586.966 147.372C720.066 157.288 746.04 194.564 746.04 194.564L643.611 324.817C566.432 298.533 533.589 280.627 520.24 271.508C517.695 269.803 515.836 267.255 514.99 264.315C514.144 261.374 514.366 258.23 515.617 255.437C540.254 199.829 556.165 170.43 566.209 156.844C568.593 153.65 571.744 151.108 575.372 149.452C579 147.797 582.988 147.081 586.966 147.372Z" fill="url(#paint12_linear_1117_2322)"/>
<path d="M591.663 164.907C602.97 166.223 614.24 167.854 625.472 169.652C640.863 172.136 648.327 173.1 662.957 176.232C684.511 181.071 705.569 187.897 725.859 196.622C730.426 198.476 735.142 200.44 739.913 202.461L746.114 194.564C746.114 194.564 720.122 157.288 587.04 147.372C583.05 147.068 579.047 147.778 575.405 149.434C571.763 151.09 568.6 153.639 566.209 156.844C565.033 158.438 563.796 160.254 562.496 162.293C572.212 162.886 581.935 163.757 591.663 164.907Z" fill="#C4C8CD"/>
<path d="M698.641 250.951C680.158 243.479 661.046 237.66 641.532 233.564C637.429 232.749 632.1 231.822 627.644 231.08C629.501 231.396 623.931 230.487 623.337 230.395C620.552 229.931 617.767 229.505 614.964 229.079L611.083 228.504C615.123 231.454 618.406 235.316 620.664 239.774C622.923 244.233 624.093 249.161 624.08 254.158C624.08 254.343 624.08 254.529 624.08 254.695C635.219 257.463 646.439 259.935 657.74 262.11C662.27 263.018 666.819 263.871 671.367 264.705L677.401 265.798L679.109 266.114L679.889 266.243L688.652 267.652L701.11 251.822L698.641 250.951Z" fill="#C4C8CD"/>
<path d="M615.892 315.067C624.432 318.181 633.641 321.425 643.611 324.817L646.247 321.481C636.092 319.442 625.955 317.403 615.892 315.067Z" fill="#C4C8CD"/>
<path d="M721.719 190.097C737.5 188.244 746.114 194.564 746.114 194.564L733.267 236.141L697.397 240.571C697.397 240.571 705.882 191.914 721.719 190.097Z" fill="#697182"/>
<path d="M706.439 208.337L741.974 207.929L740.415 213.026L733.267 236.141L697.397 240.571C699.075 231.487 701.408 222.535 704.378 213.786C705.028 211.933 705.789 210.079 706.439 208.337Z" fill="#C4C8CD"/>
<path d="M698.882 208.429L734.659 208.022L733.062 213.175L726.49 234.454L690.528 238.884C692.108 230.433 694.235 222.093 696.896 213.916C697.508 212.062 698.177 210.227 698.882 208.429Z" fill="#C4C8CD"/>
<path d="M781 208.967L740.674 427.692L524.12 436.775C524.12 436.775 550.558 219.903 551.616 213.972C552.675 208.04 781 208.967 781 208.967Z" fill="#697182"/>
<path style="mix-blend-mode:screen" opacity="0.5" d="M737.351 208.93C733.415 241.368 714.812 270.488 696.172 296.68C662.066 344.632 619.048 384.67 570.628 417.924C561.345 424.337 551.691 430.306 541.962 436.034L740.619 427.674L780.944 208.948C780.944 208.948 763.139 208.893 737.351 208.93Z" fill="url(#paint13_linear_1117_2322)"/>
<path d="M302.905 140.754C310.499 147.186 322.604 143.238 353.238 144.573C371.525 145.388 381.681 142.311 386.861 139.735C387.318 139.485 387.832 139.356 388.353 139.36C388.874 139.364 389.385 139.5 389.838 139.756C390.292 140.012 390.673 140.38 390.944 140.824C391.216 141.267 391.37 141.773 391.391 142.293C391.391 147.112 391.595 155.009 392.542 166.241C396.348 211.859 412.037 212.118 403.403 216.177C394.77 220.237 296.816 228.337 308.475 218.494C320.135 208.652 315.809 165.945 305.43 155.472C295.052 144.999 295.293 134.285 302.905 140.754Z" fill="#49A3FE"/>
<path d="M345.347 151.561C370.294 156.835 395.638 160.022 421.115 161.088C421.804 161.101 422.483 161.255 423.11 161.54C423.737 161.826 424.298 162.237 424.76 162.748C425.221 163.258 425.572 163.858 425.792 164.51C426.011 165.162 426.094 165.853 426.035 166.538C424.179 185.167 428.004 212.878 429.897 224.593C429.986 225.308 429.923 226.034 429.711 226.723C429.5 227.411 429.145 228.048 428.67 228.59C428.195 229.133 427.611 229.569 426.955 229.87C426.299 230.172 425.587 230.331 424.866 230.339C398.616 231.492 372.319 229.67 346.48 224.908C345.227 224.698 344.102 224.015 343.339 223.001C342.575 221.987 342.231 220.719 342.377 219.458C345.217 199.884 341.096 170.801 338.812 157.196C338.713 156.351 338.823 155.495 339.132 154.702C339.441 153.91 339.939 153.205 340.584 152.649C341.229 152.093 342 151.703 342.83 151.514C343.661 151.324 344.525 151.34 345.347 151.561Z" fill="#697182"/>
<path style="mix-blend-mode:multiply" d="M429.897 224.593C428.041 212.915 424.105 185.167 426.035 166.538C426.094 165.853 426.011 165.162 425.792 164.51C425.572 163.858 425.221 163.258 424.76 162.748C424.298 162.237 423.737 161.826 423.11 161.54C422.483 161.255 421.804 161.101 421.115 161.088C417.124 160.921 411.183 160.606 403.942 160.032C407.013 164.661 408.961 169.94 409.631 175.452C410.302 180.964 409.676 186.556 407.804 191.784C405.689 197.981 401.683 203.362 396.348 207.169C391.317 210.783 384.169 213.879 377.689 213.045C367.001 212.035 356.636 208.836 347.241 203.647C345.867 202.869 344.568 202.016 343.305 201.126C343.484 207.258 343.174 213.394 342.377 219.477C342.231 220.737 342.575 222.005 343.339 223.019C344.102 224.034 345.227 224.716 346.48 224.926C372.32 229.682 398.616 231.498 424.866 230.339C425.587 230.331 426.299 230.172 426.955 229.87C427.61 229.569 428.195 229.133 428.67 228.59C429.145 228.048 429.5 227.411 429.711 226.722C429.923 226.034 429.986 225.308 429.897 224.593Z" fill="url(#paint14_linear_1117_2322)"/>
<path d="M550.205 210.079L755.657 207.762C755.826 207.775 755.995 207.756 756.155 207.704C756.316 207.652 756.465 207.569 756.593 207.46C756.721 207.35 756.827 207.217 756.904 207.067C756.981 206.917 757.027 206.753 757.04 206.585C757.054 206.417 757.034 206.248 756.982 206.088C756.93 205.928 756.847 205.779 756.737 205.651C756.628 205.523 756.494 205.417 756.344 205.34C756.194 205.264 756.03 205.217 755.861 205.204L743.497 203.054L745.019 198.123C757.411 200.251 769.494 203.886 781 208.948C781 208.948 778.549 213.972 746.114 214.676C743.719 214.676 556.239 216.196 556.239 216.196L524.473 237.438L526.014 229.653C527.201 224.123 530.249 219.165 534.65 215.604C539.051 212.043 544.54 210.093 550.205 210.079Z" fill="#C4C8CD"/>
<path d="M524.993 234.88C525.69 231.662 527.021 228.615 528.908 225.915C530.796 223.215 533.201 220.916 535.986 219.152C538.77 217.387 541.878 216.193 545.128 215.638C548.379 215.083 551.708 215.178 554.921 215.918L556.239 216.215C556.239 216.215 545.1 347.505 524.12 436.794L294.773 267.003V232.73L500.745 363.928L524.993 234.88Z" fill="#414A5C"/>
<path d="M373.642 339.275C373.642 339.275 382.35 358.516 379.342 366.282C376.334 374.049 368.945 383.354 360.237 387.247C351.53 391.139 354.853 398.127 356.84 398.368C358.826 398.609 380.159 397.812 387.399 391.677C394.64 385.541 395.884 384.707 398.855 384.596C401.825 384.485 413.243 382.001 415.564 376.181C417.885 370.36 412.037 364.559 408.899 362.427C405.761 360.295 390.519 324.15 390.519 324.15L373.642 339.275Z" fill="#3C4456"/>
<g style="mix-blend-mode:multiply">
<path style="mix-blend-mode:multiply" d="M373.661 339.275C373.661 339.275 379.138 352.38 392.542 350.527C397.109 360.777 398.966 364.429 400.73 365.634C403.868 367.765 409.642 373.567 407.414 379.387C406.515 381.318 405.027 382.914 403.162 383.947C407.692 382.817 413.967 380.37 415.564 376.218C417.811 370.397 412.037 364.596 408.899 362.464C405.761 360.332 390.519 324.187 390.519 324.187L373.661 339.275Z" fill="url(#paint15_linear_1117_2322)"/>
</g>
<path d="M415.936 372.733C415.854 371.822 415.635 370.928 415.286 370.082C411.071 377.07 402.048 378.034 394.547 380.666C383.705 390.194 377.058 395.087 355.41 397.219C357.62 399.777 365.844 397.775 370.857 397.349C379.954 396.7 387.567 392.14 394.752 385.894C401.603 382.909 415.936 384.837 415.936 372.733Z" fill="#000026"/>
<path d="M372.435 350.694C372.435 350.694 387.956 351.787 398.428 341.685C398.428 341.685 383.575 294.288 367.459 267.355C362.726 259.733 358.628 251.736 355.206 243.444C355.206 243.444 321.787 249.172 321.787 258.81C321.638 286.596 362.725 327.876 372.435 350.694Z" fill="#0053A8"/>
<path d="M490.163 243.444C496.809 264.742 483.107 269.71 436.228 270.729C389.349 271.749 370.523 274.566 346.814 276.679C330.346 278.143 300.51 255.826 344.957 237.012C394.752 215.844 482.198 217.957 490.163 243.444Z" fill="#0053A8"/>
<path d="M511.885 256.197C516.619 279.608 502.602 283.612 455.741 280.294C408.88 276.976 389.943 278.144 366.141 278.144C349.618 278.144 323.254 254.973 369.13 239.07C395.81 229.801 433.369 217.994 462.815 222.387C490.274 226.539 509.156 242.666 511.885 256.197Z" fill="#49A3FE"/>
<path d="M345.143 352.176C345.143 352.176 341.968 373.048 335.229 377.942C328.489 382.835 317.201 386.635 307.788 385.171C298.375 383.706 297.336 391.38 298.858 392.696C300.38 394.012 318.724 404.874 328.137 403.651C337.55 402.428 339.072 402.409 341.616 403.929C344.159 405.449 355.095 409.49 360.182 405.894C365.269 402.298 363.542 394.235 362.038 390.731C360.534 387.228 367.441 348.636 367.441 348.636L345.143 352.176Z" fill="#3C4456"/>
<g style="mix-blend-mode:multiply">
<path style="mix-blend-mode:multiply" d="M345.162 352.176C345.162 352.176 342.637 366.153 354.89 371.88C353.145 383.002 352.718 387.024 353.535 388.989C355.002 392.492 356.71 400.5 351.678 404.17C349.862 405.307 347.724 405.822 345.589 405.634C349.989 407.154 356.598 408.508 360.2 405.894C365.269 402.187 363.561 394.235 362.057 390.731C360.553 387.228 367.459 348.636 367.459 348.636L345.162 352.176Z" fill="url(#paint16_linear_1117_2322)"/>
</g>
<path d="M362.892 400.834C355.596 404.04 347.761 400.092 340.167 398.276C325.872 400.37 317.628 400.889 298.282 390.861C298.747 394.272 307.658 397.479 312.541 399.944C320.302 404.17 328.916 403.651 337.939 402.743C345.366 404.596 359.847 413.457 363.338 400.574L362.892 400.834Z" fill="#000026"/>
<path d="M337.921 361.111C337.921 361.111 350.36 370.379 364.582 367.598C364.582 367.598 377.857 319.738 379.045 288.412C379.232 279.444 380.145 270.505 381.774 261.683L343.361 258.069C343.361 258.069 342.191 336.68 337.921 361.111Z" fill="#49A3FE"/>
<path style="mix-blend-mode:multiply" d="M511.885 256.197C511.598 254.834 511.136 253.513 510.511 252.267C507.834 254.35 504.878 256.047 501.729 257.309C495.38 259.885 488.139 260.071 481.307 261.016C475.551 261.887 469.777 262.592 463.985 263.037C452.474 263.889 440.944 263.426 429.415 263.574C417.885 263.722 406.058 264.186 394.399 264.76C389.423 265.02 384.299 265.354 379.193 265.354C379.193 265.632 379.193 265.91 379.305 266.188C378.537 266.484 377.73 266.666 376.91 266.725C377.262 273.695 377.764 280.516 375.907 287.523C374.682 292.157 372.435 296.457 371.117 301.073C369.65 306.207 368.425 311.508 367.404 316.754C365.547 326.782 367.218 337.44 363.691 347.153C360.98 354.568 355.67 360.444 351.957 367.265C356.092 368.245 360.389 368.34 364.563 367.543C364.563 367.543 377.838 319.683 379.026 288.357C379.175 284.557 379.453 281.054 379.825 277.921C398.391 277.699 418.089 277.439 455.723 280.164C502.509 283.612 516.619 279.608 511.885 256.197Z" fill="url(#paint17_linear_1117_2322)"/>
<path d="M312.04 254.399L401.658 201.942C403.181 202.72 402.586 205.427 402.735 206.576L409.289 256.271C409.4 257.068 408.992 257.587 408.268 257.587H317.424C316.344 257.496 315.298 257.161 314.366 256.609C313.433 256.057 312.638 255.301 312.04 254.399Z" fill="#697182"/>
<path d="M312.04 254.399L349.32 200.107L400.488 201.552C401.116 201.643 401.7 201.922 402.165 202.353C402.629 202.783 402.951 203.344 403.088 203.962L409.549 253.231C409.66 254.028 409.252 254.547 408.528 254.547L312.04 254.399Z" fill="#C4C8CD"/>
<path style="mix-blend-mode:screen" opacity="0.5" d="M407.042 252.712C407.748 252.712 408.156 252.193 408.064 251.415L401.714 202.331C401.689 202.218 401.658 202.107 401.621 201.997C401.997 202.215 402.324 202.509 402.58 202.86C402.835 203.211 403.015 203.612 403.106 204.036L409.567 253.305C409.679 254.102 409.27 254.621 408.546 254.621L312.003 254.473L313.377 252.471L407.042 252.712Z" fill="url(#paint18_linear_1117_2322)"/>
<path style="mix-blend-mode:multiply" d="M386.044 232.656L387.529 216.808C387.539 216.639 387.582 216.473 387.657 216.321C387.731 216.169 387.836 216.034 387.964 215.923C388.092 215.813 388.242 215.729 388.403 215.677C388.564 215.625 388.735 215.606 388.903 215.621L404.22 215.955L406.875 236.734L389.59 236.549C388.638 236.412 387.764 235.949 387.117 235.238C386.47 234.528 386.09 233.615 386.044 232.656Z" fill="url(#paint19_linear_1117_2322)"/>
<path d="M385.172 231.766L386.675 215.936C386.684 215.768 386.728 215.604 386.803 215.452C386.878 215.301 386.983 215.167 387.111 215.058C387.24 214.949 387.389 214.867 387.55 214.817C387.712 214.767 387.881 214.751 388.049 214.769L404.592 215.214V215.862L388.829 215.621C388.049 215.621 387.548 215.881 387.474 216.622L385.988 232.452C385.994 232.972 386.11 233.485 386.327 233.958C386.545 234.431 386.859 234.852 387.251 235.195C386.638 234.851 386.124 234.354 385.76 233.754C385.396 233.153 385.193 232.468 385.172 231.766Z" fill="url(#paint20_linear_1117_2322)"/>
<path style="mix-blend-mode:multiply" d="M393.749 254.529L312.04 254.399L349.339 200.107L365.083 200.552L393.749 254.529Z" fill="url(#paint21_linear_1117_2322)"/>
<path d="M382.331 204.407L382.572 203.165C382.572 203.072 382.387 202.98 382.108 202.98H378.673C378.413 202.98 378.172 202.98 378.154 203.147L377.819 204.407C377.819 204.5 378.005 204.592 378.283 204.592H381.792C382.071 204.518 382.312 204.518 382.331 204.407Z" fill="#202735"/>
<path d="M381.96 206.465L382.201 205.111C382.201 205.111 382.015 204.926 381.737 204.926H378.191C377.912 204.926 377.671 204.926 377.634 205.111L377.3 206.446C377.3 206.557 377.467 206.65 377.764 206.65H381.477C381.681 206.65 381.941 206.557 381.96 206.465Z" fill="#202735"/>
<path d="M381.551 208.633L381.811 207.206C381.811 207.095 381.625 207.002 381.328 207.002H377.615C377.337 207.002 377.077 207.002 377.04 207.187L376.668 208.633C376.668 208.744 376.854 208.837 377.151 208.837H380.864C381.273 208.856 381.532 208.763 381.551 208.633Z" fill="#202735"/>
<path d="M375.963 209.189L376.353 207.744C376.353 207.632 376.167 207.521 375.87 207.521H372.769C372.472 207.521 372.212 207.521 372.175 207.706L371.693 209.171C371.693 209.301 371.86 209.393 372.157 209.393H375.35C375.666 209.412 375.926 209.319 375.963 209.189Z" fill="#202735"/>
<path d="M375.313 211.581L375.74 210.024C375.74 209.894 375.554 209.783 375.257 209.783H372.027C371.73 209.783 371.451 209.875 371.414 209.986L370.894 211.562C370.894 211.692 371.08 211.784 371.377 211.803H374.7C375.016 211.803 375.313 211.71 375.313 211.581Z" fill="#202735"/>
<path d="M374.645 214.138L375.09 212.452C375.09 212.322 374.904 212.211 374.589 212.211H371.247C370.931 212.211 370.653 212.303 370.597 212.433L370.04 214.12C370.04 214.25 370.226 214.361 370.541 214.379H373.995C374.31 214.379 374.607 214.268 374.645 214.138Z" fill="#202735"/>
<path d="M373.902 216.882L374.385 215.028C374.385 214.88 374.18 214.769 373.865 214.769H370.412C370.077 214.769 369.78 214.88 369.725 215.028L369.13 216.882C369.13 217.03 369.316 217.16 369.65 217.16H373.215C373.549 217.16 373.865 217.03 373.902 216.882Z" fill="#202735"/>
<path d="M373.104 219.866L373.623 217.92C373.623 217.753 373.419 217.623 373.085 217.623H369.502C369.149 217.623 368.833 217.734 368.796 217.901L368.146 219.848C368.146 220.014 368.332 220.144 368.685 220.144H372.398C372.751 220.144 373.066 220.033 373.104 219.866Z" fill="#202735"/>
<path d="M372.231 223.054L372.806 220.941C372.806 220.774 372.602 220.626 372.249 220.626H368.536C368.184 220.626 367.849 220.756 367.794 220.923L367.088 223.036C367.088 223.221 367.274 223.351 367.645 223.369H371.525C371.86 223.407 372.194 223.258 372.231 223.054Z" fill="#202735"/>
<path d="M371.303 226.595L371.915 224.296C371.915 224.111 371.711 223.963 371.34 223.963H367.441C367.07 223.963 366.735 224.092 366.68 224.278L365.9 226.576C365.9 226.78 366.104 226.928 366.475 226.928H370.523C370.894 226.928 371.247 226.762 371.303 226.595Z" fill="#202735"/>
<path d="M370.282 230.469L370.95 227.948C370.95 227.763 370.746 227.596 370.356 227.596H366.29C365.9 227.596 365.529 227.744 365.473 227.948L364.637 230.469C364.637 230.673 364.842 230.839 365.232 230.839H369.465C369.855 230.784 370.226 230.617 370.282 230.469Z" fill="#202735"/>
<path d="M369.168 234.602L369.892 231.84C369.892 231.637 369.669 231.451 369.279 231.451H365.009C364.845 231.438 364.681 231.467 364.531 231.535C364.382 231.603 364.252 231.708 364.155 231.84L363.245 234.602C363.245 234.825 363.449 235.01 363.858 235.029H368.295C368.466 235.045 368.638 235.014 368.792 234.939C368.946 234.863 369.076 234.747 369.168 234.602Z" fill="#202735"/>
<path d="M367.887 239.199L368.703 236.178C368.703 235.937 368.481 235.752 368.054 235.733H363.616C363.208 235.733 362.799 235.918 362.725 236.159L361.704 239.199C361.704 239.44 361.908 239.663 362.354 239.663H367.014C367.46 239.737 367.887 239.459 367.887 239.199Z" fill="#202735"/>
<path d="M370.727 210.302L371.228 208.782C371.228 208.67 371.061 208.578 370.764 208.559H367.589C367.292 208.559 367.014 208.652 366.977 208.763L366.364 210.283C366.364 210.394 366.513 210.505 366.828 210.505H370.096C370.21 210.523 370.326 210.513 370.436 210.478C370.545 210.442 370.645 210.382 370.727 210.302Z" fill="#202735"/>
<path d="M371.6 207.966L372.082 206.557C372.082 206.446 371.915 206.353 371.637 206.353H368.573C368.463 206.34 368.35 206.352 368.244 206.387C368.139 206.422 368.042 206.48 367.961 206.557L367.404 207.966C367.404 208.077 367.552 208.17 367.849 208.17H371.006C371.21 208.225 371.47 208.077 371.6 207.966Z" fill="#202735"/>
<path d="M372.25 205.779L373.196 203.017C373.196 202.906 373.048 202.831 372.769 202.831H369.873C369.595 202.831 369.353 202.831 369.316 202.998L368.184 205.779C368.184 205.89 368.351 205.983 368.629 205.983H371.674C371.953 205.964 372.212 205.89 372.25 205.779Z" fill="#202735"/>
<path d="M367.886 205.167L368.815 202.943C368.815 202.85 368.666 202.757 368.388 202.757H365.491C365.213 202.757 364.953 202.757 364.916 202.943L363.839 205.167C363.839 205.278 363.988 205.352 364.266 205.371H367.292C367.571 205.352 367.886 205.278 367.886 205.167Z" fill="#202735"/>
<path d="M369.873 212.767L370.43 211.154C370.43 211.024 370.263 210.913 369.947 210.913H366.661C366.543 210.903 366.425 210.918 366.313 210.956C366.201 210.995 366.098 211.056 366.011 211.136L365.362 212.767C365.362 212.897 365.51 213.008 365.826 213.008H369.223C369.539 213.008 369.836 212.897 369.873 212.767Z" fill="#202735"/>
<path d="M368.982 215.418L369.576 213.675C369.576 213.545 369.39 213.434 369.075 213.434H365.659C365.343 213.434 365.046 213.545 364.99 213.675L364.285 215.418C364.285 215.566 364.433 215.677 364.767 215.696H368.295C368.611 215.64 368.926 215.64 368.982 215.418Z" fill="#202735"/>
<path d="M367.998 218.291L368.648 216.437C368.648 216.289 368.462 216.177 368.128 216.177H364.582C364.248 216.177 363.932 216.289 363.876 216.437L363.115 218.291C363.115 218.439 363.282 218.569 363.616 218.569H367.33C367.627 218.569 367.886 218.439 367.998 218.291Z" fill="#202735"/>
<path d="M366.94 221.386L367.645 219.347C367.645 219.199 367.459 219.069 367.107 219.051H363.394C363.041 219.051 362.707 219.18 362.651 219.329L361.815 221.368C361.815 221.534 361.982 221.683 362.354 221.683H366.067C366.55 221.683 366.884 221.553 366.94 221.386Z" fill="#202735"/>
<path d="M365.789 224.741L366.55 222.535C366.55 222.368 366.364 222.22 366.011 222.22H362.168C361.815 222.22 361.463 222.35 361.388 222.517L360.497 224.741C360.497 224.926 360.664 225.075 361.036 225.075H365.009C365.38 225.075 365.733 224.908 365.789 224.741Z" fill="#202735"/>
<path d="M364.545 228.411L365.362 226.002C365.362 225.816 365.176 225.668 364.805 225.649H360.813C360.423 225.649 360.07 225.779 359.996 225.983L359.012 228.393C359.012 228.578 359.179 228.745 359.569 228.745H363.728C364.173 228.763 364.489 228.615 364.545 228.411Z" fill="#202735"/>
<path d="M363.189 232.415L364.081 229.783C364.081 229.579 363.895 229.412 363.505 229.412H359.309C358.919 229.412 358.529 229.579 358.455 229.783L357.378 232.415C357.378 232.637 357.564 232.823 357.972 232.823H362.317C362.725 232.804 363.115 232.637 363.189 232.415Z" fill="#202735"/>
<path d="M361.686 236.808L362.67 233.916C362.67 233.694 362.484 233.509 362.075 233.509H357.675C357.267 233.509 356.858 233.694 356.784 233.916L355.596 236.808C355.503 237.049 355.763 237.253 356.209 237.253H360.776C360.954 237.275 361.135 237.244 361.297 237.165C361.458 237.086 361.593 236.962 361.686 236.808Z" fill="#202735"/>
<path d="M360.033 241.59L361.128 238.384C361.128 238.143 360.924 237.939 360.497 237.939H355.893C355.707 237.923 355.521 237.956 355.351 238.034C355.182 238.112 355.036 238.232 354.927 238.384L353.628 241.572C353.516 241.85 353.795 242.072 354.259 242.072H359.068C359.258 242.092 359.45 242.058 359.621 241.972C359.792 241.887 359.935 241.754 360.033 241.59Z" fill="#202735"/>
<path d="M356.636 251.637L359.383 243.555C359.495 243.277 359.198 243.055 358.733 243.055H353.888C353.689 243.043 353.49 243.082 353.311 243.17C353.132 243.258 352.979 243.391 352.867 243.555L349.58 251.655C349.45 251.971 349.747 252.23 350.249 252.23H355.54C355.76 252.242 355.979 252.193 356.172 252.088C356.365 251.984 356.526 251.827 356.636 251.637Z" fill="#202735"/>
<path d="M340.594 251.637L343.973 244.704C344.122 244.408 343.843 244.185 343.379 244.185H338.422C338.209 244.18 337.997 244.224 337.804 244.314C337.611 244.404 337.441 244.538 337.308 244.704L333.465 251.655C333.279 251.971 333.465 252.23 334.041 252.23H339.406C339.638 252.238 339.868 252.188 340.076 252.084C340.283 251.981 340.462 251.827 340.594 251.637Z" fill="#202735"/>
<path d="M363.913 214.75L364.619 213.045C364.619 212.897 364.452 212.785 364.136 212.785H360.757C360.63 212.766 360.501 212.776 360.378 212.814C360.256 212.853 360.144 212.919 360.052 213.008L359.235 214.732C359.235 214.88 359.383 214.991 359.699 214.991H363.208C363.336 215.013 363.468 215.002 363.591 214.96C363.715 214.918 363.825 214.846 363.913 214.75Z" fill="#202735"/>
<path d="M365.009 212.081L365.677 210.487C365.677 210.357 365.51 210.246 365.213 210.246H361.945C361.63 210.246 361.333 210.339 361.277 210.468L360.46 211.933C360.46 212.081 360.609 212.174 360.924 212.192H364.285C364.656 212.303 364.953 212.211 365.009 212.081Z" fill="#202735"/>
<path d="M366.03 209.579L366.643 208.114C366.643 207.985 366.475 207.892 366.197 207.892H363.041C362.744 207.892 362.447 207.984 362.409 208.096L361.685 209.579C361.685 209.708 361.834 209.801 362.131 209.82H365.38C365.714 209.801 366.03 209.708 366.03 209.579Z" fill="#202735"/>
<path d="M366.995 207.28L367.571 205.89C367.571 205.779 367.422 205.686 367.144 205.686H364.099C363.99 205.667 363.877 205.673 363.77 205.705C363.664 205.738 363.567 205.794 363.486 205.871L362.818 207.243C362.818 207.354 362.967 207.466 363.245 207.466H366.383C366.68 207.484 366.958 207.391 366.995 207.28Z" fill="#202735"/>
<path d="M362.744 217.493L363.505 215.64C363.505 215.492 363.338 215.38 363.022 215.38H359.495C359.363 215.359 359.229 215.369 359.103 215.411C358.977 215.453 358.863 215.525 358.771 215.621L357.879 217.475C357.879 217.623 358.028 217.753 358.362 217.753H362.075C362.199 217.758 362.322 217.738 362.437 217.693C362.552 217.649 362.656 217.581 362.744 217.493Z" fill="#202735"/>
<path d="M361.481 220.608L362.298 218.624C362.298 218.457 362.15 218.328 361.797 218.328H358.084C357.749 218.328 357.397 218.439 357.322 218.606L356.375 220.608C356.283 220.774 356.505 220.904 356.858 220.904H360.664C361.073 220.904 361.407 220.774 361.481 220.608Z" fill="#202735"/>
<path d="M360.107 223.926L360.999 221.757C360.999 221.59 360.85 221.442 360.497 221.442H356.673C356.526 221.43 356.378 221.45 356.24 221.501C356.102 221.552 355.977 221.633 355.874 221.738L354.835 223.907C354.835 224.092 354.983 224.241 355.354 224.241H359.309C359.458 224.255 359.607 224.233 359.746 224.179C359.885 224.124 360.009 224.037 360.107 223.926Z" fill="#202735"/>
<path d="M358.603 227.522L359.587 225.149C359.587 224.964 359.42 224.815 359.049 224.815H355.057C354.902 224.802 354.745 224.825 354.6 224.883C354.455 224.941 354.325 225.032 354.222 225.149L353.089 227.522C352.996 227.707 353.238 227.874 353.628 227.874H357.749C357.909 227.886 358.07 227.861 358.219 227.8C358.367 227.738 358.499 227.643 358.603 227.522Z" fill="#202735"/>
<path d="M356.988 231.451L358.065 228.856C358.065 228.671 357.898 228.504 357.508 228.504H353.349C353.186 228.488 353.022 228.512 352.87 228.574C352.718 228.635 352.583 228.732 352.477 228.856L351.233 231.451C351.121 231.655 351.363 231.84 351.771 231.84H356.097C356.266 231.853 356.436 231.824 356.591 231.756C356.746 231.688 356.883 231.584 356.988 231.451Z" fill="#202735"/>
<path d="M355.206 235.752L356.376 232.916C356.468 232.712 356.227 232.526 355.819 232.526H351.456C351.281 232.514 351.106 232.543 350.945 232.61C350.784 232.678 350.64 232.782 350.527 232.916L349.153 235.77C349.042 236.011 349.302 236.196 349.729 236.196H354.259C354.442 236.211 354.625 236.177 354.791 236.099C354.957 236.021 355.1 235.901 355.206 235.752Z" fill="#202735"/>
<path d="M353.238 240.515L354.537 237.383C354.63 237.142 354.37 236.938 353.943 236.938H349.32C349.134 236.924 348.947 236.955 348.776 237.03C348.604 237.104 348.453 237.219 348.336 237.364L346.833 240.515C346.703 240.775 346.963 240.979 347.408 240.979H352.18C352.381 241.003 352.586 240.973 352.772 240.892C352.959 240.81 353.119 240.68 353.238 240.515Z" fill="#202735"/>
<path d="M351.066 245.78L352.495 242.295C352.607 242.035 352.328 241.813 351.883 241.813H347.074C346.872 241.804 346.671 241.843 346.487 241.927C346.303 242.011 346.142 242.137 346.016 242.295L344.363 245.78C344.215 246.058 344.493 246.299 344.957 246.299H349.989C350.198 246.309 350.406 246.267 350.594 246.177C350.782 246.086 350.944 245.949 351.066 245.78Z" fill="#202735"/>
<path d="M348.633 251.637L350.249 247.763C350.36 247.466 350.082 247.225 349.599 247.225H344.53C344.31 247.214 344.09 247.26 343.892 247.357C343.694 247.454 343.524 247.6 343.398 247.781L341.541 251.655C341.393 251.971 341.671 252.23 342.172 252.23H347.464C347.694 252.248 347.926 252.202 348.132 252.097C348.338 251.992 348.512 251.833 348.633 251.637Z" fill="#202735"/>
<path d="M360.46 210.839L361.203 209.301C361.203 209.171 361.073 209.078 360.757 209.06H357.545C357.248 209.06 356.933 209.06 356.877 209.263L356.023 210.802C356.023 210.932 356.153 211.043 356.45 211.043H359.773C360.02 211.066 360.266 210.993 360.46 210.839Z" fill="#202735"/>
<path d="M361.63 208.485L362.335 207.058C362.335 206.946 362.187 206.854 361.908 206.854H358.789C358.554 206.833 358.32 206.907 358.139 207.058L357.359 208.485C357.359 208.615 357.471 208.707 357.787 208.707H360.98C361.277 208.707 361.574 208.615 361.63 208.485Z" fill="#202735"/>
<path d="M362.688 206.372L363.356 205.019C363.356 204.908 363.208 204.833 362.929 204.815H359.922C359.643 204.815 359.365 204.815 359.309 205L358.566 206.335C358.566 206.446 358.678 206.539 358.975 206.557H362.075C362.317 206.502 362.651 206.372 362.688 206.372Z" fill="#202735"/>
<path d="M363.691 204.259L364.303 202.998C364.303 202.906 364.173 202.831 363.895 202.813H360.98C360.768 202.791 360.555 202.851 360.386 202.98L359.68 204.24C359.68 204.351 359.81 204.426 360.089 204.444H363.097C363.375 204.518 363.635 204.37 363.691 204.259Z" fill="#202735"/>
<path d="M358.919 204.185L359.643 202.924C359.643 202.924 359.513 202.757 359.235 202.739H358.269C358.009 202.739 357.731 202.739 357.675 202.906L356.914 204.166C356.914 204.259 357.025 204.351 357.322 204.351H358.306C358.603 204.37 358.863 204.296 358.919 204.185Z" fill="#202735"/>
<path d="M357.397 206.891L358.176 205.519C358.176 205.408 358.065 205.315 357.768 205.315H356.747C356.45 205.315 356.171 205.315 356.116 205.501L355.28 206.872C355.28 206.984 355.41 207.076 355.689 207.095H356.747C357.044 207.095 357.341 207.002 357.397 206.891Z" fill="#202735"/>
<path d="M356.153 209.115L356.97 207.632C356.97 207.521 356.858 207.428 356.561 207.428H355.522C355.281 207.409 355.042 207.482 354.853 207.632L353.981 209.097C353.981 209.226 354.092 209.319 354.389 209.319H355.466C355.713 209.342 355.958 209.269 356.153 209.115Z" fill="#202735"/>
<path d="M354.89 211.488L355.781 209.912C355.781 209.783 355.651 209.69 355.354 209.69H354.278C354.031 209.667 353.785 209.74 353.591 209.894L352.644 211.469C352.644 211.599 352.755 211.71 353.071 211.71H354.185C354.311 211.723 354.439 211.711 354.561 211.672C354.682 211.634 354.794 211.571 354.89 211.488Z" fill="#202735"/>
<path d="M353.349 214.046L354.315 212.359C354.315 212.211 354.185 212.118 353.869 212.1H352.755C352.626 212.082 352.494 212.094 352.369 212.132C352.244 212.17 352.129 212.235 352.031 212.322L351.029 214.009C350.936 214.157 351.14 214.268 351.474 214.268H352.625C352.755 214.281 352.885 214.268 353.01 214.229C353.134 214.191 353.249 214.129 353.349 214.046Z" fill="#202735"/>
<path d="M342.804 232.693L344.326 230.024C344.438 229.82 344.215 229.635 343.806 229.635H342.395C342.22 229.626 342.045 229.655 341.882 229.719C341.719 229.783 341.571 229.88 341.448 230.005L339.852 232.675C339.722 232.897 339.945 233.082 340.372 233.082H341.894C342.065 233.089 342.236 233.058 342.393 232.99C342.55 232.923 342.691 232.821 342.804 232.693Z" fill="#202735"/>
<path d="M340.316 237.105L341.894 234.176C342.024 233.954 341.783 233.768 341.374 233.768H340.038C339.851 233.761 339.665 233.794 339.492 233.865C339.319 233.935 339.164 234.041 339.035 234.176L337.29 237.105C337.141 237.364 337.29 237.55 337.81 237.568H339.351C339.535 237.561 339.716 237.517 339.882 237.437C340.048 237.357 340.196 237.244 340.316 237.105Z" fill="#202735"/>
<path d="M337.55 241.98L339.406 238.736C339.536 238.495 339.406 238.291 338.868 238.291H337.327C337.124 238.281 336.921 238.318 336.735 238.399C336.548 238.479 336.382 238.6 336.25 238.754L334.393 241.998C334.226 242.258 334.393 242.48 334.932 242.48H336.547C336.741 242.478 336.932 242.432 337.106 242.345C337.28 242.258 337.431 242.133 337.55 241.98Z" fill="#202735"/>
<path d="M334.468 247.392L336.491 243.796C336.658 243.518 336.398 243.296 335.934 243.296H334.319C334.102 243.289 333.886 243.33 333.687 243.417C333.488 243.503 333.311 243.633 333.168 243.796L331.014 247.392C330.847 247.707 331.014 247.948 331.571 247.948H333.279C333.507 247.951 333.732 247.903 333.937 247.806C334.143 247.71 334.325 247.568 334.468 247.392Z" fill="#202735"/>
<path d="M359.253 213.36L360.07 211.692C360.07 211.562 359.922 211.469 359.625 211.451H356.283C356.156 211.438 356.028 211.451 355.907 211.489C355.785 211.527 355.673 211.59 355.577 211.673L354.667 213.341C354.667 213.471 354.797 213.582 355.113 213.582H358.566C358.882 213.601 359.198 213.49 359.253 213.36Z" fill="#202735"/>
<path d="M357.935 216.066L358.808 214.213C358.808 214.083 358.659 213.953 358.343 213.953H354.872C354.556 213.953 354.222 213.953 354.148 214.194L353.164 216.048C353.071 216.196 353.275 216.326 353.628 216.326H357.211C357.527 216.326 357.861 216.215 357.935 216.066Z" fill="#202735"/>
<path d="M356.505 218.995L357.452 217.141C357.452 216.974 357.304 216.863 356.97 216.845H353.368C353.034 216.845 352.681 216.956 352.607 217.123L351.53 218.976C351.53 219.125 351.66 219.254 352.013 219.254H355.726C356.078 219.347 356.431 219.162 356.505 218.995Z" fill="#202735"/>
<path d="M354.89 222.183L355.893 220.089C355.986 219.922 355.763 219.792 355.41 219.792H351.697C351.552 219.782 351.406 219.802 351.269 219.85C351.132 219.897 351.006 219.972 350.899 220.07L349.748 222.165C349.655 222.331 349.859 222.48 350.23 222.48H354.11C354.254 222.488 354.398 222.466 354.532 222.415C354.667 222.363 354.789 222.285 354.89 222.183Z" fill="#202735"/>
<path d="M353.275 225.631L354.389 223.369C354.389 223.184 354.24 223.036 353.869 223.036H349.97C349.814 223.023 349.656 223.044 349.508 223.099C349.361 223.153 349.227 223.239 349.116 223.351L347.872 225.612C347.761 225.816 347.984 225.965 348.374 225.965H352.421C352.58 225.979 352.739 225.957 352.888 225.899C353.036 225.841 353.169 225.749 353.275 225.631Z" fill="#202735"/>
<path d="M351.437 229.394L352.644 226.91C352.644 226.724 352.514 226.576 352.124 226.558H348.039C347.875 226.541 347.709 226.563 347.555 226.621C347.4 226.679 347.261 226.771 347.148 226.891L345.774 229.375C345.663 229.579 345.904 229.746 346.294 229.746H350.546C350.712 229.761 350.879 229.737 351.034 229.676C351.188 229.615 351.327 229.518 351.437 229.394Z" fill="#202735"/>
<path d="M349.432 233.509L350.75 230.802C350.861 230.598 350.62 230.413 350.212 230.413H345.941C345.765 230.394 345.587 230.418 345.422 230.482C345.257 230.547 345.111 230.65 344.995 230.784L343.509 233.49C343.379 233.731 343.621 233.916 344.029 233.916H348.485C348.664 233.927 348.842 233.895 349.007 233.824C349.171 233.754 349.317 233.645 349.432 233.509Z" fill="#202735"/>
<path d="M347.222 238.05L348.671 235.066C348.782 234.825 348.541 234.639 348.114 234.639H343.639C343.452 234.625 343.264 234.654 343.09 234.725C342.916 234.796 342.76 234.906 342.637 235.047L340.984 238.031C340.854 238.291 341.096 238.495 341.541 238.495H346.22C346.41 238.504 346.6 238.468 346.774 238.391C346.948 238.314 347.101 238.197 347.222 238.05Z" fill="#202735"/>
<path d="M344.772 243.055L346.387 239.755C346.517 239.496 346.257 239.292 345.811 239.292H341.096C340.898 239.284 340.7 239.32 340.517 239.397C340.334 239.474 340.171 239.59 340.037 239.737L338.181 243.055C338.032 243.333 338.274 243.555 338.738 243.555H343.751C343.948 243.557 344.144 243.513 344.321 243.426C344.498 243.339 344.653 243.212 344.772 243.055Z" fill="#202735"/>
<path d="M376.557 206.928L377.597 203.091C377.597 202.98 377.43 202.906 377.151 202.906H374.273C373.995 202.906 373.753 202.906 373.716 203.072L372.435 206.928C372.435 207.039 372.602 207.132 372.899 207.132H375.981C376.278 207.132 376.538 207.039 376.557 206.928Z" fill="#202735"/>
<path d="M364.619 251.563L367.459 240.979C367.459 240.701 367.218 240.497 366.791 240.497H362.075C361.89 240.483 361.705 240.518 361.539 240.6C361.372 240.681 361.231 240.806 361.128 240.96L357.601 251.581C357.489 251.896 357.805 252.156 358.306 252.156H363.579C363.791 252.169 364.003 252.119 364.187 252.014C364.372 251.908 364.522 251.752 364.619 251.563Z" fill="#202735"/>
<path d="M376.427 236.289L376.947 233.453C376.947 233.231 376.705 233.045 376.297 233.045H371.154C370.746 233.045 370.374 233.231 370.319 233.453L369.576 236.289C369.576 236.53 369.799 236.734 370.226 236.734H375.591C376 236.715 376.39 236.53 376.427 236.289Z" fill="#202735"/>
<path d="M380.883 211.933L381.347 209.467C381.347 209.338 381.143 209.245 380.846 209.226H377.132C376.835 209.226 376.575 209.226 376.538 209.43L375.907 211.914C375.907 212.044 376.093 212.155 376.408 212.155H380.363C380.641 212.155 380.883 212.044 380.883 211.933Z" fill="#202735"/>
<path d="M377.17 232.118L377.912 228.022C377.912 227.837 377.671 227.67 377.3 227.67H372.454C372.082 227.67 371.73 227.818 371.674 228.022L370.616 232.118C370.616 232.322 370.839 232.508 371.247 232.508H376.353C376.798 232.508 377.17 232.322 377.17 232.118Z" fill="#202735"/>
<path d="M380.233 215.64L380.753 212.897C380.753 212.767 380.549 212.656 380.233 212.637H376.241C375.926 212.637 375.647 212.73 375.61 212.86L374.905 215.621C374.905 215.77 375.109 215.881 375.424 215.881H379.602C379.936 215.955 380.214 215.844 380.233 215.64Z" fill="#202735"/>
<path d="M375.61 212.897L372.045 226.762C372.045 226.965 372.231 227.132 372.584 227.151H377.485C377.838 227.151 378.154 226.984 378.191 226.78L380.753 213.008L375.61 212.897Z" fill="#202735"/>
<path d="M370.393 248.041L369.427 252.36C369.427 252.638 369.65 252.842 370.059 252.842H372.621C373.029 252.842 373.401 252.638 373.438 252.36L374.236 248.059C374.236 247.8 374.013 247.615 373.623 247.615H371.191C370.801 247.615 370.449 247.8 370.393 248.041Z" fill="#202735"/>
<path d="M371.6 242.554L370.727 246.428C370.727 246.669 370.95 246.855 371.321 246.855H373.753C374.143 246.855 374.477 246.669 374.533 246.428L375.239 242.554C375.239 242.35 375.016 242.165 374.663 242.165H372.342C371.99 242.165 371.6 242.332 371.6 242.554Z" fill="#202735"/>
<path d="M372.695 237.642L371.934 241.127C371.934 241.349 372.138 241.516 372.491 241.516H374.793C375.164 241.516 375.48 241.349 375.517 241.127L376.167 237.642C376.167 237.438 375.963 237.271 375.61 237.271H373.456C373.066 237.29 372.751 237.438 372.695 237.642Z" fill="#202735"/>
<path d="M367.497 242.536L366.475 246.41C366.475 246.651 366.661 246.855 367.051 246.855H369.483C369.873 246.855 370.226 246.669 370.282 246.428L371.154 242.554C371.154 242.332 370.95 242.146 370.579 242.146H368.258C367.887 242.146 367.552 242.313 367.497 242.536Z" fill="#202735"/>
<path d="M382.052 203.758L382.275 202.516C382.275 202.516 382.108 202.331 381.83 202.331H378.395C378.135 202.331 377.894 202.331 377.875 202.498L377.541 203.758C377.541 203.851 377.727 203.944 378.005 203.944H381.514C381.792 203.944 382.034 203.87 382.052 203.758Z" fill="#414A5C"/>
<path d="M381.681 205.797L381.922 204.463C381.922 204.37 381.737 204.277 381.458 204.277H377.912C377.634 204.277 377.392 204.277 377.355 204.463L377.021 205.797C377.021 205.89 377.207 205.983 377.485 206.001H381.198C381.403 206.001 381.644 205.908 381.681 205.797Z" fill="#414A5C"/>
<path d="M381.273 207.985L381.533 206.557C381.533 206.446 381.347 206.353 381.05 206.353H377.337C377.058 206.353 376.798 206.353 376.761 206.539L376.39 207.966C376.39 208.077 376.575 208.188 376.873 208.188H380.586C380.994 208.225 381.254 208.096 381.273 207.985Z" fill="#414A5C"/>
<path d="M375.684 208.541L376.074 207.076C376.074 206.965 375.888 206.872 375.591 206.872H372.491C372.194 206.872 371.934 206.872 371.897 207.076L371.414 208.522C371.414 208.652 371.581 208.745 371.878 208.763H375.072C375.313 208.745 375.647 208.652 375.684 208.541Z" fill="#414A5C"/>
<path d="M375.034 210.913L375.461 209.356C375.461 209.226 375.276 209.134 374.979 209.134H371.767C371.451 209.134 371.173 209.134 371.136 209.356L370.616 210.913C370.616 211.043 370.801 211.136 371.098 211.154H374.422C374.737 211.136 375.016 211.043 375.034 210.913Z" fill="#414A5C"/>
<path d="M374.366 213.471L374.812 211.784C374.812 211.655 374.626 211.543 374.31 211.543H370.968C370.653 211.543 370.374 211.543 370.337 211.766L369.762 213.453C369.762 213.582 369.947 213.694 370.263 213.694H373.716C374.032 213.786 374.329 213.601 374.366 213.471Z" fill="#414A5C"/>
<path d="M373.623 216.215L374.106 214.361C374.106 214.213 373.902 214.101 373.586 214.101H370.133C369.799 214.101 369.502 214.213 369.446 214.361L368.852 216.215C368.852 216.363 369.038 216.493 369.372 216.493H372.936C373.271 216.474 373.586 216.363 373.623 216.215Z" fill="#414A5C"/>
<path d="M372.825 219.18L373.345 217.327C373.345 217.178 373.141 217.049 372.807 217.049H369.223C368.889 217.049 368.573 217.16 368.518 217.308L367.868 219.162C367.868 219.329 368.054 219.458 368.406 219.458H372.12C372.454 219.477 372.788 219.347 372.825 219.18Z" fill="#414A5C"/>
<path d="M371.952 222.406L372.528 220.292C372.528 220.126 372.324 219.996 371.971 219.977H368.258C367.905 219.977 367.571 220.107 367.515 220.274L366.81 222.387C366.81 222.554 366.995 222.702 367.367 222.702H371.228C371.6 222.721 371.915 222.572 371.952 222.406Z" fill="#414A5C"/>
<path d="M371.024 225.89L371.637 223.592C371.637 223.425 371.433 223.277 371.061 223.277H367.162C366.791 223.277 366.457 223.407 366.401 223.592L365.621 225.89C365.621 226.076 365.826 226.243 366.197 226.243H370.244C370.616 226.243 370.968 226.094 371.024 225.89Z" fill="#414A5C"/>
<path d="M370.003 229.709L370.671 227.206C370.671 227.003 370.449 226.854 370.077 226.836H366.03C365.64 226.836 365.269 226.984 365.213 227.169L364.377 229.69C364.377 229.894 364.582 230.061 364.972 230.079H369.205C369.576 230.079 369.947 229.913 370.003 229.709Z" fill="#414A5C"/>
<path d="M368.871 233.898L369.613 231.136C369.613 230.932 369.39 230.747 369.001 230.747H364.73C364.567 230.734 364.402 230.763 364.253 230.831C364.103 230.899 363.974 231.004 363.876 231.136L362.967 233.898C362.967 234.12 363.171 234.306 363.579 234.306H368.017C368.425 234.306 368.815 234.176 368.871 233.898Z" fill="#414A5C"/>
<path d="M367.645 238.476L368.462 235.455C368.462 235.214 368.239 235.029 367.812 235.029H363.338C362.929 235.029 362.521 235.214 362.447 235.436L361.426 238.476C361.426 238.736 361.63 238.94 362.075 238.94H366.735C367.162 238.94 367.571 238.736 367.645 238.476Z" fill="#414A5C"/>
<path d="M370.449 209.634L370.95 208.133C370.95 208.003 370.783 207.91 370.486 207.91H367.33C367.032 207.91 366.754 207.91 366.698 208.114L366.086 209.634C366.086 209.745 366.234 209.857 366.55 209.857H369.817C370.114 209.857 370.393 209.764 370.449 209.634Z" fill="#414A5C"/>
<path d="M371.247 207.299L371.711 205.908C371.711 205.797 371.563 205.705 371.266 205.686H368.202C367.924 205.686 367.645 205.686 367.608 205.871L367.032 207.28C367.032 207.391 367.181 207.484 367.478 207.503H370.634C370.931 207.503 371.21 207.41 371.247 207.299Z" fill="#414A5C"/>
<path d="M371.99 205.13L372.918 202.368C372.918 202.257 372.769 202.183 372.491 202.183H369.595C369.335 202.183 369.075 202.183 369.038 202.35L367.924 205.111C367.924 205.223 368.072 205.315 368.351 205.315H371.395C371.693 205.315 371.952 205.241 371.99 205.13Z" fill="#414A5C"/>
<path d="M367.608 204.518L368.518 202.294C368.518 202.201 368.369 202.109 368.109 202.109H365.194C364.988 202.089 364.783 202.149 364.619 202.275L363.561 204.5C363.561 204.611 363.691 204.704 363.988 204.704H367.014C367.292 204.704 367.552 204.629 367.608 204.518Z" fill="#414A5C"/>
<path d="M369.595 212.1L370.152 210.487C370.152 210.357 369.984 210.246 369.669 210.246H366.383C366.086 210.246 365.789 210.339 365.733 210.468L365.083 212.081C365.083 212.211 365.25 212.322 365.566 212.322H368.945C369.26 212.34 369.557 212.229 369.595 212.1Z" fill="#414A5C"/>
<path d="M368.703 214.75L369.298 213.008C369.298 212.878 369.112 212.767 368.796 212.748H365.399C365.064 212.748 364.767 212.86 364.712 212.989L364.006 214.732C364.006 214.88 364.173 214.991 364.489 214.991H368.017C368.351 215.01 368.648 214.898 368.703 214.75Z" fill="#414A5C"/>
<path d="M367.719 217.605L368.369 215.751C368.369 215.603 368.184 215.473 367.849 215.473H364.322C363.988 215.473 363.672 215.584 363.616 215.733L362.837 217.586C362.837 217.753 363.004 217.883 363.356 217.883H367.07C367.348 217.883 367.664 217.753 367.719 217.605Z" fill="#414A5C"/>
<path d="M366.661 220.7L367.367 218.661C367.367 218.513 367.181 218.383 366.828 218.383H363.115C362.978 218.372 362.841 218.391 362.712 218.439C362.584 218.487 362.468 218.563 362.372 218.661L361.555 220.7C361.555 220.867 361.723 221.015 362.075 221.015H365.881C366.271 220.997 366.605 220.867 366.661 220.7Z" fill="#414A5C"/>
<path d="M365.529 224.055L366.271 221.85C366.271 221.683 366.086 221.534 365.733 221.534H361.89C361.537 221.534 361.184 221.664 361.128 221.831L360.219 224.037C360.219 224.222 360.386 224.37 360.757 224.389H364.73C365.102 224.389 365.454 224.241 365.529 224.055Z" fill="#414A5C"/>
<path d="M364.266 227.707L365.102 225.316C365.102 225.13 364.897 224.964 364.526 224.964L360.46 224.908C360.089 224.908 359.717 225.056 359.643 225.242L358.659 227.651C358.659 227.855 358.826 228.022 359.216 228.022H363.375C363.839 228.078 364.173 227.911 364.266 227.707Z" fill="#414A5C"/>
<path d="M362.911 231.711L363.802 229.079C363.802 228.875 363.616 228.708 363.226 228.708H359.049C358.884 228.693 358.718 228.719 358.566 228.784C358.414 228.848 358.28 228.95 358.176 229.079L357.118 231.711C357.025 231.933 357.285 232.1 357.694 232.1H362.038C362.447 232.1 362.837 231.933 362.911 231.711Z" fill="#414A5C"/>
<path d="M361.407 236.03L362.391 233.138C362.391 232.916 362.205 232.73 361.797 232.73H357.415C357.242 232.717 357.067 232.747 356.908 232.818C356.749 232.889 356.611 232.999 356.506 233.138L355.317 236.03C355.224 236.271 355.503 236.456 355.93 236.474H360.46C360.644 236.495 360.829 236.464 360.996 236.385C361.163 236.307 361.305 236.184 361.407 236.03Z" fill="#414A5C"/>
<path d="M359.755 240.923L360.85 237.753C360.85 237.494 360.646 237.29 360.219 237.29H355.614C355.429 237.278 355.244 237.312 355.075 237.39C354.906 237.468 354.76 237.586 354.649 237.735L353.349 240.923C353.257 241.201 353.535 241.405 353.981 241.405H358.789C358.979 241.423 359.17 241.387 359.341 241.302C359.512 241.217 359.655 241.085 359.755 240.923Z" fill="#414A5C"/>
<path d="M356.357 250.858L359.105 242.814C359.198 242.536 358.919 242.313 358.455 242.313H353.609C353.412 242.303 353.216 242.341 353.038 242.425C352.859 242.51 352.705 242.637 352.588 242.795L349.321 250.858C349.191 251.192 349.488 251.452 349.989 251.452H355.28C355.498 251.465 355.714 251.416 355.905 251.311C356.095 251.206 356.252 251.049 356.357 250.858Z" fill="#414A5C"/>
<path d="M340.334 250.858L343.713 243.944C343.843 243.666 343.584 243.425 343.119 243.425H338.181C337.969 243.416 337.758 243.456 337.564 243.543C337.371 243.63 337.2 243.761 337.067 243.926L333.205 250.858C333.019 251.174 333.205 251.452 333.781 251.452H339.128C339.362 251.456 339.593 251.404 339.803 251.301C340.013 251.198 340.195 251.046 340.334 250.858Z" fill="#414A5C"/>
<path d="M363.635 214.083L364.34 212.359C364.34 212.229 364.192 212.118 363.876 212.118H360.479C360.163 212.118 359.847 212.229 359.792 212.359L358.975 214.083C358.975 214.213 359.105 214.342 359.439 214.342H362.929C363.264 214.324 363.579 214.213 363.635 214.083Z" fill="#414A5C"/>
<path d="M364.749 211.414L365.399 209.82C365.399 209.69 365.25 209.597 364.934 209.579H361.667C361.37 209.579 361.073 209.579 361.017 209.801L360.256 211.377C360.256 211.506 360.386 211.618 360.701 211.618H364.08C364.396 211.636 364.693 211.543 364.749 211.414Z" fill="#414A5C"/>
<path d="M365.77 208.93L366.383 207.447C366.383 207.336 366.234 207.225 365.937 207.225H362.781C362.484 207.225 362.205 207.225 362.15 207.428L361.444 208.893C361.444 209.023 361.574 209.115 361.89 209.134H365.139C365.436 209.134 365.714 209.041 365.77 208.93Z" fill="#414A5C"/>
<path d="M366.735 206.613L367.292 205.241C367.292 205.13 367.144 205.037 366.865 205.037H363.821C363.542 205.037 363.264 205.037 363.208 205.223L362.558 206.613C362.558 206.724 362.688 206.817 362.985 206.817H366.104C366.401 206.817 366.68 206.724 366.735 206.613Z" fill="#414A5C"/>
<path d="M362.465 216.882L363.226 215.028C363.226 214.88 363.078 214.769 362.744 214.75H359.216C358.901 214.75 358.566 214.861 358.511 215.01L357.62 216.863C357.62 217.03 357.749 217.141 358.102 217.16H361.815C362.075 217.16 362.41 217.049 362.465 216.882Z" fill="#414A5C"/>
<path d="M361.203 219.922L362.038 217.938C362.038 217.772 361.871 217.642 361.537 217.642H357.824C357.489 217.642 357.155 217.753 357.081 217.92L356.116 219.922C356.116 220.089 356.264 220.218 356.617 220.218H360.33C360.489 220.26 360.656 220.254 360.811 220.201C360.966 220.148 361.102 220.051 361.203 219.922Z" fill="#414A5C"/>
<path d="M359.829 223.221L360.739 221.071C360.739 220.886 360.571 220.756 360.219 220.756H356.413C356.265 220.735 356.115 220.751 355.976 220.803C355.836 220.855 355.712 220.94 355.614 221.052L354.575 223.221C354.482 223.388 354.705 223.555 355.076 223.555H359.031C359.402 223.555 359.755 223.407 359.829 223.221Z" fill="#414A5C"/>
<path d="M358.344 226.762L359.328 224.407C359.328 224.222 359.161 224.074 358.789 224.074H354.816C354.662 224.054 354.504 224.072 354.359 224.127C354.213 224.182 354.083 224.272 353.981 224.389L352.848 226.762C352.848 226.947 352.978 227.114 353.368 227.114H357.508C357.879 227.169 358.269 227.021 358.344 226.762Z" fill="#414A5C"/>
<path d="M356.747 230.747L357.805 228.17C357.898 227.966 357.638 227.8 357.248 227.8H353.089C352.926 227.784 352.762 227.808 352.61 227.869C352.458 227.931 352.323 228.027 352.217 228.152L350.973 230.747C350.88 230.951 351.121 231.136 351.53 231.136H355.837C356.009 231.153 356.183 231.127 356.342 231.059C356.501 230.991 356.641 230.883 356.747 230.747Z" fill="#414A5C"/>
<path d="M354.89 235.047L356.079 232.211C356.079 231.989 355.911 231.822 355.503 231.803H351.177C351.002 231.789 350.827 231.817 350.665 231.885C350.504 231.953 350.361 232.058 350.249 232.193L348.893 235.029C348.782 235.27 349.023 235.455 349.45 235.455H353.999C354.17 235.465 354.34 235.434 354.496 235.362C354.651 235.291 354.787 235.183 354.89 235.047Z" fill="#414A5C"/>
<path d="M353.034 239.737L354.333 236.604C354.445 236.363 354.166 236.159 353.739 236.159H349.172C348.986 236.145 348.799 236.177 348.627 236.251C348.456 236.325 348.305 236.44 348.188 236.586L346.684 239.718C346.554 239.978 346.814 240.2 347.26 240.2H352.031C352.402 240.256 352.867 240.052 353.034 239.737Z" fill="#414A5C"/>
<path d="M350.787 245.038L352.217 241.572C352.328 241.312 352.068 241.09 351.604 241.09H346.795C346.596 241.076 346.395 241.113 346.214 241.197C346.032 241.282 345.874 241.41 345.756 241.572L344.085 245.038C343.955 245.335 344.215 245.557 344.679 245.557H349.729C349.935 245.568 350.141 245.526 350.326 245.435C350.511 245.345 350.67 245.208 350.787 245.038Z" fill="#414A5C"/>
<path d="M348.374 250.858L349.97 247.003C350.082 246.706 349.803 246.465 349.32 246.465H344.252C344.036 246.454 343.82 246.497 343.626 246.591C343.431 246.685 343.263 246.827 343.138 247.003L341.281 250.877C341.114 251.192 341.393 251.47 341.894 251.47H347.222C347.451 251.478 347.678 251.426 347.88 251.319C348.083 251.211 348.253 251.053 348.374 250.858Z" fill="#414A5C"/>
<path d="M360.219 210.172L360.98 208.633C360.98 208.504 360.832 208.411 360.534 208.411H357.304C357.007 208.411 356.71 208.504 356.654 208.615L355.8 210.153C355.8 210.283 355.911 210.394 356.227 210.394H359.55C359.671 210.406 359.793 210.392 359.908 210.353C360.023 210.315 360.129 210.253 360.219 210.172Z" fill="#414A5C"/>
<path d="M361.37 207.836L362.057 206.39C362.057 206.279 361.927 206.187 361.63 206.187H358.529C358.232 206.187 357.935 206.187 357.879 206.39L357.081 207.818C357.081 207.947 357.211 208.04 357.508 208.04H360.72C361.017 208.04 361.314 207.947 361.37 207.836Z" fill="#414A5C"/>
<path d="M362.428 205.649L363.078 204.314C363.078 204.203 362.948 204.111 362.669 204.111H359.662C359.436 204.095 359.212 204.161 359.031 204.296L358.288 205.649C358.288 205.76 358.418 205.853 358.715 205.853H361.815C362.094 205.853 362.317 205.76 362.428 205.649Z" fill="#414A5C"/>
<path d="M363.431 203.61L364.043 202.35C364.043 202.257 363.913 202.164 363.635 202.164H360.72C360.615 202.149 360.508 202.156 360.405 202.185C360.303 202.214 360.208 202.263 360.126 202.331L359.42 203.591C359.42 203.684 359.55 203.777 359.829 203.777H362.818C363.096 203.795 363.375 203.721 363.431 203.61Z" fill="#414A5C"/>
<path d="M358.604 203.536L359.309 202.275C359.309 202.275 359.198 202.09 358.919 202.09H357.954C357.742 202.068 357.529 202.128 357.36 202.257L356.598 203.517C356.598 203.629 356.71 203.721 356.988 203.721H357.991C358.325 203.721 358.604 203.647 358.604 203.536Z" fill="#414A5C"/>
<path d="M357.137 206.224L357.917 204.852C357.917 204.741 357.787 204.667 357.508 204.648H356.506C356.27 204.627 356.037 204.701 355.856 204.852L355.039 206.205C355.039 206.335 355.15 206.428 355.447 206.428H356.487C356.722 206.448 356.956 206.375 357.137 206.224Z" fill="#414A5C"/>
<path d="M355.874 208.448L356.71 206.984C356.71 206.854 356.58 206.761 356.301 206.761H355.243C355.008 206.744 354.776 206.817 354.593 206.965L353.721 208.429C353.721 208.559 353.832 208.652 354.129 208.652H355.206C355.503 208.652 355.819 208.559 355.874 208.448Z" fill="#414A5C"/>
<path d="M354.537 210.821L355.429 209.245C355.429 209.115 355.299 209.023 355.002 209.023H353.925C353.678 209 353.432 209.073 353.238 209.226L352.291 210.802C352.291 210.932 352.402 211.043 352.718 211.043H353.832C353.959 211.056 354.087 211.043 354.208 211.005C354.329 210.967 354.441 210.904 354.537 210.821Z" fill="#414A5C"/>
<path d="M353.034 213.36L353.981 211.673C353.981 211.543 353.869 211.432 353.553 211.432H352.44C352.309 211.422 352.178 211.438 352.053 211.48C351.929 211.521 351.814 211.587 351.715 211.673L350.713 213.36C350.713 213.49 350.824 213.601 351.14 213.619H352.291C352.681 213.619 353.034 213.508 353.034 213.36Z" fill="#414A5C"/>
<path d="M342.544 231.97L344.048 229.32C344.178 229.097 343.936 228.93 343.546 228.93H342.135C341.961 228.915 341.786 228.938 341.622 228.999C341.458 229.06 341.31 229.157 341.188 229.282L339.592 231.952C339.462 232.174 339.685 232.359 340.112 232.359H341.56C341.743 232.372 341.926 232.344 342.096 232.276C342.266 232.209 342.419 232.104 342.544 231.97Z" fill="#414A5C"/>
<path d="M340.037 236.382L341.708 233.453C341.838 233.231 341.597 233.045 341.189 233.045H339.703C339.517 233.038 339.331 233.071 339.158 233.142C338.985 233.212 338.829 233.318 338.701 233.453L336.955 236.382C336.807 236.641 336.955 236.827 337.475 236.827H339.016C339.209 236.835 339.402 236.8 339.579 236.723C339.756 236.646 339.913 236.529 340.037 236.382Z" fill="#414A5C"/>
<path d="M337.29 241.257L339.146 238.013C339.276 237.772 339.035 237.568 338.608 237.568H337.048C336.85 237.562 336.653 237.598 336.47 237.675C336.288 237.752 336.124 237.867 335.99 238.013L334.133 241.257C333.966 241.535 334.133 241.739 334.653 241.757H336.269C336.464 241.749 336.656 241.7 336.832 241.614C337.008 241.528 337.164 241.406 337.29 241.257Z" fill="#414A5C"/>
<path d="M334.226 246.632L336.269 243.055C336.417 242.777 336.176 242.554 335.712 242.554H334.078C333.864 242.549 333.651 242.591 333.455 242.678C333.259 242.764 333.085 242.893 332.945 243.055L330.754 246.632C330.587 246.929 330.754 247.17 331.311 247.188H333.02C333.251 247.203 333.483 247.16 333.694 247.063C333.904 246.966 334.087 246.818 334.226 246.632Z" fill="#414A5C"/>
<path d="M358.993 212.674L359.792 211.024C359.792 210.895 359.662 210.802 359.346 210.783H356.004C355.881 210.771 355.756 210.784 355.637 210.822C355.519 210.86 355.41 210.923 355.317 211.006L354.389 212.656C354.389 212.804 354.519 212.915 354.853 212.915H358.288C358.416 212.935 358.548 212.924 358.671 212.882C358.793 212.84 358.904 212.769 358.993 212.674Z" fill="#414A5C"/>
<path d="M357.675 215.399L358.529 213.545C358.529 213.397 358.399 213.286 358.065 213.286H354.612C354.479 213.271 354.345 213.287 354.22 213.332C354.094 213.377 353.98 213.45 353.888 213.545L352.885 215.399C352.885 215.529 353.015 215.658 353.349 215.658H356.933C357.267 215.64 357.601 215.64 357.675 215.399Z" fill="#414A5C"/>
<path d="M356.246 218.309L357.174 216.455C357.174 216.307 357.044 216.177 356.691 216.177H353.108C352.967 216.159 352.823 216.173 352.688 216.218C352.553 216.263 352.43 216.338 352.328 216.437L351.27 218.291C351.177 218.439 351.4 218.569 351.753 218.569H355.466C355.607 218.585 355.75 218.571 355.885 218.526C356.02 218.481 356.143 218.407 356.246 218.309Z" fill="#414A5C"/>
<path d="M354.686 221.479L355.707 219.403C355.707 219.236 355.559 219.106 355.224 219.106H351.511C351.366 219.094 351.22 219.113 351.083 219.16C350.945 219.208 350.819 219.285 350.713 219.384L349.543 221.479C349.45 221.646 349.673 221.794 350.045 221.794H353.925C354.241 221.794 354.612 221.664 354.686 221.479Z" fill="#414A5C"/>
<path d="M353.034 224.908L354.129 222.647C354.222 222.48 353.999 222.331 353.628 222.331H349.71C349.558 222.315 349.403 222.333 349.259 222.384C349.114 222.436 348.983 222.519 348.875 222.628L347.631 224.908C347.52 225.093 347.742 225.242 348.114 225.242H352.18C352.338 225.254 352.497 225.23 352.645 225.172C352.793 225.114 352.926 225.024 353.034 224.908Z" fill="#414A5C"/>
<path d="M351.177 228.615L352.384 226.15C352.477 225.946 352.235 225.798 351.864 225.798H347.78C347.616 225.785 347.451 225.809 347.297 225.867C347.143 225.924 347.004 226.014 346.888 226.131L345.607 228.615C345.496 228.819 345.719 228.986 346.127 228.986H350.36C350.515 228.985 350.668 228.952 350.808 228.888C350.949 228.824 351.075 228.731 351.177 228.615Z" fill="#414A5C"/>
<path d="M349.153 232.804L350.49 230.098C350.583 229.876 350.342 229.709 349.952 229.709H345.681C345.504 229.695 345.326 229.723 345.161 229.79C344.997 229.858 344.851 229.963 344.735 230.098L343.231 232.804C343.119 233.027 343.342 233.212 343.769 233.212H348.206C348.386 233.227 348.566 233.198 348.731 233.126C348.896 233.055 349.041 232.945 349.153 232.804Z" fill="#414A5C"/>
<path d="M346.944 237.327L348.411 234.343C348.522 234.12 348.281 233.916 347.854 233.916H343.379C343.192 233.906 343.005 233.937 342.832 234.008C342.659 234.078 342.503 234.186 342.377 234.324L340.724 237.309C340.594 237.55 340.836 237.753 341.263 237.772H345.941C346.132 237.782 346.322 237.747 346.496 237.67C346.671 237.593 346.824 237.475 346.944 237.327Z" fill="#414A5C"/>
<path d="M344.512 242.313L346.127 239.032C346.238 238.773 345.997 238.569 345.552 238.569H340.836C340.635 238.56 340.436 238.596 340.252 238.677C340.069 238.757 339.906 238.879 339.777 239.032L337.921 242.332C337.772 242.61 338.014 242.832 338.478 242.832H343.398C343.612 242.848 343.827 242.808 344.022 242.717C344.217 242.626 344.386 242.487 344.512 242.313Z" fill="#414A5C"/>
<path d="M376.278 206.372L377.318 202.535C377.318 202.424 377.151 202.35 376.873 202.35H373.995C373.716 202.35 373.475 202.35 373.438 202.516L372.157 206.353C372.157 206.465 372.324 206.576 372.621 206.576H375.703C376 206.483 376.26 206.372 376.278 206.372Z" fill="#414A5C"/>
<path d="M364.34 250.858L367.162 240.293C367.162 240.033 366.94 239.811 366.494 239.811H361.797C361.351 239.811 360.924 240.015 360.85 240.274L357.322 250.877C357.211 251.192 357.527 251.452 358.028 251.452H363.282C363.497 251.468 363.713 251.42 363.901 251.315C364.089 251.209 364.242 251.05 364.34 250.858Z" fill="#414A5C"/>
<path d="M376.13 235.585L376.668 232.749C376.668 232.526 376.408 232.341 376 232.341H370.857C370.467 232.341 370.077 232.526 370.022 232.73L369.298 235.585C369.298 235.826 369.52 236.011 369.947 236.011H375.294C375.721 236.03 376.093 235.826 376.13 235.585Z" fill="#414A5C"/>
<path d="M380.66 211.265L381.124 208.782C381.124 208.67 380.92 208.559 380.623 208.559H376.91C376.613 208.559 376.353 208.559 376.316 208.763L375.684 211.247C375.684 211.377 375.87 211.488 376.186 211.488H380.122C380.363 211.488 380.641 211.395 380.66 211.265Z" fill="#414A5C"/>
<path d="M376.91 231.414L377.671 227.336C377.671 227.132 377.429 226.984 377.04 226.984H372.212C371.823 226.984 371.488 227.151 371.433 227.336L370.374 231.433C370.374 231.637 370.597 231.822 371.006 231.822H376.111C376.52 231.803 376.872 231.637 376.91 231.414Z" fill="#414A5C"/>
<path d="M379.954 215.028L380.474 212.285C380.474 212.155 380.251 212.044 379.954 212.044H375.963C375.647 212.044 375.369 212.137 375.331 212.266L374.626 215.028C374.626 215.158 374.83 215.288 375.146 215.288H379.323C379.639 215.288 379.936 215.177 379.954 215.028Z" fill="#414A5C"/>
<path d="M375.313 212.229L371.748 226.002C371.748 226.205 371.934 226.372 372.287 226.372H377.188C377.541 226.372 377.857 226.224 377.894 226.02L380.437 212.266L375.313 212.229Z" fill="#414A5C"/>
<path d="M370.096 247.318L369.149 251.618C369.149 251.896 369.353 252.1 369.762 252.1H372.324C372.732 252.1 373.104 251.896 373.159 251.618L373.958 247.318C373.958 247.077 373.716 246.873 373.345 246.873H370.894C370.731 246.857 370.568 246.891 370.425 246.97C370.282 247.05 370.167 247.171 370.096 247.318Z" fill="#414A5C"/>
<path d="M371.321 241.831L370.467 245.687C370.467 245.928 370.671 246.132 371.061 246.132H373.456C373.846 246.132 374.199 245.946 374.236 245.705L374.96 241.85C374.96 241.627 374.737 241.442 374.366 241.442H372.045C371.711 241.442 371.377 241.59 371.321 241.831Z" fill="#414A5C"/>
<path d="M372.417 236.919L371.637 240.404C371.637 240.627 371.841 240.812 372.212 240.812H374.515C374.867 240.812 375.202 240.645 375.239 240.423L375.888 236.938C375.888 236.752 375.666 236.586 375.313 236.586H373.122C372.769 236.567 372.454 236.734 372.417 236.919Z" fill="#414A5C"/>
<path d="M367.2 241.813L366.178 245.687C366.178 245.928 366.383 246.113 366.773 246.113H369.205C369.364 246.126 369.524 246.09 369.663 246.011C369.802 245.931 369.914 245.812 369.985 245.668L370.857 241.813C370.857 241.59 370.653 241.405 370.3 241.405H367.979C367.608 241.424 367.255 241.59 367.2 241.813Z" fill="#414A5C"/>
<path d="M319.485 145.203L262.561 160.032C261.299 160.31 259.739 161.2 260.965 163.739L306.823 251.507C307.361 252.527 310.35 256.345 312.207 254.492L345.811 198.531C345.906 198.316 345.944 198.081 345.921 197.847C345.898 197.613 345.816 197.389 345.681 197.197L323.087 146.5C322.548 145.203 321.044 144.869 319.485 145.203Z" fill="#414A5C"/>
<path d="M321.657 145.555L263.23 160.718C262.71 160.829 262.58 161.533 262.932 162.219L310.592 253.416C311.13 254.436 312.114 254.881 312.541 254.269L349.32 200.236C349.407 200.016 349.439 199.777 349.413 199.542C349.387 199.306 349.305 199.08 349.172 198.883L323.179 146.5C322.734 145.87 322.103 145.444 321.657 145.555Z" fill="#697182"/>
<path style="mix-blend-mode:multiply" d="M286.363 207.002C286.641 207.002 305.894 208.856 308.197 189.801C310.499 170.746 328.378 183.406 332.462 184.648C334.208 185.167 340.446 186.279 339.889 180.403L323.031 146.5C322.678 145.87 322.047 145.444 321.601 145.555L263.174 160.718C262.654 160.829 262.524 161.533 262.877 162.219L286.363 207.002Z" fill="url(#paint22_linear_1117_2322)"/>
<path d="M265.216 162.868L322.065 147.928L347.074 198.55L310.443 248.949L265.216 162.868Z" fill="black"/>
<path d="M321.88 148.947L346.628 199.18L347.074 198.55L322.065 147.928L265.216 162.868L265.717 163.795L321.88 148.947Z" fill="#202735"/>
<path d="M293.418 161.366L276.356 165.926C275.941 166.038 275.558 166.243 275.235 166.525C274.912 166.807 274.657 167.158 274.491 167.553C274.324 167.948 274.25 168.376 274.274 168.804C274.298 169.232 274.42 169.649 274.629 170.023L279.178 178.179C279.52 178.786 280.076 179.246 280.738 179.469C281.399 179.691 282.12 179.661 282.761 179.383L298.134 172.729C298.472 172.58 298.778 172.366 299.033 172.099C299.289 171.832 299.489 171.517 299.622 171.172C299.754 170.828 299.818 170.46 299.808 170.091C299.798 169.722 299.715 169.359 299.563 169.022L296.704 162.96C296.435 162.349 295.956 161.853 295.354 161.561C294.752 161.269 294.066 161.2 293.418 161.366Z" fill="#0078EE"/>
<path d="M311.984 169.967L282.761 183.35C282.597 183.429 282.449 183.54 282.328 183.676C282.207 183.813 282.115 183.972 282.056 184.145C281.997 184.317 281.973 184.5 281.986 184.682C281.999 184.863 282.048 185.041 282.13 185.204L288.071 196.214C288.254 196.523 288.549 196.75 288.895 196.846C289.241 196.943 289.611 196.902 289.928 196.733L317.034 180.811C317.322 180.637 317.536 180.363 317.635 180.042C317.734 179.721 317.712 179.374 317.572 179.068L313.748 170.616C313.595 170.301 313.326 170.058 312.997 169.937C312.668 169.816 312.305 169.827 311.984 169.967Z" fill="#0078EE"/>
<path d="M340.873 199.143L331.311 209.82C331.082 210.076 330.796 210.277 330.477 210.406C330.158 210.536 329.814 210.591 329.47 210.568C329.126 210.545 328.792 210.444 328.494 210.272C328.195 210.101 327.94 209.864 327.747 209.579L323.495 203.295C323.172 202.822 323.042 202.244 323.132 201.679C323.221 201.114 323.524 200.605 323.978 200.255L335.117 191.599C335.367 191.403 335.655 191.262 335.963 191.186C336.27 191.109 336.591 191.098 336.903 191.155C337.215 191.211 337.512 191.332 337.774 191.511C338.036 191.69 338.257 191.922 338.422 192.192L341.077 196.455C341.342 196.864 341.466 197.348 341.429 197.833C341.392 198.319 341.197 198.779 340.873 199.143Z" fill="#0078EE"/>
<path d="M334.987 189.263L314.398 204.37C314.152 204.549 313.873 204.677 313.577 204.747C313.28 204.816 312.973 204.825 312.673 204.773C312.374 204.721 312.087 204.609 311.832 204.445C311.576 204.28 311.357 204.065 311.186 203.814L306.303 196.603C306.131 196.352 306.013 196.069 305.953 195.77C305.894 195.472 305.896 195.165 305.958 194.867C306.021 194.57 306.142 194.288 306.317 194.038C306.491 193.789 306.713 193.577 306.971 193.415L329.251 179.55C329.514 179.387 329.807 179.279 330.114 179.234C330.42 179.188 330.733 179.206 331.032 179.286C331.332 179.366 331.611 179.506 331.854 179.698C332.097 179.89 332.298 180.13 332.444 180.403L335.674 186.371C335.925 186.856 335.994 187.414 335.868 187.944C335.742 188.475 335.429 188.943 334.987 189.263Z" fill="#0078EE"/>
<path style="mix-blend-mode:screen" opacity="0.5" d="M286.14 157.363L265.216 162.868L286.14 202.702V157.363Z" fill="url(#paint23_linear_1117_2322)"/>
<path style="mix-blend-mode:screen" opacity="0.5" d="M336.268 176.659L322.065 147.928L320.005 148.465V235.77L336.268 213.416V176.659Z" fill="url(#paint24_linear_1117_2322)"/>
<path style="mix-blend-mode:screen" opacity="0.5" d="M306.043 152.135L295.98 154.786V221.442L306.043 240.608V152.135Z" fill="url(#paint25_linear_1117_2322)"/>
<path d="M370.374 205.779C373.586 202.85 374.236 200.607 379.955 195.473C389.033 187.317 446.588 197.493 456.948 198.587C467.308 199.68 466.231 218.05 460.773 220.608C448.203 226.502 402.679 203.758 397.908 204.37C392.524 205.074 390.649 211.321 390.649 211.321C390.649 211.321 389.609 215.51 383.835 216.196C378.061 216.882 375.74 222.758 375.74 222.758C375.74 222.758 371.618 220.589 378.228 212.73C383.798 206.187 377.467 208.689 376.111 209.152C370.282 211.154 358.009 218.42 353.145 218.124C348.281 217.827 367.162 208.707 370.374 205.779Z" fill="#F17E59"/>
<path d="M434.724 111.69C438.289 116.694 435.3 113.358 454.256 122.533C473.212 131.709 489.086 153.099 494.136 180.421C499.186 207.744 520.667 209.189 517.585 246.558C514.503 283.927 506.278 276.216 506.278 276.216C506.278 276.216 466.992 258.977 450.747 239.255C434.502 219.533 427.502 220.997 422.786 211.951C418.071 202.906 407.934 171.487 407.934 156.028C408.064 135.731 423.083 95.2668 434.724 111.69Z" fill="#3C4456"/>
<g style="mix-blend-mode:multiply">
<path style="mix-blend-mode:multiply" d="M494.136 180.421C489.011 153.118 473.193 131.727 454.237 122.552C435.281 113.376 438.27 116.713 434.706 111.708C434.122 110.702 433.339 109.826 432.403 109.135C431.467 108.443 430.4 107.95 429.266 107.686C431.063 111.248 432.022 115.172 432.069 119.16C431.939 123.718 430.46 128.136 427.818 131.857C428.152 131.857 428.468 132.061 428.783 132.098C456.372 135.027 438.345 191.08 434.149 197.475C430.863 202.479 429.6 211.729 424.866 215.158C427.372 218.198 453.03 236.011 458.285 238.217C479.691 247.151 479.469 205.223 484.853 205.167C491.202 205.167 485.558 231.117 489.958 235.381C494.358 239.644 501.785 237.605 501.581 243.444C501.376 249.005 478.447 257.939 475.588 259.57C485.445 265.768 495.711 271.292 506.315 276.104C506.315 276.104 514.54 283.908 517.622 246.447C520.704 208.985 499.353 207.706 494.136 180.421Z" fill="url(#paint26_linear_1117_2322)"/>
</g>
<path d="M401.454 123.757C401.454 123.757 418.052 120.735 415.1 143.961C415.048 144.309 415.107 144.664 415.268 144.977C415.428 145.29 415.683 145.545 415.996 145.707C416.309 145.868 416.665 145.928 417.014 145.877C417.362 145.827 417.686 145.669 417.941 145.425C423.51 139.994 433.889 128.391 434.223 115.582C434.223 115.582 422.564 111.3 420.726 105.61C418.887 99.9193 401.454 123.757 401.454 123.757Z" fill="#F17E59"/>
<g style="mix-blend-mode:multiply">
<path style="mix-blend-mode:multiply" d="M406.133 123.924H406.374C413.967 123.256 420.818 126.481 428.189 126.222C429.452 126.222 430.677 126.111 431.902 126.018C433.313 122.717 434.112 119.187 434.26 115.601C434.26 115.601 422.601 111.319 420.763 105.628C418.925 99.9378 401.491 123.775 401.491 123.775C403.035 123.549 404.606 123.599 406.133 123.924Z" fill="url(#paint27_linear_1117_2322)"/>
</g>
<path d="M379.453 92.023C379.453 92.023 373.382 100.086 379.305 108.483C385.227 116.88 379.156 116.416 381.421 121.069C383.686 125.722 391.707 130.189 392.932 133.785C394.157 137.381 399.783 142.701 407.451 132.395C415.119 122.088 413.243 116.342 412.389 113.339C412.389 113.339 428.449 107.593 424.03 97.0463C419.612 86.4993 393.675 66.3876 379.453 92.023Z" fill="#F17E59"/>
<g style="mix-blend-mode:multiply">
<path style="mix-blend-mode:multiply" d="M379.453 92.023C378.091 94.0014 377.202 96.2652 376.854 98.6404C379.305 109.428 391.558 103.441 397.277 112.079C400.563 117.047 407.469 122.014 406.04 127.668C404.99 131.667 402.909 135.322 400.006 138.27C402.159 137.844 404.684 136.157 407.432 132.395C415.1 122.088 413.225 116.342 412.371 113.339C412.371 113.339 428.43 107.593 424.012 97.0463C419.593 86.4993 393.675 66.3876 379.453 92.023Z" fill="url(#paint28_linear_1117_2322)"/>
</g>
<path d="M394.065 101.254C394.065 101.254 399.207 99.9564 400.786 104.683C402.364 109.41 405.576 111.745 406.133 104.053C406.69 96.3604 413.095 98.7145 413.336 103.274C413.578 107.834 416.177 116.027 425.404 111.56C434.631 107.093 430.974 100.197 427.873 98.1213C424.773 96.0453 412.111 72.9123 394.065 101.254Z" fill="#202735"/>
<path d="M423.158 74.4323C423.158 74.4323 423.158 68.4266 411.591 70.4285C400.024 72.4304 398.595 64.3487 391.168 73.4684C383.742 82.5881 376.316 77.0088 372.899 87.2222C369.483 97.4355 380.901 100.772 386.508 97.5282C392.115 94.2844 423.158 74.4323 423.158 74.4323Z" fill="#697082"/>
<path d="M373.772 95.1556C373.772 95.1556 385.84 99.8452 393.656 89.7986C401.473 79.7521 423.9 65.7018 427.873 79.9004C431.847 94.099 424.921 91.022 429.73 96.6755C434.539 102.329 416.734 102.236 412.037 94.8219C407.339 87.4075 404.257 94.6922 395.049 100.605C393.314 101.716 391.368 102.458 389.333 102.785C387.299 103.112 385.218 103.017 383.222 102.506C381.225 101.994 379.356 101.078 377.73 99.8132C376.104 98.5486 374.757 96.9631 373.772 95.1556Z" fill="#46495F"/>
<path d="M450.468 207.577C455.518 206.372 463.465 232.767 459.751 235.103C449.633 241.405 393.768 250.432 390.871 253.639C386.044 258.922 381.96 267.356 376.575 268.875C375.072 269.283 374.069 267.263 371.934 266.781C366.253 265.539 368.462 261.758 364.21 262.147C359.959 262.536 356.784 265.335 356.784 259.552C356.784 253.769 359.717 252.99 361.426 253.213C363.134 253.435 361.704 257.012 361.704 257.012C364.452 254.714 366.884 256.364 368.555 253.787C370.226 251.211 367.887 248.097 361.797 251.025C355.707 253.954 353.665 245.687 356.376 246.688C359.086 247.689 360.2 246.688 364.99 243.741C369.78 240.793 370.43 243.555 377.467 243.741C384.503 243.926 433.573 211.599 450.468 207.577Z" fill="#F17E59"/>
<path d="M438.66 134.193C448.593 126.148 473.23 127.186 475.217 163.498C477.166 199.198 469.072 230.08 461.515 236.011C460.178 237.068 431.011 247.466 431.011 247.466C431.011 247.466 432.218 232.637 417.439 221.108L436.581 209.301C436.581 209.301 432.069 207.262 438.066 201.478C444.063 195.695 421.19 148.336 438.66 134.193Z" fill="white"/>
<path d="M461.218 132.914C463.52 139.056 463.736 145.784 461.831 152.061C459.881 158.215 457.041 197.4 452.251 207.836C449.161 215.742 444.622 223.002 438.865 229.245C435.356 232.953 433.629 231.321 429.155 233.972C431.624 239.533 431.011 247.466 431.011 247.466C431.011 247.466 460.178 237.068 461.515 236.011C469.072 230.08 477.166 199.198 475.217 163.498C474.27 146.389 468.31 137.103 461.218 132.914Z" fill="url(#paint29_linear_1117_2322)"/>
<path d="M661.379 445.672C676.232 445.672 688.337 450.065 688.337 455.496C688.337 460.928 676.269 465.302 661.379 465.302C646.489 465.302 634.421 460.909 634.421 455.496C634.421 450.084 646.489 445.672 661.379 445.672Z" fill="#C4C8CD"/>
<path d="M627.811 413.642H694.983L688.318 455.7C688.318 457.035 676.269 458.091 661.397 458.091C646.526 458.091 634.477 457.035 634.477 455.7L627.811 413.642Z" fill="#C4C8CD"/>
<path style="mix-blend-mode:multiply" d="M683.955 442.354C678.998 438.202 672.946 442.169 666.485 441.279C659.671 440.352 652.746 433.865 646.693 437.146C636.779 442.466 631.599 435.996 631.283 435.737L627.811 413.642H694.983L689.562 447.915C687.39 445.654 684.791 443.059 683.955 442.354Z" fill="url(#paint30_linear_1117_2322)"/>
<path d="M622.613 407.099L628.925 419.407C628.925 416.645 643.463 414.42 661.379 414.42C679.295 414.42 693.832 416.645 693.832 419.407L700.145 407.099H622.613Z" fill="url(#paint31_linear_1117_2322)"/>
<path d="M661.379 410.936C679.388 410.936 693.981 414.643 693.981 419.11C693.981 423.577 679.388 427.303 661.379 427.303C643.37 427.303 628.777 423.596 628.777 419.11C628.777 414.624 643.37 410.936 661.379 410.936Z" fill="url(#paint32_linear_1117_2322)"/>
<path d="M661.379 416.274C682.789 416.274 700.145 412.158 700.145 407.08C700.145 402.003 682.789 397.886 661.379 397.886C639.969 397.886 622.613 402.003 622.613 407.08C622.613 412.158 639.969 416.274 661.379 416.274Z" fill="url(#paint33_linear_1117_2322)"/>
<path d="M661.379 414.977C681.404 414.977 697.638 411.441 697.638 407.08C697.638 402.719 681.404 399.184 661.379 399.184C641.353 399.184 625.119 402.719 625.119 407.08C625.119 411.441 641.353 414.977 661.379 414.977Z" fill="#697182"/>
<path d="M647.139 343.261C650.276 349.285 657.35 404.207 657.35 404.207L654.695 405.505C651.799 367.413 649.979 357.422 646.656 343.668C646.6 343.539 644.001 337.236 647.139 343.261Z" fill="#3C4456"/>
<path d="M642.126 252.712C661.082 299.886 647.12 343.854 647.12 343.854C625.713 335.309 623.783 309.581 623.783 309.581C647.454 322.908 622.632 301.054 622.632 301.054C612.699 265.576 642.126 252.712 642.126 252.712Z" fill="#0078EF"/>
<path d="M656.682 306.467C656.682 306.467 633.994 328.524 656.682 313.547C656.682 313.547 659.151 336.773 647.176 343.965C647.176 343.965 627.384 300.628 642.887 252.23C642.831 252.137 664.052 270.247 656.682 306.467Z" fill="#3C4456"/>
<path d="M625.435 331.453C625.435 331.453 629.148 336.069 622.242 341.611C615.335 347.153 629.297 344.873 630.132 334.975C630.968 325.077 643.63 338.293 636.575 352.214C630.039 365.078 651 379.906 659.559 406.932C658.383 406.492 657.18 406.127 655.958 405.838C651.26 393.512 641.977 371.88 629.297 355.643C610.564 331.657 576.829 332.195 576.829 332.195C576.829 332.195 606.015 319.794 625.435 331.453Z" fill="#3C4456"/>
<path d="M659.244 390.528C658.65 393.252 656.087 400.407 654.231 405.356C653.711 405.356 653.173 405.19 652.634 405.134C654.194 400.871 656.236 396.96 657.183 393.605C664.962 365.8 652.838 355.328 649.255 334.623C696.506 383.113 660.228 386.172 659.244 390.528Z" fill="#3C4456"/>
<path d="M617.526 347.709C619.383 353.733 615.298 360.369 619.587 361C623.875 361.63 616.022 348.71 621.443 349.563C626.865 350.416 631.023 357.292 631.023 357.292C630.745 380.018 633.548 359.962 633.548 359.962C642.367 376.347 635.683 384.615 635.683 384.615C645.245 389.916 652.393 399.073 656.756 406.042C656.05 405.838 655.326 405.672 654.602 405.523C648.226 394.681 638.537 386.164 626.957 381.222C611.723 374.63 599.327 362.853 591.979 347.987C591.979 347.987 615.725 341.685 617.526 347.709Z" fill="#0078EF"/>
<path d="M618.528 362.946C635.553 366.801 635.795 384.615 635.795 384.615C644.454 390.005 651.723 397.351 657.016 406.061C656.255 405.857 655.493 405.672 654.714 405.523C648.337 394.681 638.648 386.164 627.069 381.222C611.834 374.63 599.439 362.853 592.09 347.987C599.221 355.482 608.424 360.689 618.528 362.946Z" fill="#3C4456"/>
<path d="M669.399 359.813C668.174 373.363 658.557 396.885 654.825 405.56C653.597 405.322 652.358 405.149 651.112 405.041C654.825 398.869 665.742 379.888 668.508 361.222C671.869 338.515 656.904 328.117 677.29 300.442C677.29 300.442 696.172 332.51 681.56 295.122C681.56 295.122 690.23 288.301 693.331 284.001C693.538 287.661 694.933 291.155 697.304 293.955C697.304 293.955 695.021 275.938 717.727 279.015C717.727 279.015 728.532 295.382 708.778 308.672C708.778 308.672 698.362 314.548 694.761 318.626C694.761 318.626 704.396 313.362 711.21 316.606C711.21 316.606 708.332 331.064 701.742 332.417C695.151 333.77 694.464 334.474 694.464 334.474C694.113 335.533 693.382 336.424 692.411 336.975C691.441 337.526 690.3 337.699 689.209 337.459C684.828 337.033 684.698 340.388 684.698 340.388C684.698 340.388 692.124 337.199 697.843 339.275C697.843 339.275 698.065 348.154 687.706 350.1C677.346 352.047 670.94 342.964 669.399 359.813Z" fill="#0078EF"/>
<path d="M669.399 359.813C668.174 373.363 658.557 396.885 654.825 405.56C653.597 405.322 652.358 405.149 651.112 405.041C654.825 398.869 665.742 379.888 668.508 361.222C669.224 356.066 669.18 350.833 668.378 345.689C666.93 335.049 663.941 325.985 669.901 312.732C671.942 308.395 674.431 304.282 677.327 300.461C677.327 300.461 696.209 332.528 681.597 295.141C681.597 295.141 690.249 288.32 693.35 284.019C693.568 287.681 694.969 291.173 697.341 293.973C697.341 293.973 695.058 275.956 717.764 279.033C717.764 279.033 719.509 292.824 699.755 306.096C699.755 306.096 669.808 342.167 675.619 344.243C675.619 344.243 698.195 348.154 687.836 350.1C677.476 352.047 670.94 342.964 669.399 359.813Z" fill="#3C4456"/>
<path d="M672.871 332.417C673.052 334.807 672.746 337.209 671.971 339.478C671.195 341.746 669.967 343.834 668.36 345.615C666.912 334.975 663.922 325.911 669.882 312.658C667.45 324.484 672.184 324.484 672.871 332.417Z" fill="#0078EF"/>
<path d="M661.732 407.877C664.034 400.463 669.511 386.413 679.908 377.534C679.908 377.534 671.702 370.768 677.086 352.955C677.086 352.955 683.825 372.047 679.035 349.822C679.035 349.822 681.746 342.26 686.889 340.35C692.031 338.441 686.889 352.677 690.992 351.194C695.095 349.711 689.804 344.021 690.379 337.755C690.955 331.49 715.443 332.973 715.443 332.973C711.212 349.001 701.406 363.003 687.78 372.473C671.163 383.595 665.352 400.667 663.458 408.767L661.732 407.877Z" fill="#0078EF"/>
<path d="M661.657 407.84C663.811 400.648 669.084 387.284 679.908 377.534C679.908 377.534 676.603 360.017 692.514 352.862C701.966 348.653 709.948 341.729 715.443 332.973C711.212 349.001 701.406 363.003 687.78 372.473C671.163 383.595 665.352 400.667 663.458 408.767C662.864 408.415 662.27 408.137 661.657 407.84Z" fill="#3C4456"/>
<path d="M662.957 408.415C673.02 392.511 689.358 387.173 687.631 377.905C685.775 368.117 695.967 362.297 694.686 368.507C693.405 374.716 701.5 378.609 698.4 374.068C695.299 369.526 698.288 367.265 698.288 367.265C712.268 363.558 727.994 376.533 727.994 376.533C727.994 376.533 707.441 370.138 691.642 381.463C679.759 389.971 669.232 403.373 664.739 409.453C664.034 409.064 663.495 408.786 662.957 408.415Z" fill="#3C4456"/>
<path d="M244.682 265.317L339.963 410.398H152.502L149.791 265.317H244.682Z" fill="url(#paint34_linear_1117_2322)"/>
<path d="M209.054 307.875C217.427 317.366 264.919 326.282 271.807 337.348C286.994 361.723 266.813 380.518 250.66 396.83C246.075 401.427 241.266 405.801 236.736 410.398H340.037L244.682 265.316C244.682 265.316 191.88 288.431 209.054 307.875Z" fill="#D9DBDF"/>
<path d="M339.963 410.398H152.502V419.555H339.963V410.398Z" fill="url(#paint35_linear_1117_2322)"/>
<path d="M335.359 419.555H157.106V518H335.359V419.555Z" fill="url(#paint36_linear_1117_2322)"/>
<path d="M262.506 392.826C263.693 393.006 264.906 392.935 266.064 392.615C267.222 392.296 268.3 391.736 269.226 390.972C271.454 388.896 301.903 365.559 301.903 365.559L246.205 355.995C246.205 355.995 239.873 385.875 262.506 392.826Z" fill="#0053A8"/>
<path d="M258.829 389.656C259.226 390.198 259.732 390.65 260.314 390.985C260.896 391.319 261.543 391.528 262.211 391.598C262.879 391.668 263.554 391.597 264.194 391.39C264.833 391.184 265.421 390.846 265.922 390.398C268.15 388.303 298.357 365.485 298.357 365.485C298.357 365.485 294.309 363.632 296.5 354.531C296.519 354.531 247.913 373.53 258.829 389.656Z" fill="url(#paint37_linear_1117_2322)"/>
<path d="M227.026 341.166L184.918 361.074C184.918 361.074 176.173 369.86 185.772 378.294L262.728 392.863C262.728 392.863 251.96 386.079 265.142 373.864L300.028 353.011L227.026 341.166Z" fill="#49A3FE"/>
<path d="M255.413 372.714C257.401 372.986 259.419 372.51 261.076 371.38C263.137 369.841 291.858 351.787 291.858 351.787L245.592 343.761C245.592 343.761 237.571 367.506 255.413 372.714Z" fill="#697182"/>
<path d="M252.777 370.36C253.108 370.779 253.521 371.127 253.99 371.383C254.46 371.639 254.976 371.797 255.508 371.849C256.04 371.901 256.578 371.845 257.088 371.685C257.598 371.525 258.07 371.263 258.477 370.916C260.538 369.359 288.906 351.676 288.906 351.676C288.906 351.676 285.806 350.175 289.278 342.667C289.259 342.667 245.35 357.978 252.777 370.36Z" fill="url(#paint38_linear_1117_2322)"/>
<path d="M230.071 330.841L192.084 347.765C192.084 347.765 184.528 354.92 192.716 361.63L255.58 372.751C255.58 372.751 247.504 367.673 259.776 358.275L292.545 341.388L230.071 330.841Z" fill="#C4C8CD"/>
<g style="mix-blend-mode:multiply">
<path style="mix-blend-mode:multiply" d="M241.637 332.788C242.844 348.896 226.395 350.508 223.777 351.528C218.467 353.604 213.175 364.633 234.062 368.933L255.617 372.751C255.617 372.751 247.541 367.673 259.813 358.275L292.583 341.388L241.637 332.788Z" fill="url(#paint39_linear_1117_2322)"/>
</g>
<path d="M197.079 262.443H167.856L170.734 283.148C170.734 285.836 175.969 288.005 182.449 288.005C188.928 288.005 194.164 285.836 194.183 283.148L197.079 262.443Z" fill="#0078EF"/>
<path style="mix-blend-mode:multiply" d="M186.607 276.475C181.531 279.014 176.145 280.884 170.585 282.036L170.733 283.074C170.733 285.762 175.969 287.931 182.449 287.931C188.928 287.931 194.164 285.762 194.182 283.074L196.039 269.265C193.41 272.274 190.203 274.726 186.607 276.475Z" fill="url(#paint40_linear_1117_2322)"/>
<path d="M182.449 258.273C190.506 258.273 197.06 260.126 197.06 262.462C197.06 264.798 190.506 266.633 182.449 266.633C174.391 266.633 167.856 264.779 167.856 262.462C167.856 260.145 174.391 258.273 182.449 258.273Z" fill="#49A3FE"/>
<path d="M182.449 258.792C189.987 258.792 196.095 260.423 196.095 262.499C196.095 264.575 189.987 266.206 182.449 266.206C174.911 266.206 168.803 264.575 168.803 262.499C168.803 260.423 174.911 258.792 182.449 258.792Z" fill="#414A5C"/>
</g>
<defs>
<linearGradient id="paint0_linear_1117_2322" x1="579.465" y1="23.3098" x2="579.465" y2="191.617" gradientUnits="userSpaceOnUse">
<stop stop-color="white"/>
<stop offset="1" stop-color="#D8DCDF"/>
</linearGradient>
<linearGradient id="paint1_linear_1117_2322" x1="579.67" y1="25.4229" x2="579.67" y2="187.076" gradientUnits="userSpaceOnUse">
<stop stop-color="white"/>
<stop offset="1" stop-color="#D8DCDF"/>
</linearGradient>
<linearGradient id="paint2_linear_1117_2322" x1="579.67" y1="29.7048" x2="579.67" y2="185.092" gradientUnits="userSpaceOnUse">
<stop stop-color="white"/>
<stop offset="1" stop-color="#D8DCDF"/>
</linearGradient>
<linearGradient id="paint3_linear_1117_2322" x1="658.891" y1="16.47" x2="658.891" y2="194.861" gradientUnits="userSpaceOnUse">
<stop stop-color="white"/>
<stop offset="1" stop-color="#D8DCDF"/>
</linearGradient>
<linearGradient id="paint4_linear_1117_2322" x1="642.293" y1="23.2728" x2="642.293" y2="190.635" gradientUnits="userSpaceOnUse">
<stop stop-color="white"/>
<stop offset="1" stop-color="#D8DCDF"/>
</linearGradient>
<linearGradient id="paint5_linear_1117_2322" x1="675.879" y1="23.2728" x2="675.879" y2="190.635" gradientUnits="userSpaceOnUse">
<stop stop-color="white"/>
<stop offset="1" stop-color="#D8DCDF"/>
</linearGradient>
<linearGradient id="paint6_linear_1117_2322" x1="659.039" y1="23.2728" x2="659.039" y2="190.987" gradientUnits="userSpaceOnUse">
<stop stop-color="white"/>
<stop offset="1" stop-color="#D8DCDF"/>
</linearGradient>
<linearGradient id="paint7_linear_1117_2322" x1="307.398" y1="228.133" x2="443.604" y2="322.632" gradientUnits="userSpaceOnUse">
<stop stop-color="white"/>
<stop offset="1" stop-color="#697182"/>
</linearGradient>
<linearGradient id="paint8_linear_1117_2322" x1="558.152" y1="287.949" x2="592.684" y2="287.949" gradientUnits="userSpaceOnUse">
<stop stop-color="white"/>
<stop offset="1" stop-color="#697182"/>
</linearGradient>
<linearGradient id="paint9_linear_1117_2322" x1="319.169" y1="228.967" x2="523.386" y2="370.614" gradientUnits="userSpaceOnUse">
<stop stop-color="white"/>
<stop offset="1" stop-color="#697182"/>
</linearGradient>
<linearGradient id="paint10_linear_1117_2322" x1="351.214" y1="182.738" x2="555.449" y2="324.404" gradientUnits="userSpaceOnUse">
<stop stop-color="white"/>
<stop offset="1" stop-color="#697182"/>
</linearGradient>
<linearGradient id="paint11_linear_1117_2322" x1="475.458" y1="245.057" x2="502.835" y2="140.844" gradientUnits="userSpaceOnUse">
<stop stop-color="white"/>
<stop offset="1" stop-color="#D8DCDF"/>
</linearGradient>
<linearGradient id="paint12_linear_1117_2322" x1="615.781" y1="281.906" x2="643.157" y2="177.712" gradientUnits="userSpaceOnUse">
<stop stop-color="white"/>
<stop offset="1" stop-color="#D8DCDF"/>
</linearGradient>
<linearGradient id="paint13_linear_1117_2322" x1="730.556" y1="435.959" x2="657.023" y2="314.758" gradientUnits="userSpaceOnUse">
<stop stop-color="white"/>
<stop offset="1"/>
</linearGradient>
<linearGradient id="paint14_linear_1117_2322" x1="380.159" y1="183.647" x2="404.506" y2="240.636" gradientUnits="userSpaceOnUse">
<stop stop-color="white"/>
<stop offset="1" stop-color="#697182"/>
</linearGradient>
<linearGradient id="paint15_linear_1117_2322" x1="403.589" y1="377.2" x2="396.276" y2="359.082" gradientUnits="userSpaceOnUse">
<stop stop-color="white"/>
<stop offset="1" stop-color="#46495F"/>
</linearGradient>
<linearGradient id="paint16_linear_1117_2322" x1="356.208" y1="399.221" x2="356.208" y2="377.089" gradientUnits="userSpaceOnUse">
<stop stop-color="white"/>
<stop offset="1" stop-color="#46495F"/>
</linearGradient>
<linearGradient id="paint17_linear_1117_2322" x1="361.704" y1="335.92" x2="459.979" y2="256.857" gradientUnits="userSpaceOnUse">
<stop stop-color="white"/>
<stop offset="1" stop-color="#0057A8"/>
</linearGradient>
<linearGradient id="paint18_linear_1117_2322" x1="409.586" y1="228.244" x2="312.04" y2="228.244" gradientUnits="userSpaceOnUse">
<stop stop-color="white"/>
<stop offset="1"/>
</linearGradient>
<linearGradient id="paint19_linear_1117_2322" x1="406.931" y1="226.187" x2="386.026" y2="226.187" gradientUnits="userSpaceOnUse">
<stop stop-color="white"/>
<stop offset="1" stop-color="#697182"/>
</linearGradient>
<linearGradient id="paint20_linear_1117_2322" x1="398.019" y1="214.064" x2="382.746" y2="229.752" gradientUnits="userSpaceOnUse">
<stop stop-color="white"/>
<stop offset="1" stop-color="#C4C8CD"/>
</linearGradient>
<linearGradient id="paint21_linear_1117_2322" x1="393.749" y1="227.318" x2="312.04" y2="227.318" gradientUnits="userSpaceOnUse">
<stop stop-color="white"/>
<stop offset="1" stop-color="#697182"/>
</linearGradient>
<linearGradient id="paint22_linear_1117_2322" x1="304.446" y1="178.846" x2="299.207" y2="165.698" gradientUnits="userSpaceOnUse">
<stop stop-color="white"/>
<stop offset="1" stop-color="#697182"/>
</linearGradient>
<linearGradient id="paint23_linear_1117_2322" x1="275.687" y1="157.288" x2="275.687" y2="220.533" gradientUnits="userSpaceOnUse">
<stop stop-color="white"/>
<stop offset="1"/>
</linearGradient>
<linearGradient id="paint24_linear_1117_2322" x1="328.137" y1="157.288" x2="328.137" y2="220.533" gradientUnits="userSpaceOnUse">
<stop stop-color="white"/>
<stop offset="1"/>
</linearGradient>
<linearGradient id="paint25_linear_1117_2322" x1="301.012" y1="157.288" x2="301.012" y2="220.533" gradientUnits="userSpaceOnUse">
<stop stop-color="white"/>
<stop offset="1"/>
</linearGradient>
<linearGradient id="paint26_linear_1117_2322" x1="505.201" y1="257.754" x2="479.025" y2="219.141" gradientUnits="userSpaceOnUse">
<stop stop-color="white"/>
<stop offset="1" stop-color="#46495F"/>
</linearGradient>
<linearGradient id="paint27_linear_1117_2322" x1="434.112" y1="128.706" x2="417.213" y2="118.227" gradientUnits="userSpaceOnUse">
<stop stop-color="white"/>
<stop offset="1" stop-color="#BA654B"/>
</linearGradient>
<linearGradient id="paint28_linear_1117_2322" x1="389.529" y1="116.17" x2="398.659" y2="100.471" gradientUnits="userSpaceOnUse">
<stop stop-color="white"/>
<stop offset="1" stop-color="#BA654B"/>
</linearGradient>
<linearGradient id="paint29_linear_1117_2322" x1="446.235" y1="238.31" x2="469.855" y2="153.876" gradientUnits="userSpaceOnUse">
<stop stop-color="white"/>
<stop offset="1" stop-color="#C4C8CD"/>
</linearGradient>
<linearGradient id="paint30_linear_1117_2322" x1="656.05" y1="442.521" x2="660.641" y2="421.813" gradientUnits="userSpaceOnUse">
<stop stop-color="white"/>
<stop offset="1" stop-color="#D8DCDF"/>
</linearGradient>
<linearGradient id="paint31_linear_1117_2322" x1="633.103" y1="413.253" x2="673.131" y2="413.253" gradientUnits="userSpaceOnUse">
<stop stop-color="white"/>
<stop offset="1" stop-color="#D8DCDF"/>
</linearGradient>
<linearGradient id="paint32_linear_1117_2322" x1="633.103" y1="419.129" x2="673.131" y2="419.129" gradientUnits="userSpaceOnUse">
<stop stop-color="white"/>
<stop offset="1" stop-color="#D8DCDF"/>
</linearGradient>
<linearGradient id="paint33_linear_1117_2322" x1="715.369" y1="407.08" x2="683.955" y2="407.08" gradientUnits="userSpaceOnUse">
<stop stop-color="white"/>
<stop offset="1" stop-color="#D8DCDF"/>
</linearGradient>
<linearGradient id="paint34_linear_1117_2322" x1="244.868" y1="390.342" x2="244.868" y2="274.436" gradientUnits="userSpaceOnUse">
<stop stop-color="white"/>
<stop offset="1" stop-color="#D8DCDF"/>
</linearGradient>
<linearGradient id="paint35_linear_1117_2322" x1="170.492" y1="414.977" x2="334.635" y2="414.977" gradientUnits="userSpaceOnUse">
<stop stop-color="white"/>
<stop offset="1" stop-color="#D8DCDF"/>
</linearGradient>
<linearGradient id="paint36_linear_1117_2322" x1="246.242" y1="516.814" x2="246.242" y2="419.833" gradientUnits="userSpaceOnUse">
<stop stop-color="white"/>
<stop offset="1" stop-color="#D8DCDF"/>
</linearGradient>
<linearGradient id="paint37_linear_1117_2322" x1="267.927" y1="380.852" x2="293.29" y2="358.661" gradientUnits="userSpaceOnUse">
<stop stop-color="white"/>
<stop offset="1" stop-color="#D8DCDF"/>
</linearGradient>
<linearGradient id="paint38_linear_1117_2322" x1="262.561" y1="364.521" x2="285.069" y2="344.837" gradientUnits="userSpaceOnUse">
<stop stop-color="white"/>
<stop offset="1" stop-color="#D8DCDF"/>
</linearGradient>
<linearGradient id="paint39_linear_1117_2322" x1="218.968" y1="352.77" x2="292.545" y2="352.77" gradientUnits="userSpaceOnUse">
<stop stop-color="white"/>
<stop offset="1" stop-color="#697182"/>
</linearGradient>
<linearGradient id="paint40_linear_1117_2322" x1="191.732" y1="278.681" x2="173.24" y2="278.681" gradientUnits="userSpaceOnUse">
<stop stop-color="white"/>
<stop offset="1" stop-color="#0057A8"/>
</linearGradient>
<clipPath id="clip0_1117_2322">
<rect width="781" height="509" fill="white"/>
</clipPath>
</defs>
</svg>
