<svg width="385" height="145" viewBox="0 0 385 145" fill="none" xmlns="http://www.w3.org/2000/svg">
<rect x="-1.33027" y="1.58745" width="14.2756" height="14.9206" transform="matrix(-0.111075 -0.993812 0.997919 -0.0644862 202.581 142.295)" stroke="#5087F7" stroke-width="3" stroke-linecap="square" stroke-linejoin="round"/>
<path d="M11.3362 55.9835C10.799 55.9776 10.2931 56.2444 10.0041 56.6861C9.71502 57.1278 9.68541 57.6794 9.92609 58.1385L28.2566 93.1019C28.5028 93.5715 28.9941 93.8728 29.5431 93.8908C30.0921 93.9088 30.6139 93.6407 30.9096 93.1889L53.4927 58.6776C53.7883 58.2258 53.8121 57.66 53.5549 57.1961C53.2977 56.7322 52.7993 56.4418 52.2498 56.4357L11.3362 55.9835Z" fill="white" fill-opacity="0.0792572" stroke="#6357F6" stroke-width="3" stroke-linejoin="round"/>
<path d="M314.175 34.1489L313.993 32.1574L311.988 32.2506L312.178 34.2485L314.175 34.1489ZM316.173 34.056L316.355 36.0476L316.355 36.0476L316.173 34.056ZM314.553 38.1314L312.556 38.2309L312.744 40.2155L314.735 40.1229L314.553 38.1314ZM316.551 38.0385L316.733 40.03L316.733 40.03L316.551 38.0385ZM346.29 36.6557L348.288 36.5562L348.099 34.5716L346.108 34.6642L346.29 36.6557ZM348.942 64.6139L350.939 64.5144L350.939 64.5144L348.942 64.6139ZM349.131 66.6051L347.133 66.7046L347.322 68.6893L349.313 68.5967L349.131 66.6051ZM353.127 66.4193L353.309 68.4108L355.314 68.3176L355.124 66.3198L353.127 66.4193ZM352.938 64.428L354.935 64.3285L354.935 64.3285L352.938 64.428ZM350.286 36.4699L350.104 34.4784L348.099 34.5716L348.289 36.5694L350.286 36.4699ZM380.025 35.0872L379.842 33.0957L380.025 35.0872ZM382.023 34.9943L382.205 36.9859L384.209 36.8927L384.02 34.8948L382.023 34.9943ZM381.645 31.0119L383.642 30.9124L383.454 28.9278L381.463 29.0204L381.645 31.0119ZM379.647 31.1048L379.465 29.1133L379.647 31.1048ZM349.909 32.4875L347.911 32.587L348.099 34.5716L350.091 34.479L349.909 32.4875ZM347.257 4.52647L349.254 4.42696L349.254 4.42696L347.257 4.52647ZM347.068 2.53525L349.065 2.43573L348.877 0.451099L346.886 0.543712L347.068 2.53525ZM343.072 2.7211L342.89 0.729558L340.885 0.822792L341.074 2.82061L343.072 2.7211ZM343.261 4.71232L345.258 4.61281L343.261 4.71232ZM345.913 32.6733L346.095 34.6648L348.099 34.5716L347.91 32.5738L345.913 32.6733ZM314.358 36.1405L316.355 36.0476L315.991 32.0645L313.993 32.1574L314.358 36.1405ZM316.55 38.0318L316.173 34.0494L312.178 34.2485L312.556 38.2309L316.55 38.0318ZM316.369 36.0469L314.371 36.1398L314.735 40.1229L316.733 40.03L316.369 36.0469ZM346.108 34.6642L316.369 36.0469L316.733 40.03L346.472 38.6473L346.108 34.6642ZM350.939 64.5144L348.288 36.5562L344.293 36.7552L346.944 64.7134L350.939 64.5144ZM351.128 66.5056L350.939 64.5144L346.944 64.7134L347.133 66.7046L351.128 66.5056ZM352.944 64.4277L348.948 64.6136L349.313 68.5967L353.309 68.4108L352.944 64.4277ZM350.94 64.5276L351.129 66.5188L355.124 66.3198L354.935 64.3285L350.94 64.5276ZM348.289 36.5694L350.94 64.5276L354.935 64.3285L352.284 36.3704L348.289 36.5694ZM379.842 33.0957L350.104 34.4784L350.468 38.4615L380.207 37.0788L379.842 33.0957ZM381.84 33.0028L379.842 33.0957L380.207 37.0788L382.205 36.9859L381.84 33.0028ZM379.647 31.1114L380.025 35.0939L384.02 34.8948L383.642 30.9124L379.647 31.1114ZM379.829 33.0963L381.827 33.0034L381.463 29.0204L379.465 29.1133L379.829 33.0963ZM350.091 34.479L379.829 33.0963L379.465 29.1133L349.726 30.496L350.091 34.479ZM345.259 4.62598L347.911 32.587L351.906 32.388L349.254 4.42696L345.259 4.62598ZM345.07 2.63477L345.259 4.62598L349.254 4.42696L349.065 2.43573L345.07 2.63477ZM343.254 4.71263L347.25 4.52679L346.886 0.543712L342.89 0.729558L343.254 4.71263ZM345.258 4.61281L345.069 2.62159L341.074 2.82061L341.263 4.81183L345.258 4.61281ZM347.91 32.5738L345.258 4.61281L341.263 4.81183L343.915 32.7728L347.91 32.5738ZM316.355 36.0476L346.095 34.6648L345.73 30.6817L315.991 32.0645L316.355 36.0476Z" fill="#5087F7"/>
</svg>
