<svg width="447" height="358" viewBox="0 0 447 358" fill="none" xmlns="http://www.w3.org/2000/svg">
<path fill-rule="evenodd" clip-rule="evenodd" d="M44.4039 243.137C68.3033 282.842 148.286 244.236 190.733 262.515C246.931 286.705 269.688 358.782 326.957 335.189C427.477 293.771 479.565 178.984 424.051 86.7274C368.538 -5.52923 215.585 -18.7885 115.063 22.6231C14.5421 64.0348 -11.111 150.874 44.4039 243.137Z" fill="#EEE5F4"/>
<path fill-rule="evenodd" clip-rule="evenodd" d="M96.5728 46.9237H429.362C439.06 46.9237 447 54.6212 447 64.0237V258.376C447 267.788 439.06 275.483 429.362 275.483H96.5728C86.8677 275.483 78.928 267.788 78.928 258.376V64.0172C78.928 54.6147 86.8677 46.9172 96.5728 46.9172V46.9237Z" fill="#DACFEB"/>
<path fill-rule="evenodd" clip-rule="evenodd" d="M124.951 179.031L204.167 138.107L242.66 153.788L282.28 103.015L321.433 140.294L360.193 88.6316L401.111 112.968L398.731 116.71L361.387 94.493L322.011 147.004L282.781 109.653L244.146 159.167L204.377 142.976L127.088 182.906L124.951 179.031Z" fill="#362D7B"/>
<path d="M138.847 212.002H113.188V259.429H138.847V212.002Z" fill="#8477BA"/>
<path d="M177.976 196.681H152.316V259.429H177.976V196.681Z" fill="#8477BA"/>
<path d="M217.104 170.671H191.443V259.427H217.104V170.671Z" fill="#8477BA"/>
<path d="M256.231 188.781H230.571V259.427H256.231V188.781Z" fill="#8477BA"/>
<path d="M295.358 140.429H269.698V259.429H295.358V140.429Z" fill="#8477BA"/>
<path d="M334.488 182.25H308.828V259.429H334.488V182.25Z" fill="#8477BA"/>
<path d="M373.614 124.604H347.954V259.429H373.614V124.604Z" fill="#8477BA"/>
<path d="M412.744 142.279H387.084V259.43H412.744V142.279Z" fill="#8477BA"/>
<path fill-rule="evenodd" clip-rule="evenodd" d="M126.013 173.542C127.53 173.541 129.013 173.977 130.274 174.794C131.535 175.611 132.518 176.772 133.099 178.131C133.679 179.489 133.831 180.984 133.535 182.426C133.239 183.869 132.508 185.193 131.435 186.233C130.362 187.273 128.996 187.98 127.508 188.267C126.02 188.553 124.478 188.405 123.077 187.842C121.676 187.279 120.479 186.325 119.637 185.102C118.795 183.879 118.346 182.441 118.347 180.971C118.348 179 119.156 177.111 120.594 175.717C122.031 174.324 123.98 173.542 126.013 173.542Z" fill="#362D7B"/>
<path fill-rule="evenodd" clip-rule="evenodd" d="M204.278 133.11C205.794 133.113 207.275 133.551 208.534 134.37C209.793 135.189 210.774 136.351 211.352 137.71C211.929 139.069 212.079 140.563 211.781 142.004C211.483 143.445 210.751 144.768 209.678 145.806C208.604 146.844 207.237 147.551 205.75 147.836C204.263 148.121 202.722 147.972 201.322 147.408C199.922 146.844 198.725 145.891 197.884 144.668C197.043 143.445 196.594 142.008 196.595 140.538C196.595 139.561 196.794 138.594 197.181 137.691C197.567 136.788 198.133 135.969 198.847 135.279C199.56 134.589 200.408 134.042 201.34 133.67C202.271 133.297 203.27 133.107 204.278 133.11Z" fill="#362D7B"/>
<path fill-rule="evenodd" clip-rule="evenodd" d="M243.404 149.044C244.921 149.045 246.403 149.481 247.664 150.299C248.925 151.117 249.907 152.278 250.487 153.637C251.067 154.996 251.218 156.491 250.921 157.934C250.625 159.376 249.894 160.7 248.82 161.74C247.747 162.779 246.38 163.486 244.892 163.773C243.404 164.059 241.862 163.91 240.461 163.347C239.06 162.783 237.863 161.83 237.021 160.606C236.179 159.383 235.73 157.945 235.731 156.474C235.731 155.498 235.929 154.531 236.314 153.628C236.7 152.726 237.265 151.906 237.977 151.216C238.69 150.526 239.536 149.979 240.467 149.606C241.399 149.233 242.396 149.042 243.404 149.044Z" fill="#362D7B"/>
<path fill-rule="evenodd" clip-rule="evenodd" d="M282.533 98.8987C284.05 98.8993 285.532 99.336 286.793 100.154C288.054 100.971 289.036 102.133 289.616 103.492C290.196 104.85 290.347 106.345 290.051 107.788C289.754 109.23 289.023 110.554 287.95 111.594C286.877 112.633 285.51 113.341 284.022 113.627C282.535 113.913 280.993 113.765 279.592 113.202C278.19 112.638 276.993 111.685 276.151 110.462C275.309 109.239 274.86 107.801 274.86 106.331C274.86 105.354 275.058 104.387 275.443 103.484C275.829 102.582 276.394 101.762 277.106 101.072C277.819 100.381 278.665 99.8341 279.596 99.4612C280.528 99.0884 281.525 98.8972 282.533 98.8987Z" fill="#362D7B"/>
<path fill-rule="evenodd" clip-rule="evenodd" d="M321.719 136.214C323.235 136.215 324.718 136.651 325.979 137.469C327.24 138.286 328.222 139.448 328.802 140.807C329.382 142.166 329.533 143.661 329.236 145.103C328.94 146.546 328.208 147.87 327.135 148.91C326.062 149.949 324.695 150.656 323.207 150.942C321.719 151.229 320.177 151.08 318.776 150.517C317.375 149.953 316.178 148.999 315.336 147.776C314.494 146.553 314.045 145.115 314.046 143.644C314.046 142.668 314.245 141.701 314.631 140.799C315.016 139.897 315.582 139.078 316.294 138.388C317.007 137.698 317.852 137.151 318.783 136.778C319.714 136.405 320.711 136.213 321.719 136.214Z" fill="#362D7B"/>
<path fill-rule="evenodd" clip-rule="evenodd" d="M360.788 84.1237C362.304 84.1246 363.786 84.5613 365.046 85.3785C366.306 86.1956 367.288 87.3566 367.868 88.7147C368.448 90.0728 368.599 91.5671 368.303 93.0086C368.007 94.4501 367.277 95.7742 366.205 96.8135C365.133 97.8528 363.767 98.5607 362.28 98.8476C360.793 99.1346 359.252 98.9878 357.851 98.4258C356.45 97.8638 355.253 96.9118 354.41 95.6901C353.567 94.4684 353.116 93.0318 353.115 91.562C353.115 90.585 353.313 89.6175 353.698 88.7147C354.083 87.812 354.649 86.9917 355.361 86.3009C356.074 85.6101 356.92 85.0622 357.851 84.6886C358.782 84.315 359.78 84.123 360.788 84.1237Z" fill="#362D7B"/>
<path fill-rule="evenodd" clip-rule="evenodd" d="M399.917 107.399C401.434 107.4 402.916 107.836 404.177 108.654C405.437 109.471 406.42 110.632 407 111.991C407.58 113.349 407.732 114.844 407.436 116.286C407.14 117.728 406.409 119.052 405.337 120.092C404.264 121.131 402.898 121.84 401.411 122.127C399.924 122.413 398.382 122.267 396.981 121.704C395.579 121.142 394.381 120.189 393.539 118.967C392.696 117.745 392.245 116.308 392.245 114.838C392.247 112.866 393.057 110.975 394.495 109.581C395.933 108.186 397.883 107.402 399.917 107.399Z" fill="#362D7B"/>
<path fill-rule="evenodd" clip-rule="evenodd" d="M305.14 26.4216C308.083 27.1178 311.328 26.0977 312.378 24.1742C313.429 22.2506 311.904 20.1084 308.96 19.4122C248.616 5.23908 192.125 6.4216 139.487 22.9598C136.678 23.8406 135.479 26.0653 136.837 27.908C138.195 29.7506 141.557 30.544 144.367 29.655C194.137 14.0268 247.728 12.9512 305.14 26.428V26.4216ZM267.472 34.0867C270.565 34.3539 273.403 32.9225 273.819 30.8921C274.234 28.8616 272.05 26.9883 268.957 26.7211C252.545 25.3059 236.89 24.5628 221.93 24.7652C206.828 24.974 192.41 26.1625 178.632 28.6204C175.625 29.1644 173.847 31.2111 174.665 33.1897C175.483 35.1683 178.592 36.3341 181.603 35.7917C194.436 33.4973 207.947 32.3914 222.173 32.1955C236.536 32.0012 251.634 32.7201 267.48 34.0867H267.472Z" fill="white"/>
<path fill-rule="evenodd" clip-rule="evenodd" d="M191.176 310.393C191.919 310.928 193.034 310.976 193.669 310.499C194.304 310.021 194.22 309.203 193.477 308.671C178.274 297.701 161.596 291.851 143.442 291.119C142.473 291.086 141.748 291.629 141.833 292.348C141.919 293.067 142.765 293.666 143.732 293.706C160.895 294.402 176.709 299.965 191.176 310.393ZM178.892 308.599C179.749 309.019 180.817 308.891 181.277 308.316C181.736 307.741 181.427 306.925 180.567 306.504C176.023 304.273 171.578 302.317 167.183 300.742C162.875 299.16 158.428 297.961 153.897 297.16C152.931 296.998 152.06 297.425 151.973 298.122C151.886 298.818 152.581 299.511 153.548 299.681C157.686 300.385 161.813 301.533 166 303.036C170.221 304.556 174.496 306.436 178.892 308.599Z" fill="#D2C9E9"/>
<path fill-rule="evenodd" clip-rule="evenodd" d="M162.056 99.5821L222.589 81.0524L232.012 109.987L171.47 128.51L162.056 99.5821Z" fill="#7668BA"/>
<path fill-rule="evenodd" clip-rule="evenodd" d="M167.839 100.414L218.335 84.9562C218.441 85.2849 218.614 85.5901 218.842 85.8542C219.07 86.1183 219.349 86.3363 219.664 86.4956C219.979 86.6548 220.324 86.7523 220.678 86.7824C221.032 86.8124 221.388 86.7745 221.727 86.6708L227.974 105.863C227.292 106.073 226.724 106.536 226.394 107.152C226.064 107.767 225.999 108.484 226.213 109.146L175.72 124.604C175.614 124.276 175.442 123.972 175.214 123.708C174.986 123.445 174.707 123.228 174.392 123.069C174.078 122.91 173.734 122.814 173.38 122.784C173.027 122.755 172.671 122.793 172.333 122.898L166.079 103.698C166.761 103.488 167.329 103.024 167.659 102.409C167.989 101.793 168.054 101.076 167.839 100.414Z" fill="#B9ACDC"/>
<path fill-rule="evenodd" clip-rule="evenodd" d="M193.862 95.0545C195.846 94.4462 197.972 94.4224 199.971 94.9858C201.97 95.5493 203.751 96.6749 205.09 98.2201C206.429 99.7653 207.264 101.661 207.492 103.667C207.719 105.672 207.328 107.699 206.367 109.489C205.407 111.279 203.92 112.753 202.095 113.724C200.27 114.694 198.19 115.119 196.116 114.943C194.042 114.767 192.069 113.999 190.446 112.736C188.823 111.472 187.623 109.771 186.997 107.846C186.16 105.267 186.412 102.471 187.699 100.073C188.986 97.6744 191.203 95.8694 193.862 95.0545Z" fill="#7668BA"/>
<path fill-rule="evenodd" clip-rule="evenodd" d="M177.424 108.096C177.923 107.943 178.457 107.937 178.959 108.079C179.462 108.221 179.91 108.504 180.246 108.893C180.582 109.281 180.792 109.758 180.849 110.262C180.906 110.766 180.808 111.276 180.566 111.726C180.325 112.176 179.951 112.546 179.492 112.79C179.034 113.034 178.511 113.141 177.989 113.097C177.468 113.053 176.972 112.86 176.564 112.542C176.156 112.225 175.854 111.797 175.697 111.313C175.486 110.664 175.549 109.961 175.873 109.358C176.197 108.754 176.755 108.3 177.424 108.096ZM215.043 96.5832C215.542 96.4306 216.077 96.4248 216.579 96.5667C217.081 96.7085 217.529 96.9916 217.866 97.3802C218.202 97.7687 218.412 98.2453 218.469 98.7495C218.526 99.2538 218.428 99.7631 218.186 100.213C217.944 100.663 217.571 101.034 217.112 101.278C216.653 101.522 216.13 101.628 215.609 101.584C215.088 101.54 214.592 101.347 214.184 101.03C213.775 100.712 213.474 100.284 213.316 99.8006C213.211 99.4794 213.172 99.1413 213.202 98.8056C213.232 98.4699 213.33 98.1432 213.491 97.8443C213.651 97.5454 213.871 97.2801 214.137 97.0637C214.404 96.8473 214.712 96.684 215.043 96.5832Z" fill="#7668BA"/>
<path fill-rule="evenodd" clip-rule="evenodd" d="M198.464 98.7642C197.649 98.6366 196.815 98.6863 196.022 98.9099L195.494 97.2908L193.953 97.7668L194.519 99.5074C192.967 100.379 192.348 101.842 192.849 103.338C193.35 104.873 194.686 105.335 196.443 105.57C198.093 105.732 198.781 106.078 199.028 106.865C199.279 107.624 198.92 108.385 197.784 108.733C196.891 108.993 195.943 109.023 195.033 108.821L195.117 110.673C196.061 110.837 197.032 110.792 197.956 110.542L198.522 112.283L200.066 111.812L199.456 109.946C201.126 109.072 201.757 107.503 201.25 105.944C200.734 104.358 199.606 103.769 197.487 103.525C196.054 103.306 195.236 103.089 195.002 102.391C194.811 101.802 195.144 101.01 196.196 100.686C196.956 100.475 197.757 100.439 198.534 100.583L198.464 98.7642Z" fill="#B9ACDC"/>
<path fill-rule="evenodd" clip-rule="evenodd" d="M217.845 24.3524L287.477 37.9259L280.581 71.2111L210.937 57.636L217.845 24.3524Z" fill="#7668BA"/>
<path fill-rule="evenodd" clip-rule="evenodd" d="M223.056 28.2012L281.139 39.5353C280.982 40.2962 281.144 41.0864 281.587 41.7322C282.031 42.3779 282.721 42.8265 283.506 42.9793L278.93 65.0581C278.144 64.9039 277.328 65.0582 276.66 65.4872C275.992 65.9162 275.527 66.5848 275.367 67.3459L217.286 56.0264C217.442 55.2651 217.28 54.475 216.835 53.8293C216.391 53.1837 215.701 52.7353 214.916 52.5825L219.495 30.4955C219.885 30.5716 220.285 30.5725 220.675 30.4982C221.065 30.424 221.436 30.276 221.766 30.0628C222.097 29.8496 222.381 29.5753 222.602 29.2556C222.824 28.9359 222.978 28.5771 223.056 28.1996V28.2012Z" fill="#B9ACDC"/>
<path fill-rule="evenodd" clip-rule="evenodd" d="M251.534 36.5835C253.818 37.0277 255.916 38.1186 257.56 39.7184C259.205 41.3181 260.323 43.3549 260.774 45.5709C261.224 47.787 260.987 50.0828 260.091 52.1679C259.196 54.2531 257.683 56.034 255.743 57.2852C253.803 58.5365 251.525 59.202 249.195 59.1975C246.865 59.193 244.589 58.5187 242.655 57.26C240.72 56.0012 239.214 54.2145 238.327 52.1259C237.441 50.0373 237.213 47.7405 237.672 45.5263C238.289 42.5594 240.096 39.9513 242.695 38.2746C245.294 36.5979 248.473 35.9897 251.534 36.5835Z" fill="#7668BA"/>
<path fill-rule="evenodd" clip-rule="evenodd" d="M228.159 40.7479C228.734 40.8593 229.261 41.1334 229.675 41.5354C230.088 41.9375 230.37 42.4495 230.483 43.0066C230.597 43.5638 230.537 44.141 230.312 44.6654C230.087 45.1897 229.707 45.6376 229.219 45.9524C228.732 46.2671 228.159 46.4346 227.573 46.4336C226.987 46.4326 226.415 46.2632 225.929 45.9469C225.442 45.6305 225.063 45.1813 224.84 44.6562C224.617 44.1311 224.56 43.5536 224.675 42.9969C224.832 42.2518 225.286 41.597 225.939 41.1756C226.591 40.7542 227.39 40.6004 228.159 40.7479ZM271.432 49.1804C272.006 49.2923 272.532 49.5667 272.945 49.9687C273.358 50.3707 273.639 50.8824 273.752 51.4391C273.865 51.9958 273.805 52.5725 273.58 53.0962C273.355 53.62 272.975 54.0673 272.488 54.3817C272.001 54.696 271.428 54.8633 270.843 54.8623C270.258 54.8613 269.686 54.6922 269.2 54.3762C268.714 54.0602 268.335 53.6116 268.112 53.0871C267.889 52.5626 267.831 51.9857 267.946 51.4294C268.102 50.6834 268.556 50.0275 269.209 49.6058C269.863 49.1841 270.662 49.0311 271.432 49.1804Z" fill="#7668BA"/>
<path fill-rule="evenodd" clip-rule="evenodd" d="M253.97 42.6327C253.243 42.0796 252.396 41.6923 251.493 41.4993L251.877 39.6389L250.109 39.2924L249.691 41.2888C247.687 41.3357 246.266 42.4449 245.915 44.166C245.546 45.9374 246.606 47.0935 248.191 48.2415C249.708 49.2681 250.196 49.9643 250 50.8613C249.805 51.7583 249.048 52.3007 247.739 52.0401C246.718 51.8272 245.773 51.3594 244.996 50.6832L244.046 52.5436C244.646 53.0682 245.755 53.643 246.907 53.9102L246.488 55.9066L248.265 56.2548L248.707 54.111C250.834 54.1272 252.327 52.9144 252.694 51.1285C253.077 49.302 252.303 48.1282 250.356 46.7859C249.063 45.8257 248.387 45.178 248.554 44.3765C248.704 43.69 249.464 43.0909 250.673 43.3257C251.536 43.5135 252.341 43.8957 253.023 44.4413L253.97 42.6327Z" fill="#B9ACDC"/>
<path fill-rule="evenodd" clip-rule="evenodd" d="M373.722 43.4973L438.733 56.1657L432.288 87.2407L367.283 74.5724L373.722 43.4973Z" fill="#7668BA"/>
<path fill-rule="evenodd" clip-rule="evenodd" d="M378.592 47.095L432.814 57.6616C432.74 58.0132 432.739 58.3755 432.81 58.7276C432.881 59.0797 433.023 59.4148 433.227 59.7138C433.432 60.0127 433.695 60.2696 434.002 60.4698C434.309 60.67 434.654 60.8096 435.017 60.8805L430.746 81.4974C430.383 81.4266 430.01 81.4258 429.646 81.4952C429.283 81.5645 428.937 81.7026 428.629 81.9016C428.321 82.1005 428.056 82.3564 427.85 82.6546C427.644 82.9529 427.5 83.2875 427.428 83.6395L373.207 73.0647C373.353 72.3533 373.202 71.6147 372.788 71.0109C372.373 70.4072 371.728 69.9876 370.994 69.8442L375.268 49.2387C376.003 49.3823 376.766 49.2371 377.39 48.8351C378.015 48.4331 378.449 47.8072 378.597 47.095H378.592Z" fill="#B9ACDC"/>
<path fill-rule="evenodd" clip-rule="evenodd" d="M405.163 54.9141C407.294 55.3293 409.251 56.3481 410.785 57.8414C412.32 59.3347 413.363 61.2356 413.783 63.3036C414.203 65.3716 413.981 67.514 413.145 69.4597C412.309 71.4054 410.897 73.0672 409.087 74.2349C407.277 75.4025 405.15 76.0236 402.976 76.0196C400.802 76.0156 398.678 75.3867 396.873 74.2124C395.067 73.0382 393.662 71.3712 392.833 69.4224C392.005 67.4736 391.792 65.3305 392.22 63.264C392.796 60.4937 394.482 58.0583 396.909 56.4927C399.336 54.9271 402.305 54.3593 405.163 54.9141Z" fill="#7668BA"/>
<path fill-rule="evenodd" clip-rule="evenodd" d="M383.356 58.8014C383.893 58.9052 384.385 59.1608 384.772 59.5361C385.158 59.9113 385.422 60.3892 385.528 60.9094C385.634 61.4296 385.579 61.9687 385.37 62.4585C385.16 62.9484 384.805 63.367 384.35 63.6614C383.895 63.9557 383.36 64.1127 382.813 64.1124C382.266 64.1121 381.732 63.9545 381.277 63.6596C380.823 63.3648 380.468 62.9458 380.259 62.4557C380.05 61.9656 379.996 61.4265 380.103 60.9064C380.173 60.5606 380.313 60.2316 380.514 59.9384C380.716 59.6452 380.976 59.3935 381.278 59.1979C381.58 59.0022 381.92 58.8665 382.276 58.7985C382.633 58.7304 383 58.7314 383.356 58.8014ZM423.748 66.6772C424.284 66.7819 424.775 67.0382 425.16 67.4137C425.545 67.7892 425.806 68.2669 425.911 68.7865C426.016 69.3061 425.96 69.8442 425.75 70.3327C425.539 70.8213 425.184 71.2383 424.729 71.5311C424.274 71.8238 423.739 71.9791 423.193 71.9774C422.647 71.9757 422.114 71.8169 421.661 71.5213C421.208 71.2256 420.855 70.8063 420.648 70.3165C420.441 69.8266 420.388 69.2881 420.496 68.7692C420.642 68.0741 421.066 67.4635 421.676 67.0713C422.286 66.6791 423.031 66.5373 423.748 66.6772Z" fill="#7668BA"/>
<path fill-rule="evenodd" clip-rule="evenodd" d="M407.448 60.5647C406.771 60.0455 405.98 59.6833 405.137 59.5058L405.498 57.7716L403.846 57.4478L403.455 59.3163C401.588 59.3568 400.258 60.3996 399.926 62.0009C399.584 63.6574 400.577 64.7325 402.06 65.8061C403.478 66.763 403.921 67.4091 403.746 68.2511C403.579 69.0607 402.854 69.5934 401.635 69.3489C400.683 69.1509 399.801 68.7162 399.076 68.0875L398.184 69.8185C398.964 70.4325 399.878 70.8666 400.856 71.0879L400.472 72.9548L402.132 73.2787L402.541 71.2806C404.527 71.2968 405.92 70.165 406.269 68.4972C406.618 66.7922 405.893 65.7024 404.085 64.4395C402.882 63.5424 402.248 62.945 402.415 62.1936C402.546 61.546 403.25 60.9954 404.39 61.2221C405.195 61.4004 405.945 61.7573 406.583 62.2649L407.448 60.5647Z" fill="#B9ACDC"/>
<path fill-rule="evenodd" clip-rule="evenodd" d="M291.239 59.4412L348.579 27.1698L364.99 54.5773L307.651 86.8503L291.239 59.4412Z" fill="#7668BA"/>
<path fill-rule="evenodd" clip-rule="evenodd" d="M297.344 59.0122L345.168 32.0903C345.354 32.4017 345.601 32.6744 345.896 32.8929C346.191 33.1114 346.527 33.2714 346.886 33.3637C347.244 33.456 347.618 33.4789 347.986 33.431C348.354 33.3831 348.708 33.2653 349.029 33.0845L359.913 51.2661C359.268 51.6309 358.798 52.2293 358.607 52.9298C358.416 53.6302 358.52 54.3753 358.896 55.0015L311.06 81.925C310.686 81.2984 310.07 80.8416 309.348 80.6552C308.626 80.4687 307.857 80.5679 307.211 80.9309L296.316 62.746C296.637 62.5668 296.919 62.3279 297.144 62.043C297.369 61.7581 297.535 61.4329 297.63 61.086C297.725 60.739 297.749 60.3773 297.7 60.0214C297.651 59.6655 297.53 59.3226 297.344 59.0122Z" fill="#B9ACDC"/>
<path fill-rule="evenodd" clip-rule="evenodd" d="M322.596 47.7897C324.476 46.7321 326.638 46.2387 328.807 46.3719C330.977 46.5051 333.057 47.259 334.784 48.5382C336.512 49.8173 337.81 51.5644 338.513 53.5585C339.217 55.5526 339.295 57.7041 338.737 59.7412C338.18 61.7782 337.012 63.6093 335.381 65.0029C333.75 66.3965 331.73 67.29 329.576 67.5706C327.421 67.8511 325.229 67.506 323.277 66.579C321.325 65.6519 319.7 64.1845 318.608 62.3623C317.144 59.9169 316.742 57.0082 317.49 54.2755C318.238 51.5428 320.074 49.21 322.596 47.7897Z" fill="#7668BA"/>
<path fill-rule="evenodd" clip-rule="evenodd" d="M308.91 64.7196C309.383 64.4535 309.926 64.3293 310.472 64.3627C311.017 64.3961 311.54 64.5855 311.975 64.9071C312.409 65.2286 312.736 65.6679 312.913 66.1692C313.09 66.6706 313.11 67.2116 312.97 67.7239C312.829 68.2361 312.536 68.6965 312.126 69.047C311.716 69.3975 311.208 69.6223 310.666 69.6929C310.124 69.7635 309.573 69.6768 309.082 69.4438C308.591 69.2108 308.183 68.8419 307.908 68.3837C307.726 68.0794 307.607 67.7431 307.558 67.3942C307.51 67.0453 307.533 66.6906 307.626 66.3503C307.719 66.0101 307.88 65.6909 308.101 65.4111C308.321 65.1313 308.596 64.8963 308.91 64.7196ZM344.539 44.6566C345.011 44.3909 345.555 44.2669 346.1 44.3004C346.645 44.3339 347.167 44.5233 347.602 44.8447C348.036 45.1662 348.362 45.6052 348.539 46.1062C348.715 46.6073 348.735 47.1479 348.595 47.6597C348.455 48.1716 348.162 48.6317 347.752 48.9819C347.342 49.3322 346.834 49.5568 346.293 49.6273C345.752 49.6979 345.201 49.6113 344.71 49.3784C344.22 49.1456 343.811 48.7769 343.537 48.3191C343.354 48.015 343.235 47.6789 343.186 47.33C343.138 46.9811 343.16 46.6264 343.254 46.2861C343.347 45.9459 343.508 45.6268 343.729 45.3472C343.949 45.0675 344.225 44.8328 344.539 44.6566Z" fill="#7668BA"/>
<path fill-rule="evenodd" clip-rule="evenodd" d="M328.157 50.5635C327.296 50.6091 326.458 50.8438 325.705 51.2501L324.787 49.7151L323.325 50.5392L324.311 52.1876C322.946 53.4262 322.66 55.0519 323.511 56.467C324.379 57.9243 325.849 58.0991 327.706 57.9453C329.416 57.751 330.199 57.9453 330.632 58.6885C331.065 59.4317 330.881 60.2656 329.814 60.8728C328.959 61.332 327.998 61.5737 327.021 61.5755L327.546 63.4424C328.55 63.4016 329.532 63.1391 330.417 62.6749L331.402 64.3232L332.86 63.4991L331.808 61.7374C333.301 60.4745 333.576 58.7387 332.693 57.2637C331.793 55.7627 330.5 55.4065 328.29 55.6251C326.772 55.7287 325.889 55.6817 325.486 55.0179C325.152 54.4512 325.304 53.58 326.303 53.0133C327.026 52.631 327.831 52.4175 328.655 52.39L328.157 50.5635Z" fill="#B9ACDC"/>
<path fill-rule="evenodd" clip-rule="evenodd" d="M341.991 291.613C318.691 291.613 299.802 295.745 299.802 300.842C299.802 305.939 318.691 310.058 341.991 310.058C365.291 310.058 384.17 305.928 384.17 300.842C384.17 295.756 365.282 291.613 341.991 291.613Z" fill="#998CCE"/>
<path fill-rule="evenodd" clip-rule="evenodd" d="M347.895 262.863C324.595 262.863 305.708 266.995 305.708 272.079C305.708 277.163 324.595 281.308 347.895 281.308C371.195 281.308 390.076 277.176 390.076 272.079C390.076 266.982 371.189 262.863 347.895 262.863Z" fill="#998CCE"/>
<path fill-rule="evenodd" clip-rule="evenodd" d="M350.205 279.22C326.905 279.22 308.016 283.35 308.016 288.436C308.016 293.522 326.905 297.652 350.205 297.652C373.505 297.652 392.387 293.528 392.387 288.436C392.387 283.344 373.498 279.22 350.205 279.22Z" fill="#998CCE"/>
<path fill-rule="evenodd" clip-rule="evenodd" d="M356.101 250.47C332.808 250.47 313.921 254.592 313.921 259.686C313.921 264.78 332.808 268.91 356.101 268.91C379.395 268.91 398.29 264.786 398.29 259.694C398.29 254.602 379.4 250.478 356.101 250.478V250.47Z" fill="#998CCE"/>
<path fill-rule="evenodd" clip-rule="evenodd" d="M341.991 320.452C318.691 320.452 299.802 316.328 299.802 311.235V300.837C299.802 305.923 318.691 310.053 341.991 310.053C365.291 310.053 384.17 305.923 384.17 300.837V311.235C384.17 316.328 365.282 320.452 341.991 320.452Z" fill="#443796"/>
<path fill-rule="evenodd" clip-rule="evenodd" d="M347.889 291.702C324.595 291.702 305.708 287.578 305.708 282.486V272.079C305.708 277.173 324.595 281.309 347.889 281.309C371.182 281.309 390.076 277.176 390.076 272.079V282.486C390.076 287.578 371.189 291.702 347.889 291.702Z" fill="#443796"/>
<path fill-rule="evenodd" clip-rule="evenodd" d="M350.197 308.057C326.905 308.057 308.016 303.935 308.016 298.841V288.436C308.016 293.528 326.905 297.652 350.197 297.652C373.488 297.652 392.387 293.528 392.387 288.436V298.841C392.387 303.935 373.498 308.057 350.197 308.057Z" fill="#443796"/>
<path fill-rule="evenodd" clip-rule="evenodd" d="M356.101 279.307C332.808 279.307 313.921 275.177 313.921 270.091V259.681C313.921 264.774 332.808 268.898 356.101 268.898C379.395 268.898 398.29 264.774 398.29 259.681V270.086C398.29 275.172 379.4 279.303 356.101 279.303V279.307Z" fill="#443796"/>
<path fill-rule="evenodd" clip-rule="evenodd" d="M271.901 317.289C248.598 317.289 229.712 321.413 229.712 326.506C229.712 331.598 248.598 335.723 271.901 335.723C295.204 335.723 314.087 331.599 314.087 326.506C314.087 321.412 295.201 317.289 271.901 317.289Z" fill="#998CCE"/>
<path fill-rule="evenodd" clip-rule="evenodd" d="M272.801 290.708C296.094 290.708 314.98 294.838 314.98 299.924C314.98 305.01 296.094 309.153 272.801 309.153C249.508 309.153 230.611 305.023 230.611 299.924C230.611 294.825 249.5 290.708 272.801 290.708Z" fill="#998CCE"/>
<path fill-rule="evenodd" clip-rule="evenodd" d="M270.44 265.845C293.732 265.845 312.621 269.977 312.621 275.063C312.621 280.149 293.732 284.28 270.44 284.28C247.149 284.28 228.253 280.157 228.253 275.063C228.253 269.969 247.14 265.845 270.44 265.845Z" fill="#998CCE"/>
<path fill-rule="evenodd" clip-rule="evenodd" d="M280.114 304.888C256.813 304.888 237.925 309.019 237.925 314.118C237.925 319.216 256.813 323.335 280.114 323.335C303.416 323.335 322.293 319.203 322.293 314.118C322.293 309.032 303.421 304.888 280.114 304.888Z" fill="#998CCE"/>
<path fill-rule="evenodd" clip-rule="evenodd" d="M264.586 278.313C287.878 278.313 306.767 282.435 306.767 287.529C306.767 292.623 287.878 296.747 264.586 296.747C241.294 296.747 222.399 292.623 222.399 287.529C222.399 282.435 241.288 278.313 264.586 278.313Z" fill="#998CCE"/>
<path fill-rule="evenodd" clip-rule="evenodd" d="M262.224 253.453C285.526 253.453 304.406 257.577 304.406 262.669C304.406 267.761 285.526 271.886 262.224 271.886C238.923 271.886 220.039 267.763 220.039 262.669C220.039 257.575 238.926 253.453 262.224 253.453Z" fill="#998CCE"/>
<path fill-rule="evenodd" clip-rule="evenodd" d="M271.901 346.13C248.598 346.13 229.712 341.998 229.712 336.901V326.502C229.712 331.59 248.598 335.72 271.901 335.72C295.204 335.72 314.078 331.59 314.078 326.502V336.901C314.078 341.995 295.206 346.13 271.901 346.13Z" fill="#443796"/>
<path fill-rule="evenodd" clip-rule="evenodd" d="M272.801 319.546C296.094 319.546 314.98 315.422 314.98 310.329V299.924C314.98 305.018 296.094 309.153 272.801 309.153C249.508 309.153 230.611 305.023 230.611 299.924V310.329C230.611 315.422 249.5 319.546 272.801 319.546Z" fill="#443796"/>
<path fill-rule="evenodd" clip-rule="evenodd" d="M270.44 294.686C293.732 294.686 312.621 290.562 312.621 285.468V275.064C312.621 280.158 293.732 284.293 270.44 284.293C247.149 284.293 228.253 280.162 228.253 275.064V285.468C228.253 290.562 247.14 294.686 270.44 294.686Z" fill="#443796"/>
<path fill-rule="evenodd" clip-rule="evenodd" d="M280.114 333.727C256.813 333.727 237.925 329.603 237.925 324.509V314.113C237.925 319.198 256.813 323.33 280.114 323.33C303.416 323.33 322.293 319.198 322.293 314.113V324.509C322.293 329.603 303.421 333.727 280.114 333.727Z" fill="#443796"/>
<path fill-rule="evenodd" clip-rule="evenodd" d="M264.586 307.152C287.878 307.152 306.767 303.022 306.767 297.936V287.531C306.767 292.625 287.878 296.749 264.586 296.749C241.294 296.749 222.399 292.625 222.399 287.531V297.937C222.399 303.023 241.288 307.154 264.586 307.154V307.152Z" fill="#443796"/>
<path fill-rule="evenodd" clip-rule="evenodd" d="M262.224 282.291C285.526 282.291 304.406 278.159 304.406 273.073V262.669C304.406 267.763 285.526 271.887 262.224 271.887C238.923 271.887 220.039 267.763 220.039 262.669V273.073C220.039 278.159 238.926 282.291 262.224 282.291Z" fill="#443796"/>
<path fill-rule="evenodd" clip-rule="evenodd" d="M336.754 255.038C335.72 255.878 334.636 257.057 334.312 258.652L328.54 258.765L328.206 261.194L334.411 261.064C335.361 263.666 339.282 265.146 344.62 265.041C350.131 264.936 353.183 263.166 356.019 260.716C358.512 258.388 360.414 257.531 363.19 257.478C365.917 257.421 367.918 258.245 367.676 260.033C367.461 261.592 366.068 263.08 364.682 264.081L370.679 264.702C372.005 263.731 373.313 262.1 373.64 260.515L379.843 260.386L380.177 257.957L373.538 258.087C372.721 255.315 368.478 253.762 362.923 253.877C357.261 253.982 354.033 255.389 350.748 258.372C348.354 260.368 346.686 261.467 344.177 261.516C342.06 261.556 339.94 260.757 340.169 259.099C340.368 257.661 341.672 256.424 342.596 255.664L336.754 255.038Z" fill="white"/>
<path fill-rule="evenodd" clip-rule="evenodd" d="M244.788 258.247C243.754 259.081 242.67 260.267 242.344 261.853L236.574 261.974L236.24 264.403L242.445 264.281C243.395 266.885 247.315 268.365 252.652 268.258C258.147 268.154 261.218 266.385 264.051 263.925C266.536 261.605 268.445 260.747 271.222 260.687C273.95 260.63 275.952 261.462 275.712 263.25C275.495 264.811 274.092 266.299 272.706 267.283L278.701 267.905C280.037 266.945 281.347 265.314 281.672 263.718L287.875 263.596L288.209 261.168L281.574 261.301C280.764 258.52 276.52 256.976 270.965 257.083C265.305 257.193 262.075 258.593 258.788 261.576C256.397 263.58 254.722 264.681 252.218 264.73C250.094 264.769 247.981 263.97 248.21 262.312C248.41 260.873 249.713 259.636 250.638 258.877L244.788 258.247Z" fill="white"/>
<g opacity="0.4" filter="url(#filter0_f_489_484)">
<path fill-rule="evenodd" clip-rule="evenodd" d="M96.2325 302.387C147.171 302.387 188.457 313.737 188.457 327.748C188.457 341.759 147.168 353.104 96.2325 353.104C45.2971 353.104 4 341.752 4 327.742C4 313.731 45.2954 302.381 96.2325 302.381V302.387Z" fill="black"/>
</g>
<path fill-rule="evenodd" clip-rule="evenodd" d="M96.2325 297.636C147.171 297.636 188.457 308.986 188.457 322.997C188.457 337.008 147.168 348.353 96.2325 348.353C45.2971 348.353 4 337.001 4 322.991C4 308.98 45.2954 297.63 96.2325 297.63V297.636Z" fill="#D2C9E9"/>
<path fill-rule="evenodd" clip-rule="evenodd" d="M165.824 124.12C166.6 123.861 169.227 123.272 172.295 122.268C175.44 123.514 179.581 123.147 184.721 121.169C186.682 118.161 186.862 115.099 185.262 111.983C181.203 113.86 177.64 114.583 174.573 114.151C178.383 111.718 178.972 110.273 176.339 109.816C176.088 110.391 175.549 110.861 174.705 111.24C172.063 111.653 170.17 113.389 169.027 116.447C167.621 116.819 166.159 117.15 165.409 117.376C166.176 119.146 166.318 121.262 165.817 124.12H165.824Z" fill="#FCB88D"/>
<path fill-rule="evenodd" clip-rule="evenodd" d="M93.7289 47.0627C83.9319 45.8337 76.5266 46.4814 73.3651 51.0393C73.7659 53.821 74.631 57.4371 75.9604 61.8876C75.3842 62.9482 74.5425 63.5068 73.4235 63.5457C72.0306 60.9097 70.8615 59.3353 69.9162 58.8226C65.2566 60.8552 66.1351 63.9855 72.5517 68.2137C72.9275 69.6709 73.2949 70.8756 73.6356 71.8276C67.8637 70.5744 63.0287 65.5631 62.3539 63.3951C55.615 50.5244 63.1272 45.0905 67.1489 43.1022C68.9259 30.3514 88.0254 41.6223 97.5869 35.4792C101.39 40.5731 96.685 46.9591 93.7239 47.0724L93.7289 47.0627Z" fill="#151E40"/>
<path fill-rule="evenodd" clip-rule="evenodd" d="M63.4826 104.838C69.6387 112.001 74.8038 117.178 78.978 120.369C75.1746 107.27 71.0995 93.1641 66.7527 78.0519C65.2262 79.3051 63.992 80.5422 63.0668 81.776C62.725 87.904 62.6415 92.5796 62.8163 95.8028C65.0676 97.5337 66.8864 98.6089 68.2609 99.0525C66.1855 100.872 64.5927 102.8 63.4826 104.835V104.838Z" fill="#404873"/>
<path fill-rule="evenodd" clip-rule="evenodd" d="M102.044 101.353C99.0516 107.779 95.6874 113.616 91.9519 118.865C93.0542 102.856 93.6142 89.3682 93.6321 78.4C95.3022 79.3132 96.5514 80.1811 97.4734 81.1315C97.6404 81.3339 97.8074 81.5363 97.9744 81.7387C99.7425 87.8592 100.888 92.6535 101.41 96.1217C99.7598 96.8471 98.3568 97.4883 97.2145 98.0226C98.7655 99.033 100.372 100.143 102.034 101.353H102.044Z" fill="#404873"/>
<path fill-rule="evenodd" clip-rule="evenodd" d="M63.0671 81.7793C53.5775 87.1161 45.8159 91.8429 39.7823 95.9599C35.715 110.999 33.5087 127.244 33.1636 144.697C33.7197 164.756 35.7807 179.267 38.2224 187.086C41.7847 187.248 45.5709 186.9 46.9805 185.59C47.7599 167.941 47.9542 153.622 47.5634 142.632C50.1743 136.839 52.4652 132.509 54.4359 129.643C55.296 135.61 56.4785 140.785 56.7607 146.12C55.7587 157.051 55.2693 170.1 52.2514 185.274C56.0103 188.759 64.3136 190.839 77.1613 191.516C79.5718 162.783 80.1775 139.065 78.9784 120.362C74.8075 117.176 69.6424 111.999 63.483 104.831C64.5964 102.801 66.1891 100.874 68.2612 99.0493C66.8867 98.6056 65.0679 97.5305 62.8166 95.7996C62.6418 92.5742 62.7253 87.8986 63.0671 81.7728V81.7793Z" fill="#2F365C"/>
<path fill-rule="evenodd" clip-rule="evenodd" d="M91.952 118.864C95.6263 156.96 97.1745 181.724 99.3423 190.31C105.507 189.662 110.25 186.858 113.119 184.092C112.343 162.418 109.735 148.576 108.633 135.908C110.627 115.105 114.694 95.984 110.303 87.0899C105.582 84.0103 101.474 82.2292 97.9778 81.7467C99.7459 87.8671 100.891 92.6615 101.413 96.1298C99.7632 96.8551 98.3603 97.4963 97.2179 98.0306C98.7689 99.041 100.376 100.151 102.038 101.361C99.045 107.787 95.6808 113.624 91.9453 118.873L91.952 118.864Z" fill="#2F365C"/>
<path fill-rule="evenodd" clip-rule="evenodd" d="M115.873 93.2836C114.112 91.1884 112.257 89.124 110.31 87.0903C113.353 93.2431 112.326 104.328 110.751 117.474C113.82 121.169 120.426 127.751 126.079 131.849C137.688 132.496 150.114 129.891 169.285 124.266C170.058 122.333 169.81 119.122 169.033 116.447C150.371 117.49 138.962 117.313 131.475 119.179C126.632 107.472 120.474 100.528 115.873 93.2836Z" fill="#2F365C"/>
<path fill-rule="evenodd" clip-rule="evenodd" d="M78.9036 87.7847C75.5183 83.4858 72.7241 79.5641 69.6294 77.1224C69.9634 75.8125 70.1889 74.8264 70.5563 73.8403C70.7233 73.3708 71.7822 72.8203 73.1751 72.5709C73.0415 72.7814 72.7659 73.6946 73.0081 73.8403C73.0565 73.8711 73.1033 73.9213 73.1651 73.9618C76.5208 76.6276 80.2015 78.8837 84.1245 80.6797C82.0952 82.9676 80.6957 85.3753 78.9103 87.7847H78.9036Z" fill="white"/>
<path fill-rule="evenodd" clip-rule="evenodd" d="M92.1701 78.2623C92.2637 81.0603 92.1885 83.3563 91.9597 85.1423C91.277 83.1036 89.9287 81.3355 88.1185 80.105C87.8323 77.7539 87.6375 75.5469 87.5339 73.484C89.5681 74.2191 91.1196 75.8205 92.1701 78.2623Z" fill="white"/>
<path fill-rule="evenodd" clip-rule="evenodd" d="M96.2155 165.634C95.0981 153.605 93.7971 137.904 91.9516 118.864C93.0372 103.139 93.5973 89.8421 93.6318 78.9732C93.1864 78.8124 92.7021 78.6672 92.1788 78.5377C92.2539 81.2044 92.1788 83.4129 91.96 85.1422C91.2773 83.1035 89.929 81.3355 88.1187 80.105C87.5342 81.1963 87.3605 82.3718 86.4252 83.6963C85.4231 82.6843 84.4745 81.7225 83.8482 80.9874C81.9726 83.1765 80.6132 85.4741 78.903 87.7879C75.5627 83.5376 72.7736 79.6565 69.7306 77.1986C68.6952 77.7157 67.7638 78.2117 66.9365 78.6866C71.2143 93.5613 75.2281 107.456 78.9781 120.372C79.8031 133.251 79.7725 148.506 78.8863 166.139C80.4197 166.366 81.9645 166.513 83.5142 166.579V166.434C83.5176 166.263 83.5891 166.1 83.7136 165.979C83.8382 165.859 84.0061 165.789 84.1822 165.786L90.6706 165.609C90.7565 165.605 90.8425 165.618 90.9231 165.647C91.0038 165.676 91.0776 165.72 91.14 165.778C91.2025 165.835 91.2523 165.904 91.2864 165.981C91.3206 166.057 91.3383 166.14 91.3387 166.223V166.345C92.9303 166.183 94.5487 165.948 96.2088 165.648L96.2155 165.634Z" fill="#B9ACDC"/>
<path fill-rule="evenodd" clip-rule="evenodd" d="M90.4285 86.889C89.2778 85.0934 87.945 84.0247 86.4202 83.696C85.2946 84.1818 84.0821 85.2877 82.7827 87.0429C83.7848 88.7333 84.8704 89.9039 85.9943 90.5759C83.8677 103.561 82.8863 121.638 83.0499 144.808C84.6616 148.252 86.2382 150.751 87.788 152.279C89.6552 149.611 90.8143 146.853 91.2652 144.007C89.7888 119.689 88.9103 101.946 88.6298 90.7767C89.6986 89.4198 90.2898 88.1245 90.4235 86.8907L90.4285 86.889Z" fill="#443796"/>
<path fill-rule="evenodd" clip-rule="evenodd" d="M82.7876 82.2975C82.0461 83.269 81.3713 84.2535 80.6882 85.2477C81.3129 85.6428 82.1129 86.114 83.0799 86.6548C83.9472 85.5386 84.7756 84.7112 85.565 84.1726C84.6147 83.4941 83.6978 82.8772 82.7876 82.2975ZM88.927 80.7285C88.5939 81.8962 88.1031 83.0161 87.4673 84.0592C88.3258 84.464 89.1207 85.1349 89.8523 86.0719C90.2598 85.4501 90.6038 84.3911 90.871 82.895C90.3376 82.0832 89.6824 81.353 88.927 80.7285Z" fill="#443796"/>
<path fill-rule="evenodd" clip-rule="evenodd" d="M111.193 257.738C111.276 238.247 110.6 215.3 109.167 188.896C106.465 190.465 102.988 191.66 98.5588 192.583C97.4916 189.86 96.5163 183.383 95.0883 171.534C93.855 171.851 92.6058 172.108 91.3456 172.302V172.974C91.3405 173.144 91.2685 173.306 91.1443 173.426C91.0201 173.547 90.8531 173.616 90.6775 173.621L84.1891 173.799C84.1032 173.804 84.0173 173.791 83.9366 173.762C83.8559 173.733 83.7821 173.688 83.7197 173.631C83.6573 173.574 83.6075 173.505 83.5733 173.428C83.5392 173.352 83.5214 173.269 83.521 173.186V172.7C82.352 172.65 81.1545 172.554 79.952 172.409C79.2756 182.37 79.0184 189.029 78.4923 193.906C67.8269 192.611 61.422 191.489 56.268 189.403C53.6281 209.053 52.1667 230.239 51.8839 252.959C47.5216 262.026 46.3291 284.189 48.3065 319.448C52.0253 320.241 56.239 320.241 60.9477 319.448C64.6587 303.587 67.8876 282.72 70.6344 256.848C74.4968 244.453 78.5001 227.041 82.6442 204.612C83.4793 219.832 85.725 237.045 89.3815 256.25C88.1467 270.431 90.29 291.264 95.8115 318.75C98.7063 319.025 103.271 318.627 109.506 317.555C108.874 295.211 109.436 275.276 111.192 257.75L111.193 257.738Z" fill="#2F365C"/>
<path fill-rule="evenodd" clip-rule="evenodd" d="M78.488 193.924C79.0141 189.047 79.2713 182.387 79.9477 172.426C79.4901 172.362 79.0225 172.305 78.5548 172.232C78.1874 178.385 77.7237 184.815 77.1636 191.523C67.9067 191.037 61.0124 189.821 56.4808 187.876C56.4056 188.386 56.3388 188.903 56.2637 189.421C61.4177 191.506 67.8226 192.63 78.488 193.924ZM98.5612 192.59C102.997 191.667 106.468 190.472 109.17 188.903C109.135 188.313 109.103 187.722 109.07 187.131C106.105 188.863 102.786 189.948 99.3445 190.31C98.4377 186.696 97.6276 180.213 96.7358 171.068C96.193 171.23 95.6435 171.392 95.0824 171.554C96.5187 183.398 97.494 189.874 98.5612 192.603V192.59Z" fill="#151E40"/>
<path fill-rule="evenodd" clip-rule="evenodd" d="M47.8974 325.351C48.497 325.9 48.6908 325.748 49.115 325.473C49.798 321.834 56.8877 321.405 58.6464 325.124C59.1291 324.962 59.5271 324.622 59.7553 324.179C60.9912 326.531 63.7837 328.844 63.0404 332.95C61.1582 335.578 51.4665 336.879 46.872 331.502C45.5693 329.459 47.1793 326.871 47.8974 325.35V325.351ZM96.7819 321.349C95.5978 324.462 95.3306 327.016 96.7335 328.026C100.294 328.722 107.601 328.633 118.848 330.072C126.796 329.514 130.233 327.32 128.224 324.891C121.32 325.311 115.085 323.567 109.518 319.66C108.485 323.734 104.237 324.299 96.7736 321.357L96.7819 321.349Z" fill="#151E40"/>
<path fill-rule="evenodd" clip-rule="evenodd" d="M48.6311 319.514C48.4407 321.689 48.2487 323.685 48.0649 325.489C48.5393 325.878 48.733 325.722 49.1154 325.473C49.7985 321.835 56.8882 321.405 58.6468 325.125H58.8055H59.0577L59.0811 325.109H59.1295V325.096H59.213L59.2314 325.087H59.2815L59.2982 325.071H59.3149H59.3483C59.041 323.614 58.7821 321.959 58.565 320.115C54.952 320.526 51.6579 320.432 48.6829 319.833L48.6311 319.514ZM108.241 317.767C108.478 318.653 108.843 319.503 109.325 320.29C109.29 320.397 109.248 320.503 109.201 320.606C109.011 321.038 108.749 321.437 108.425 321.786C108.319 321.894 108.208 321.997 108.091 322.094C108.049 322.126 108.016 322.158 107.984 322.181L107.964 322.199C107.549 322.517 107.077 322.758 106.573 322.91H106.556C106.51 322.926 106.462 322.94 106.414 322.95H106.382C106.337 322.969 106.289 322.982 106.24 322.991H106.224C106.169 323.005 106.113 323.016 106.057 323.023C106.002 323.038 105.946 323.049 105.89 323.055H105.866L105.699 323.088H105.682C105.097 323.171 104.504 323.193 103.914 323.153H103.89L103.698 323.135H103.673L103.481 323.12H103.44L103.247 323.102H103.214L102.997 323.08L102.781 323.047H102.731C102.205 322.974 101.639 322.861 101.061 322.723L100.994 322.707L100.767 322.651H100.736L100.51 322.586L100.437 322.57L100.236 322.513L100.161 322.497L99.954 322.432L99.8671 322.408L99.6533 322.343L99.5932 322.328L99.3611 322.254L99.3009 322.231L99.0605 322.158L98.7598 322.061L98.7014 322.035L98.4592 321.956L98.1519 321.851C97.9582 321.778 97.7678 321.713 97.5657 321.632L97.5172 321.616L97.2166 321.503C97.2314 320.603 97.184 319.703 97.0747 318.81C99.7469 318.883 103.469 318.53 108.241 317.751V317.767Z" fill="#FCB88D"/>
<path fill-rule="evenodd" clip-rule="evenodd" d="M112.223 96.4697C112.457 102.283 111.706 109.502 110.747 117.482C113.817 121.177 120.422 127.759 126.075 131.857C137.684 132.504 150.11 129.899 169.281 124.274C155.238 127.343 140.934 129.162 126.548 129.706C123.609 127.655 119.082 123.319 112.967 116.698C113.157 111.644 112.909 104.901 112.223 96.4697Z" fill="#151E40"/>
<path fill-rule="evenodd" clip-rule="evenodd" d="M58.2787 145.675C57.604 137.564 56.9727 130.586 56.3848 124.742C55.9379 126.447 55.2842 128.094 54.4375 129.65C55.2976 135.617 56.48 140.791 56.7623 146.127C55.7602 157.057 55.2708 170.106 52.2529 185.281C52.613 185.608 52.994 185.913 53.3936 186.194C55.8554 176.849 57.4821 163.342 58.2737 145.675H58.2787Z" fill="#151E40"/>
<path fill-rule="evenodd" clip-rule="evenodd" d="M78.553 172.232C85.0163 173.217 91.0766 172.829 96.7339 171.068C96.5669 169.353 96.3999 167.535 96.2162 165.634C89.9877 166.759 84.2113 166.926 78.887 166.136C78.7868 168.134 78.6782 170.171 78.553 172.232Z" fill="#7A492C"/>
<path fill-rule="evenodd" clip-rule="evenodd" d="M84.1813 165.77L90.6697 165.593C90.7567 165.59 90.8435 165.604 90.9248 165.635C91.0061 165.665 91.0801 165.711 91.1426 165.77C91.205 165.829 91.2545 165.899 91.288 165.977C91.3216 166.055 91.3385 166.139 91.3377 166.223V172.966C91.3366 173.14 91.2666 173.307 91.1423 173.432C91.0179 173.557 90.8487 173.631 90.6697 173.638L84.1813 173.816C84.0941 173.82 84.0072 173.805 83.9258 173.775C83.8444 173.745 83.7703 173.698 83.7078 173.639C83.6454 173.58 83.5959 173.51 83.5625 173.432C83.529 173.353 83.5123 173.27 83.5132 173.185V166.442C83.5127 166.268 83.5821 166.1 83.7068 165.975C83.8315 165.849 84.0017 165.776 84.1813 165.77Z" fill="#DACFEB"/>
<path fill-rule="evenodd" clip-rule="evenodd" d="M84.8076 166.976V172.58L90.0534 172.434V166.832L84.8076 166.976Z" fill="#7A492C"/>
<path fill-rule="evenodd" clip-rule="evenodd" d="M65.4272 78.4794C65.6761 78.4956 65.945 78.5053 66.2206 78.5053L65.9851 78.7061L65.4272 78.4794ZM66.8786 78.4794C67.0289 78.4794 67.1876 78.4567 67.3362 78.4486C67.2043 78.5215 67.069 78.6105 66.937 78.6753L66.8786 78.4794ZM72.8326 73.7029C73.1539 73.094 73.4242 72.461 73.6409 71.8101C73.3069 70.858 72.9328 69.6517 72.557 68.188C66.137 63.9685 65.2586 60.8419 69.9216 58.8083C70.8646 59.3199 72.0337 60.8943 73.4288 63.5313C74.5478 63.4909 75.3895 62.9339 75.9657 61.8733C74.6396 57.4271 73.7745 53.811 73.3703 51.025C76.5436 46.4671 83.9372 45.8194 93.7342 47.0484C94.1873 49.5796 94.5603 52.2555 94.8531 55.0761C96.5784 56.6289 96.3562 62.3623 94.7613 68.9733C95.4443 72.176 93.8026 74.132 89.8578 74.859L89.8328 74.8444C89.3317 74.9318 88.8991 74.9966 88.5234 75.0468C88.2227 75.0775 87.9071 75.1002 87.5814 75.1261C87.6816 75.7252 87.8904 77.924 87.9505 78.5377C87.9973 79.0483 88.053 79.5658 88.1175 80.0904C87.6332 80.9972 87.4244 81.967 86.8399 83.026C86.5841 83.1391 86.3201 83.2338 86.0499 83.3093C85.1898 82.435 84.3965 81.6108 83.8537 80.9729C83.9422 80.8676 84.0207 80.7689 84.1159 80.6653C83.8537 80.5519 83.5965 80.4305 83.3477 80.309C79.5857 78.5114 76.0543 76.292 72.8259 73.6964L72.8326 73.7029Z" fill="#FCB88D"/>
<path fill-rule="evenodd" clip-rule="evenodd" d="M87.5762 75.1406C85.6101 75.2814 83.6341 75.2222 81.6807 74.9641C83.7494 76.2975 85.8092 77.2514 87.8602 77.8258C87.8284 77.429 87.7867 77.042 87.7533 76.6614C87.6932 76.0233 87.6263 75.416 87.5779 75.1406H87.5762Z" fill="#F08261"/>
<path fill-rule="evenodd" clip-rule="evenodd" d="M69.871 202.624L67.5112 255.596L7.91113 249.515L14.9657 202.624H69.871Z" fill="#998CCE"/>
<path fill-rule="evenodd" clip-rule="evenodd" d="M77.4523 249.071C72.6474 250.784 69.8716 253.119 67.5117 255.596L69.8716 202.624L72.5438 202.559L77.4523 249.071Z" fill="#443796"/>
<path fill-rule="evenodd" clip-rule="evenodd" d="M69.871 202.624L62.9333 223.878C61.9312 226.231 60.9141 228.294 56.8791 227.968L18.6332 225.616C15.2212 225.407 15.1377 223.733 15.1042 221.469V202.624H69.871Z" fill="#6758B1"/>
<path fill-rule="evenodd" clip-rule="evenodd" d="M42.2457 224.194L32.5223 223.587C32.2558 223.568 31.9914 223.644 31.7782 223.8C31.565 223.956 31.4175 224.182 31.3632 224.435L30.0438 232.811C30.0189 232.93 30.0196 233.052 30.0459 233.17C30.0721 233.288 30.1233 233.4 30.1963 233.498C30.2693 233.596 30.3624 233.678 30.4699 233.739C30.5773 233.801 30.6966 233.84 30.8204 233.854L40.943 234.848C41.4775 234.898 42.0453 234.524 42.0954 234L43.0307 225.235C43.0875 224.719 42.7785 224.225 42.2457 224.194Z" fill="#DACFEB"/>
<path fill-rule="evenodd" clip-rule="evenodd" d="M40.4588 226.45L39.8242 232.36L32.6978 231.663L33.5896 226.022L40.4588 226.45Z" fill="#6758B1"/>
<path fill-rule="evenodd" clip-rule="evenodd" d="M58.4297 202.624C57.8385 200.571 56.4472 198.856 54.56 197.514C53.7192 196.925 52.8202 196.418 51.8761 196.001C51.2983 194.554 47.8394 193.343 43.6207 193.179C39.1414 193.017 35.4371 194.102 35.073 195.637C34.7891 195.752 34.5135 195.882 34.2463 196.01C31.4355 197.409 29.3344 199.591 28.6514 202.624H30.7106C31.3787 200.401 33.0037 198.775 35.1398 197.716C35.4321 197.57 35.7227 197.443 36.0316 197.319C37.4312 198.291 40.1936 199.018 43.3802 199.131C46.7204 199.259 49.6415 198.678 51.0494 197.74C51.8724 198.103 52.6557 198.544 53.3876 199.058C54.7237 200.02 55.7658 201.209 56.3153 202.621L58.4297 202.624Z" fill="#362D7B"/>
<path fill-rule="evenodd" clip-rule="evenodd" d="M49.6164 194.772C49.6565 196.21 50.1909 198.386 49.2423 199.421C46.7655 202.138 40.6846 202.324 38.0742 200.579C36.9485 199.834 36.8249 197.384 36.7915 195.807C38.1276 192.486 38.8574 189.403 38.9627 186.578C41.6232 184.865 45.6432 184.703 46.9793 185.592L49.6164 194.772Z" fill="#FCB88D"/>
<defs>
<filter id="filter0_f_489_484" x="0" y="298.381" width="192.457" height="58.7236" filterUnits="userSpaceOnUse" color-interpolation-filters="sRGB">
<feFlood flood-opacity="0" result="BackgroundImageFix"/>
<feBlend mode="normal" in="SourceGraphic" in2="BackgroundImageFix" result="shape"/>
<feGaussianBlur stdDeviation="2" result="effect1_foregroundBlur_489_484"/>
</filter>
</defs>
</svg>
