<svg width="528" height="423" viewBox="0 0 528 423" fill="none" xmlns="http://www.w3.org/2000/svg">
<path d="M66.0863 328.401C69.9988 314.074 99.221 318.512 123.734 318.512C148.248 318.512 166.568 309.405 221.524 303.936C276.479 298.467 259.522 311.87 310.974 307.252C362.426 302.633 393.128 300.812 430.033 308.88C466.938 316.947 472.596 334.119 472.596 334.119C472.596 334.119 494.688 336.721 502.231 354.156C509.774 371.591 493.073 397.357 441.889 413.744C390.704 430.13 335.48 418.687 289.415 413.744C243.35 408.8 191.264 395.534 140.795 399.958C90.3269 404.382 47.2291 417.653 42.1094 393.192C38.3387 376.8 90.5996 370.034 86.8343 358.845C83.0691 347.657 60.9666 347.135 66.0863 328.401Z" fill="#333679"/>
<path d="M82.2451 308.084C98.2007 325.431 140.586 360.105 165.728 369.308C190.87 378.512 267.359 364.983 268.45 377.82C269.541 390.658 283.358 403.147 343.43 408.351C403.501 413.554 459.182 386.139 436.914 366.715C414.646 347.29 353.193 344.549 320.349 343.49C287.505 342.431 408.403 327.774 348.559 298.326C288.715 268.877 40.3782 265.486 40.3782 265.486L82.2451 308.084Z" fill="#5B68AF"/>
<path d="M473.066 277.12H79.1249C72.9708 277.114 67.0708 274.749 62.7193 270.546C58.3677 266.343 55.9201 260.644 55.9133 254.7V22.4206C55.9201 16.4763 58.3677 10.7773 62.7193 6.57403C67.0708 2.37076 72.9708 0.0065077 79.1249 0H473.066C479.221 0.00650684 485.121 2.37071 489.473 6.57393C493.825 10.7771 496.273 16.4761 496.28 22.4206V254.7C496.273 260.644 493.825 266.343 489.473 270.546C485.121 274.749 479.221 277.114 473.066 277.12ZM79.1249 1.58052C73.4048 1.58703 67.921 3.78477 63.8763 7.69163C59.8316 11.5985 57.5563 16.8955 57.5496 22.4206V254.7C57.5559 260.225 59.831 265.522 63.8758 269.429C67.9206 273.336 73.4047 275.534 79.1249 275.54H473.066C478.787 275.534 484.271 273.336 488.316 269.429C492.361 265.522 494.637 260.225 494.644 254.7V22.4206C494.637 16.8952 492.361 11.5979 488.316 7.69101C484.271 3.7841 478.787 1.58656 473.066 1.58052H79.1249Z" fill="#0B7AFF"/>
<path d="M475.844 7.56934H85.2003C73.6772 7.56934 64.3359 16.5923 64.3359 27.7228V255.503C64.3359 266.633 73.6772 275.656 85.2003 275.656H475.844C487.367 275.656 496.708 266.633 496.708 255.503V27.7228C496.708 16.5923 487.367 7.56934 475.844 7.56934Z" fill="#1C346B"/>
<g opacity="0.77">
<path opacity="0.77" d="M207.701 61.7969H144.663V232.102H207.701V61.7969Z" fill="#0B7AFF"/>
<g opacity="0.77">
<g opacity="0.54">
<path opacity="0.54" d="M154.787 68.2578H149.237V240.045H154.787V68.2578Z" fill="#94F7FF"/>
</g>
<g opacity="0.54">
<path opacity="0.54" d="M171.076 68.2578H165.526V240.045H171.076V68.2578Z" fill="#94F7FF"/>
</g>
<g opacity="0.54">
<path opacity="0.54" d="M187.366 68.2578H181.815V240.045H187.366V68.2578Z" fill="#94F7FF"/>
</g>
<g opacity="0.54">
<path opacity="0.54" d="M203.657 68.2578H198.106V240.045H203.657V68.2578Z" fill="#94F7FF"/>
</g>
</g>
</g>
<path d="M369.133 61.9307H432.886V222.886C432.886 230.687 429.678 238.169 423.967 243.686C418.256 249.202 410.51 252.301 402.433 252.301H369.133V61.9359V61.9307Z" fill="#D6C9FF"/>
<g opacity="0.42">
<path opacity="0.42" d="M429.256 66.2241H372.763V100.262H429.256V66.2241Z" fill="#E554FF"/>
</g>
<g opacity="0.42">
<path opacity="0.42" d="M429.256 104.524H372.763V106.134H429.256V104.524Z" fill="#E554FF"/>
</g>
<g opacity="0.42">
<path opacity="0.42" d="M429.256 111.863H372.763V131.085H429.256V111.863Z" fill="#E554FF"/>
</g>
<g opacity="0.42">
<path opacity="0.42" d="M429.256 136.069H372.763V145.317H429.256V136.069Z" fill="#E554FF"/>
</g>
<g opacity="0.42">
<path opacity="0.42" d="M429.256 149.66H372.763V158.91H429.256V149.66Z" fill="#E554FF"/>
</g>
<g opacity="0.42">
<path opacity="0.42" d="M429.256 163.252H372.763V172.502H429.256V163.252Z" fill="#E554FF"/>
</g>
<g opacity="0.42">
<path opacity="0.42" d="M429.256 176.845H372.763V186.095H429.256V176.845Z" fill="#E554FF"/>
</g>
<g opacity="0.4">
<path opacity="0.4" d="M51.4892 213.585C51.4892 213.585 85.9238 191.909 108.599 187.067C131.274 182.226 149.77 193.182 194.436 215.234C239.103 237.286 251.672 254.48 319.106 238.45C386.541 222.42 466.704 185.455 501.514 217.201C525.012 284.3 498.677 300.37 498.677 298.361C498.677 296.352 -0.779048 317.861 0.00091255 314.54C0.780873 311.22 51.4892 213.585 51.4892 213.585Z" fill="#5B68AF"/>
</g>
<path d="M108.599 150.45V238.454H122.929V184.644L141.25 179.333C141.684 179.196 142.068 178.941 142.355 178.598C142.642 178.256 142.82 177.84 142.868 177.401L146.626 147.723L142.091 146.669L138.848 164.576C138.313 167.527 136.277 169.954 133.519 170.919C128.669 172.619 121.613 174.834 121.613 173.352V145.627L108.599 150.45Z" fill="#98AFE2"/>
<path d="M117.224 140.872C117.224 140.872 115.362 178.774 120.66 178.774C125.958 178.774 139.706 175.801 140.995 171.824C142.284 167.846 146.58 152.531 148.299 160.672C150.017 168.814 153.455 175.039 148.013 179.05C142.572 183.061 135.428 184.366 126.889 186.551C118.349 188.735 120.525 184.722 119.658 198.278C118.791 211.834 116.682 249.763 116.682 249.763C116.682 249.763 106.195 252.78 103.619 248.077C101.043 243.374 91.6578 148.088 94.8467 145.794C98.0357 143.501 117.224 140.872 117.224 140.872Z" fill="#7078C1"/>
<path d="M411.374 147.083C411.374 147.083 409.032 186.257 411.374 189.673C413.715 193.089 435.507 201.525 436.409 203.334C437.311 205.143 436.409 277.062 436.409 277.062C436.409 277.062 457.691 278.167 456.619 277.062C455.546 275.958 460.324 193.294 460.324 191.28C460.324 189.266 474.983 192.685 476.918 189.071C478.852 185.457 480.997 146.886 480.997 146.886C480.997 146.886 474.367 147.289 474.367 148.695C474.367 150.102 472.222 173.064 470.271 174.841C468.32 176.618 459.739 176.421 459.739 176.421V146.69C459.739 146.69 441.774 140.663 441.396 142.672C441.018 144.681 441.601 187.487 438.091 187.078C434.58 186.668 425.617 182.928 424.44 179.574C423.264 176.219 424.44 144.256 424.44 144.256L411.374 147.083Z" fill="#98AFE2"/>
<path d="M409.842 157.104C410.864 157.122 418.244 162.629 418.244 169.272C418.244 175.916 420.918 187.02 427.792 189.584C434.666 192.148 434.283 202.651 434.283 210.217C434.283 217.782 410.99 284.243 429.319 285.411C447.649 286.579 448.795 294.139 455.669 280.67C462.543 267.2 463.879 212.484 463.498 206.647C463.116 200.809 450.502 167.558 441.915 160.667C433.328 153.776 427.692 146.471 424.072 145.789C420.453 145.108 410.415 141.791 410.415 141.791L409.842 157.104Z" fill="#7078C1"/>
<path d="M434.283 145.108C434.283 145.108 434.999 164.527 434.999 166.74C434.999 168.953 438.806 176.976 441.908 178.775C445.01 180.573 454.755 182.51 461.2 181.957C467.645 181.404 473.372 182.647 475.806 171.996C478.241 161.345 475.348 142.303 481.106 145.108C486.864 147.912 491.56 158.402 492.847 172.6C494.134 186.799 500.189 204.019 490.847 205.44C481.506 206.861 473.09 210.589 465.071 204.088C457.051 197.586 448.744 187.766 448.744 187.766C448.744 187.766 432.849 192.055 430.843 178.775C428.838 165.495 429.269 161.189 429.841 154.212C430.414 147.234 434.283 145.108 434.283 145.108Z" fill="#7078C1"/>
<path d="M440.728 140.158C440.728 140.158 459.058 144.086 460.061 145.108C461.065 146.13 464.643 165.711 464.643 165.711C464.643 165.711 452.471 166.602 452.042 182.372C451.612 198.142 433.461 187.9 431.419 176.009C429.377 164.118 426.979 151.227 428.985 147.502C430.99 143.777 440.728 140.158 440.728 140.158Z" fill="#7078C1"/>
<path d="M76.8552 110.974C76.9934 110.235 79.0496 92.5926 101.428 98.3176C101.721 82.6476 111.521 76.0146 119.566 76.0146C127.611 76.0146 136.972 78.7279 140.043 86.562C144.286 80.686 153.355 83.8506 151.013 91.2334C163.3 91.0823 172.223 92.8894 177.781 108.71C183.339 124.532 180.414 135.077 171.93 138.091C166.372 146.829 160.229 152.712 146.041 151.729C131.852 150.745 131.267 144.253 131.267 144.253C131.267 144.253 121.322 156.938 103.33 151.736C85.3384 146.534 86.2165 135.084 86.2165 135.084C86.2165 135.084 73.7845 127.394 76.8552 110.974Z" fill="#8A5B80"/>
<g opacity="0.47">
<path opacity="0.47" d="M109.204 75.5874C109.204 75.5874 128.647 73.185 138.903 88.5548C142.148 86.7723 148.902 86.2718 147.559 93.7178C161.689 94.2096 173.654 97.4057 177.219 115.051C180.784 132.697 172.954 139.889 174.855 139.52C176.757 139.151 185.677 141.058 186.186 134.603C186.695 128.147 187.395 106.329 187.395 106.329L156.08 79.9479L127.438 72.1401L109.204 75.5874Z" fill="#FFFACC"/>
</g>
<g opacity="0.47">
<path opacity="0.47" d="M128.105 151.017L131.265 144.252C131.265 144.252 137.265 139.493 137.461 127.781C137.658 116.069 127.054 106.566 103.085 108.602C103.085 108.602 118.598 107.035 128.72 115.15C138.841 123.266 140.086 134.14 125.629 150.416C128.487 150.971 128.105 151.017 128.105 151.017Z" fill="#FFFACC"/>
</g>
<g opacity="0.26">
<path opacity="0.26" d="M92.199 93.2886C92.199 93.2886 77.7943 110.799 85.8157 121.225C93.8371 131.651 99.1823 130.182 99.1823 130.182C99.1823 130.182 98.1805 138.516 106.318 142.65C114.456 146.784 125.168 150.576 131.268 144.253C127.814 157.662 122.857 164.551 111.209 164.426C99.5604 164.302 91.5427 173.892 81.805 153.788C72.0673 133.683 66.7149 126.492 67.6748 116.347C68.6348 106.201 78.427 96.9132 78.427 96.9132L92.199 93.2886Z" fill="#09004C"/>
</g>
<path d="M404.937 142.262C404.937 142.262 402.721 153.839 423.262 156.123C443.802 158.408 446.868 149.696 446.868 149.696C446.868 149.696 450.767 154.717 471.048 153.312C491.329 151.907 500.303 142.397 499.327 127.965C498.35 113.533 492.702 102.083 473.975 100.476C473.975 83.3997 473.975 66.7269 447.648 68.1318C421.32 69.5367 408.251 87.0156 412.542 99.0698C393.234 92.4403 372.562 101.279 372.181 119.561C371.799 137.842 381.924 146.078 404.937 142.262Z" fill="#8A5B80"/>
<g opacity="0.47">
<path opacity="0.47" d="M374.692 142.18C374.692 142.18 370.579 133.993 374.835 117.973C379.091 101.953 388.727 96.8097 415.22 101.788C414.217 87.9552 420.375 68.8659 448.444 65.6855C388.296 71.3561 369.679 78.8268 369.25 80.7638C368.821 82.7008 361.23 107.656 361.23 107.656L365.814 134.711L374.692 142.18Z" fill="#D7CBFF"/>
</g>
<g opacity="0.47">
<path opacity="0.47" d="M451.372 155.259L446.868 149.697C446.868 149.697 440.392 146.131 438.869 135.432C437.345 124.734 446.985 116.343 456.244 114.407C446.608 122.429 440.11 126.579 444.31 138.2C448.51 149.82 457.962 154.153 457.962 154.153L451.372 155.259Z" fill="#D7CBFF"/>
</g>
<g opacity="0.19">
<path opacity="0.19" d="M205.524 103.521C226.984 103.521 244.38 86.7173 244.38 65.9888C244.38 45.2603 226.984 28.4565 205.524 28.4565C184.064 28.4565 166.668 45.2603 166.668 65.9888C166.668 86.7173 184.064 103.521 205.524 103.521Z" fill="white"/>
</g>
<g opacity="0.2">
<path opacity="0.2" d="M205.524 99.0488C224.427 99.0488 239.752 84.2468 239.752 65.9876C239.752 47.7283 224.427 32.9263 205.524 32.9263C186.621 32.9263 171.297 47.7283 171.297 65.9876C171.297 84.2468 186.621 99.0488 205.524 99.0488Z" fill="#FEFFE6"/>
</g>
<g opacity="0.2">
<path opacity="0.2" d="M205.525 91.9482C220.368 91.9482 232.4 80.3259 232.4 65.989C232.4 51.6521 220.368 40.0298 205.525 40.0298C190.682 40.0298 178.65 51.6521 178.65 65.989C178.65 80.3259 190.682 91.9482 205.525 91.9482Z" fill="#FFF5BD"/>
</g>
<path d="M205.525 88.8115C218.574 88.8115 229.152 78.5934 229.152 65.9888C229.152 53.3841 218.574 43.166 205.525 43.166C192.475 43.166 181.897 53.3841 181.897 65.9888C181.897 78.5934 192.475 88.8115 205.525 88.8115Z" fill="#FFF1B6"/>
<path d="M205.525 86.4092C217.201 86.4092 226.666 77.2665 226.666 65.9885C226.666 54.7105 217.201 45.5679 205.525 45.5679C193.849 45.5679 184.384 54.7105 184.384 65.9885C184.384 77.2665 193.849 86.4092 205.525 86.4092Z" fill="#F4DE82"/>
<path d="M281.237 79.8576C281.237 79.8576 281.328 82.4602 277.376 82.9361C273.423 83.412 267.723 77.3429 266.242 70.3605C264.76 63.3781 266.376 59.8237 267.858 56.0059C269.34 52.1881 273.381 50.7147 275.939 51.5383C278.274 45.4235 281.103 42.9087 287.524 42.2151C293.946 41.5214 295.875 43.7763 295.875 43.7763C295.875 43.7763 300.5 40.7908 307.189 45.2936C313.878 49.7963 313.916 56.6118 313.07 57.2633C312.225 57.9148 313.474 61.903 314.328 69.3191C315.183 76.7352 314.51 77.9487 314.51 77.9487L306.474 84.1514L281.237 79.8576Z" fill="#0043A5"/>
<path d="M266.111 73.355C266.111 73.355 265.322 64.764 268.266 58.003C271.209 51.2419 276.447 52.4519 276.447 52.4519C276.447 52.4519 278.951 42.9899 287.487 41.3022C267.557 43.1708 261.63 45.1657 260.373 47.8543C259.117 50.543 259.206 63.4663 259.206 63.4663L266.111 73.355Z" fill="#FFFAE9"/>
<g opacity="0.45">
<path opacity="0.45" d="M264.81 76.8683C264.81 76.8683 268.446 78.8633 273.744 78.6034C279.042 78.3435 282.678 70.7095 282.904 65.29C284.071 68.7145 285.687 69.9737 287.349 66.0258C289.011 62.078 288.247 57.0923 288.247 57.0923C288.247 57.0923 291.338 62.7295 296.283 64.2925C301.228 65.8555 307.555 64.7245 307.463 61.7759C307.37 58.8274 304.545 55.0112 304.545 55.0112C304.545 55.0112 309.075 57.0062 310.166 60.3886C313.399 59.2172 313.759 57.2661 313.759 57.2661L316.093 66.1136C316.093 66.1136 323.115 88.8998 318.684 87.7407C314.253 86.5817 282.913 91.1371 278.468 88.6645C274.023 86.1918 268.221 83.3732 267.059 82.0736C265.898 80.774 264.81 76.8683 264.81 76.8683Z" fill="#2C0066"/>
</g>
<path d="M314.464 206.883C314.464 206.883 313.736 237.762 313.205 264.133C312.675 290.505 307.458 355.207 307.458 355.207C307.458 355.207 322.276 363.275 336.822 355.207C341.133 327.365 345.442 309.15 344.64 288.593C343.838 268.036 348.951 245.392 348.951 245.392C348.951 245.392 358.11 289.108 359.187 295.618C360.263 302.128 379.122 360.151 379.122 360.151C379.122 360.151 405.253 365.874 408.757 353.653C402.03 334.658 392.594 295.366 390.438 284.958C388.282 274.549 386.667 248.781 388.014 228.493C389.361 208.204 383.073 188.165 383.073 188.165L314.464 206.883Z" fill="#00326B"/>
<path d="M349.484 251.857L348.938 245.395L342.922 222.062C342.922 222.062 341.024 258.666 338.604 275.976C336.184 293.286 337.982 310.28 336.546 324.853C335.11 339.425 326.11 367.992 325.274 369.956C324.438 371.919 349.784 373.134 349.784 373.134C349.784 373.134 351.723 331.689 351.289 317.913C350.854 304.136 349.484 251.857 349.484 251.857Z" fill="#372751"/>
<path d="M407.372 360.31C407.172 359.607 387.349 289.634 383.639 276.127C381.177 267.171 381.457 252.103 381.711 237.536C381.85 229.89 381.993 221.987 381.722 215.233C370.492 203.776 368.194 192.607 367.088 187.226C366.788 185.768 366.448 184.117 366.139 183.889C366.162 183.902 366.188 183.908 366.214 183.908L366.159 182.679C367.445 182.625 367.759 184.172 368.341 186.978C369.514 192.677 371.696 203.286 382.815 214.55L382.98 214.725L382.991 214.957C383.275 221.795 383.129 229.81 382.991 237.56C382.729 252.043 382.46 267.018 384.877 275.814C388.586 289.317 408.406 359.284 408.606 359.988L407.372 360.31Z" fill="#FEFEFE"/>
<path d="M384.594 363.703C383.875 363.963 378.128 372.637 368.52 377.32C358.911 382.004 359.629 388.337 359.989 392.847C362.413 394.668 367.353 396.315 374.534 396.143C381.715 395.971 390.248 393.54 394.828 392.065C399.407 390.59 411.485 386.342 412.743 384.303C414.001 382.264 413.37 375.196 412.338 371.379C411.305 367.563 406.007 360.14 406.007 360.14L384.594 363.703Z" fill="#04143A"/>
<path d="M358.105 390.243C358.195 390.633 364.391 394.363 376.65 392.758C388.909 391.152 393.396 388.855 399.503 384.995C405.61 381.135 409.965 378.621 414.139 378.403C417.23 383.824 414.004 387.206 413.824 387.206C413.644 387.206 391.098 398.137 389.491 398.137C387.884 398.137 357.524 401.345 357.029 400.565C356.535 399.786 358.105 390.243 358.105 390.243Z" fill="white"/>
<path d="M398.244 378.492C400.873 378.492 403.004 376.434 403.004 373.895C403.004 371.355 400.873 369.297 398.244 369.297C395.615 369.297 393.484 371.355 393.484 373.895C393.484 376.434 395.615 378.492 398.244 378.492Z" fill="white"/>
<path d="M380.957 365.134C382.872 365.367 384.767 365.729 386.63 366.218C389.802 367.041 390.701 368.993 390.701 368.993L389.668 369.427C389.668 369.427 386.75 366.348 380.196 366.478C379.437 365.958 380.957 365.134 380.957 365.134Z" fill="white"/>
<path d="M377.748 367.922C379.662 368.155 381.557 368.518 383.419 369.006C386.593 369.832 387.491 371.783 387.491 371.783L386.459 372.217C386.459 372.217 383.55 369.136 376.985 369.268C376.221 368.746 377.748 367.922 377.748 367.922Z" fill="white"/>
<path d="M374.539 370.712C376.454 370.946 378.349 371.308 380.211 371.796C383.384 372.62 384.282 374.572 384.282 374.572L383.257 375.009C383.257 375.009 380.339 371.93 373.783 372.06C373.014 371.536 374.539 370.712 374.539 370.712Z" fill="white"/>
<path d="M371.328 373.502C373.243 373.735 375.137 374.097 376.999 374.586C380.173 375.412 381.072 377.363 381.072 377.363L380.039 377.797C380.039 377.797 377.119 374.716 370.565 374.848C369.801 374.326 371.328 373.502 371.328 373.502Z" fill="white"/>
<path d="M308.295 360.845C307.604 361.021 301.459 368.584 292.098 372.102C282.736 375.619 282.814 381.566 282.729 385.786C284.813 387.689 289.249 389.649 295.937 390.109C302.626 390.57 310.778 389.056 315.169 388.083C319.56 387.11 331.168 384.209 332.534 382.423C333.899 380.637 333.965 374.018 333.359 370.383C332.754 366.747 328.521 359.398 328.521 359.398L308.295 360.845Z" fill="#04143A"/>
<path d="M281.22 383.207C281.267 383.578 286.674 387.58 298.211 387.151C309.749 386.723 314.133 384.977 320.165 381.92C326.197 378.862 330.475 376.904 334.375 377.065C336.75 382.371 333.432 385.234 333.264 385.218C333.097 385.202 311.144 393.4 309.642 393.261C308.14 393.123 279.643 393.47 279.26 392.703C278.876 391.935 281.22 383.207 281.22 383.207Z" fill="white"/>
<path d="M320.028 375.788C322.481 375.788 324.469 373.867 324.469 371.498C324.469 369.128 322.481 367.207 320.028 367.207C317.575 367.207 315.586 369.128 315.586 371.498C315.586 373.867 317.575 375.788 320.028 375.788Z" fill="white"/>
<path d="M304.784 361.859C306.542 362.242 308.269 362.744 309.953 363.359C312.824 364.401 313.477 366.291 313.477 366.291L312.477 366.605C312.477 366.605 310.052 363.491 303.95 363.043C303.29 362.493 304.784 361.859 304.784 361.859Z" fill="white"/>
<path d="M301.542 364.174C303.299 364.557 305.026 365.057 306.711 365.672C309.582 366.713 310.234 368.604 310.234 368.604L309.234 368.917C309.234 368.917 306.809 365.803 300.708 365.356C300.048 364.806 301.542 364.174 301.542 364.174Z" fill="white"/>
<path d="M298.302 366.487C300.059 366.87 301.786 367.371 303.47 367.987C306.341 369.027 306.994 370.918 306.994 370.918L305.994 371.23C305.994 371.23 303.57 368.117 297.467 367.669C296.807 367.119 298.302 366.487 298.302 366.487Z" fill="white"/>
<path d="M295.06 368.8C296.817 369.182 298.544 369.684 300.229 370.299C303.1 371.339 303.753 373.23 303.753 373.23L302.754 373.544C302.754 373.544 300.329 370.431 294.227 369.983C293.566 369.434 295.06 368.8 295.06 368.8Z" fill="white"/>
<path d="M422.938 194.046C422.938 194.046 418.267 174.963 360.439 173.922C302.611 172.881 254.119 166.17 178.152 206.042C163.062 204.627 166.298 186.24 166.298 186.24C166.298 186.24 201.678 169.932 255.566 160.565C309.454 151.198 366.015 151.068 408.758 165.097C431.386 176.003 432.104 185.544 432.104 185.544L422.938 194.046Z" fill="#D1E1E5"/>
<path d="M161.81 190.749C161.81 190.749 181.206 181.208 202.577 175.822C223.949 170.436 264.169 159.706 300.094 157.962C336.02 156.218 353.797 156.708 383.875 162.993C413.954 169.279 420.237 174.789 420.237 174.789L414.136 161.267L306.619 139.236L182.102 153.988L166.83 175.321L161.81 190.749Z" fill="white"/>
<path d="M171.326 181.498C171.431 180.687 172.133 181.258 172.133 181.258C172.133 181.258 178.351 180.515 180.067 180.283C181.784 180.051 186.112 186.76 187.371 192.601C188.629 198.442 189.765 200.579 188.029 202.14C186.292 203.701 179.587 206.706 179.587 206.706C179.587 206.706 169.47 195.837 171.326 181.498Z" fill="#426772"/>
<path d="M322.184 88.0962L325.275 87.3937C325.275 87.3937 329.362 87.3656 336.994 86.9459C344.627 86.5262 351.661 86.4823 354.923 90.4441C358.184 94.406 360.431 102.008 364.831 120.051C369.231 138.093 370.758 141.04 374.26 151.796C377.761 162.553 383.868 191.954 383.868 191.954C383.868 191.954 346.961 219.364 311.672 209.215C311.223 189.873 311.401 175.215 309.696 165.24C307.99 155.265 307.181 143.464 299.907 137.05C299.907 137.05 279.345 158.345 279.076 158.431C278.806 158.517 272.349 137.874 272.349 137.874C272.349 137.874 281.839 126.375 287.973 118.732C289.822 116.433 291.366 114.482 292.253 113.306C296.084 108.213 292.851 106.481 296.024 103.417C299.196 100.352 313.923 92.3741 313.923 92.3741L322.184 88.0962Z" fill="#FCC37E"/>
<path d="M299.913 137.052C286.439 115.538 287.821 97.0122 287.821 97.0122L237.151 133.329C237.151 133.329 239.845 163.254 252.506 171.842C265.168 180.429 281.05 184.502 281.05 184.502C281.05 184.502 302.144 160.687 299.913 137.052Z" fill="#FC9E38"/>
<g opacity="0.31">
<path opacity="0.31" d="M358.586 102.09C358.586 102.09 358.377 116.42 356.895 130.992C355.413 145.565 351.046 157.845 355.804 158.406C360.562 158.966 368.073 155.712 364.031 170.024C359.989 184.337 375.29 176.522 383.872 176.139C392.453 175.756 395.549 186.026 389.084 193.442C382.619 200.858 377.098 214.389 344.77 214.909C312.443 215.429 310.143 222.845 307.454 212.307C304.765 201.768 291.835 197.216 314.059 191.621C336.283 186.026 346.521 172.495 331.571 175.877C316.621 179.26 317.428 184.205 327.529 169.243C337.631 154.28 309.894 158.706 309.894 158.706L332.925 149.124C332.925 149.124 337.776 137.759 322.69 139.32C307.603 140.881 327.135 129.173 334.947 117.719C342.759 106.266 358.586 102.09 358.586 102.09Z" fill="#DD7E00"/>
</g>
<g opacity="0.54">
<path opacity="0.54" d="M294.98 108.873C300.996 103.322 303.871 99.7655 310.965 96.3832C318.059 93.0008 321.295 89.0161 336.287 89.0214C351.279 89.0266 355.683 89.0214 355.683 89.0214C355.683 89.0214 325.151 82.2444 321.381 82.7659C317.61 83.2875 286.261 92.9727 285.548 93.7665C284.835 94.5603 285.184 110.086 285.184 110.086L294.98 108.873Z" fill="#FFFDA4"/>
</g>
<path d="M147.713 186.355L154.44 184.506C154.44 184.506 158.84 182.077 169.436 181.209C180.031 180.342 168.708 189.449 174.645 196.648C180.581 203.846 188.742 214.343 226.995 224.231C265.247 234.12 295.606 230.48 308.712 239.324C321.819 248.167 320.924 270.202 316.614 291.365C312.303 312.528 313.47 324.458 289.564 337.239C280.063 328.059 140.434 234.466 140.792 217.813C141.15 201.159 147.713 186.355 147.713 186.355Z" fill="#799BA8"/>
<path d="M292.649 270.965C293.183 269.034 305.986 245.484 314.133 243.394C322.28 241.304 334.932 279.822 332.378 291.272C329.823 302.722 365.6 351.179 322.924 342.951C280.248 334.724 294.532 352.034 294.532 352.034C294.532 352.034 270.828 350.05 292.649 270.965Z" fill="#4F747F"/>
<path d="M393.781 357.92C400.008 356.759 406.951 350.401 408.326 350.807C409.7 351.213 411.08 355.491 410.482 356.994C409.884 358.498 405.633 364.223 396.354 364.397C387.074 364.57 378.933 364.974 378.394 363.297C377.856 361.62 375.46 357.284 379.353 357.978C383.245 358.671 392.539 358.15 393.781 357.92Z" fill="#372751"/>
<path d="M320.837 355.029C326.564 354.557 339.785 350.084 339.156 353.034C338.527 355.985 339.338 363.269 337.002 363.615C334.665 363.961 323.891 364.913 318.144 364.567C312.397 364.221 305.123 363.257 304.225 361.485C303.327 359.713 306.607 352.444 307.169 352.095C307.73 351.745 318.443 355.226 320.837 355.029Z" fill="#372751"/>
<path d="M343.513 370.423C343.199 370.423 342.031 372.202 342.031 372.202L344.5 374.631C344.5 374.631 348.271 374.673 351.729 371.821C355.187 368.969 354.916 367.223 359.407 365.836C363.898 364.449 367.803 362.41 371.708 359.893C375.613 357.377 377.77 354.734 377.546 353.649C377.322 352.563 375.132 348.988 375.132 348.988L343.513 370.423Z" fill="#244293"/>
<path d="M302.271 364.353C302.089 364.103 299.907 364.203 299.907 364.203L299.269 367.551C299.269 367.551 301.4 370.557 305.814 371.644C310.229 372.732 311.54 371.523 315.296 374.279C319.052 377.034 323.024 378.947 327.401 380.589C331.777 382.231 335.257 382.415 336.046 381.614C336.835 380.814 338.607 377.027 338.607 377.027L302.271 364.353Z" fill="#244293"/>
<path d="M69.6323 150.981L73.1231 149.873V178.721L64.0635 186.859C64.0635 186.859 60.6674 178.322 60.3946 177.795C60.1219 177.269 60.3946 153.251 60.3946 153.251L69.6323 150.981Z" fill="#0387E1"/>
<path d="M493.15 175.161L490.45 174.302V196.637L497.464 202.938C497.464 202.938 500.093 196.333 500.304 195.926C500.515 195.518 500.304 176.922 500.304 176.922L493.15 175.161Z" fill="#0387E1"/>
<path d="M32.7812 157.573L31.7249 155.619L40.8135 149.873H73.1246L64.065 155.619L60.7434 157.282L32.7812 157.573Z" fill="#67C2FF"/>
<path d="M521.685 180.271L522.503 178.759L515.465 174.309H490.45L497.464 178.759L500.035 180.046L521.685 180.271Z" fill="#67C2FF"/>
<path d="M64.065 155.618H31.7249V186.856H64.065V155.618Z" fill="#0299FF"/>
<g opacity="0.34">
<path opacity="0.34" d="M79.3337 144.326V181.825L67.5562 192.404V151.795L79.3337 144.326Z" fill="#73E2E5"/>
</g>
<g opacity="0.34">
<path opacity="0.34" d="M25.5151 151.794L37.3309 144.326H79.3324L67.5548 151.794H25.5151Z" fill="#BBF7FF"/>
</g>
<g opacity="0.34">
<path opacity="0.34" d="M67.5548 151.795H25.5151V192.402H67.5548V151.795Z" fill="#87ECF4"/>
</g>
<g opacity="0.34">
<path opacity="0.34" d="M79.3337 144.326V181.825L67.5562 192.404V151.795L79.3337 144.326Z" fill="#73E2E5"/>
</g>
<g opacity="0.34">
<path opacity="0.34" d="M25.5151 151.794L37.3309 144.326H79.3324L67.5548 151.794H25.5151Z" fill="#BBF7FF"/>
</g>
<g opacity="0.34">
<path opacity="0.34" d="M67.5548 151.795H25.5151V192.402H67.5548V151.795Z" fill="#87ECF4"/>
</g>
<g opacity="0.34">
<path opacity="0.34" d="M436.213 24.2837V40.755L431.041 45.4019V27.5643L436.213 24.2837Z" fill="#73E2E5"/>
</g>
<g opacity="0.34">
<path opacity="0.34" d="M412.571 27.5645L417.761 24.2837H436.21L431.037 27.5645H412.571Z" fill="#BBF7FF"/>
</g>
<g opacity="0.34">
<path opacity="0.34" d="M431.037 27.5635H412.571V45.4009H431.037V27.5635Z" fill="#87ECF4"/>
</g>
<g opacity="0.34">
<path opacity="0.34" d="M96.811 55.0591V80.3794L88.8586 87.5234V60.1028L96.811 55.0591Z" fill="#73E2E5"/>
</g>
<g opacity="0.34">
<path opacity="0.34" d="M60.4722 60.1035L68.4499 55.0591H96.8121L88.8598 60.1035H60.4722Z" fill="#BBF7FF"/>
</g>
<g opacity="0.34">
<path opacity="0.34" d="M88.8598 60.103H60.4722V87.5234H88.8598V60.103Z" fill="#87ECF4"/>
</g>
<g opacity="0.34">
<path opacity="0.34" d="M484.953 168.937V198.933L494.372 207.394V174.912L484.953 168.937Z" fill="#73E2E5"/>
</g>
<g opacity="0.34">
<path opacity="0.34" d="M528 174.913L518.549 168.937H484.953L494.372 174.913H528Z" fill="#BBF7FF"/>
</g>
<g opacity="0.34">
<path opacity="0.34" d="M494.374 207.394H528.001V174.912H494.374V207.394Z" fill="#87ECF4"/>
</g>
<path d="M497.339 202.964H522.378V178.779H497.339V202.964Z" fill="#0299FF"/>
<path d="M90.7809 58.6232L93.3408 57.8101V78.9841L86.6902 84.9551C86.6902 84.9551 84.1976 78.6943 83.9976 78.3097C83.7976 77.9251 83.9976 60.2933 83.9976 60.2933L90.7809 58.6232Z" fill="#0387E1"/>
<path d="M63.7258 63.4614L62.9495 62.0266L69.6219 57.8101H93.3388L86.6882 62.0266L84.2502 63.2472L63.7258 63.4614Z" fill="#67C2FF"/>
<path d="M429.876 29.0108L431.149 28.6069V39.1157L427.849 42.0801C427.849 42.0801 426.611 38.9717 426.513 38.7803C426.414 38.5889 426.513 29.8397 426.513 29.8397L429.876 29.0108Z" fill="#1293E3"/>
<path d="M416.451 31.4126L416.067 30.7011L419.378 28.6069H431.148L427.848 30.7011L426.638 31.3072L416.451 31.4126Z" fill="#6BC7FE"/>
<path d="M86.6882 62.0264H62.9495V84.9565H86.6882V62.0264Z" fill="#0299FF"/>
<g opacity="0.34">
<path opacity="0.34" d="M434.327 242.808V290.819L449.404 304.362V252.372L434.327 242.808Z" fill="#73E2E5"/>
</g>
<g opacity="0.34">
<path opacity="0.34" d="M503.229 252.372L488.102 242.808H434.327L449.404 252.372H503.229Z" fill="#BBF7FF"/>
</g>
<g opacity="0.34">
<path opacity="0.34" d="M449.405 304.361H503.23V252.371H449.405V304.361Z" fill="#87ECF4"/>
</g>
<path d="M445.765 249.565L440.911 248.023V288.17L453.519 299.497C453.519 299.497 458.246 287.622 458.624 286.892C459.002 286.161 458.624 252.731 458.624 252.731L445.765 249.565Z" fill="#0388E1"/>
<path d="M497.059 258.739L498.53 256.021L485.879 248.023H440.911L453.519 256.021L458.142 258.334L497.059 258.739Z" fill="#67C2FF"/>
<path d="M453.519 299.496H498.529V256.02H453.519V299.496Z" fill="#0299FF"/>
<path d="M427.848 30.7012H416.067V42.0815H427.848V30.7012Z" fill="#0299FF"/>
<path d="M91.8564 199.25L92.5837 198.458C92.5837 198.458 92.8473 197.689 106.138 194.047C119.428 190.405 149.837 185.091 154.448 184.506C151.215 187.744 150.406 199.944 165.133 211.48C179.859 223.016 211.961 237.199 235.533 241.621C259.104 246.042 288.603 244.353 298.571 253.46C308.54 262.568 307.46 290.149 301.535 308.626C295.61 327.102 294.933 335.426 283.485 341.671C272.036 347.916 242.465 359.978 231.322 362.664C229.738 341.541 91.8564 199.25 91.8564 199.25Z" fill="#C3DFED"/>
<path d="M266.062 317.211C267.896 317.211 269.383 315.775 269.383 314.003C269.383 312.231 267.896 310.794 266.062 310.794C264.227 310.794 262.74 312.231 262.74 314.003C262.74 315.775 264.227 317.211 266.062 317.211Z" fill="white"/>
<path d="M266.062 317.562C265.332 317.562 264.619 317.353 264.013 316.962C263.407 316.57 262.934 316.014 262.655 315.363C262.376 314.712 262.303 313.996 262.445 313.305C262.588 312.614 262.939 311.98 263.455 311.481C263.971 310.983 264.628 310.644 265.343 310.507C266.059 310.37 266.8 310.441 267.474 310.711C268.148 310.98 268.723 311.437 269.128 312.023C269.533 312.609 269.749 313.298 269.749 314.002C269.748 314.946 269.359 315.852 268.668 316.519C267.976 317.186 267.039 317.562 266.062 317.562ZM266.062 311.143C265.476 311.143 264.904 311.311 264.417 311.625C263.93 311.939 263.551 312.386 263.327 312.908C263.103 313.431 263.044 314.005 263.159 314.56C263.273 315.115 263.555 315.624 263.969 316.024C264.383 316.424 264.91 316.696 265.484 316.806C266.058 316.917 266.653 316.86 267.194 316.644C267.735 316.427 268.197 316.061 268.523 315.591C268.848 315.121 269.021 314.568 269.021 314.002C269.021 313.244 268.709 312.517 268.154 311.981C267.599 311.445 266.846 311.144 266.062 311.143Z" fill="black"/>
<path d="M285.165 308.407L274.866 310.409C273.578 310.66 272.743 311.872 273.003 313.117C273.262 314.361 274.517 315.167 275.805 314.917L286.104 312.915C287.392 312.664 288.227 311.452 287.967 310.208C287.708 308.963 286.453 308.157 285.165 308.407Z" fill="white"/>
<path d="M275.312 315.334C274.632 315.334 273.976 315.09 273.471 314.649C272.966 314.209 272.649 313.602 272.581 312.949C272.513 312.295 272.699 311.64 273.103 311.111C273.507 310.582 274.1 310.217 274.767 310.086L285.066 308.084C285.419 308.015 285.783 308.014 286.137 308.08C286.491 308.147 286.828 308.28 287.128 308.473C287.428 308.665 287.687 308.913 287.888 309.201C288.089 309.49 288.23 309.814 288.301 310.156C288.373 310.497 288.374 310.848 288.305 311.19C288.236 311.532 288.098 311.857 287.899 312.147C287.7 312.438 287.444 312.687 287.145 312.882C286.846 313.076 286.51 313.212 286.157 313.281L275.858 315.283C275.678 315.317 275.495 315.335 275.312 315.334ZM285.613 308.736C285.48 308.736 285.346 308.748 285.215 308.774L274.916 310.775C274.656 310.825 274.409 310.924 274.189 311.067C273.97 311.21 273.781 311.392 273.634 311.605C273.487 311.818 273.386 312.057 273.334 312.308C273.283 312.559 273.284 312.818 273.336 313.068C273.388 313.319 273.491 313.558 273.638 313.77C273.786 313.983 273.975 314.165 274.196 314.307C274.416 314.448 274.664 314.547 274.923 314.596C275.183 314.645 275.451 314.645 275.71 314.595L286.01 312.592C286.508 312.505 286.954 312.24 287.259 311.849C287.565 311.458 287.706 310.971 287.656 310.484C287.606 309.997 287.368 309.546 286.99 309.221C286.611 308.896 286.12 308.72 285.613 308.729V308.736Z" fill="black"/>
<path d="M241.149 278.531C241.149 278.531 260.411 276.269 246.403 266.905C232.394 257.541 221.94 245.933 224.851 237.198C227.762 228.463 298.666 241.637 310.876 254.013C323.086 266.389 322.995 297.613 308.225 326.236C293.455 354.86 209.227 368.559 209.407 368.043C209.587 367.527 241.149 278.531 241.149 278.531Z" fill="#92B4D6"/>
<path d="M82.6529 207.794L80.9058 203.9C80.9058 203.9 82.422 201.793 86.2528 200.292C90.0835 198.79 92.7779 197.053 97.5667 200.292C102.356 203.53 116.904 218.68 146.902 233.077C176.901 247.474 203.423 255.455 225.807 262.568C248.192 269.68 255.557 281.13 255.557 297.609C255.557 314.089 254.119 342.018 242.985 353.981C231.851 365.944 224.397 364.302 212.543 365.083C200.689 365.865 190.993 355.368 190.993 355.368L82.6529 207.794Z" fill="#21A9FD"/>
<path d="M213.538 285.124L251.991 280.85L254.103 286.29L255.511 292.41V304.651L254.807 316.891L254.103 326.411L251.991 358.332L230.875 364.492L210.462 367.893C210.462 367.893 182.503 360.395 183.003 358.332C183.503 356.268 213.538 285.124 213.538 285.124Z" fill="#21A9FD"/>
<path d="M79.3761 204.917C85.5576 199.589 92.4863 209.08 106.197 217.638C119.907 226.196 114.667 224.838 141.426 238.627C168.184 252.417 185.516 260.746 200.423 267.077C215.329 273.408 219.818 277.312 223.769 289.368C227.719 301.423 225.565 335.164 220.447 346.223C215.329 357.281 209.462 364.625 198.746 362.203C188.031 359.782 156.332 342.977 129.528 327.755C102.724 312.533 89.2537 302.906 81.8468 295.749C74.4399 288.593 68.7802 277.017 69.7238 255.281C70.6674 233.545 71.3856 211.797 79.3761 204.917Z" fill="#7CCDFF"/>
<g opacity="0.55">
<path opacity="0.55" d="M133.035 234.607L83.7627 297.85L97.1365 308.051L148.52 242.768L133.035 234.607Z" fill="white"/>
</g>
<g opacity="0.55">
<path opacity="0.55" d="M165.411 250.928L114.027 318.931L135.848 331.171L188.639 261.809L165.411 250.928Z" fill="white"/>
</g>
<path d="M83.1005 211.567C83.0096 208.845 84.3586 206.926 87.7693 209.225C91.18 211.523 94.0563 213.388 97.647 214.776C101.238 216.163 101.509 216.641 100.92 218.68C100.33 220.719 99.7523 222.192 97.3724 221.489C94.9926 220.787 90.3237 218.541 86.8276 216.154C83.3314 213.768 83.1459 212.918 83.1005 211.567Z" fill="#172960"/>
<path d="M189.599 271.556C189.074 268.879 190.098 266.782 193.837 268.544C197.577 270.305 200.715 271.715 204.486 272.55C208.257 273.384 208.6 273.814 208.349 275.914C208.098 278.015 207.76 279.56 205.297 279.23C202.833 278.9 197.861 277.372 194.025 275.542C190.188 273.712 189.859 272.876 189.599 271.556Z" fill="#172960"/>
<path d="M80.2512 290.012C80.5003 287.301 82.0693 285.551 85.1782 288.23C88.2871 290.908 90.9016 293.092 94.2941 294.887C97.6866 296.682 97.8957 297.187 97.0612 299.144C96.2267 301.1 95.4649 302.494 93.1887 301.53C90.9125 300.566 86.5581 297.783 83.371 295.008C80.1839 292.233 80.1294 291.357 80.2512 290.012Z" fill="#172960"/>
<path d="M176.869 347.728C176.579 345.02 177.778 343.012 181.356 345.072C184.934 347.132 187.93 348.797 191.613 349.937C195.297 351.077 195.602 351.533 195.169 353.605C194.737 355.678 194.26 357.19 191.837 356.659C189.413 356.129 184.59 354.201 180.928 352.058C177.267 349.916 177.012 349.066 176.869 347.728Z" fill="#172960"/>
<g opacity="0.14">
<path opacity="0.14" d="M68.7838 228.918C72.9145 227.703 76.147 232.386 82.7922 249.387C89.4373 266.389 96.6205 270.031 130.922 287.553C165.224 305.076 155.707 320.513 192.883 314.961C230.059 309.41 232.394 265.695 222.336 257.711C212.278 249.728 94.8243 190.404 94.6461 189.884C94.4679 189.364 64.4658 195.955 64.4658 195.955L68.7838 228.918Z" fill="white"/>
</g>
<path d="M387.567 238.971C387.567 238.971 415.393 217.464 420.422 195.781C425.451 174.098 408.748 165.098 408.748 165.098C408.748 165.098 429.222 168.545 437.838 179.473C446.454 190.402 444.125 208.79 432.809 226.659C421.493 244.528 391.684 266.904 391.684 266.904L387.567 238.971Z" fill="white"/>
<path d="M321.467 268.552C321.467 268.552 336.911 264.65 349.484 259.967C362.056 255.283 373.73 251.813 378.937 242.966C384.144 234.118 389.352 233.944 391.689 238.802C394.025 243.659 398.692 260.66 395.459 265.344C392.227 270.028 383.247 278.527 369.239 284.078C355.231 289.63 306.031 307.662 306.031 307.662L321.467 268.552Z" fill="#426772"/>
<path d="M288.342 92.5979C288.342 92.5979 291.933 92.3081 294.867 96.4719C297.802 100.636 298.6 108.21 294.309 115.087C290.019 121.964 283.134 120.812 283.134 120.812L284.001 156.678C284.001 156.678 262.9 146.381 263.258 142.102C263.616 137.822 269.903 110.235 270.801 107.46C271.7 104.685 282.774 91.0929 288.342 92.5979Z" fill="#703F65"/>
<path d="M282.135 145.993C282.135 145.993 291.025 148.205 291.967 150.286C292.909 152.367 295.392 162.908 297.318 172.795C299.243 182.682 303.552 198.17 300.454 203.371C297.356 208.573 290.174 208.838 287.973 203.371C285.771 197.904 277.958 171.761 277.958 171.761L282.135 145.993Z" fill="#EA9E86"/>
<path d="M319.164 351.517L320.695 353.02C320.695 353.02 325.843 356.631 331.576 360.22C337.308 363.81 339.837 367.283 340.03 371.02C340.223 374.757 338.614 377.599 337.687 377.908C336.759 378.217 334.354 379.587 328.152 377.169C321.951 374.75 315.731 370.12 311.868 369.561C308.004 369.003 302.65 367.599 299.912 364.21C300.536 358.276 302.674 354.123 309.099 346.586C314.319 348.549 319.164 351.517 319.164 351.517Z" fill="#0465BC"/>
<path d="M325.015 354.559L320.566 356.588C320.566 356.588 323.237 358.929 326.397 360.22C329.557 361.511 331.577 360.571 332.138 358.42C328.449 355.056 325.015 354.559 325.015 354.559Z" fill="white"/>
<path d="M321.645 254.187C321.645 254.187 323.441 254.187 324.697 255.025C325.954 255.862 327.93 257.835 327.632 265.347C327.334 272.86 325.507 309.063 325.596 319.123C325.685 329.184 320.687 353.017 320.687 353.017C320.687 353.017 314.185 355.546 306.551 350.168C306.187 329.611 306.751 292.918 306.022 286.329C305.293 279.74 296.046 262.998 296.046 262.998C296.046 262.998 312.485 252.564 321.645 254.187Z" fill="#EA9E86"/>
<path d="M304.068 328.835C304.068 328.835 312.844 335.774 326.673 329.703C329.905 338.029 323.62 348.98 323.62 348.98C323.62 348.98 324.358 357.087 323.438 357.586C322.518 358.084 309.27 357.461 306.027 355.292C302.783 353.123 298.649 357.157 299.909 348.982C301.169 340.807 304.068 328.835 304.068 328.835Z" fill="white"/>
<path d="M342.348 349.694L344.502 349.343C344.502 349.343 350.519 347.348 356.849 344.877C363.18 342.406 367.576 342.405 370.848 344.4C374.121 346.395 375.608 349.301 375.339 350.211C375.07 351.12 374.845 353.811 369.232 357.323C363.62 360.835 356.122 363.092 353.427 365.824C350.733 368.557 346.468 371.981 342.024 372.199C337.354 368.295 335.065 364.219 332.37 354.814C337.046 351.828 342.348 349.694 342.348 349.694Z" fill="#007CE1"/>
<path d="M348.286 346.818L347.448 351.501C347.448 351.501 350.966 350.736 353.875 348.98C356.784 347.224 357.148 345.083 355.65 343.406C350.681 344.389 348.286 346.818 348.286 346.818Z" fill="white"/>
<path d="M306.634 257.242C311.35 259.213 313.205 260.08 316.088 269.679C318.971 279.278 327.127 309.017 333.723 323.978C340.319 338.938 344.501 349.347 344.501 349.347C344.501 349.347 341.672 357.285 332.378 354.812C323.759 341.671 316.888 328.401 312.579 321.635C308.27 314.869 296.145 291.58 296.684 279.22C290.624 268.032 283.775 266.769 283.775 266.769L306.634 257.242Z" fill="#F2CAAF"/>
<path d="M317.334 335.079C317.334 335.079 334.217 337.68 336.551 324.844C346.429 336.814 346.609 350.788 346.609 350.788L340.862 359.393L335.115 360.142L317.334 335.079Z" fill="white"/>
<path d="M285.099 149.122C285.099 149.122 288.02 163.688 287.973 167.982C287.926 172.275 284.769 177.277 282.615 182.134C280.461 186.992 278.252 194.218 278.304 196.243C278.357 198.268 278.364 216.51 279.712 216.77C281.059 217.03 288.869 223.015 300.723 231.603C312.577 240.19 324.698 255.021 324.698 255.021C324.698 255.021 308.53 252.68 293.449 275.962C280.922 273.23 254.095 262.791 241.452 255.797C225.802 247.123 224.302 227.737 232.383 215.378C240.464 203.018 242.395 197.379 241.857 190.616C241.319 183.853 237.006 165.765 238.623 159.006C240.239 152.247 252.497 129.603 253.167 129.603C253.838 129.603 258.66 124.528 258.66 124.528C258.66 124.528 280.239 129.398 279.401 129.29C274.966 128.721 263.476 138.071 273.661 142.086C275.879 142.955 283.76 141.97 285.099 149.122Z" fill="white"/>
<g opacity="0.14">
<path opacity="0.14" d="M240.294 159.441C239.931 161.87 240.385 166.69 242.36 176.683C244.334 186.675 246.221 193.701 249.814 195.262C253.406 196.824 276.213 202.814 279.716 197.345C283.219 191.877 287.972 189.239 287.972 178.609C287.972 167.979 289.906 157.91 289.75 156.766C289.594 155.623 289.503 152.503 286.899 150.68C284.296 148.857 278.272 144.639 270.466 144.263C262.659 143.887 250.999 143.641 250.361 143.778C249.723 143.915 240.294 159.441 240.294 159.441Z" fill="#5C75DC"/>
</g>
<path d="M244.914 192.229C244.785 192.489 242.451 203.937 235.357 213.302C228.263 222.668 227.463 232.525 229.164 241.346C230.866 250.167 257.086 269.681 263.821 272.803C270.555 275.926 294.621 281.875 298.124 280.263C301.628 278.651 319.396 265.431 316.622 262.049C313.847 258.666 327.681 249.993 313.135 238.109C298.588 226.226 272.082 221.978 272.711 220.329C273.34 218.68 281.62 219.626 276.136 213.736C270.653 207.846 275.955 206.225 275.591 200.246C275.227 194.266 264.186 194.041 259.248 192.829C254.31 191.618 244.914 192.229 244.914 192.229Z" fill="#00326B"/>
<path d="M298.764 272.255C298.666 272.222 288.89 268.919 277.511 264.635C262.215 258.882 251.47 254.204 245.572 250.732C238.945 246.831 235.027 242.004 233.936 236.384C233.058 231.887 233.918 226.797 236.571 220.821C240.981 210.878 248.523 198.869 248.599 198.755L249.69 199.394C249.616 199.514 242.12 211.443 237.743 221.306C235.198 227.048 234.36 231.906 235.198 236.156C236.242 241.493 239.858 245.918 246.252 249.678C252.003 253.064 262.979 257.839 277.987 263.485C289.344 267.758 299.104 271.058 299.2 271.091L298.764 272.255Z" fill="#FEFEFE"/>
<path d="M268.667 207.533C270.452 207.533 271.899 206.135 271.899 204.41C271.899 202.686 270.452 201.288 268.667 201.288C266.881 201.288 265.434 202.686 265.434 204.41C265.434 206.135 266.881 207.533 268.667 207.533Z" fill="#FCC37E"/>
<path d="M268.493 218.024C270.278 218.024 271.725 216.627 271.725 214.902C271.725 213.178 270.278 211.78 268.493 211.78C266.707 211.78 265.26 213.178 265.26 214.902C265.26 216.627 266.707 218.024 268.493 218.024Z" fill="#FCC37E"/>
<path d="M248.917 143.659C248.917 143.659 267.683 145.482 272.895 141.746C272.806 127.262 259.078 118.093 259.078 118.093L248.288 137.906L248.917 143.659Z" fill="#EA9E86"/>
<g opacity="0.28">
<path opacity="0.28" d="M245.593 151.895C245.229 155.798 244.874 163.865 254.572 165.686C264.27 167.507 285.822 167.941 283.843 170.977C281.865 174.013 256.276 173.752 250.978 175.141C245.68 176.53 238.944 163.517 238.944 163.517L245.593 151.895Z" fill="#5C75DC"/>
</g>
<path d="M313.524 260.576C313.659 260.446 302.677 245.614 282.778 232.214C309.619 249.249 316.084 260.967 316.084 260.967L313.524 260.576Z" fill="#961A70"/>
<path d="M277.65 163.462L277.959 160.359C277.959 160.359 276.259 150.644 274.686 148.078C273.363 145.923 263.57 142.785 262.665 143.888C261.76 144.991 261.907 145.951 262.436 146.756C261.345 147.479 260.118 148.703 261.314 150.415C260.202 151.673 259.536 153.19 260.678 154.065C259.9 155.524 259.66 156.546 261.18 157.928C262.7 159.31 264.616 158.943 265.316 160.754C266.016 162.564 264.912 167.692 270.823 168.358C275.377 165.276 277.65 163.462 277.65 163.462Z" fill="#F2CAAF"/>
<path d="M269.608 166.281C269.608 166.281 275.939 182.937 280.922 193.483C285.906 204.028 287.927 205.453 289.751 205.911C291.575 206.369 294.258 205.972 295.605 199.206C296.952 192.439 293.989 187.627 292.642 184.505C291.295 181.383 283.482 169.023 277.959 160.565L269.608 166.281Z" fill="#F2CAAF"/>
<path d="M193.027 230.619L191.987 230.343C191.987 230.343 184.327 235.424 182.82 237.017C181.133 238.794 177.791 243.753 177.433 246.356C177.075 248.959 179.026 249.24 179.026 249.24C179.026 249.24 178.009 251.473 179.571 251.995C180.298 252.283 180.94 251.538 180.94 251.538C180.94 251.538 180.175 253.37 181.304 253.913C182.433 254.455 183.373 253.858 184.473 250.606C184.045 253.533 183.236 254.445 184.091 255.117C184.945 255.79 186.109 254.345 186.963 251.531C187.773 248.873 187.951 247.585 188.222 247.108C188.493 246.63 194.267 240.849 193.818 244.275C193.369 247.701 192.741 248.091 193.01 250.172C193.28 252.253 194.73 252.255 195.585 250.086C196.439 247.917 196.818 245.919 198.517 243.899C199.685 242.512 201.87 238.982 201.063 237.206C196.156 233.51 193.027 230.619 193.027 230.619Z" fill="#F2CAAF"/>
<path d="M176.146 250.02C176.375 249.92 176.608 249.827 176.841 249.736C177.073 249.644 177.308 249.56 177.54 249.472C177.773 249.384 178.011 249.296 178.246 249.221C178.48 249.145 178.717 249.058 178.953 248.98L178.771 249.144C179.006 248.374 179.268 247.616 179.544 246.86C179.82 246.105 180.113 245.357 180.439 244.612C180.788 243.871 181.203 243.161 181.68 242.489C182.142 241.82 182.62 241.163 183.147 240.536C182.822 241.279 182.46 242.001 182.102 242.721C181.92 243.072 181.738 243.436 181.557 243.794C181.468 243.97 181.375 244.145 181.3 244.321C181.226 244.497 181.148 244.672 181.077 244.857C180.789 245.598 180.502 246.348 180.204 247.092C179.906 247.837 179.6 248.58 179.271 249.314L179.211 249.449L179.091 249.476C178.848 249.53 178.604 249.583 178.364 249.63C178.124 249.678 177.875 249.732 177.628 249.774C177.38 249.816 177.137 249.865 176.888 249.902C176.639 249.939 176.395 249.988 176.146 250.02Z" fill="#EA9E86"/>
<path d="M179.082 253.116C179.356 252.812 179.627 252.517 179.922 252.227C180.216 251.937 180.496 251.651 180.789 251.368L180.724 251.465C180.838 251.008 180.974 250.56 181.1 250.107L181.513 248.76C181.798 247.866 182.102 246.977 182.422 246.094C182.503 245.873 182.587 245.651 182.678 245.434C182.769 245.216 182.86 244.993 182.965 244.764C183.078 244.546 183.203 244.333 183.34 244.129C183.472 243.928 183.605 243.732 183.742 243.535C184.289 242.757 184.879 242.007 185.509 241.289C185.085 242.139 184.623 242.962 184.176 243.788C183.949 244.194 183.725 244.619 183.545 245.017C183.365 245.416 183.245 245.885 183.091 246.322C182.789 247.2 182.483 248.094 182.16 248.974L181.665 250.293C181.483 250.731 181.327 251.171 181.143 251.605L181.114 251.674L181.078 251.702C180.753 251.946 180.424 252.188 180.089 252.425C179.754 252.663 179.424 252.891 179.082 253.116Z" fill="#EA9E86"/>
<path d="M183.24 253.982C183.296 253.685 183.367 253.392 183.435 253.104C183.502 252.816 183.58 252.521 183.662 252.226C183.744 251.931 183.818 251.644 183.907 251.36L184.173 250.499L184.164 250.531C184.434 249.114 184.754 247.721 185.127 246.316L185.196 246.053C185.214 245.993 185.234 245.926 185.256 245.877L185.318 245.74C185.402 245.565 185.489 245.403 185.584 245.241C185.765 244.924 185.947 244.606 186.158 244.3C186.554 243.684 186.976 243.083 187.431 242.505C187.158 243.185 186.86 243.849 186.554 244.507C186.409 244.839 186.247 245.162 186.105 245.491C186.036 245.656 185.963 245.819 185.903 245.976L185.862 246.09L185.84 246.17L185.785 246.436C185.494 247.855 185.153 249.268 184.762 250.668V250.694L184.411 251.525C184.296 251.803 184.167 252.077 184.047 252.35C183.927 252.624 183.791 252.897 183.664 253.171C183.536 253.445 183.385 253.715 183.24 253.982Z" fill="#EA9E86"/>
<path d="M218.916 179.474C218.916 179.474 213.32 189.81 209.668 197.386C206.015 204.962 191.989 230.343 191.989 230.343C191.989 230.343 192.296 236.806 201.052 237.192C203.879 231.076 214.386 217.415 217.484 210.91C220.582 204.405 222.333 202.384 225.027 198.45C227.722 194.517 231.627 188.159 231.627 188.159L218.916 179.474Z" fill="#F2CAAF"/>
<path d="M220.003 181.152C220.003 181.152 218.267 184.626 220.421 187.748C222.576 190.87 221.081 195.575 219.345 200.248C217.609 204.921 215.394 207.06 213.358 211.05C211.322 215.04 206.833 223.597 204.139 228.282C201.444 232.968 191.028 231.809 191.028 231.809L194.919 237.534C194.919 237.534 198.293 240.601 201.126 238.953C203.959 237.304 204.619 235.047 204.619 235.047L225.808 203.592L231.599 190.986L230.539 186.245L219.994 180.866L220.003 181.152Z" fill="#EA9E86"/>
<path d="M191.992 228.861C193.128 229.563 196.672 225.183 198.95 219.319C201.228 213.456 207.131 204.517 209.889 199.138C212.647 193.759 217.432 180.279 217.432 180.279C217.432 180.279 206.178 197.347 201.03 204.513C195.881 211.68 191.992 228.861 191.992 228.861Z" fill="#FFFAE9"/>
<path d="M287.974 92.8512C287.974 92.8512 283.812 82.6165 271.066 84.5254C258.319 86.4343 253.525 90.2504 250.292 100.889C247.06 111.528 246.221 118.932 242.211 124.421C238.2 129.911 206.845 131.678 201.862 156.007C203.747 172.401 210.483 173.44 210.483 173.44C210.483 173.44 213.176 166.416 221.257 160.301C217.217 166.286 214.119 177.084 214.119 177.084C214.119 177.084 219.641 186.971 236.209 192.826C238.498 175.792 236.882 168.741 248.332 153.852C259.782 138.964 264.351 122.444 264.351 122.444L287.974 92.8512Z" fill="#703F65"/>
<g opacity="0.26">
<path opacity="0.26" d="M197.015 150.78C197.285 150.897 196.47 160.005 209.408 169.892C211.966 165.99 212.64 164.169 222.069 158.184C218.296 173.016 219.105 178.219 219.105 178.219L231.626 185.771C231.626 185.771 227.979 171.722 237.828 158.969C247.677 146.216 242.946 144.825 242.677 137.911C242.408 130.997 247.526 131.907 250.22 132.428C252.914 132.95 259.034 128.308 257.298 122.178C255.562 116.047 255.682 113.62 259.574 106.623C263.467 99.6269 276.062 95.5211 276.139 95.5211C276.215 95.5211 286.013 100.129 287.489 96.2639C288.965 92.3987 292.38 99.6849 292.798 106.219C293.216 112.754 297.409 111.137 297.767 109.862C292.676 125.822 244.966 197.881 244.159 198.461C243.351 199.04 223.147 198.001 216.816 190.584C210.486 183.168 194.187 173.801 194.187 170.549C194.187 167.296 197.015 150.78 197.015 150.78Z" fill="#09004C"/>
</g>
<path d="M203.18 149.466L203.679 150.258C203.679 150.258 209.647 140.851 217.549 137.087C225.45 133.324 238.246 130.156 241.149 125.753C244.053 121.351 246.762 114.999 249.636 105.63C252.511 96.2609 253.407 91.7003 261.788 87.7051C270.17 83.7099 275.519 84.6793 280.296 84.2842C262.028 82.2119 252.151 86.6637 251.911 87.1273C251.671 87.5909 242.931 100.311 241.495 104.011C240.059 107.711 228.446 124.031 227.577 124.343C226.708 124.656 199.17 140.903 199.11 141.135C199.05 141.367 203.18 149.466 203.18 149.466Z" fill="#FFFAE9"/>
<g opacity="0.26">
<path opacity="0.26" d="M202.809 167.621C203.481 168.201 205.636 160.451 216.142 151.38C226.649 142.31 238.905 140.383 248.686 125.581C237.414 143.091 231.762 142.117 223.415 148.393C215.068 154.67 207.125 160.511 202.541 173.136C196.818 174.916 202.809 167.621 202.809 167.621Z" fill="#09004C"/>
</g>
<g opacity="0.47">
<path opacity="0.47" d="M267.683 87.5078C267.683 87.5078 260.26 88.8672 256.847 94.8226C259.064 92.8275 263.074 91.0063 262.983 91.0063C262.892 91.0063 257.118 95.5163 255.62 100.026C259.333 95.4882 263.283 91.498 270.018 89.4731C267.983 89.531 264.121 91.2943 264.121 91.2943C264.121 91.2943 264.181 89.2131 267.683 87.5078Z" fill="#FFFACC"/>
</g>
<path d="M287.822 97.0128C287.822 97.0128 286.058 91.7442 280.295 92.0393C274.531 92.3343 267.288 98.286 264.596 102.332C261.903 106.379 258.669 112.047 258.669 112.047C258.669 112.047 262.739 112.511 269.085 111.412C275.43 110.312 287.404 106.319 287.793 100.887C288.182 97.364 287.822 97.0128 287.822 97.0128Z" fill="#703F65"/>
<g opacity="0.26">
<path opacity="0.26" d="M268.68 97.7596C268.68 97.7596 264.264 103.406 264.228 105.05C264.192 106.693 267.604 102.705 271.06 100.58C268.591 103.529 266.697 105.74 266.697 105.74C266.697 105.74 269.44 103.833 275.722 99.3227C282.003 94.8128 284.711 94.7741 284.711 94.7741C284.711 94.7741 277.62 98.0266 273.217 102.45C268.813 106.874 276.807 104.402 279.86 102.666C282.912 100.931 289.55 98.6975 288.436 93.1689C295.035 100.975 292.297 107.57 280.22 109.693C268.142 111.816 261.452 113.769 258.937 112.679C256.423 111.588 250.229 113.632 255.392 108.601C260.555 103.569 268.68 97.7596 268.68 97.7596Z" fill="#09004C"/>
</g>
<g opacity="0.47">
<path opacity="0.47" d="M259.031 96.5469C259.191 96.3291 264.338 92.0935 269.277 90.7518C270.629 90.4339 272.015 90.2735 273.406 90.2742C273.406 90.2742 268.101 91.0433 265.19 94.5362C270.668 91.6615 271.341 90.4972 276.55 90.9239C276.152 90.0687 274.463 89.6016 274.463 89.6016C274.463 89.6016 275.764 88.8429 279.513 90.0582C274.686 87.1729 268.805 87.043 268.692 87.043C268.579 87.043 259.031 96.5469 259.031 96.5469Z" fill="#703F65"/>
</g>
<path d="M287.792 100.891C287.792 100.891 288.914 105.444 291.205 107.961C289.731 116.554 287.569 126.781 286.4 129.644C285.231 132.506 281.911 137.546 275.31 136.062C268.708 134.578 262.425 126.391 261.887 120.536C258.339 118.933 256.992 114.552 258.474 110.779C259.956 107.007 264.265 107.527 265.201 110.302C271.45 110.302 283.033 106.616 287.792 100.891Z" fill="#F2CAAF"/>
<path d="M256.879 111.186C256.879 111.186 261.788 106.093 264.242 112.401C273.007 111.605 283.766 108.537 287.923 102.089C288.606 107.947 292.139 110.088 292.139 110.088L293.217 104.537L284.37 92.687C284.37 92.687 269.26 97.9184 267.051 98.7122C264.842 99.5059 256.699 104.537 256.699 104.537L256.879 111.186Z" fill="#703F65"/>
<path d="M269.457 125.951C271.489 125.951 273.137 124.36 273.137 122.396C273.137 120.433 271.489 118.841 269.457 118.841C267.425 118.841 265.777 120.433 265.777 122.396C265.777 124.36 267.425 125.951 269.457 125.951Z" fill="#EA9E86"/>
<path d="M289.123 128.081C291.155 128.081 292.802 126.49 292.802 124.527C292.802 122.564 291.155 120.972 289.123 120.972C287.09 120.972 285.443 122.564 285.443 124.527C285.443 126.49 287.09 128.081 289.123 128.081Z" fill="#EA9E86"/>
<path d="M281.816 115.863C281.816 115.863 282.011 116.939 282.332 118.195C282.654 119.451 283.952 121.923 283.927 122.819C283.901 123.715 282.154 124.651 281.001 124.751C282.509 123.662 282.976 123.279 282.594 122.067C282.212 120.856 281.34 118.662 281.816 115.863Z" fill="#BC5033"/>
<path d="M276.337 109.039C279.044 109.687 279.384 110.638 279.079 111.008C278.773 111.379 277.597 110.205 275.837 110.044C274.077 109.882 271.853 110.536 271.917 110.033C271.981 109.531 274.602 108.623 276.337 109.039Z" fill="#BC5033"/>
<path d="M285.944 109.971C283.944 110.155 283.645 111.024 283.851 111.44C284.056 111.857 284.967 110.903 286.258 111.037C287.549 111.17 289.133 112.178 289.113 111.676C289.093 111.174 287.227 109.852 285.944 109.971Z" fill="#BC5033"/>
<path d="M271.945 114.98C272.493 114.988 273.039 115.027 273.582 115.096C274.098 115.157 274.596 115.226 275.087 115.298C275.578 115.37 276.065 115.429 276.567 115.5C277.069 115.57 277.574 115.605 278.169 115.703C278.062 115.801 277.948 115.891 277.827 115.972C277.768 116.015 277.708 116.055 277.645 116.091L277.451 116.186C277.32 116.249 277.185 116.304 277.047 116.351C276.909 116.393 276.769 116.432 276.627 116.465C276.061 116.582 275.477 116.599 274.905 116.514C274.341 116.432 273.794 116.263 273.285 116.014C272.764 115.77 272.307 115.417 271.945 114.98Z" fill="#562C05"/>
<path d="M283.5 116.339C283.93 116.475 284.37 116.582 284.815 116.661C285.218 116.736 285.607 116.78 286.004 116.822C286.104 116.829 286.204 116.84 286.304 116.854C286.406 116.854 286.507 116.854 286.609 116.875C286.815 116.905 287.026 116.898 287.242 116.929C287.458 116.961 287.682 116.959 287.915 116.998C288.16 117.018 288.404 117.059 288.642 117.121C288.464 117.298 288.265 117.455 288.049 117.588C287.831 117.706 287.603 117.807 287.367 117.888C287.247 117.923 287.127 117.955 287.004 117.981C286.885 118.012 286.763 118.032 286.64 118.041C286.513 118.053 286.386 118.063 286.258 118.067C286.131 118.07 286.002 118.055 285.873 118.044C285.353 117.992 284.854 117.82 284.418 117.54C284.309 117.47 284.206 117.39 284.111 117.303C284.064 117.259 284.015 117.217 283.971 117.17L283.846 117.024C283.674 116.827 283.555 116.592 283.5 116.339Z" fill="#562C05"/>
<path d="M274.543 126.795C275.208 126.953 275.801 127.146 276.388 127.332C276.976 127.519 277.537 127.694 278.096 127.837C278.639 127.984 279.196 128.076 279.759 128.111C280.046 128.125 280.334 128.115 280.619 128.083C280.934 128.037 281.246 127.971 281.552 127.886C281.383 128.184 281.147 128.442 280.861 128.639C280.564 128.839 280.232 128.986 279.881 129.071C279.185 129.23 278.458 129.214 277.77 129.026C277.112 128.854 276.491 128.571 275.936 128.19C275.376 127.823 274.902 127.348 274.543 126.795Z" fill="#BC5033"/>
<path d="M281.055 141.443C281.055 141.443 272.368 138.178 272.199 137.906C272.03 137.633 269.946 133.991 267.753 132.34C265.561 130.69 260.245 127.792 257.99 126.297C255.736 124.803 255.114 126.786 255.958 128.036C256.801 129.286 259.385 130.941 260.239 131.438C257.512 130.883 253.165 129.611 252.26 128.877C251.354 128.143 248.044 124.582 246.76 124.385C245.476 124.188 244.856 124.912 244.855 125.233C244.853 125.555 247.456 129.069 248.293 129.975C246.878 129.17 243.689 125.096 242.395 125.913C241.164 126.671 243.398 128.737 244.829 130.224C246.26 131.712 247.794 133.357 248.376 133.712C248.958 134.067 251.912 135.819 251.912 135.819C251.912 135.819 247.465 134.65 246.478 133.605C245.491 132.56 243.496 130.307 243.08 129.917C242.664 129.527 241.864 129.214 241.457 129.566C241.049 129.917 240.924 130.386 241.829 131.673C242.735 132.96 243.942 134.69 243.942 134.69C243.942 134.69 243.309 135.113 244.609 136.866C245.909 138.619 249.567 143.225 251.085 144.446C252.603 145.666 264.69 148.049 267.157 148.485C269.624 148.92 276.915 151.47 276.915 151.47L281.055 141.443Z" fill="#F2CAAF"/>
<path d="M248.495 134.46L251.911 135.821C251.911 135.821 251.099 138.016 252.357 139.723C253.615 141.43 261.665 145.157 264.42 144.64C267.174 144.124 267.132 141.637 269.329 141.304C268.238 145.857 267.743 148.532 267.859 148.855C267.976 149.178 274.023 150.511 265.94 149.99C257.856 149.468 250.077 152.014 247.142 147.331C244.208 142.647 239.75 136.922 238.703 135.129C237.656 133.336 234.601 128.884 235.888 128.364C237.176 127.844 239.659 128.912 240.857 128.942C242.055 128.972 245.077 130.821 245.221 130.995C245.364 131.169 248.495 134.46 248.495 134.46Z" fill="#EA9E86"/>
<path d="M352.654 89.2096C359.779 90.827 360.017 98.115 358.401 108.754C356.785 119.392 344.498 155.752 339.784 161.345C335.07 166.938 319.579 166.464 295.513 158.656C271.447 150.848 267.049 148.471 267.049 148.471C267.049 148.471 267.138 141.994 272.347 138.004C284.738 141.908 325.686 145.044 325.686 145.044C325.686 145.044 332.595 120.759 334.486 114.426C336.377 108.093 342.089 86.8107 352.654 89.2096Z" fill="#F2CAAF"/>
<path d="M319.084 141.83C319.084 141.83 312.301 148.679 312.101 159.04C311.901 169.401 312.101 167.714 312.101 167.714L337.863 163.204L347.014 144.844L358.98 104.043L357.572 92.4832L356.868 91.8032L356.164 91.1232L355.46 90.4432L354.053 89.7632L352.645 89.0832L351.237 88.4032L348.421 87.7231H339.271L319.084 141.83Z" fill="#FC9E38"/>
<g opacity="0.31">
<path opacity="0.31" d="M309.483 150.897C309.483 150.897 315.051 157.794 319.482 158.574C323.913 159.353 333.198 159.745 334.274 159.223C335.35 158.702 338.988 157.144 345.859 136.327C352.73 115.509 363.369 95.7598 357.173 86.7666C369.296 102.888 369.425 110.65 364.851 123.911C360.277 137.171 343.965 173.276 342.345 175.617C340.725 177.958 310.743 167.665 310.692 166.901C310.641 166.137 309.483 150.897 309.483 150.897Z" fill="#AD3409"/>
</g>
<g opacity="0.54">
<path opacity="0.54" d="M347.151 91.2175C349.745 90.9488 347.78 94.3399 345.489 100.065C343.198 105.79 339.079 120.912 335.297 131.5C331.515 142.087 331.526 146.237 329.461 145.9C327.396 145.563 332.424 131.159 334.579 120.403C336.733 109.646 343.378 91.6144 347.151 91.2175Z" fill="#FFFF88"/>
</g>
<path d="M269.008 139.463C269.008 139.463 268.813 143.678 276.135 146.518C283.456 149.357 304.588 152.137 307.7 149.122C312.369 155.537 311.471 165.103 311.471 165.103C311.471 165.103 296.837 162.867 286.987 159.531C277.136 156.194 262.806 153.384 262.806 153.384C262.806 153.384 258.855 147.082 262.386 145C265.917 142.919 269.008 139.463 269.008 139.463Z" fill="#EA9E86"/>
<path d="M274.542 141.009C275.025 139.139 277.92 141.053 289.188 142.57C300.457 144.088 305.218 143.438 305.711 144.435C306.204 145.433 300.189 144.827 294.486 144.999C288.783 145.171 274.307 141.92 274.542 141.009Z" fill="#FCE1D0"/>
<path d="M313.699 141.442C315.266 141.546 317.822 141.748 318.23 142.81C318.637 143.873 318.048 144.71 316.259 149.132C314.47 153.555 315.039 161.533 314.463 164.696C313.886 167.859 306.965 165.737 306.785 163.394C306.605 161.052 306.381 156.08 307.33 149.132C308.279 142.185 311.957 141.326 313.699 141.442Z" fill="white"/>
<path d="M313.655 75.8232L314.76 77.9481C314.76 77.9481 322.456 85.7557 325.283 87.4029C325.283 87.4029 315.316 101.02 309.973 97.5075C305.708 91.6966 304.361 89.9563 304.361 89.9563C304.361 89.9563 306.022 79.3741 306.337 78.7173C306.651 78.0605 313.655 75.8232 313.655 75.8232Z" fill="#EA9E86"/>
<path d="M306.831 95.1229C307.1 94.9052 317.965 93.8216 320.794 82.8491C327.393 85.4078 327.17 86.955 327.17 86.955C327.17 86.955 327.439 91.8723 326.226 92.5203C325.013 93.1683 311.274 101.542 311.185 100.89C311.096 100.239 306.831 95.1229 306.831 95.1229Z" fill="white"/>
<path d="M279.171 80.291C279.171 80.291 285.412 87.8811 288.241 91.0422C291.07 94.2033 295.695 100.108 301.62 97.5909C307.546 95.0744 309.62 86.7923 309.478 82.4985C309.378 79.841 308.879 77.2115 307.996 74.6924C307.996 74.6924 308.804 69.7049 305.348 67.364C301.891 65.023 299.33 67.8399 299.779 69.7927L300.228 71.7438L290.348 63.2036C290.348 63.2036 290.214 69.5363 285.185 73.0486C283.345 74.09 283.66 71.1397 283.66 71.1397C283.66 71.1397 283.121 78.3821 279.171 80.291Z" fill="#F2CAAF"/>
<path d="M279.955 83.084C279.955 83.084 284.415 78.834 284.355 74.844C286.87 76.2015 290.94 69.6966 291.264 65.3308C297.638 71.3738 301.589 73.7446 301.649 73.058C301.709 72.3713 299.016 66.2352 306.978 67.3908C297.489 61.0018 286.144 59.4107 286.144 59.4985C286.144 59.5863 278.841 66.6391 277.645 67.9984C276.448 69.3577 275.49 78.2457 275.425 78.2685C275.359 78.2914 279.955 83.084 279.955 83.084Z" fill="#EA9E86"/>
<path d="M305.554 82.2948C306.922 80.9792 306.949 78.8639 305.616 77.5702C304.282 76.2765 302.092 76.2943 300.725 77.61C299.357 78.9256 299.33 81.0409 300.663 82.3346C301.997 83.6283 304.187 83.6105 305.554 82.2948Z" fill="#EA9E86"/>
<path d="M296.21 79.0285C296.815 78.5476 296.813 77.5804 296.206 76.8681C295.599 76.1558 294.617 75.9682 294.012 76.4491C293.407 76.93 293.409 77.8972 294.016 78.6095C294.623 79.3218 295.605 79.5094 296.21 79.0285Z" fill="#441C0C"/>
<path d="M288.595 85.2168C289.2 84.7359 289.198 83.7688 288.591 83.0566C287.984 82.3444 287.002 82.1569 286.397 82.6377C285.792 83.1185 285.794 84.0856 286.401 84.7978C287.008 85.51 287.99 85.6976 288.595 85.2168Z" fill="#441C0C"/>
<path d="M289.579 76.124C289.001 75.7885 289.277 75.3723 289.797 74.884C290.317 74.3957 291.979 72.7763 293.198 72.2494C294.418 71.7225 295.538 71.5609 295.651 71.8823C295.764 72.2037 294.764 72.606 293.82 73.0819C292.877 73.5579 291.242 75.1211 290.682 75.6463C290.122 76.1714 289.824 76.2663 289.579 76.124Z" fill="#BC5033"/>
<path d="M285.871 79.167C285.622 78.5697 285.273 78.6576 284.855 78.9228C284.437 79.1881 283.055 80.0138 282.575 80.8552C282.095 81.6967 281.922 82.5681 282.177 82.7718C282.431 82.9756 282.801 82.2817 283.228 81.6598C283.655 81.0379 284.99 80.2105 285.44 79.9242C285.891 79.6378 285.977 79.42 285.871 79.167Z" fill="#BC5033"/>
<path d="M301.593 86.2153C301.548 86.9766 301.347 87.7215 301.001 88.4069C300.663 89.106 300.204 89.7444 299.644 90.2946L299.435 90.5019L299.21 90.6933C299.053 90.8127 298.91 90.9497 298.744 91.0568C298.579 91.1639 298.413 91.2728 298.244 91.3764C298.075 91.4772 297.9 91.5675 297.719 91.6468L297.452 91.7732C297.363 91.8161 297.272 91.852 297.177 91.8804L296.615 92.056C296.427 92.1118 296.235 92.1534 296.041 92.1806C295.848 92.2123 295.655 92.2421 295.463 92.2632C295.634 92.1666 295.806 92.0876 295.975 91.9963C296.148 91.9191 296.316 91.8323 296.479 91.7364C296.807 91.562 297.126 91.3709 297.433 91.1639C298.046 90.7706 298.613 90.3136 299.123 89.8012C299.639 89.292 300.102 88.7337 300.502 88.1347C300.917 87.5231 301.282 86.8814 301.593 86.2153Z" fill="#BC5033"/>
<path d="M289.606 81.5684C289.606 81.5684 290.612 86.9687 291.386 88.0961C292.161 89.2236 295.733 88.3227 295.733 88.3227C295.733 88.3227 293.188 88.1734 292.446 87.5798C291.146 86.5366 289.606 81.5684 289.606 81.5684Z" fill="#BC5033"/>
<path d="M60.5094 370.059C66.5792 370.059 71.4997 365.306 71.4997 359.443C71.4997 353.58 66.5792 348.827 60.5094 348.827C54.4396 348.827 49.519 353.58 49.519 359.443C49.519 365.306 54.4396 370.059 60.5094 370.059Z" fill="#98AFE2"/>
</svg>
