<svg width="34" height="33" viewBox="0 0 34 33" fill="none" xmlns="http://www.w3.org/2000/svg">
<path fill-rule="evenodd" clip-rule="evenodd" d="M32.5443 26.5603L13.501 7.80076C13.8674 6.93243 14.0212 5.98881 13.9494 5.04875V4.59008C14.7142 4.48177 15.472 4.32861 16.2189 4.13141H16.6764C18.0308 4.13141 18.5066 3.21407 18.5066 2.7554C18.955 2.29673 18.5066 1.83805 18.0491 1.38855C17.8331 1.10682 17.5562 0.877896 17.2392 0.718998C16.9222 0.5601 16.5733 0.475367 16.2189 0.471215H15.7613C14.7166 0.251237 13.6591 0.0980385 12.5951 0.0125468C10.8317 -0.0240695 9.0958 0.453999 7.59861 1.38855L7.15022 1.83807H6.23512C5.88107 1.84421 5.5329 1.92979 5.21619 2.08854C4.89947 2.24728 4.62225 2.47516 4.40492 2.7554C3.48981 3.67274 3.05057 4.59008 3.48981 5.50741L3.04142 5.9569L2.58387 6.41557V7.33291H2.17207C1.71451 7.33291 1.71451 7.33291 1.25696 7.79157L0.341861 8.70891C-0.106538 9.16758 -0.57324 10.9931 2.17207 13.2956C3.52642 14.6624 4.43234 15.5798 5.34744 15.5798C5.84042 15.6034 6.32417 15.4396 6.70183 15.1211L7.61693 14.2037V13.2864L8.07448 12.8277H8.52287C8.5833 12.829 8.64335 12.818 8.69943 12.7954C8.7555 12.7728 8.80643 12.739 8.84917 12.6962C8.89191 12.6534 8.92559 12.6023 8.94814 12.5461C8.97069 12.4899 8.98167 12.4297 8.98042 12.3691L27.5753 31.1286C27.9158 31.6703 28.3829 32.1205 28.9363 32.4402C29.4896 32.76 30.1124 32.9395 30.7507 32.9633C31.5932 32.9441 32.4 32.618 33.0202 32.046C33.9353 31.5873 33.9353 30.67 33.9353 29.7526C33.9506 29.1521 33.8368 28.5554 33.6015 28.0029C33.3662 27.4505 33.015 26.9553 32.5717 26.5511L32.5443 26.5603ZM5.33834 3.68189C5.58306 3.42995 5.90554 3.26832 6.25344 3.22323L4.88989 5.0579C4.85934 4.80887 4.88458 4.55616 4.96373 4.31813C5.04288 4.08011 5.17395 3.86274 5.34744 3.68189H5.33834ZM8.99874 10.5436V11.0023L8.54119 11.4609C8.29557 11.4305 8.04622 11.4559 7.81175 11.5353C7.57728 11.6147 7.36368 11.7461 7.1868 11.9196C7.01331 12.1004 6.88224 12.3178 6.80309 12.5558C6.72394 12.7939 6.6987 13.0466 6.72925 13.2956L5.81415 13.7451C5.81537 13.8049 5.8047 13.8643 5.78271 13.9199C5.76072 13.9755 5.7279 14.0262 5.68614 14.0689C5.64438 14.1116 5.59453 14.1455 5.53952 14.1687C5.48451 14.1919 5.42542 14.2038 5.36576 14.2037C4.90821 14.2037 4.00228 13.7451 3.09633 12.3691C1.26612 10.9931 1.26612 10.0757 1.26612 9.61707L2.18123 8.69973C2.42684 8.73018 2.67614 8.70478 2.91061 8.62537C3.14509 8.54597 3.35869 8.4146 3.53556 8.24106C3.53431 8.18048 3.54529 8.12029 3.56784 8.06408C3.59039 8.00786 3.62407 7.95681 3.66681 7.91397C3.70955 7.87112 3.76048 7.83739 3.81656 7.81478C3.87263 7.79217 3.93268 7.78114 3.99311 7.78239C4.44151 8.69973 4.90821 8.69973 4.90821 8.69973H5.36576V8.24106L4.45066 7.32372V6.86505L4.90821 5.94772L7.65352 3.19571L8.11107 3.65438L9.02617 4.57171H9.48372C9.93212 4.11304 9.93212 4.11304 9.48372 3.65438C9.42329 3.65562 9.36324 3.64462 9.30717 3.62201C9.25109 3.59941 9.20016 3.56567 9.15742 3.52283C9.11469 3.47998 9.081 3.42893 9.05845 3.37272C9.0359 3.31651 9.02492 3.25628 9.02617 3.19571L8.56862 2.73704C9.12314 2.2443 9.77145 1.8692 10.4744 1.63429C11.1774 1.39939 11.9206 1.30955 12.6592 1.37022C13.7352 1.26451 14.8209 1.41863 15.8254 1.8197C16.7405 1.8197 17.1889 1.8197 17.1889 2.27837C17.1914 2.3385 17.1816 2.39853 17.1601 2.45471C17.1386 2.51089 17.1058 2.56203 17.0637 2.60501C17.0217 2.648 16.9713 2.68191 16.9157 2.70462C16.8601 2.72733 16.8005 2.73835 16.7405 2.73704H16.2829C15.31 2.8289 14.3709 3.14268 13.5376 3.65438C12.6225 4.11304 12.6225 4.57171 12.6225 5.48905C12.691 6.13559 12.5289 6.78555 12.165 7.32372L10.3348 9.1584L8.97126 10.5252L8.99874 10.5436ZM32.1325 31.1378C31.2174 32.0551 29.863 31.5965 28.4721 30.2205L9.87721 10.9564L12.6225 8.67221L31.6384 27.4776C32.2096 28.1026 32.5348 28.9144 32.5535 29.7618C32.5839 30.0101 32.5595 30.262 32.482 30.4998C32.4045 30.7376 32.2759 30.9554 32.1051 31.1378H32.1325ZM24.8757 10.5436L21.2153 14.2129L19.8518 12.8461L23.9332 9.17676C23.9332 8.71809 24.8483 8.71809 24.8483 9.17676C25.2967 9.17676 25.2967 10.0941 24.8483 10.5436H24.8757ZM18.0674 11.0023L22.6429 5.96608C22.6033 5.18363 22.7485 4.40286 23.0665 3.68719C23.3845 2.97151 23.8664 2.34111 24.4731 1.84722C25.3882 0.480389 26.7426 0.0125468 28.5545 0.0125468C28.8015 -0.0179887 29.0522 0.00738683 29.2882 0.0867613C29.5241 0.166136 29.7393 0.297491 29.918 0.471215C30.3664 0.471215 30.3664 0.471215 30.8331 0.929884C30.8331 1.38855 30.8331 1.38855 30.3755 1.84722L27.6302 4.59923L28.0878 5.96608L29.4421 6.42475L32.1874 3.67274C32.1849 3.61261 32.1947 3.55261 32.2162 3.49643C32.2377 3.44025 32.2705 3.38908 32.3126 3.3461C32.3546 3.30311 32.4049 3.26923 32.4605 3.24652C32.5161 3.22381 32.5758 3.21276 32.6358 3.21407H33.0933C33.153 3.21406 33.2121 3.22599 33.2671 3.24915C33.3221 3.27231 33.3719 3.30624 33.4137 3.34895C33.4555 3.39167 33.4883 3.44231 33.5103 3.49791C33.5323 3.55351 33.543 3.61294 33.5418 3.67274C34.4569 5.95691 33.9993 8.25941 32.1874 9.61707C31.2418 10.6696 29.9343 11.325 28.527 11.4517H28.0786L23.0821 16.0384L22.167 15.1211L27.1543 10.0849C27.1543 10.0849 27.6119 9.62625 27.6119 10.0849C28.2804 10.1285 28.9506 10.0281 29.5772 9.79047C30.2038 9.55286 30.7725 9.18354 31.2449 8.70734C31.7174 8.23114 32.0827 7.65908 32.3162 7.02961C32.5498 6.40014 32.6463 5.72785 32.5992 5.0579L29.8539 7.80991H29.3963L27.1269 7.35124C27.0672 7.35125 27.0082 7.33935 26.9531 7.31619C26.8981 7.29303 26.8483 7.25908 26.8065 7.21636C26.7648 7.17365 26.732 7.12303 26.71 7.06743C26.688 7.01183 26.6773 6.95237 26.6785 6.89257L26.221 4.60841V4.14975L28.9663 1.39773C27.614 1.35105 26.2981 1.84238 25.3059 2.76456C24.8257 3.22878 24.4853 3.81893 24.3235 4.46771C24.1617 5.11649 24.185 5.79777 24.3908 6.43391C24.392 6.49448 24.381 6.5547 24.3584 6.61092C24.3359 6.66713 24.3022 6.71818 24.2595 6.76103C24.2168 6.80387 24.1658 6.8376 24.1098 6.86021C24.0537 6.88282 23.9936 6.89382 23.9332 6.89257L18.9459 11.9288L18.0308 11.0114L18.0674 11.0023ZM10.3622 22.4414L14.0226 18.7721L15.3861 20.1481L11.7257 23.8174L11.2773 24.2761C10.9294 24.231 10.607 24.0694 10.3622 23.8174C10.2561 23.7371 10.17 23.6331 10.1107 23.5137C10.0514 23.3943 10.0206 23.2628 10.0206 23.1294C10.0206 22.9961 10.0514 22.8646 10.1107 22.7452C10.17 22.6258 10.2561 22.5218 10.3622 22.4414ZM16.2555 21.0746L17.1706 21.992L12.5951 26.5786C12.6327 28.2132 12.1556 29.8181 11.2316 31.1653C9.86809 32.0827 8.48627 33 7.15022 33C6.69267 33 5.78672 32.5413 5.32002 32.5413L4.86247 32.0827V31.1653L8.03784 27.9638L7.58029 26.5878H6.22596L3.48065 29.3398C3.03225 29.3398 3.03225 29.7985 2.56555 29.7985C2.11715 29.3398 1.65045 29.3398 1.65045 28.8811C1.41219 27.9218 1.41187 26.9186 1.64956 25.9592C1.88724 24.9998 2.35568 24.1132 3.01394 23.3771C3.49992 22.7683 4.12366 22.2843 4.83342 21.9653C5.54318 21.6462 6.31855 21.5012 7.09532 21.5424H7.54371L12.1192 16.9558L13.0343 17.8731L8.047 22.9093H7.58945C6.23587 22.8651 4.91987 23.3598 3.92904 24.2853C3.44885 24.7495 3.10844 25.3397 2.94664 25.9884C2.78484 26.6372 2.80816 27.3185 3.01394 27.9546L5.75925 25.2026C5.75925 24.744 5.75925 24.744 6.2168 24.744L8.47713 25.6613V26.12L9.39223 28.4133V28.872L6.64693 31.624C7.24427 31.6405 7.83796 31.5259 8.38648 31.2882C8.93499 31.0505 9.42504 30.6955 9.8223 30.248C11.1858 29.3307 11.1858 27.9638 11.1858 26.5786V26.12L16.1731 21.093L16.2555 21.0746Z" fill="#DFECF2"/>
</svg>
