<svg width="65" height="51" viewBox="0 0 65 51" fill="none" xmlns="http://www.w3.org/2000/svg">
<path d="M58.9877 0H53.1479V3.46723C53.1479 5.83842 51.2946 7.77978 48.9098 7.77978C46.5322 7.77978 44.679 5.83842 44.679 3.46723V0H20.3282V3.46723C20.3282 5.83842 18.475 7.77978 16.0902 7.77978C13.7126 7.77978 11.8593 5.83842 11.8593 3.46723V0H6.04818C2.71522 0 0 2.38551 0 5.70947V43.9565C0 47.2805 2.71522 50.2534 6.04818 50.2534H58.9877C62.3207 50.2534 65 47.2805 65 43.9565V5.70947C65 2.38551 62.3207 0 58.9877 0ZM17.024 41.0839H8.8927V32.9817H17.024V41.0839ZM17.024 29.6362H8.8927V21.5341H17.024V29.6362ZM30.0613 41.0839H21.9372V32.9817H30.0613V41.0839ZM30.0613 29.6362H21.9372V21.5341H30.0613V29.6362ZM43.0987 41.0839H34.9746V32.9817H43.0987V41.0839ZM43.0987 29.6362H34.9746V21.5341H43.0987V29.6362ZM56.1432 41.0839H48.0119V32.9817H56.1432V41.0839ZM56.1432 29.6362H48.0119V21.5341H56.1432V29.6362Z" fill="white"/>
</svg>
