<svg width="37" height="41" viewBox="0 0 37 41" fill="none" xmlns="http://www.w3.org/2000/svg">
<path fill-rule="evenodd" clip-rule="evenodd" d="M18.4866 26.3406C16.985 26.3406 15.1898 25.6947 14.2888 24.4027C13.7274 23.8163 13.2796 23.116 12.9715 22.3423C12.6633 21.5687 12.5009 20.7369 12.4935 19.8953C12.4935 18.182 13.1264 16.539 14.2528 15.3276C15.3792 14.1161 16.907 13.4355 18.5 13.4355C20.0818 13.4739 21.5889 14.1668 22.7077 15.37C23.8265 16.5732 24.4708 18.1941 24.5065 19.8953C24.5065 21.6085 23.8736 23.2516 22.7472 24.463C21.6208 25.6744 20.093 26.355 18.5 26.355L18.4866 26.3406ZM18.4866 16.0266C18.009 16.0053 17.5324 16.0908 17.087 16.2777C16.6416 16.4646 16.2371 16.7488 15.899 17.1124C15.561 17.476 15.2967 17.911 15.1229 18.39C14.9492 18.869 14.8697 19.3815 14.8895 19.8953C14.8666 20.8475 15.1898 21.7719 15.7904 22.472C16.1285 22.8732 16.5403 23.1945 16.9998 23.4156C17.4593 23.6368 17.9565 23.7529 18.46 23.7567C18.9365 23.7769 19.4118 23.6909 19.8559 23.504C20.3 23.3171 20.7034 23.0334 21.0406 22.6707C21.3779 22.308 21.6417 21.8742 21.8155 21.3966C21.9893 20.9189 22.0693 20.4078 22.0505 19.8953C21.9214 18.9196 21.5017 18.0153 20.8543 17.3178C20.207 16.6204 19.3669 16.1673 18.46 16.0266H18.4866Z" fill="#DFECF2"/>
<path fill-rule="evenodd" clip-rule="evenodd" d="M22.3293 40.3066H14.9808L13.5163 34.3217C12.1079 33.9066 10.8027 33.1528 9.69692 32.116L4.41969 33.6894L0.587102 26.7346L4.40648 22.6392C4.16236 21.829 4.06166 20.9757 4.10967 20.1246V17.9189L0 13.5074L3.81942 6.58126L9.40007 8.15473C10.8711 7.20634 12.0387 6.26513 13.5163 5.949V4.68447L15.8647 5.0006L15.5679 7.87452L14.9808 8.19065C13.307 8.50751 11.7662 9.38681 10.5743 10.7053L9.98717 11.0215L4.99358 9.44799L2.93547 12.9111L6.75489 17.0064V17.6386C6.516 18.4525 6.41759 19.3076 6.46464 20.1605C6.41735 21.1151 6.51543 22.0716 6.75489 22.9913V23.6236L3.52257 27.0866L5.58069 30.5569L10.284 29.2924L10.5743 29.9246C11.862 31.0296 13.3723 31.7856 14.9808 32.1304L15.5679 32.4465L16.742 37.7991H20.5614L22.0325 32.1304L22.6196 31.8142C23.7966 31.2683 24.8873 30.5239 25.8518 29.6085L26.1487 29.2924L31.4259 30.8658L33.484 27.4028L29.6647 23.3074V22.6752C29.9088 21.865 30.0095 21.0116 29.9615 20.1605C29.9867 19.5148 29.8855 18.8707 29.6647 18.2709V17.6386L34.0711 13.2272L32.013 9.76412L26.4323 11.3376L25.8452 10.7053C24.8804 9.79226 23.7896 9.05033 22.613 8.50678L22.0259 8.19065L20.8517 2.52184H14.6839V0H22.5997L24.0708 6.30105C25.1592 6.84563 26.1524 7.59197 27.0062 8.50678L33.1806 6.61718L37 13.5433L32.2967 18.5727V20.1461C32.3438 20.896 32.2425 21.6482 31.9998 22.3519L36.4063 26.7561L32.5869 33.6894L26.716 32.116L24.0774 34.0056L22.3161 40.3066H22.3293Z" fill="#DFECF2"/>
</svg>
