<svg width="62" height="54" viewBox="0 0 62 54" fill="none" xmlns="http://www.w3.org/2000/svg">
<path d="M62 15.1821C62 14.4717 61.3467 13.897 60.5545 13.897H1.4863C0.669652 13.897 0 14.4956 0 15.222V24.4814H62V15.1821Z" fill="white"/>
<path d="M0 26.772V48.4119C0 51.4851 2.76027 53.9995 6.13304 53.9995H55.916C59.2642 53.9995 62.0082 51.501 62.0082 48.4438V26.772H0Z" fill="white"/>
<path d="M30.9673 0C22.3599 0 15.2305 6.35388 13.9974 12.9632H47.9537C46.7123 6.35388 39.583 0 30.9673 0ZM19.1749 12.3246C20.0487 7.63902 25.112 3.98315 31.2287 3.98315C37.3454 3.98315 42.4004 7.63104 43.2824 12.3246H19.1749Z" fill="white"/>
<path d="M12.0619 41.4286C10.7471 41.4286 9.67731 40.383 9.67731 39.0978V32.3289C9.67731 31.0437 10.7471 29.998 12.0619 29.998C13.3767 29.998 14.4465 31.0437 14.4465 32.3289V39.0898C14.4465 40.375 13.3767 41.4286 12.0619 41.4286Z" fill="#130119"/>
<path d="M49.9381 41.4286C48.6233 41.4286 47.5535 40.383 47.5535 39.0978V32.3289C47.5535 31.0437 48.6233 29.998 49.9381 29.998C51.2529 29.998 52.3227 31.0437 52.3227 32.3289V39.0898C52.3227 40.375 51.2529 41.4286 49.9381 41.4286Z" fill="#130119"/>
</svg>
