<svg width="38" height="42" viewBox="0 0 38 42" fill="none" xmlns="http://www.w3.org/2000/svg">
<path fill-rule="evenodd" clip-rule="evenodd" d="M37.9788 7.9312V7.36245L31.2207 0.435093C31.2207 -0.145031 30.6919 -0.145031 30.1631 0.435093L19.2485 11.9352L10.9251 2.71009C10.0714 1.8708 8.95654 1.40538 7.79988 1.40538C6.64322 1.40538 5.52842 1.8708 4.67466 2.71009L2.55943 4.98509C1.79857 6.06324 1.38669 7.37957 1.38669 8.73312C1.38669 10.0867 1.79857 11.403 2.55943 12.4812L10.8828 21.7177L0 33.2974V34.4349L6.75815 41.9424H7.81576L18.7197 29.828L22.8761 34.4463C24.4414 36.1753 27.0431 38.4844 29.1266 39.0645L33.283 40.202C33.8118 40.7708 33.8118 40.7708 34.3406 40.7708C34.7505 40.7673 35.1543 40.663 35.5209 40.4658C35.8875 40.2687 36.2073 39.9839 36.4559 39.6333C36.7145 39.2028 36.8521 38.7012 36.8521 38.1887C36.8521 37.6761 36.7145 37.1745 36.4559 36.744L35.3983 32.1258C34.88 29.8508 32.7965 26.9388 31.2418 25.1984L27.0749 20.5802L38 8.46583V7.9312H37.9788ZM3.63819 6.20222L5.75341 3.92722C6.3672 3.45842 7.12107 3.25165 7.86863 3.34708C8.92624 3.34708 9.42332 3.3471 9.98385 3.92722L11.0415 5.06472L4.79098 11.9807L3.73337 10.8432C2.67576 9.70569 2.67576 7.95395 3.73337 6.22495L3.63819 6.20222ZM27.0537 32.1713L7.80518 10.8205L9.35987 8.54546L29.1372 30.4764L27.022 32.2054L27.0537 32.1713ZM14.5633 26.4042L17.165 29.2934L16.1074 30.4309L14.5422 28.7019C14.0239 28.1218 14.0239 28.1218 13.4845 28.7019V29.282L15.5998 31.011L14.5422 32.1485L12.4269 30.4195H11.9087V30.9997L13.474 33.2747L12.4164 33.8434L10.8617 32.1144H10.3434C9.81463 32.6945 9.81463 32.6945 10.3434 33.2519L11.8981 34.9809L10.8405 36.1184L9.27527 34.3894C8.75704 33.8093 8.75704 33.8093 8.21766 34.3894V34.9695L10.3329 36.6985L9.27527 37.836L6.67352 34.9468C6.1553 34.3667 6.1553 34.3667 5.61591 34.9468V35.5269L8.21766 38.4048L7.16005 40.1452L1.95659 33.7865L11.8453 22.821L14.447 25.096C13.9287 25.6762 13.9287 25.6762 14.447 26.2335L14.5633 26.4042ZM5.72168 13.1296L6.77929 11.4006L26.5566 33.3315L24.9914 34.469C24.4731 34.469 24.4731 33.8889 23.9338 33.3315L5.72168 13.1296ZM34.8589 38.5185C34.8589 39.0987 34.8589 39.0986 34.3406 39.0986L35.3983 37.9611C35.3983 38.5299 35.3983 38.5299 34.88 38.5299L34.8589 38.5185ZM34.8589 36.7895L33.2936 38.5185L29.6554 37.381C28.3367 36.8383 27.1082 36.0701 26.0172 35.106L31.7389 28.7588C32.5267 30.0528 33.2333 31.4018 33.8541 32.7969L34.9118 36.835L34.8589 36.7895ZM31.2207 28.1332L29.6554 29.2707L10.4069 7.9312L11.9616 6.20222L30.1737 26.4042C30.6919 26.9843 30.6919 27.5417 31.2313 28.1332H31.2207ZM34.8589 9.66018L32.2571 6.24769H31.7389C31.2207 6.82782 31.2207 6.82782 31.7389 7.38519L34.3406 10.2631L33.283 11.4006L31.7283 9.66018C31.2101 9.09144 31.2101 9.09144 30.6707 9.66018V10.2062L32.786 11.9352L31.7283 13.0727L29.6131 11.3437H29.0949V11.9124L30.6496 14.1874L29.592 14.7676L28.0267 13.0386H27.5085C26.9903 13.6187 26.9903 13.6187 27.5085 14.1761L29.0738 15.9164L28.0161 17.0539L26.4615 15.3249C26.4615 14.7448 25.9432 14.7448 25.4038 15.3249V15.9051L27.5191 17.6341L26.4615 18.7716L23.8597 15.8937C23.3415 15.3136 23.3415 15.3136 22.8021 15.8937L20.6869 13.0044L30.565 2.03897L36.2972 7.80609L34.732 9.53508L34.8589 9.66018Z" fill="#FBF2F2"/>
</svg>
