<svg width="64" height="73" viewBox="0 0 64 73" fill="none" xmlns="http://www.w3.org/2000/svg">
<path d="M54.0791 35.9117C54.0791 35.9117 54.0791 32.4658 51.4407 31.6337C50.7773 31.2334 49.9981 30.9037 49.1727 30.6683H48.9335L48.9258 30.6526L48.8178 30.0089L47.3906 30.6526H47.2209C48.0772 30.5113 48.8409 29.7577 48.8409 29.7577C49.2807 29.2397 49.8978 28.3056 50.2681 27.4107C50.3067 27.4735 50.3607 27.5128 50.4224 27.5206C50.6307 27.552 50.8544 27.2381 50.9239 26.8142C50.9933 26.3903 50.8776 26.0135 50.6693 25.9821C50.6538 25.9821 50.6384 25.9821 50.623 25.9821C50.6307 25.9115 50.6307 25.833 50.6384 25.7467C50.6384 25.7231 50.6384 25.6996 50.6384 25.676C50.6384 25.6054 50.6461 25.5269 50.6461 25.4484C50.6461 25.4248 50.6461 25.4013 50.6461 25.3777C50.6461 25.2757 50.6461 25.1736 50.6384 25.0637C50.6384 25.0324 50.6384 24.9931 50.6307 24.9617C50.623 24.8832 50.623 24.7969 50.6153 24.7184C50.6076 24.6713 50.6076 24.632 50.5998 24.5928C50.5844 24.475 50.5767 24.3651 50.5536 24.2396C50.5458 24.2003 50.5381 24.1611 50.5304 24.1218C50.515 24.0355 50.4996 23.9491 50.4764 23.8549C50.4687 23.8 50.4533 23.7529 50.4378 23.6979C50.4147 23.6116 50.3916 23.5174 50.3684 23.4311C50.353 23.384 50.3376 23.329 50.3221 23.2819C50.2836 23.172 50.245 23.0621 50.2064 22.9601C50.1833 22.913 50.1601 22.858 50.1447 22.811C50.1138 22.7325 50.0675 22.654 50.029 22.5755C50.0058 22.5284 49.9827 22.4813 49.9595 22.442C49.8978 22.3321 49.8284 22.2222 49.7512 22.1202C49.7204 22.081 49.6895 22.0496 49.6664 22.0103C49.6047 21.9318 49.543 21.8612 49.4812 21.7905C49.4427 21.7513 49.4118 21.712 49.3732 21.6806C49.3578 21.6649 49.3424 21.6492 49.3269 21.6335L49.3115 21.6257C48.7561 21.1076 47.9846 20.7544 46.9046 20.7544C45.8168 20.7544 45.0454 21.1076 44.4899 21.6257L44.4745 21.6335C44.4591 21.6492 44.4513 21.6649 44.4359 21.6728C44.3973 21.712 44.3511 21.7591 44.3125 21.7984C44.2585 21.8612 44.2045 21.924 44.1505 21.9946C44.1196 22.0417 44.081 22.081 44.0502 22.1281C43.9808 22.2301 43.9113 22.3321 43.8496 22.442C43.8187 22.4891 43.7956 22.5441 43.7725 22.599C43.7339 22.6697 43.703 22.7403 43.6645 22.8188C43.6413 22.8737 43.6182 22.9287 43.595 22.9836C43.5565 23.0778 43.5256 23.1799 43.487 23.2741C43.4639 23.3369 43.4485 23.3997 43.4253 23.4625C43.4022 23.5488 43.379 23.6273 43.3559 23.7136C43.3404 23.7686 43.3327 23.8235 43.3173 23.8785C43.3019 23.9648 43.2864 24.0512 43.271 24.1297C43.2633 24.1689 43.2556 24.216 43.2479 24.2553C43.2324 24.373 43.217 24.4907 43.2016 24.6006C43.1939 24.6477 43.1939 24.687 43.1862 24.7341C43.1784 24.8126 43.1707 24.8989 43.1707 24.9774C43.1707 25.0167 43.163 25.048 43.163 25.0873C43.1553 25.1972 43.1553 25.2992 43.1553 25.3934C43.1553 25.417 43.1553 25.4405 43.1553 25.4641C43.1553 25.5426 43.1553 25.6211 43.163 25.6839C43.163 25.7074 43.163 25.731 43.163 25.7624C43.163 25.8487 43.1707 25.9272 43.1784 25.99C43.163 25.99 43.1476 25.9821 43.1322 25.99C42.9239 26.0214 42.8081 26.3982 42.8776 26.822C42.947 27.2459 43.1707 27.5599 43.379 27.5285C43.4407 27.5206 43.4947 27.4735 43.5333 27.4186C43.9036 28.3213 44.5208 29.2554 44.9605 29.7656C44.9605 29.7656 45.7242 30.5113 46.5806 30.6604H46.3028L44.8756 30.0168L44.7676 30.6604L44.7754 30.6761H44.7676L44.7368 30.5898L44.6982 30.6761H44.6288C43.8033 30.9038 43.0241 31.2334 42.3607 31.6416C39.7223 32.4736 39.7223 35.9196 39.7223 35.9196V35.9745H41.8978H42.3607H45.0454H46.8043H46.812H46.8891H48.6481H51.4484H51.6876H54.0868L54.0791 35.9117Z" fill="white"/>
<path d="M11.7261 31.6334C11.0627 31.233 10.2835 30.9034 9.45805 30.6679H9.2189L9.21119 30.6522L9.10318 30.0085L7.6837 30.6522H7.49084C8.34716 30.5109 9.11861 29.7573 9.11861 29.7573C9.55834 29.2393 10.1832 28.3052 10.5458 27.4104C10.5921 27.4732 10.6384 27.5124 10.7001 27.5203C10.9084 27.5517 11.1321 27.2377 11.2015 26.8138C11.271 26.3899 11.1553 26.0132 10.947 25.9818C10.9315 25.9818 10.9161 25.9818 10.9007 25.9818C10.9084 25.9111 10.9084 25.8326 10.9161 25.7463C10.9161 25.7227 10.9161 25.6992 10.9161 25.6835C10.9161 25.605 10.9238 25.5265 10.9238 25.4401C10.9238 25.4244 10.9238 25.4009 10.9238 25.3852C10.9238 25.2832 10.9238 25.1811 10.9161 25.0634C10.9161 25.032 10.9084 25.0006 10.9084 24.977C10.9007 24.8907 10.893 24.8043 10.8852 24.7101C10.8852 24.6709 10.8775 24.6317 10.8775 24.5924C10.8621 24.4747 10.8467 24.3569 10.8312 24.2313C10.8235 24.1999 10.8158 24.1607 10.8158 24.1293C10.8004 24.0351 10.785 23.9409 10.7618 23.8467C10.7464 23.7996 10.7387 23.7447 10.7232 23.6976C10.7001 23.6034 10.677 23.5092 10.6461 23.415C10.6307 23.3679 10.623 23.3208 10.6075 23.2815C10.5689 23.1717 10.5304 23.0618 10.4841 22.9519C10.4687 22.9048 10.4455 22.8498 10.4224 22.8027C10.3838 22.7242 10.3452 22.6457 10.3067 22.5594C10.2835 22.5123 10.2604 22.4652 10.2372 22.426C10.1755 22.3161 10.1061 22.2062 10.0289 22.1041C9.99807 22.0649 9.96721 22.0256 9.94407 21.9864C9.89007 21.9157 9.82835 21.8372 9.75892 21.7744C9.72035 21.7352 9.68949 21.696 9.65092 21.6567C9.63549 21.641 9.62006 21.6253 9.60463 21.6096L9.5892 21.6018C9.03375 21.0837 8.2623 20.7305 7.17454 20.7305C6.08679 20.7305 5.31533 21.0837 4.75988 21.6018L4.74446 21.6096C4.72903 21.6175 4.72131 21.6332 4.7136 21.6489C4.66731 21.696 4.62102 21.743 4.58245 21.7901C4.52845 21.8529 4.47445 21.9079 4.42816 21.9707C4.38959 22.0178 4.35101 22.0649 4.32015 22.112C4.25072 22.214 4.18129 22.3161 4.12729 22.4181C4.09643 22.473 4.07329 22.5201 4.04243 22.5751C4.00386 22.6457 3.973 22.7164 3.93443 22.7949C3.91128 22.8498 3.88814 22.9048 3.865 22.9597C3.82642 23.0618 3.78785 23.1638 3.74928 23.2737C3.73385 23.3286 3.71842 23.3757 3.70299 23.4307C3.67985 23.5249 3.64899 23.6112 3.62584 23.7054C3.61041 23.7525 3.6027 23.8075 3.59499 23.8546C3.57184 23.9487 3.55641 24.0429 3.54098 24.1371C3.53327 24.1685 3.52555 24.2078 3.52555 24.2392C3.51013 24.3648 3.4947 24.4825 3.47927 24.6003C3.47155 24.6395 3.47155 24.6787 3.47155 24.718C3.46384 24.8122 3.45612 24.8985 3.44841 24.9849C3.44841 25.0163 3.44069 25.0477 3.44069 25.0712C3.43298 25.1811 3.43298 25.291 3.43298 25.393C3.43298 25.4087 3.43298 25.4323 3.43298 25.448C3.43298 25.5343 3.43298 25.6128 3.44069 25.6913C3.44069 25.7149 3.44069 25.7384 3.44069 25.762C3.44841 25.8483 3.44841 25.9268 3.45612 25.9975C3.44069 25.9975 3.42527 25.9896 3.40984 25.9975C3.20154 26.0289 3.08582 26.4056 3.15526 26.8295C3.22469 27.2534 3.44841 27.5674 3.6567 27.536C3.71842 27.5281 3.77242 27.481 3.81099 27.4261C4.18129 28.3287 4.79846 29.255 5.23819 29.773C5.23819 29.773 6.00964 30.5266 6.86596 30.6679H6.58824L5.16104 30.0242L5.05304 30.6679L5.06075 30.6836H5.05304L5.01447 30.5815L4.97589 30.6679H4.91418C4.08872 30.8955 3.30183 31.2252 2.64609 31.6334C0.00771455 32.4654 0 35.9113 0 35.9113V35.9663H2.17551H2.63838H5.32305H7.08197H7.08968H7.16683H8.92575H11.7261H11.9653H14.3645V35.9113C14.3645 35.9113 14.3568 32.4654 11.7261 31.6334Z" fill="white"/>
<path d="M54.0791 15.1652C54.0791 15.1652 54.0791 11.7192 51.4407 10.8872C50.7773 10.4869 49.9981 10.1494 49.1726 9.92172H48.9335L48.9258 9.90602L48.8178 9.26237L47.3906 9.90602H47.2208C48.0772 9.76473 48.8409 9.01118 48.8409 9.01118C49.2806 8.49312 49.8978 7.55903 50.2681 6.66419C50.3067 6.72699 50.3607 6.76624 50.4224 6.77409C50.6307 6.80548 50.8544 6.49151 50.9238 6.06764C50.9933 5.64376 50.8775 5.26699 50.6692 5.23559C50.6538 5.23559 50.6384 5.23559 50.623 5.23559C50.6307 5.16495 50.6307 5.08645 50.6384 5.00011C50.6384 4.97656 50.6384 4.95301 50.6384 4.92946C50.6384 4.85882 50.6461 4.78032 50.6461 4.70183C50.6461 4.67828 50.6461 4.65473 50.6461 4.63118C50.6461 4.52914 50.6461 4.4271 50.6384 4.3172C50.6384 4.28581 50.6384 4.24656 50.6307 4.21516C50.623 4.13667 50.623 4.05032 50.6152 3.97183C50.6075 3.93258 50.6075 3.88548 50.5998 3.84624C50.5844 3.7285 50.5767 3.6186 50.5535 3.49301C50.5458 3.45376 50.5381 3.41452 50.5304 3.37527C50.515 3.28893 50.4995 3.20258 50.4764 3.10839C50.4687 3.05344 50.4532 3.00634 50.4378 2.9514C50.4147 2.86505 50.3915 2.77086 50.3684 2.68452C50.353 2.63742 50.3375 2.58247 50.3221 2.53538C50.2835 2.42548 50.2449 2.31559 50.2064 2.21355C50.1832 2.16645 50.1678 2.11936 50.1447 2.06441C50.1138 1.98591 50.0675 1.90742 50.0289 1.82892C50.0058 1.78183 49.9827 1.73473 49.9595 1.68763C49.8978 1.57774 49.8284 1.46785 49.7512 1.36581C49.7204 1.32656 49.6895 1.29516 49.6664 1.25591C49.6046 1.18527 49.5429 1.10677 49.4812 1.03613C49.4426 0.996882 49.4118 0.957634 49.3732 0.926237C49.3578 0.910538 49.3423 0.894839 49.3269 0.87914L49.3115 0.87129C48.756 0.353226 47.9846 0 46.8968 0C45.8091 0 45.0376 0.353226 44.4822 0.87129L44.4667 0.87914C44.4513 0.894839 44.4436 0.910538 44.4282 0.918387C44.3896 0.957635 44.3433 1.00473 44.3047 1.04398C44.2507 1.10677 44.1967 1.16957 44.1427 1.24022C44.1119 1.27946 44.0733 1.32656 44.0424 1.37366C43.973 1.4757 43.9036 1.57774 43.8419 1.68763C43.811 1.73473 43.7879 1.78968 43.7647 1.84462C43.7261 1.91527 43.6953 1.99376 43.6567 2.06441C43.6336 2.11936 43.6104 2.1743 43.5873 2.22925C43.5487 2.32344 43.5179 2.42548 43.4793 2.51968C43.4561 2.58247 43.4407 2.64527 43.4176 2.70806C43.3944 2.79441 43.3713 2.8729 43.3481 2.95925C43.3327 3.01419 43.325 3.06914 43.3096 3.12409C43.2941 3.21043 43.2787 3.28893 43.2633 3.37527C43.2556 3.41452 43.2478 3.46161 43.2401 3.50086C43.2247 3.6186 43.2093 3.7285 43.2016 3.84624C43.1938 3.89333 43.1938 3.93258 43.1861 3.97968C43.1784 4.05817 43.1707 4.14452 43.1707 4.22301C43.1707 4.26226 43.163 4.29366 43.163 4.3329C43.1553 4.4428 43.1553 4.54484 43.1553 4.63903C43.1553 4.66258 43.1553 4.68613 43.1553 4.70968C43.1553 4.78817 43.1553 4.85882 43.163 4.92946C43.163 4.95301 43.163 4.97656 43.163 5.00796C43.163 5.0943 43.1707 5.1728 43.1784 5.23559C43.163 5.23559 43.1476 5.22774 43.1321 5.23559C42.9238 5.26699 42.8081 5.64376 42.8775 6.06764C42.947 6.49151 43.1707 6.80548 43.379 6.77409C43.4407 6.76624 43.4947 6.71914 43.5333 6.66419C43.9036 7.56688 44.5207 8.50097 44.9605 9.01118C44.9605 9.01118 45.7242 9.75688 46.5805 9.90602H46.3028L44.8756 9.26237L44.7676 9.90602L44.7753 9.92172H44.7676L44.7368 9.83538L44.6982 9.92172H44.6287C43.8033 10.1494 43.0241 10.479 42.3607 10.8872C39.7223 11.7192 39.7223 15.1652 39.7223 15.1652V15.2201H41.8978H42.3607H45.0453H46.8043H46.812H46.8891H48.648H51.4484H51.6876H54.0868L54.0791 15.1652Z" fill="white"/>
<path d="M34.2218 15.1652C34.2218 15.1652 34.2218 11.7192 31.5834 10.8872C30.9199 10.4869 30.1408 10.1494 29.3153 9.92172H29.0762L29.0685 9.90602L28.9605 9.26237L27.541 9.90602H27.3635C28.2199 9.76473 28.9836 9.01118 28.9836 9.01118C29.4233 8.49312 30.0405 7.55903 30.4108 6.66419C30.4571 6.72699 30.5034 6.76624 30.5651 6.77409C30.7734 6.80548 30.9971 6.49151 31.0665 6.06764C31.136 5.64376 31.0202 5.26699 30.8119 5.23559C30.7965 5.23559 30.7734 5.23559 30.7579 5.23559C30.7657 5.16495 30.7734 5.08645 30.7734 5.00011C30.7734 4.97656 30.7734 4.95301 30.7734 4.92946C30.7734 4.85882 30.7811 4.78032 30.7811 4.70183C30.7811 4.67828 30.7811 4.65473 30.7811 4.63118C30.7811 4.52914 30.7811 4.4271 30.7734 4.3172C30.7734 4.28581 30.7734 4.24656 30.7657 4.21516C30.7579 4.13667 30.7502 4.05032 30.7425 3.97183C30.7425 3.93258 30.7348 3.88548 30.7271 3.84624C30.7117 3.7285 30.6962 3.6186 30.6808 3.49301C30.6731 3.45376 30.6654 3.41452 30.6577 3.37527C30.6422 3.28893 30.6268 3.20258 30.6037 3.10839C30.5959 3.05344 30.5805 3.00634 30.5651 2.9514C30.5419 2.86505 30.5188 2.77086 30.4879 2.68452C30.4725 2.63742 30.4571 2.58247 30.4416 2.53538C30.4031 2.42548 30.3645 2.31559 30.3259 2.21355C30.3028 2.16645 30.2796 2.11151 30.2642 2.06441C30.2256 1.98591 30.1871 1.90742 30.1485 1.82892C30.1254 1.78183 30.1022 1.73473 30.0791 1.68763C30.0173 1.57774 29.9479 1.46785 29.8708 1.36581C29.8399 1.32656 29.8168 1.29516 29.7859 1.25591C29.7242 1.18527 29.6702 1.10677 29.6008 1.03613C29.5699 0.996882 29.5313 0.957634 29.4928 0.926237C29.4773 0.910538 29.4619 0.894839 29.4465 0.87914L29.431 0.87129C28.8987 0.353226 28.1273 0 27.0395 0C25.9518 0 25.1803 0.353226 24.6249 0.87129L24.6094 0.87914C24.594 0.894839 24.5863 0.910538 24.5709 0.918387C24.5246 0.957635 24.486 1.00473 24.4474 1.04398C24.3857 1.10677 24.3317 1.16957 24.2854 1.24022C24.2546 1.27946 24.216 1.32656 24.1851 1.37366C24.1157 1.4757 24.0463 1.57774 23.9846 1.68763C23.9537 1.73473 23.9306 1.78968 23.8997 1.84462C23.8611 1.91527 23.8303 1.99376 23.7917 2.06441C23.7686 2.11936 23.7454 2.1743 23.7223 2.22925C23.6837 2.32344 23.6451 2.42548 23.6143 2.51968C23.5911 2.58247 23.5757 2.64527 23.5525 2.70806C23.5294 2.79441 23.5063 2.8729 23.4831 2.95925C23.4677 3.01419 23.46 3.06914 23.4445 3.12409C23.4291 3.21043 23.4137 3.28893 23.3983 3.37527C23.3905 3.41452 23.3828 3.46161 23.3751 3.50086C23.3597 3.6186 23.3443 3.73634 23.3288 3.84624C23.3211 3.89333 23.3211 3.93258 23.3134 3.97968C23.3057 4.05817 23.298 4.14452 23.298 4.22301C23.298 4.26226 23.2902 4.29366 23.2902 4.3329C23.298 4.43495 23.298 4.53699 23.298 4.63903C23.298 4.66258 23.298 4.68613 23.298 4.70968C23.298 4.78817 23.298 4.85882 23.298 4.92946C23.298 4.95301 23.298 4.97656 23.298 5.00796C23.3057 5.0943 23.3057 5.1728 23.3134 5.23559C23.298 5.23559 23.2825 5.22774 23.2671 5.23559C23.0588 5.26699 22.9431 5.64376 23.0125 6.06764C23.082 6.49151 23.3057 6.80548 23.514 6.77409C23.5757 6.76624 23.6297 6.71914 23.6683 6.66419C24.0386 7.56688 24.6557 8.50097 25.0955 9.01118C25.0955 9.01118 25.8592 9.75688 26.7155 9.90602H26.4378L25.0106 9.26237L24.9026 9.90602L24.9103 9.92172H24.9026L24.8717 9.83538L24.8332 9.92172H24.7637C23.9383 10.1494 23.1514 10.479 22.4956 10.8872C19.8573 11.7192 19.8573 15.1652 19.8573 15.1652V15.2201H22.0328H22.4956H25.1803H26.9392H26.947H27.0241H28.783H31.5834H31.8226H34.2218V15.1652Z" fill="white"/>
<path d="M11.7261 10.8872C11.0627 10.4869 10.2835 10.1494 9.45805 9.92172H9.2189L9.21119 9.90602L9.10318 9.26237L7.6837 9.90602H7.49084C8.34716 9.76473 9.11861 9.01118 9.11861 9.01118C9.55834 8.49312 10.1832 7.55903 10.5458 6.66419C10.5921 6.72699 10.6384 6.76624 10.7001 6.77409C10.9084 6.80548 11.1321 6.49151 11.2015 6.06764C11.271 5.64376 11.1553 5.26699 10.947 5.23559C10.9315 5.23559 10.9161 5.23559 10.9007 5.23559C10.9084 5.16495 10.9084 5.08645 10.9161 5.00011C10.9161 4.97656 10.9161 4.95301 10.9161 4.93731C10.9161 4.85882 10.9238 4.78032 10.9238 4.69398C10.9238 4.67828 10.9238 4.65473 10.9238 4.63903C10.9238 4.53699 10.9238 4.43495 10.9161 4.3172C10.9161 4.28581 10.9084 4.25441 10.9084 4.23086C10.9007 4.14452 10.893 4.05817 10.8852 3.96398C10.8852 3.92473 10.8775 3.88548 10.8775 3.84624C10.8621 3.7285 10.8467 3.61075 10.8312 3.48516C10.8235 3.45376 10.8158 3.41452 10.8158 3.38312C10.8004 3.29677 10.785 3.20258 10.7618 3.10839C10.7464 3.06129 10.7387 3.00634 10.7232 2.95925C10.7001 2.86505 10.677 2.77086 10.6461 2.67667C10.6307 2.62957 10.623 2.58247 10.6075 2.54323C10.5689 2.43333 10.5304 2.32344 10.4841 2.21355C10.4687 2.16645 10.4455 2.11151 10.4224 2.06441C10.3838 1.98591 10.3452 1.90742 10.3067 1.82108C10.2835 1.77398 10.2604 1.72688 10.2372 1.68763C10.1755 1.57774 10.1061 1.46785 10.0289 1.36581C9.99807 1.32656 9.96721 1.28731 9.94407 1.24806C9.89007 1.17742 9.82835 1.09892 9.75892 1.03613C9.72035 0.996882 9.68949 0.957635 9.65092 0.918387C9.63549 0.902688 9.62006 0.886989 9.60463 0.87129L9.5892 0.863441C9.04147 0.353226 8.27001 0 7.18226 0C6.0945 0 5.32305 0.353226 4.7676 0.87129L4.75988 0.87914C4.74446 0.886989 4.73674 0.902688 4.72131 0.910538C4.67502 0.957635 4.63645 1.00473 4.59016 1.05183C4.53616 1.11462 4.48216 1.16957 4.43587 1.23237C4.3973 1.27946 4.35873 1.32656 4.32787 1.37366C4.25844 1.4757 4.18901 1.57774 4.13501 1.67979C4.10415 1.73473 4.081 1.78183 4.05015 1.83677C4.01157 1.91527 3.973 1.98591 3.94214 2.05656C3.919 2.11151 3.89585 2.16645 3.87271 2.21355C3.83414 2.31559 3.79556 2.41763 3.75699 2.52753C3.74156 2.58247 3.72613 2.62957 3.7107 2.68452C3.68756 2.77871 3.6567 2.86505 3.63356 2.95925C3.62584 3.01419 3.61813 3.06129 3.6027 3.10839C3.57956 3.20258 3.56413 3.29677 3.5487 3.39097C3.54098 3.42237 3.53327 3.46161 3.53327 3.49301C3.51013 3.6186 3.4947 3.73634 3.48698 3.85409C3.47927 3.89333 3.47927 3.92473 3.47155 3.96398C3.46384 4.05817 3.45612 4.14452 3.45612 4.23086C3.45612 4.26226 3.44841 4.29366 3.44841 4.3172C3.44069 4.43495 3.44069 4.53699 3.44069 4.63903C3.44069 4.65473 3.44069 4.67828 3.44069 4.69398C3.44069 4.78032 3.44069 4.85882 3.44841 4.93731C3.44841 4.96086 3.44841 4.98441 3.44841 5.00796C3.45612 5.0943 3.45612 5.1728 3.46384 5.24344C3.44841 5.24344 3.43298 5.23559 3.41755 5.24344C3.20154 5.26699 3.09354 5.64376 3.15526 6.06764C3.22469 6.49151 3.44841 6.80548 3.6567 6.77409C3.71842 6.76624 3.77242 6.71914 3.81099 6.66419C4.18129 7.56688 4.79846 8.50097 5.23819 9.01118C5.23819 9.01118 6.00964 9.76473 6.86596 9.90602H6.58824L5.16104 9.26237L5.05304 9.90602L5.06075 9.92172H5.05304L5.01447 9.83538L4.97589 9.92172H4.91418C4.08872 10.1494 3.30183 10.479 2.64609 10.8872C0.00771455 11.7192 0 15.1652 0 15.1652V15.2201H2.17551H2.63838H5.32305H7.08197H7.08968H7.16683H8.92575H11.7261H11.9653H14.3645V15.1652C14.3645 15.1652 14.3568 11.7192 11.7261 10.8872Z" fill="white"/>
<path d="M54.0791 56.6568C54.0791 56.6568 54.0791 53.2109 51.4407 52.3789C50.7773 51.9707 49.9981 51.641 49.1727 51.4134H48.9335L48.9258 51.3977L48.8178 50.754L47.3906 51.3977H47.2209C48.0772 51.2564 48.8409 50.5028 48.8409 50.5028C49.2807 49.9848 49.8978 49.0507 50.2681 48.1559C50.3067 48.2186 50.3607 48.2579 50.4224 48.2657C50.6307 48.2971 50.8544 47.9832 50.9239 47.5593C50.9933 47.1354 50.8776 46.7586 50.6693 46.7273C50.6538 46.7273 50.6384 46.7273 50.623 46.7273C50.6307 46.6566 50.6307 46.5781 50.6384 46.4918C50.6384 46.4682 50.6384 46.4447 50.6384 46.4211C50.6384 46.3505 50.6461 46.272 50.6461 46.1935C50.6461 46.1699 50.6461 46.1464 50.6461 46.1228C50.6461 46.0208 50.6461 45.9188 50.6384 45.8089C50.6384 45.7775 50.6384 45.7382 50.6307 45.7068C50.623 45.6283 50.623 45.542 50.6153 45.4635C50.6076 45.4242 50.6076 45.3771 50.5998 45.3379C50.5844 45.2202 50.5767 45.1103 50.5536 44.9847C50.5458 44.9454 50.5381 44.9062 50.5304 44.8669C50.515 44.7806 50.4996 44.6942 50.4764 44.6C50.4687 44.5451 50.4533 44.498 50.4378 44.4431C50.4147 44.3567 50.3916 44.2625 50.3684 44.1762C50.353 44.1212 50.3376 44.0741 50.3221 44.027C50.2836 43.9171 50.245 43.8073 50.2064 43.7052C50.1833 43.6581 50.1601 43.6032 50.1447 43.5561C50.1138 43.4776 50.0675 43.3912 50.029 43.3206C50.0058 43.2735 49.9827 43.2264 49.9595 43.1871C49.8978 43.0773 49.8284 42.9674 49.7512 42.8653C49.7204 42.8261 49.6895 42.7947 49.6664 42.7554C49.6047 42.6769 49.543 42.6063 49.4812 42.5356C49.4427 42.4964 49.4118 42.4571 49.3732 42.4257C49.3578 42.41 49.3424 42.3944 49.3269 42.3787L49.3115 42.3708C48.7561 41.8527 47.9846 41.4995 46.9046 41.4995C45.8168 41.4995 45.0454 41.8527 44.4899 42.3708L44.4745 42.3787C44.4591 42.3944 44.4513 42.4101 44.4359 42.4179C44.3973 42.4571 44.3511 42.5042 44.3125 42.5435C44.2585 42.6063 44.2045 42.6691 44.1505 42.7397C44.1196 42.7868 44.081 42.8261 44.0502 42.8732C43.9808 42.9752 43.9113 43.0773 43.8496 43.1871C43.8187 43.2342 43.7956 43.2892 43.7725 43.3441C43.7339 43.4148 43.703 43.4854 43.6645 43.5639C43.6413 43.6189 43.6182 43.6738 43.595 43.7288C43.5565 43.823 43.5256 43.925 43.487 44.0192C43.4639 44.082 43.4485 44.1448 43.4253 44.2076C43.4022 44.2939 43.379 44.3724 43.3559 44.4588C43.3404 44.5137 43.3327 44.5687 43.3173 44.6236C43.3019 44.7099 43.2864 44.7884 43.271 44.8748C43.2633 44.914 43.2556 44.9611 43.2479 45.0004C43.2324 45.1181 43.217 45.2359 43.2016 45.3457C43.1939 45.3928 43.1939 45.4321 43.1862 45.4792C43.1784 45.5577 43.1707 45.644 43.1707 45.7225C43.1707 45.7618 43.163 45.7932 43.163 45.8324C43.1553 45.9423 43.1553 46.0443 43.1553 46.1385C43.1553 46.1621 43.1553 46.1856 43.1553 46.2092C43.1553 46.2877 43.1553 46.3662 43.163 46.429C43.163 46.4525 43.163 46.4761 43.163 46.5075C43.163 46.5938 43.1707 46.6723 43.1784 46.7351C43.163 46.7351 43.1476 46.7273 43.1322 46.7351C42.9239 46.7665 42.8081 47.1433 42.8776 47.5671C42.947 47.991 43.1707 48.305 43.379 48.2736C43.4407 48.2657 43.4947 48.2187 43.5333 48.1637C43.9036 49.0664 44.5208 50.0005 44.9605 50.5107C44.9605 50.5107 45.7242 51.2564 46.5806 51.4055H46.3028L44.8756 50.7619L44.7676 51.4055L44.7754 51.4212H44.7676L44.7368 51.3349L44.6982 51.4212H44.6288C43.8033 51.6489 43.0241 51.9785 42.3607 52.3867C39.7223 53.2188 39.7223 56.6647 39.7223 56.6647V56.7196H41.8978H42.3607H45.0454H46.8043H46.812H46.8891H48.6481H51.4484H51.6876H54.0868L54.0791 56.6568Z" fill="white"/>
<path d="M34.2219 56.6568C34.2219 56.6568 34.2219 53.2109 31.5835 52.3789C30.92 51.9707 30.1409 51.641 29.3154 51.4134H29.0763L29.0686 51.3977L28.9605 50.754L27.5411 51.3977H27.3636C28.22 51.2564 28.9837 50.5028 28.9837 50.5028C29.4234 49.9848 30.0406 49.0507 30.4109 48.1559C30.4572 48.2187 30.5035 48.2579 30.5652 48.2658C30.7735 48.2971 30.9972 47.9832 31.0666 47.5593C31.1361 47.1354 31.0203 46.7587 30.812 46.7273C30.7966 46.7273 30.7735 46.7273 30.758 46.7273C30.7658 46.6566 30.7735 46.5781 30.7735 46.4918C30.7735 46.4682 30.7735 46.4447 30.7735 46.4211C30.7735 46.3505 30.7812 46.272 30.7812 46.1935C30.7812 46.1699 30.7812 46.1464 30.7812 46.1228C30.7812 46.0208 30.7812 45.9188 30.7735 45.8089C30.7735 45.7775 30.7735 45.7382 30.7658 45.7068C30.758 45.6283 30.7503 45.542 30.7426 45.4635C30.7426 45.4242 30.7349 45.3771 30.7272 45.3379C30.7118 45.2202 30.6963 45.1103 30.6809 44.9847C30.6732 44.9454 30.6655 44.9062 30.6578 44.8669C30.6423 44.7806 30.6269 44.6942 30.6037 44.6001C30.596 44.5451 30.5806 44.498 30.5652 44.4431C30.542 44.3567 30.5189 44.2625 30.488 44.1762C30.4726 44.1212 30.4572 44.0741 30.4417 44.027C30.4032 43.9171 30.3646 43.8073 30.326 43.7052C30.3029 43.6581 30.2797 43.6032 30.2643 43.5561C30.2257 43.4776 30.1872 43.3912 30.1486 43.3206C30.1254 43.2735 30.1023 43.2264 30.0792 43.1871C30.0174 43.0773 29.948 42.9674 29.8709 42.8653C29.84 42.8261 29.8169 42.7947 29.786 42.7554C29.7243 42.6769 29.6703 42.6063 29.6009 42.5356C29.57 42.4964 29.5314 42.4571 29.4929 42.4257C29.4774 42.41 29.462 42.3944 29.4466 42.3787L29.4311 42.3708C28.8757 41.8527 28.1042 41.4995 27.0165 41.4995C25.9287 41.4995 25.1573 41.8527 24.6018 42.3708L24.5864 42.3787C24.571 42.3944 24.5632 42.4101 24.5478 42.4179C24.5015 42.4571 24.463 42.5042 24.4244 42.5435C24.3627 42.6063 24.3087 42.6691 24.2624 42.7397C24.2315 42.7868 24.193 42.8261 24.1621 42.8732C24.0927 42.9752 24.0232 43.0773 23.9615 43.1871C23.9307 43.2342 23.9075 43.2892 23.8767 43.3441C23.8381 43.4148 23.8072 43.4854 23.7686 43.5639C23.7455 43.6189 23.7224 43.6738 23.6992 43.7288C23.6606 43.823 23.6221 43.925 23.5912 44.0192C23.5681 44.082 23.5526 44.1448 23.5295 44.2076C23.5064 44.2939 23.4832 44.3724 23.4601 44.4588C23.4446 44.5137 23.4369 44.5687 23.4215 44.6236C23.4061 44.7099 23.3906 44.7884 23.3752 44.8748C23.3675 44.914 23.3598 44.9611 23.3521 45.0004C23.3366 45.1181 23.3212 45.2359 23.3058 45.3458C23.2981 45.3928 23.2981 45.4321 23.2903 45.4792C23.2826 45.5577 23.2749 45.644 23.2749 45.7225C23.2749 45.7618 23.2672 45.7932 23.2672 45.8324C23.2595 45.9423 23.2595 46.0444 23.2595 46.1385C23.2595 46.1621 23.2595 46.1856 23.2595 46.2092C23.2595 46.2877 23.2595 46.3662 23.2595 46.429C23.2595 46.4525 23.2595 46.4761 23.2595 46.5075C23.2672 46.5938 23.2672 46.6723 23.2749 46.7351C23.2595 46.7351 23.2441 46.7273 23.2286 46.7351C23.0203 46.7665 22.9046 47.1433 22.9741 47.5671C23.0435 47.991 23.2672 48.305 23.4755 48.2736C23.5372 48.2658 23.5912 48.2187 23.6298 48.1637C24.0001 49.0664 24.6173 50.0005 25.057 50.5107C25.057 50.5107 25.8207 51.2564 26.677 51.4055H26.3993L24.9721 50.7619L24.8641 51.4055L24.8718 51.4212H24.8641L24.8333 51.3349L24.841 51.4134H24.7715C23.9461 51.641 23.1592 51.9707 22.5035 52.3789C19.8651 53.2109 19.8651 56.6568 19.8651 56.6568V56.7118H22.0406H22.5035H25.1881H26.947H26.9548H27.0319H28.7908H31.5912H31.8304H34.2296L34.2219 56.6568Z" fill="white"/>
<path d="M11.7261 52.38C11.0627 51.9718 10.2835 51.6421 9.45805 51.4145H9.2189L9.21119 51.3988L9.10318 50.7551L7.6837 51.3988H7.49084C8.34716 51.2575 9.11861 50.5039 9.11861 50.5039C9.55834 49.9859 10.1832 49.0518 10.5458 48.1569C10.5921 48.2197 10.6384 48.259 10.7001 48.2668C10.9084 48.2982 11.1321 47.9843 11.2015 47.5604C11.271 47.1365 11.1553 46.7597 10.947 46.7283C10.9315 46.7283 10.9161 46.7283 10.9007 46.7283C10.9084 46.6577 10.9084 46.5792 10.9161 46.4929C10.9161 46.4693 10.9161 46.4458 10.9161 46.4301C10.9161 46.3516 10.9238 46.2731 10.9238 46.1867C10.9238 46.171 10.9238 46.1475 10.9238 46.1318C10.9238 46.0297 10.9238 45.9277 10.9161 45.81C10.9161 45.7786 10.9084 45.7472 10.9084 45.7236C10.9007 45.6373 10.893 45.5509 10.8852 45.4567C10.8852 45.4175 10.8775 45.3782 10.8775 45.339C10.8621 45.2212 10.8467 45.1035 10.8312 44.9779C10.8235 44.9465 10.8158 44.9073 10.8158 44.8759C10.8004 44.7817 10.785 44.6875 10.7618 44.5933C10.7464 44.5462 10.7387 44.4912 10.7232 44.4441C10.7001 44.35 10.677 44.2558 10.6461 44.1616C10.6307 44.1145 10.623 44.0674 10.6075 44.0281C10.5689 43.9182 10.5304 43.8083 10.4841 43.6984C10.4687 43.6514 10.4455 43.5964 10.4224 43.5493C10.3838 43.4708 10.3452 43.3845 10.3067 43.306C10.2835 43.2589 10.2604 43.2118 10.2372 43.1725C10.1755 43.0626 10.1061 42.9527 10.0289 42.8507C9.99807 42.8115 9.96721 42.7722 9.94407 42.733C9.89007 42.6623 9.82835 42.5838 9.75892 42.521C9.72035 42.4818 9.68949 42.4425 9.65092 42.4033C9.63549 42.3876 9.62006 42.3719 9.60463 42.3562L9.5892 42.3483C9.03375 41.8303 8.2623 41.4771 7.17454 41.4771C6.08679 41.4771 5.31533 41.8303 4.75988 42.3483L4.74446 42.3562C4.74446 42.3876 4.73674 42.3954 4.72131 42.4111C4.67502 42.4582 4.62874 42.5053 4.59016 42.5524C4.53616 42.6152 4.48216 42.6702 4.43587 42.733C4.3973 42.7801 4.35873 42.8272 4.32787 42.8743C4.25844 42.9763 4.18901 43.0783 4.13501 43.1804C4.10415 43.2353 4.081 43.2824 4.05015 43.3374C4.01157 43.408 3.973 43.4865 3.94214 43.5572C3.919 43.6121 3.89585 43.6671 3.87271 43.722C3.83414 43.824 3.79556 43.9261 3.75699 44.036C3.74156 44.0909 3.72613 44.138 3.7107 44.193C3.68756 44.2793 3.6567 44.3735 3.63356 44.4677C3.61813 44.5148 3.61041 44.5697 3.6027 44.6168C3.57956 44.711 3.56413 44.8052 3.5487 44.8994C3.54098 44.9308 3.53327 44.9701 3.53327 45.0015C3.51784 45.1271 3.50241 45.2448 3.48698 45.3625C3.47927 45.4018 3.47927 45.441 3.47927 45.4803C3.47155 45.5745 3.46384 45.6608 3.45612 45.7472C3.45612 45.7786 3.44841 45.81 3.44841 45.8335C3.44069 45.9434 3.44069 46.0533 3.44069 46.1553C3.44069 46.1789 3.44069 46.1946 3.44069 46.2103C3.44069 46.2966 3.44069 46.3751 3.44841 46.4536C3.44841 46.4772 3.44841 46.5007 3.44841 46.5243C3.45612 46.6106 3.45612 46.6891 3.46384 46.7597C3.44841 46.7597 3.43298 46.7519 3.41755 46.7597C3.20926 46.7911 3.09354 47.1679 3.16297 47.5918C3.2324 48.0157 3.45612 48.3296 3.66442 48.2982C3.72613 48.2904 3.78014 48.2433 3.81871 48.1883C4.18901 49.091 4.80617 50.0173 5.2459 50.5353C5.2459 50.5353 6.01736 51.2889 6.87367 51.4302H6.58824L5.16104 50.7865L5.05304 51.4302L5.06075 51.4459H5.05304L5.01447 51.336L4.97589 51.4145H4.91418C4.08872 51.6421 3.30183 51.9718 2.64609 52.38C0.00771455 53.2199 0 56.6579 0 56.6579V56.7129H2.17551H2.63838H5.32305H7.08197H7.08968H7.16683H8.92575H11.7261H11.9653H14.3645V56.6579C14.3645 56.6579 14.3568 53.212 11.7261 52.38Z" fill="white"/>
<path d="M22.1717 36.5245L23.5449 31.5244C19.4407 31.5244 19.4407 36.2498 19.4407 36.2498L19.4253 36.5324H22.1717V36.5245Z" fill="#0D3A56"/>
<path d="M34.6538 36.5246L34.6384 36.242C34.6384 36.242 34.6384 31.5166 30.5266 31.5166L31.9075 36.5167H34.6538V36.5246Z" fill="#0D3A56"/>
<path d="M21.8477 36.4058V36.5235H32.0849V36.4058C32.0849 36.4058 32.0849 36.1938 32.27 36.0369C32.3626 35.9584 32.6095 35.8485 32.7098 35.872C33.3887 36.0055 33.8747 34.7652 33.8747 34.4905C33.8747 32.8107 31.8226 31.3586 29.4388 30.6992H24.6326C22.2488 31.3586 20.2045 32.8107 20.2045 34.4905C20.2045 34.8908 21.8477 36.4058 21.8477 36.4058Z" fill="#0D3A56"/>
<path d="M28.8062 36.5246L29.0531 35.8103L28.405 35.1745L30.4803 33.5418L29.1842 30.6768L26.9856 36.4069V36.5246H28.8062Z" fill="#184F78"/>
<path d="M24.8795 35.7317L25.1495 36.5244H26.947V36.3361L24.7483 30.606L23.4523 33.471L25.5275 35.0958L24.8795 35.7317Z" fill="#184F78"/>
<path d="M29.1843 30.6768L26.9856 36.4069L24.787 30.6768H29.1843Z" fill="#C3C3C3"/>
<path d="M31.0357 25.7312C31.0126 25.7312 30.9972 25.7312 30.9817 25.7312C31.0666 24.7971 31.0126 22.4344 29.6163 21.1079L27.0473 20.1816L24.4784 21.1079C23.0743 22.4266 23.0203 24.7971 23.1052 25.7312C23.0897 25.7312 23.0743 25.7234 23.0589 25.7312C22.8352 25.7705 22.7194 26.1629 22.7889 26.6104C22.8583 27.0578 23.0974 27.3953 23.3212 27.356C23.3829 27.3482 23.4369 27.3011 23.4832 27.2383C23.8766 28.1881 24.5324 29.1771 24.9952 29.7266C24.9952 29.7266 26.0213 30.7313 27.0473 30.6999C28.0811 30.7313 29.0994 29.7266 29.0994 29.7266C29.57 29.1771 30.2257 28.1959 30.6114 27.2383C30.6577 27.3011 30.7117 27.3482 30.7734 27.356C30.9972 27.3953 31.2286 27.0578 31.3057 26.6104C31.3752 26.1629 31.2517 25.7705 31.0357 25.7312Z" fill="#FBCF94"/>
<path d="M23.7912 24.043C23.7912 24.043 23.7912 24.0575 23.7841 24.072C23.7841 24.0648 23.7841 24.0575 23.7912 24.043Z" fill="#754C29"/>
<path d="M27.4638 31.2422H26.6152L26.3915 31.776L26.8389 32.3961H27.2401L27.6875 31.776L27.4638 31.2422Z" fill="#EE4136"/>
<path d="M23.7912 24.043C23.7912 24.043 23.7912 24.0575 23.7841 24.072C23.7841 24.0648 23.7841 24.0575 23.7912 24.043Z" fill="#754C29"/>
<path d="M27.5642 30.896H26.407L26.0984 31.626L26.7078 32.4659H27.2556L27.865 31.626L27.5642 30.896Z" fill="#FF0600"/>
<path d="M26.9856 36.4067L27.4176 35.2763L27.2942 32.3799H26.6847L26.5536 35.2842L26.9856 36.4067Z" fill="#FF0600"/>
<path d="M27.0396 20.1895C23.1437 20.1895 22.9817 24.4125 23.0975 25.739C23.0975 25.739 23.352 24.8128 23.4446 24.6009C23.5295 24.3889 23.7918 24.0514 23.7918 24.0514C23.7378 24.2947 23.8458 24.491 24.0155 24.6401C24.3009 24.8128 25.0107 25.2838 26.0907 24.7029C26.2759 24.6009 26.6462 24.3968 27.0473 24.1848C27.3327 24.0357 27.6336 23.8787 27.8882 23.7531C27.9036 23.7453 27.9191 23.7374 27.9268 23.7296C27.9731 23.706 28.0193 23.6903 28.0579 23.6668C28.0733 23.6589 28.0965 23.6511 28.1119 23.6432C28.1505 23.6275 28.1813 23.6118 28.2122 23.5961C28.2276 23.5883 28.2508 23.5804 28.2662 23.5726C28.2971 23.5569 28.3202 23.549 28.3511 23.5412C28.3588 23.5333 28.3742 23.5333 28.3896 23.5255C28.4282 23.5176 28.4591 23.5098 28.4822 23.5019C28.7908 23.4156 29.1148 23.3842 29.462 23.3999C29.5314 23.3999 29.6008 23.4077 29.6548 23.4156C29.6548 23.4156 30.7194 23.2507 30.9817 25.7233C31.0975 24.4125 30.9432 20.1895 27.0396 20.1895Z" fill="#0D3A56"/>
<path d="M25.4273 32.5599L24.787 30.6761L24.9027 29.9932L26.8391 30.8645L25.4273 32.5599Z" fill="#E5E6E7"/>
<path d="M27.1322 30.8723L29.0686 30.001L29.1843 30.6839L28.652 32.5677L27.1322 30.8723Z" fill="#E5E6E7"/>
<path d="M52.2585 61.9164C52.6442 62.3089 54.4417 61.1157 56.27 59.2554C58.0984 57.3951 59.271 55.5662 58.8853 55.1737C58.4995 54.7734 56.702 55.9743 54.8737 57.8268C53.0376 59.695 51.865 61.5239 52.2585 61.9164Z" fill="#8082BA"/>
<path d="M38.0019 40.6676C38.8274 39.8199 39.5371 38.9093 40.1388 37.9438L58.7309 55.0086L52.1041 61.7513L35.3327 42.8341C36.2738 42.2297 37.1765 41.5075 38.0019 40.6676Z" fill="#FF7F00"/>
<path d="M38.0019 40.6676C38.8274 39.8199 39.5371 38.9093 40.1388 37.9438L58.7309 55.0086L52.1041 61.7513L35.3327 42.8341C36.2738 42.2297 37.1765 41.5075 38.0019 40.6676Z" fill="#2C2E68"/>
<path d="M37.1533 44.9068L35.3173 42.8502C36.2662 42.238 37.1688 41.5158 37.9942 40.6759C38.8197 39.8282 39.5294 38.9176 40.1311 37.9521L42.1601 39.8203C41.5429 40.8329 40.81 41.7905 39.946 42.6697C39.0897 43.5331 38.1485 44.2788 37.1533 44.9068Z" fill="#8082BA"/>
<path d="M16.0617 40.6678C10.0135 34.5139 10.0135 24.4979 16.0617 18.3518C22.1099 12.1978 31.946 12.1978 37.9942 18.3518C44.0424 24.4979 44.0424 34.5139 37.9942 40.6678C31.946 46.8218 22.1099 46.8218 16.0617 40.6678ZM18.5072 38.1796C23.2131 42.9599 30.8582 42.9599 35.5564 38.1796C40.2546 33.3992 40.2546 25.6204 35.5564 20.8322C30.8582 16.0519 23.2054 16.0519 18.5072 20.8322C13.8091 25.6204 13.8091 33.3992 18.5072 38.1796Z" fill="white"/>
</svg>
