<svg width="93" height="54" viewBox="0 0 93 54" fill="none" xmlns="http://www.w3.org/2000/svg">
<path d="M50.5037 35.5002C47.9905 35.5002 45.464 35.4743 42.9375 35.526C42.6701 35.526 42.2958 35.9142 42.1488 36.1858C39.9832 40.2223 36.4541 42.2922 31.6015 42.2922C28.9146 42.2922 26.5351 41.3478 24.4097 39.653C24.2091 39.9506 24.0354 40.1964 23.8749 40.4681C22.1906 43.0426 20.6132 45.6818 18.8085 48.1916C16.8836 50.8567 14.3303 52.849 10.9081 53.7805C6.57697 54.9707 -0.494614 51.1671 0.0267316 45.6688C0.387663 41.917 0.748595 38.1523 1.08279 34.4005C1.56403 28.9798 2.07201 23.5591 2.47304 18.1384C2.80724 13.6362 4.94609 10.1173 8.83613 7.45225C9.2238 7.18057 9.53126 6.72776 9.71841 6.30083C10.0259 5.60222 10.2665 4.8648 10.4135 4.11444C10.8279 2.07036 12.3385 0.983631 14.3169 0.440268C17.3514 -0.374778 20.3458 0.000401857 23.1932 1.20356C24.6102 1.79868 25.4523 2.85953 25.7063 4.29556C25.8266 5.02005 25.9871 5.73159 26.1207 6.45608C26.3614 7.77568 27.0164 8.3061 28.4601 8.3061C40.558 8.3061 52.6559 8.3061 64.7538 8.3061C65.8767 8.3061 66.6119 7.72393 66.8124 6.68895C66.9728 5.88684 67.1733 5.08473 67.307 4.28263C67.5476 2.83366 68.4166 1.79868 69.8335 1.20356C72.5873 0.0392136 75.4748 -0.323029 78.4424 0.388519C80.5947 0.906008 82.1988 2.03155 82.6266 4.21794C82.9741 5.99034 83.8698 7.32287 85.4739 8.5131C88.6822 10.8806 90.2328 14.1796 90.5403 17.9832C90.8745 22.2395 91.2087 26.4959 91.5964 30.7522C92.0375 35.6813 92.5455 40.5974 92.9733 45.5265C93.2005 48.101 92.1177 50.2098 89.9388 51.827C86.2225 54.5955 82.4394 54.7249 78.4959 52.228C76.6779 51.0766 75.1138 49.6535 73.9508 47.9199C72.32 45.4877 70.7559 43.0167 69.1652 40.5586C68.9914 40.2869 68.8176 40.0153 68.6304 39.7306C62.1069 44.7115 53.1772 42.0464 50.5037 35.5002Z" fill="white"/>
<path d="M18.1535 28.6817C24.1557 28.6817 29.0349 23.9984 29.0216 18.2413C29.0216 12.342 24.1557 7.60693 18.1268 7.60693C12.0979 7.60693 7.23199 12.3678 7.24536 18.2543C7.24536 23.9984 12.1514 28.6817 18.1535 28.6817Z" fill="#454689"/>
<path d="M74.8866 28.6817C80.9422 28.6817 85.7814 24.0114 85.7947 18.1767C85.8081 12.3549 80.9155 7.59402 74.9267 7.60696C68.8577 7.6199 64.0185 12.329 64.0185 18.2284C64.0185 23.9984 68.8844 28.6817 74.8866 28.6817Z" fill="#454689"/>
<path d="M32.5507 25.8106C28.9012 25.8235 25.9737 28.6568 25.9871 32.1628C26.0004 35.617 29.0483 38.4761 32.6576 38.4244C36.2134 38.3856 39.1544 35.5523 39.1677 32.1886C39.1677 28.605 36.2536 25.7977 32.5507 25.8106Z" fill="#454689"/>
<path d="M60.4226 25.8105C64.0586 25.8105 66.9595 28.5791 66.9862 32.0463C67.0129 35.5782 64.0185 38.4632 60.3558 38.4244C56.7464 38.3855 53.8323 35.5652 53.8456 32.111C53.8456 28.5791 56.7464 25.8105 60.4226 25.8105Z" fill="#454689"/>
<path d="M10.9081 20.5969C10.9081 18.9021 10.9081 17.3367 10.9081 15.6937C12.0177 15.6937 13.0604 15.6807 14.1031 15.7066C14.2902 15.7066 14.5041 15.823 14.6511 15.9524C15.4265 16.6381 16.1751 17.3496 17.0841 18.1905C16.2018 18.9927 15.4131 19.7171 14.611 20.4028C14.4774 20.5192 14.2367 20.5839 14.0362 20.5969C13.0336 20.6098 12.0043 20.5969 10.9081 20.5969Z" fill="white"/>
<path d="M24.8775 20.5969C24.8775 18.9021 24.8775 17.3367 24.8775 15.6937C23.768 15.6937 22.7253 15.6807 21.6826 15.7066C21.4955 15.7066 21.2816 15.823 21.1345 15.9524C20.3592 16.6381 19.6106 17.3496 18.7016 18.1905C19.5839 18.9927 20.3726 19.7171 21.1746 20.4028C21.3083 20.5192 21.5489 20.5839 21.7495 20.5969C22.7654 20.6098 23.7814 20.5969 24.8775 20.5969Z" fill="white"/>
<path d="M15.373 11.54C17.1242 11.54 18.7417 11.54 20.4394 11.54C20.4394 12.6138 20.4528 13.6229 20.426 14.632C20.426 14.8132 20.3057 15.0202 20.1721 15.1625C19.4636 15.9128 18.7283 16.6373 17.8594 17.517C17.0306 16.6632 16.282 15.8999 15.5735 15.1236C15.4532 14.9943 15.3864 14.7614 15.373 14.5673C15.3596 13.5841 15.373 12.6009 15.373 11.54Z" fill="white"/>
<path d="M15.373 24.7621C17.1242 24.7621 18.7417 24.7621 20.4394 24.7621C20.4394 23.6884 20.4528 22.6793 20.426 21.6702C20.426 21.489 20.3057 21.282 20.1721 21.1397C19.4636 20.3894 18.7283 19.6649 17.8594 18.7852C17.0306 19.639 16.282 20.4023 15.5735 21.1785C15.4532 21.3079 15.3864 21.5408 15.373 21.7348C15.3596 22.7181 15.373 23.7142 15.373 24.7621Z" fill="white"/>
<path d="M77.8008 23.9088C77.8008 25.4354 76.5041 26.7032 74.9267 26.7162C73.3493 26.7291 72.0259 25.4871 72.0125 23.9605C71.9991 22.3822 73.3092 21.1014 74.9267 21.1144C76.5041 21.1144 77.8008 22.3822 77.8008 23.9088Z" fill="white"/>
<path d="M74.9267 9.50977C76.5175 9.5227 77.8141 10.7776 77.8141 12.3042C77.8141 13.8696 76.4774 15.1504 74.8598 15.1245C73.2824 15.0987 71.9991 13.8179 72.0259 12.2783C72.0259 10.7388 73.3359 9.50977 74.9267 9.50977Z" fill="white"/>
<path d="M69.125 15.3443C70.7158 15.3573 72.0125 16.6122 71.9991 18.1388C71.9991 19.7042 70.649 20.985 69.0315 20.9462C67.4541 20.9073 66.1841 19.6266 66.2109 18.1C66.2376 16.5604 67.5343 15.3314 69.125 15.3443Z" fill="white"/>
<path d="M80.7417 15.3048C82.3191 15.3177 83.6158 16.5856 83.6024 18.1122C83.6024 19.6388 82.2924 20.9066 80.715 20.9066C79.0975 20.9195 77.774 19.6129 77.8141 18.0475C77.8409 16.508 79.1509 15.2919 80.7417 15.3048Z" fill="white"/>
</svg>
