<svg width="26" height="46" viewBox="0 0 26 46" fill="none" xmlns="http://www.w3.org/2000/svg">
<path fill-rule="evenodd" clip-rule="evenodd" d="M26 14.6451C26 6.71487 20.4722 0 12.7269 0C5.53591 0 0 6.71487 0 14.6451C0 18.2998 1.10881 22.5752 3.87269 25.0146C6.09031 27.454 6.63656 29.8934 6.63656 31.1349C6.63656 31.747 6.09031 32.359 6.09031 32.971C6.38875 33.3032 6.58017 33.7291 6.63656 34.1863C6.33704 34.5212 6.14558 34.9502 6.09031 35.4104C6.09031 36.0225 6.63656 36.0224 6.63656 36.6257C6.63656 37.229 6.09031 37.2378 6.09031 37.8498C6.14444 38.3078 6.33619 38.7344 6.63656 39.0651C6.63656 39.6772 6.09031 40.2892 6.09031 40.9012C6.24096 41.411 6.53333 41.8593 6.92823 42.1859C7.32313 42.5125 7.8017 42.7019 8.29977 42.7286V43.3406C8.29977 44.5559 9.40859 45.168 10.5093 45.168H15.4907C16.5996 45.168 17.7002 44.5559 17.7002 43.3406V42.7286C18.1997 42.7036 18.6801 42.5151 19.0766 42.1883C19.4731 41.8616 19.7667 41.4124 19.9178 40.9012C19.9178 40.2892 19.3634 39.6772 19.3634 39.0651C19.6673 38.736 19.862 38.309 19.9178 37.8498C19.9178 37.2378 19.3634 37.2378 19.3634 36.6257C19.3634 36.0137 19.9178 36.0225 19.9178 35.4104C19.8609 34.949 19.6664 34.5196 19.3634 34.1863C19.4215 33.7278 19.6159 33.3016 19.9178 32.971C19.9178 32.359 19.3634 31.747 18.809 31.1349C19.3634 29.9196 19.9178 27.4802 22.1273 25.0146C24.8912 22.5752 26 18.2998 26 14.6451ZM18.8009 32.9448C18.348 33.3606 17.7661 33.579 17.1703 33.5568H8.85419C8.25849 33.5781 7.67689 33.3598 7.22358 32.9448C7.22358 32.3328 7.22358 32.3328 7.77798 32.3328H18.2872C18.3618 32.3315 18.4357 32.3466 18.5046 32.3771C18.5735 32.4077 18.6358 32.453 18.6878 32.5103C18.7397 32.5676 18.7801 32.6358 18.8066 32.7105C18.8331 32.7852 18.845 32.865 18.8416 32.9448H18.8009ZM18.8009 35.3842C18.348 35.8 17.7661 36.0184 17.1703 35.9962H8.85419C8.25849 36.0175 7.67689 35.7992 7.22358 35.3842C7.22358 34.7722 7.77799 34.7722 8.85419 34.7722H17.1703C18.2709 34.7722 18.8009 34.7722 18.8009 35.3842ZM18.8009 37.8236C18.8009 38.4356 18.2465 38.4356 17.1703 38.4356H8.85419C7.74538 38.4356 7.22358 38.4356 7.22358 37.8236C7.67689 37.4085 8.25849 37.1903 8.85419 37.2115H17.1703C17.7661 37.1894 18.348 37.4078 18.8009 37.8236ZM15.4826 43.9439H10.5011C10.0811 43.8763 9.69393 43.6611 9.40044 43.3319C9.40044 42.7198 9.95485 42.7198 10.5011 42.7198H15.4826C16.037 42.7198 16.5914 42.7198 16.5914 43.3319C16.2954 43.6622 15.9053 43.8775 15.4826 43.9439ZM17.1132 41.5045H8.85419C8.25849 41.5258 7.67689 41.3075 7.22358 40.8925C7.22358 40.2804 7.77799 39.6684 8.85419 39.6684H17.1703C18.2709 39.6684 18.8009 40.2804 18.8009 40.8925C18.348 41.3082 17.7661 41.5267 17.1703 41.5045H17.1132ZM17.6595 30.5229H15.45L17.6595 17.1019C17.6616 17.0231 17.6491 16.9446 17.6228 16.871C17.5964 16.7974 17.5566 16.7302 17.5058 16.6733C17.455 16.6163 17.3941 16.5708 17.3267 16.5393C17.2593 16.5078 17.1867 16.491 17.1132 16.4899L16.5588 17.1019L14.3412 30.5229H11.5773L9.36782 17.1019L8.81342 16.4899C8.73922 16.4898 8.66578 16.5058 8.59743 16.5368C8.52908 16.5677 8.46722 16.6131 8.41552 16.6701C8.36382 16.7272 8.32332 16.7948 8.29644 16.869C8.26956 16.9432 8.25684 17.0224 8.25902 17.1019L10.4685 30.5229H8.25902C7.82991 27.9694 6.67015 25.6225 4.94073 23.808C3.8539 22.5918 3.00537 21.1544 2.44524 19.5806C1.88511 18.0068 1.62474 16.3286 1.67952 14.6451C1.67952 7.3269 6.65287 1.83607 12.7432 1.83607C19.3797 1.83607 24.3612 7.3269 24.3612 14.6451C24.4066 16.3307 24.1355 18.009 23.5641 19.5801C22.9926 21.1511 22.1325 22.583 21.0348 23.7906C18.8253 26.2299 17.7165 28.066 17.7165 30.5054L17.6595 30.5229Z" fill="url(#paint0_linear_1_13344)"/>
<defs>
<linearGradient id="paint0_linear_1_13344" x1="13" y1="0" x2="13" y2="45.168" gradientUnits="userSpaceOnUse">
<stop stop-color="#82B8E1"/>
<stop offset="1" stop-color="#115C9A"/>
</linearGradient>
</defs>
</svg>
