<svg width="67" height="61" viewBox="0 0 67 61" fill="none" xmlns="http://www.w3.org/2000/svg">
<path d="M34.3619 27.8975C33.3427 27.8975 32.3361 27.6263 31.4554 27.0968L21.4903 21.2202V27.5876L31.6567 33.5804C32.7891 34.252 34.1983 34.252 35.3307 33.5804L46.0004 27.2905C47.1453 26.6189 47.8499 25.3661 47.8499 24.01V20.8586L37.2683 27.0968C36.3876 27.6263 35.381 27.8975 34.3619 27.8975ZM52.455 10.1387L36.0479 0.464959C35.532 0.154986 34.9532 0 34.3619 0C33.7831 0 33.2043 0.154986 32.6759 0.464959L16.2687 10.1387C15.0357 10.862 15.0357 12.696 16.2687 13.4192L33.4434 23.545C33.7328 23.7129 34.0473 23.7904 34.3619 23.7904C34.6764 23.7904 34.991 23.7 35.2804 23.545L52.455 13.4192C53.7006 12.696 53.7006 10.862 52.455 10.1387Z" fill="white"/>
<path d="M63.8167 1.22754H45.3587L54.443 6.58748C54.984 6.91037 55.4496 7.31075 55.8522 7.77571H60.6083V37.2489H6.37915V7.77571H12.8715C13.2742 7.31075 13.7523 6.91037 14.2808 6.58748L23.3651 1.22754H3.19587C1.43437 1.22754 0 2.69991 0 4.50808V45.4503C0 47.2585 1.43437 48.7308 3.19587 48.7308H26.9887L25.7934 56.1056H19.9427C18.6216 56.1056 17.5521 57.2034 17.5521 58.5595C17.5521 59.9157 18.6216 61.0135 19.9427 61.0135H47.0573C48.3784 61.0135 49.4479 59.9157 49.4479 58.5595C49.4479 57.2034 48.3784 56.1056 47.0573 56.1056H41.2066L40.0113 48.7308H63.8041C65.5656 48.7308 67 47.2585 67 45.4503V4.50808C67 2.69991 65.5782 1.22754 63.8167 1.22754ZM33.5063 46.264C32.1852 46.264 31.1157 45.1661 31.1157 43.81C31.1157 42.4539 32.1852 41.3561 33.5063 41.3561C34.8274 41.3561 35.8969 42.4539 35.8969 43.81C35.8969 45.1661 34.8274 46.264 33.5063 46.264ZM14.3562 17.2815V25.9478L13.0351 27.7173C12.6702 28.1951 12.6702 28.8668 13.0351 29.3575L14.7589 31.6694C15.2873 32.3669 16.3065 32.3669 16.8349 31.6694L18.5587 29.3575C18.9236 28.8797 18.9236 28.2081 18.5587 27.7173L17.5395 26.3482V19.1672L14.3562 17.2815Z" fill="white"/>
</svg>
