<svg width="71" height="46" viewBox="0 0 71 46" fill="none" xmlns="http://www.w3.org/2000/svg">
<path d="M67.3595 24.5H68.8595V21.5H67.3595V24.5ZM1.93935 21.9393C1.35356 22.5251 1.35356 23.4749 1.93935 24.0607L11.4853 33.6066C12.0711 34.1924 13.0208 34.1924 13.6066 33.6066C14.1924 33.0208 14.1924 32.0711 13.6066 31.4853L5.12133 23L13.6066 14.5147C14.1924 13.9289 14.1924 12.9792 13.6066 12.3934C13.0208 11.8076 12.0711 11.8076 11.4853 12.3934L1.93935 21.9393ZM64.1415 21.5C63.3131 21.5 62.6415 22.1716 62.6415 23C62.6415 23.8284 63.3131 24.5 64.1415 24.5V21.5ZM51.2696 24.5C52.0981 24.5 52.7696 23.8284 52.7696 23C52.7696 22.1716 52.0981 21.5 51.2696 21.5V24.5ZM31.9618 21.5C31.1334 21.5 30.4618 22.1716 30.4618 23C30.4618 23.8284 31.1334 24.5 31.9618 24.5V21.5ZM6.21798 24.5C7.04641 24.5 7.71798 23.8284 7.71798 23C7.71798 22.1716 7.04641 21.5 6.21798 21.5V24.5ZM67.3595 21.5H64.1415V24.5H67.3595V21.5ZM51.2696 21.5H31.9618V24.5H51.2696V21.5ZM6.21798 21.5H3.00001V24.5H6.21798V21.5ZM67.3595 26H70.3595V20H67.3595V26ZM0.878685 20.8787C-0.292885 22.0503 -0.292885 23.9497 0.878685 25.1213L19.9706 44.2132C21.1421 45.3848 23.0416 45.3848 24.2132 44.2132C25.3848 43.0416 25.3848 41.1421 24.2132 39.9706L7.24265 23L24.2132 6.02944C25.3848 4.85786 25.3848 2.95837 24.2132 1.7868C23.0416 0.615223 21.1421 0.615223 19.9706 1.7868L0.878685 20.8787ZM64.1415 20C62.4847 20 61.1415 21.3431 61.1415 23C61.1415 24.6569 62.4847 26 64.1415 26V20ZM51.2696 26C52.9265 26 54.2696 24.6569 54.2696 23C54.2696 21.3431 52.9265 20 51.2696 20V26ZM31.9618 20C30.3049 20 28.9618 21.3431 28.9618 23C28.9618 24.6569 30.3049 26 31.9618 26V20ZM6.21798 26C7.87483 26 9.21798 24.6569 9.21798 23C9.21798 21.3431 7.87483 20 6.21798 20V26ZM67.3595 20H64.1415V26H67.3595V20ZM51.2696 20H31.9618V26H51.2696V20ZM6.21798 20H3.00001V26H6.21798V20Z" fill="#747ED5"/>
</svg>
