<svg width="11" height="15" viewBox="0 0 11 15" fill="none" xmlns="http://www.w3.org/2000/svg">
<g clip-path="url(#clip0_186_127)">
<path d="M9.97822 5.2829C9.97822 9.44149 5.28257 13.5003 5.28257 13.5003C5.28257 13.5003 0.586914 9.44149 0.586914 5.2829C0.586914 4.03754 1.08163 2.84318 1.96224 1.96257C2.84284 1.08197 4.0372 0.58725 5.28257 0.58725C6.52793 0.58725 7.72229 1.08197 8.60289 1.96257C9.4835 2.84318 9.97822 4.03754 9.97822 5.2829V5.2829Z" stroke="white" stroke-linecap="round" stroke-linejoin="round"/>
<path d="M5.28235 7.04348C6.25486 7.04348 7.04322 6.25512 7.04322 5.28261C7.04322 4.31011 6.25486 3.52174 5.28235 3.52174C4.30985 3.52174 3.52148 4.31011 3.52148 5.28261C3.52148 6.25512 4.30985 7.04348 5.28235 7.04348Z" stroke="white" stroke-linecap="round" stroke-linejoin="round"/>
</g>
<defs>
<clipPath id="clip0_186_127">
<rect width="10.5652" height="14.087" fill="white"/>
</clipPath>
</defs>
</svg>
