<svg width="197" height="140" viewBox="0 0 197 140" fill="none" xmlns="http://www.w3.org/2000/svg">
<rect width="176" height="124" rx="8" fill="white"/>
<rect x="15" y="14" width="72" height="96" rx="4" fill="#E9EFFF"/>
<path fill-rule="evenodd" clip-rule="evenodd" d="M53.3614 59.7087H68.9988C68.9989 59.697 68.9991 59.6854 68.9993 59.6738C68.9997 59.6565 69 59.6391 69 59.6215C69 50.9939 62.0373 44 53.4483 44C53.4326 44 53.4169 44.0003 53.4012 44.0005C53.3879 44.0008 53.3747 44.001 53.3614 44.0011V59.7087ZM50.4645 46.7579C41.9156 46.8051 35 53.7798 35 62.3783C35 71.006 41.9627 77.9998 50.5515 78C59.1112 78 66.0552 71.053 66.102 62.4656H50.4645V46.7579Z" fill="white"/>
<rect x="99" y="14" width="64" height="42" rx="4" fill="#FFE8ED"/>
<rect x="99" y="68" width="64" height="42" rx="4" fill="#FFE8ED"/>
<path d="M165 140C182.673 140 197 125.673 197 108C197 90.3269 182.673 76 165 76C147.327 76 133 90.3269 133 108C133 125.673 147.327 140 165 140Z" fill="#6479F7"/>
<path fill-rule="evenodd" clip-rule="evenodd" d="M171.358 110.21L177.295 116.159C178.173 117.038 178.173 118.462 177.295 119.341C176.857 119.78 176.282 120 175.708 120C175.133 120 174.559 119.78 174.12 119.341L168.182 113.392C166.771 114.248 165.123 114.75 163.357 114.75C158.197 114.75 154 110.544 154 105.375C154 100.206 158.197 96 163.357 96C168.516 96 172.713 100.206 172.713 105.375C172.713 107.145 172.212 108.796 171.358 110.21ZM163.357 99C159.849 99 156.994 101.86 156.994 105.375C156.994 108.89 159.849 111.75 163.357 111.75C166.865 111.75 169.719 108.89 169.719 105.375C169.719 101.86 166.865 99 163.357 99Z" fill="white"/>
</svg>
