<svg width="261" height="158" viewBox="0 0 261 158" fill="none" xmlns="http://www.w3.org/2000/svg">
<rect x="113" y="112" width="40" height="40" fill="white"/>
<rect x="95" y="150" width="76" height="8" rx="4" fill="white"/>
<rect x="42" width="182" height="124" rx="8" fill="white"/>
<rect x="56" y="14" width="155" height="96" rx="4" fill="#FFE8ED"/>
<path d="M56 62.265C56 62.265 78.2303 34.8945 93.7477 38.3974C117.879 43.8448 113.034 78.5858 135.297 80.1656C155.078 81.5692 153.833 50.0401 177.836 44.3643C191.684 41.0898 211 62.265 211 62.265V103.6C211 105.84 211 106.96 210.564 107.816C210.181 108.569 209.569 109.181 208.816 109.564C207.96 110 206.84 110 204.6 110H62.4C60.1598 110 59.0397 110 58.184 109.564C57.4314 109.181 56.8195 108.569 56.436 107.816C56 106.96 56 105.84 56 103.6L56 62.265Z" fill="url(#paint0_linear_991_254)"/>
<path d="M32 136C49.6731 136 64 121.673 64 104C64 86.3269 49.6731 72 32 72C14.3269 72 0 86.3269 0 104C0 121.673 14.3269 136 32 136Z" fill="#D15F85"/>
<path fill-rule="evenodd" clip-rule="evenodd" d="M34.6612 91H29.3058C28.7581 91 28.314 91.4414 28.314 91.9859V113.008C28.314 113.552 28.7581 113.993 29.3058 113.993H34.6612C35.2089 113.993 35.6529 113.552 35.6529 113.008V91.9859C35.6529 91.4413 35.2089 91 34.6612 91ZM45.0082 103.258H39.6529C39.1052 103.258 38.6611 103.699 38.6611 104.243V113.014C38.6611 113.559 39.1052 114 39.6529 114H45.0082C45.556 114 46 113.559 46 113.014V104.243C46 103.699 45.556 103.258 45.0082 103.258ZM18.9917 98.854H24.3471C24.8948 98.854 25.3388 99.2954 25.3388 99.8398V113.001C25.3388 113.545 24.8948 113.987 24.3471 113.987H18.9917C18.444 113.987 18 113.545 18 113.001V99.8398C18 99.2954 18.444 98.854 18.9917 98.854Z" fill="white"/>
<path d="M229 77C246.673 77 261 62.6731 261 45C261 27.3269 246.673 13 229 13C211.327 13 197 27.3269 197 45C197 62.6731 211.327 77 229 77Z" fill="#6479F7"/>
<path fill-rule="evenodd" clip-rule="evenodd" d="M244.999 43.9365H232.121V31.0009L232.154 31.0004C232.167 31.0002 232.18 31 232.193 31C239.266 31 245 36.7597 245 43.8648C245 43.8792 245 43.8935 244.999 43.9078L244.999 43.9365ZM217 46.1351C217 39.054 222.695 33.3101 229.735 33.2712V46.207H242.613C242.575 53.2789 236.856 59 229.807 59C222.734 58.9999 217 53.2402 217 46.1351ZM234.507 33.6565C238.399 34.5464 241.47 37.6307 242.355 41.5401H234.507V33.6565Z" fill="white"/>
<defs>
<linearGradient id="paint0_linear_991_254" x1="56" y1="38" x2="56" y2="110" gradientUnits="userSpaceOnUse">
<stop stop-color="#F5CDD6"/>
<stop offset="1" stop-color="#FFE8ED"/>
</linearGradient>
</defs>
</svg>
