<svg width="196" height="160" viewBox="0 0 196 160" fill="none" xmlns="http://www.w3.org/2000/svg">
<rect x="51" width="94" height="160" rx="8" fill="white"/>
<rect x="62" y="11" width="72" height="67" rx="4" fill="#E9EFFF"/>
<path fill-rule="evenodd" clip-rule="evenodd" d="M105.176 37.1364V41.668H108V46.4258H88V41.668H90.8237V37.1364C90.8237 33.195 94.0366 30 97.9998 30C101.963 30 105.176 33.195 105.176 37.1364ZM94.4581 41.668H101.542V37.2795C101.542 35.4141 99.9559 33.9019 97.9999 33.9019C96.0438 33.9019 94.4581 35.4141 94.4581 37.2795V41.668ZM88.0003 54.1667H108V58.9999H88.0003V54.1667ZM88 48.5781V48.125H108V48.5781V52.0898V52.4675H88V52.0898V48.5781Z" fill="white"/>
<rect x="62" y="86" width="72" height="16" rx="4" fill="#FFE8ED"/>
<rect x="62" y="109" width="72" height="16" rx="4" fill="#E9EFFF"/>
<path d="M98 150C102.418 150 106 146.418 106 142C106 137.582 102.418 134 98 134C93.5817 134 90 137.582 90 142C90 146.418 93.5817 150 98 150Z" fill="#FFE8ED"/>
<path d="M32 80C49.6731 80 64 65.6731 64 48C64 30.3269 49.6731 16 32 16C14.3269 16 0 30.3269 0 48C0 65.6731 14.3269 80 32 80Z" fill="#D15F85"/>
<path fill-rule="evenodd" clip-rule="evenodd" d="M44 48L32.5 33L21 48L32.5 51.7501L44 48ZM32.5 46.125L24.1363 47.0342L32.5 36.1249V46.125ZM21 48.9375L32.5 63L44 48.9375L32.5 53.625L21 48.9375ZM27.1735 53.4851L31.7629 55.3558L32.5 55.6562V59.9985L27.1735 53.4851Z" fill="white"/>
<path d="M164 147C181.673 147 196 132.673 196 115C196 97.3269 181.673 83 164 83C146.327 83 132 97.3269 132 115C132 132.673 146.327 147 164 147Z" fill="url(#paint0_linear_991_218)"/>
<path fill-rule="evenodd" clip-rule="evenodd" d="M157.623 109.229C157.623 105.801 160.49 103 163.996 103C167.503 103 170.37 105.801 170.37 109.229C170.37 112.656 167.503 115.457 163.996 115.457C160.49 115.457 157.623 112.656 157.623 109.229ZM174.294 119.292C174.544 119.646 174.767 120.027 174.934 120.435C175.017 120.598 174.989 120.788 174.85 120.951C174.628 121.332 174.377 121.686 174.099 122.039C173.709 122.556 173.264 123.019 172.819 123.454C172.429 123.834 171.984 124.215 171.538 124.542C169.34 126.146 166.696 126.99 163.969 126.99C161.241 126.99 158.597 126.146 156.399 124.542C155.954 124.188 155.508 123.834 155.119 123.454C154.645 123.019 154.228 122.556 153.838 122.039C153.588 121.713 153.31 121.332 153.087 120.951C153.004 120.788 152.976 120.598 153.059 120.435C153.226 120.054 153.449 119.646 153.699 119.292C154.952 117.443 156.955 116.219 159.182 115.92C159.46 115.865 159.766 115.947 159.989 116.11C161.158 116.953 162.549 117.388 163.996 117.388C165.444 117.388 166.835 116.953 168.004 116.11C168.227 115.947 168.533 115.892 168.811 115.92C171.038 116.219 173.013 117.443 174.294 119.292Z" fill="white"/>
<defs>
<linearGradient id="paint0_linear_991_218" x1="132" y1="83" x2="132" y2="147" gradientUnits="userSpaceOnUse">
<stop stop-color="#34405D"/>
<stop offset="1" stop-color="#465373"/>
</linearGradient>
</defs>
</svg>
