<svg width="14" height="14" viewBox="0 0 14 14" fill="none" xmlns="http://www.w3.org/2000/svg">
<path d="M3.93307 5.1802L4.20014 5.03346C4.79969 4.7116 5.25451 4.1739 5.47247 3.52927C5.69044 2.88465 5.65525 2.18127 5.37405 1.56161V1.56161C5.2416 1.2699 5.02762 1.02271 4.7579 0.849833C4.48817 0.676957 4.1742 0.585771 3.85383 0.587261V0.587261C3.41342 0.587607 2.99117 0.762841 2.67992 1.07444L1.52949 2.22487C1.1702 2.58077 0.901027 3.01726 0.744325 3.49808C0.587624 3.97891 0.547918 4.49018 0.628508 4.98944C0.987339 7.10535 1.99535 9.05729 3.51289 10.5748C5.03043 12.0924 6.98237 13.1004 9.09829 13.4592C9.59708 13.5393 10.1078 13.4994 10.5881 13.3427C11.0683 13.186 11.5043 12.9171 11.8599 12.5582L13.0104 11.4078C13.322 11.0966 13.4972 10.6743 13.4975 10.2339V10.2339C13.4973 9.91502 13.4053 9.60294 13.2326 9.33493C13.0598 9.06693 12.8135 8.85431 12.5232 8.72248V8.72248C11.9035 8.44128 11.2001 8.40609 10.5555 8.62406C9.91089 8.84202 9.37319 9.29684 9.05133 9.89639L8.90459 10.1635C6.68694 9.17615 4.91515 7.40018 3.93307 5.1802V5.1802Z" stroke="white" stroke-linecap="round" stroke-linejoin="round"/>
</svg>
