<svg width="38" height="40" viewBox="0 0 38 40" fill="none" xmlns="http://www.w3.org/2000/svg">
<path fill-rule="evenodd" clip-rule="evenodd" d="M25.3181 34.0183C25.3181 34.5519 25.3181 35.0446 24.8056 35.0446H8.61023C8.1317 35.0451 7.65806 34.9483 7.21796 34.7602C6.77786 34.5721 6.38047 34.2965 6.04985 33.9501C5.71924 33.6037 5.46223 33.1937 5.29447 32.745C5.12672 32.2963 5.05168 31.8181 5.07388 31.3395V17.6174L1.9988 20.7888C1.49654 21.3225 1.49654 21.3225 0.973777 20.7888C0.451014 20.2551 0.471515 19.7624 0.973777 19.7624L5.07388 15.0002H6.0989L10.6603 19.7624V20.7888H9.63525L6.56018 17.6174V31.3806C6.58384 31.9233 6.80564 32.4384 7.18355 32.8281C7.56146 33.2178 8.06916 33.4551 8.61023 33.4948H24.8056C24.8738 33.4948 24.9413 33.5084 25.0041 33.5348C25.067 33.5613 25.1239 33.6 25.1717 33.6487C25.2194 33.6975 25.2569 33.7553 25.2821 33.8187C25.3072 33.8822 25.3195 33.95 25.3181 34.0183ZM13.6739 7.03586H29.8692C30.4095 7.07775 30.9159 7.31568 31.2934 7.70498C31.6709 8.09427 31.8934 8.60814 31.9193 9.15011V22.3796L28.8442 19.7316C28.8442 19.2082 28.3317 19.2082 27.8192 19.7316V20.758L31.868 24.9967C32.3703 24.9967 32.3703 25.5202 32.8931 25.5202C32.8903 25.4524 32.9012 25.3848 32.9252 25.3214C32.9492 25.258 32.9858 25.2001 33.0327 25.1512C33.0796 25.1023 33.1359 25.0634 33.1983 25.0369C33.2606 25.0104 33.3276 24.9967 33.3953 24.9967L37.4954 20.758C37.9977 20.2345 37.9977 19.7316 37.4954 19.7316C36.9932 19.2082 36.4704 19.2082 36.4704 19.7316L33.3953 22.3796V9.15011C33.4176 8.67062 33.3422 8.19161 33.1738 7.74219C33.0054 7.29277 32.7476 6.88232 32.4158 6.53579C32.0841 6.18925 31.6855 5.91386 31.2442 5.72635C30.8029 5.53884 30.3281 5.44314 29.8487 5.44505H13.6533C13.1511 5.44505 12.6283 5.44503 12.6283 5.96846C12.6514 6.2329 12.7668 6.48074 12.9543 6.66843C13.1417 6.85613 13.3892 6.97168 13.6533 6.9948L13.6739 7.03586ZM0.0102509 6.00953C0.0963346 4.58994 0.720209 3.25677 1.75456 2.28207C2.78891 1.30738 4.15575 0.764648 5.57613 0.764648C6.99651 0.764648 8.36335 1.30738 9.3977 2.28207C10.4321 3.25677 11.0559 4.58994 11.142 6.00953C11.1881 6.76983 11.0784 7.53153 10.8195 8.24778C10.5606 8.96403 10.1582 9.61966 9.63682 10.1743C9.11545 10.729 8.48624 11.1711 7.7879 11.4732C7.08957 11.7753 6.33686 11.9312 5.57613 11.9312C4.8154 11.9312 4.06275 11.7753 3.36442 11.4732C2.66609 11.1711 2.03687 10.729 1.51551 10.1743C0.994143 9.61966 0.591624 8.96403 0.332761 8.24778C0.0738975 7.53153 -0.0358541 6.76983 0.0102509 6.00953ZM2.0603 6.54321L4.11035 8.65746H5.13538L9.23548 4.9524V3.92606C8.72296 3.92606 8.21045 3.40263 8.21045 3.92606L4.66384 6.574L3.14683 5.54766C3.14683 5.01397 2.64456 5.01397 2.1218 5.54766V6.574L2.0603 6.54321ZM37.9977 34.0593C37.9977 37.2409 35.4761 39.8889 32.9443 39.8889C31.4371 39.8433 30.0081 39.2067 28.9651 38.1163C27.9222 37.0259 27.3487 35.569 27.3682 34.0593C27.37 33.3403 27.5177 32.6291 27.8024 31.969C28.0871 31.3089 28.5028 30.7136 29.0243 30.2193C29.5458 29.7249 30.1622 29.3419 30.836 29.0934C31.5099 28.8449 32.2272 28.7361 32.9443 28.7737C33.6244 28.7829 34.2959 28.9276 34.9196 29.1993C35.5433 29.471 36.1068 29.8643 36.5771 30.3563C37.0475 30.8482 37.4153 31.429 37.6592 32.0648C37.9031 32.7005 38.0182 33.3785 37.9977 34.0593ZM33.8976 34.0593L35.4249 32.4787V31.4524C35.3388 31.3296 35.2245 31.2293 35.0916 31.1601C34.9587 31.0909 34.811 31.0548 34.6612 31.0548C34.5114 31.0548 34.3638 31.0909 34.2309 31.1601C34.0979 31.2293 33.9836 31.3296 33.8976 31.4524L32.8726 33.0329L31.3453 31.4524C30.843 30.9187 30.3203 30.9187 30.3203 31.4524C29.8077 31.9758 29.8077 32.4787 30.3203 32.4787L31.3453 34.0593L30.3203 35.6501C29.8077 36.1838 29.8077 36.1838 30.3203 36.6765H31.3453L32.8726 35.0959L33.8976 36.6765H35.4249V35.6501L33.8976 34.0593Z" fill="url(#paint0_linear_1_13391)"/>
<defs>
<linearGradient id="paint0_linear_1_13391" x1="19" y1="0.764648" x2="19" y2="39.8889" gradientUnits="userSpaceOnUse">
<stop stop-color="#EDEEF5"/>
<stop offset="1" stop-color="#008E91"/>
</linearGradient>
</defs>
</svg>
