<svg width="86" height="46" viewBox="0 0 86 46" fill="none" xmlns="http://www.w3.org/2000/svg">
<path d="M3.71667 21.5H2.21667V24.5H3.71667V21.5ZM84.0608 24.0607C84.6465 23.4749 84.6465 22.5251 84.0608 21.9393L74.5148 12.3934C73.929 11.8076 72.9793 11.8076 72.3935 12.3934C71.8077 12.9792 71.8077 13.9289 72.3935 14.5147L80.8788 23L72.3935 31.4853C71.8077 32.0711 71.8077 33.0208 72.3935 33.6066C72.9793 34.1924 73.929 34.1924 74.5148 33.6066L84.0608 24.0607ZM7.68085 24.5C8.50927 24.5 9.18085 23.8284 9.18085 23C9.18085 22.1716 8.50927 21.5 7.68085 21.5V24.5ZM23.5375 21.5C22.7091 21.5 22.0375 22.1716 22.0375 23C22.0375 23.8284 22.7091 24.5 23.5375 24.5V21.5ZM47.3226 24.5C48.151 24.5 48.8226 23.8284 48.8226 23C48.8226 22.1716 48.151 21.5 47.3226 21.5V24.5ZM79.0359 21.5C78.2075 21.5 77.5359 22.1716 77.5359 23C77.5359 23.8284 78.2075 24.5 79.0359 24.5V21.5ZM3.71667 24.5H7.68085V21.5H3.71667V24.5ZM23.5375 24.5H47.3226V21.5H23.5375V24.5ZM79.0359 24.5H83.0001V21.5H79.0359V24.5ZM3.71667 20H0.716675V26H3.71667V20ZM85.1214 25.1213C86.293 23.9497 86.293 22.0503 85.1214 20.8787L66.0295 1.7868C64.858 0.615223 62.9585 0.615223 61.7869 1.7868C60.6153 2.95837 60.6153 4.85786 61.7869 6.02944L78.7575 23L61.7869 39.9706C60.6153 41.1421 60.6153 43.0416 61.7869 44.2132C62.9585 45.3848 64.858 45.3848 66.0295 44.2132L85.1214 25.1213ZM7.68085 26C9.3377 26 10.6808 24.6569 10.6808 23C10.6808 21.3431 9.3377 20 7.68085 20V26ZM23.5375 20C21.8807 20 20.5375 21.3431 20.5375 23C20.5375 24.6569 21.8807 26 23.5375 26V20ZM47.3226 26C48.9794 26 50.3226 24.6569 50.3226 23C50.3226 21.3431 48.9794 20 47.3226 20V26ZM79.0359 20C77.3791 20 76.0359 21.3431 76.0359 23C76.0359 24.6569 77.3791 26 79.0359 26V20ZM3.71667 26H7.68085V20H3.71667V26ZM23.5375 26H47.3226V20H23.5375V26ZM79.0359 26H83.0001V20H79.0359V26Z" fill="#747ED5"/>
</svg>
