<svg width="36" height="42" viewBox="0 0 36 42" fill="none" xmlns="http://www.w3.org/2000/svg">
<path fill-rule="evenodd" clip-rule="evenodd" d="M8.79466 13.3114H7.66315C7.37082 13.3366 7.09636 13.4736 6.889 13.6978C6.68164 13.922 6.55493 14.2188 6.53164 14.5349V32.2752C6.55493 32.5913 6.68164 32.8881 6.889 33.1123C7.09636 33.3365 7.37082 33.4735 7.66315 33.4987H23.5043C23.58 33.4988 23.655 33.4822 23.7246 33.4498C23.7941 33.4174 23.8569 33.3699 23.9088 33.3103C23.9608 33.2507 24.0009 33.1802 24.0266 33.1032C24.0524 33.0262 24.0633 32.9443 24.0587 32.8625C24.6018 32.2263 24.6018 31.639 24.0587 31.639L8.73809 13.2869L8.79466 13.3114ZM7.66315 32.3242V14.5838L23.5043 32.3242H7.66315ZM33.9254 32.3242L7.66315 1.90861C7.26934 1.36086 6.77402 0.908154 6.20895 0.579477C5.64388 0.2508 5.02152 0.0534064 4.38178 0C3.83866 0 3.25026 0.63623 2.74108 0.63623C1.92639 0.995748 1.23005 1.61105 0.741953 2.4027C0.253857 3.19435 -0.00356989 4.12602 0.00285483 5.07744V36.1291C-0.0182991 36.7729 0.0782731 37.4149 0.287078 38.0182C0.495884 38.6215 0.812789 39.1743 1.21962 39.6449C1.62645 40.1155 2.11523 40.4946 2.65786 40.7605C3.2005 41.0264 3.78633 41.1738 4.38178 41.1943H31.1872C33.9254 41.1943 35.5661 39.2979 35.5661 36.1291C35.5896 35.3999 35.4532 34.6751 35.1681 34.0138C34.8829 33.3524 34.4571 32.7735 33.9254 32.3242ZM31.1872 38.6617H4.41573C3.82989 38.5969 3.28567 38.3045 2.88408 37.8388C2.48248 37.3731 2.25078 36.7656 2.23193 36.1291V5.07744C2.24352 4.59783 2.41659 4.13926 2.71867 3.78784C3.02076 3.43643 3.43106 3.2163 3.87259 3.16879C3.86632 3.08765 3.87571 3.00601 3.90018 2.92901C3.92465 2.85201 3.96368 2.78135 4.01475 2.72152C4.06583 2.6617 4.12784 2.61403 4.19687 2.58151C4.2659 2.54898 4.34043 2.53231 4.41573 2.5326C4.95885 2.5326 5.54725 3.1688 6.05643 3.75607L8.79466 6.28867L7.15399 8.19728V8.82126C7.15399 9.45747 7.15397 9.45746 7.69709 9.45746V8.82126L9.33779 7.59779L11.5329 9.49416L10.4014 10.7176V11.3538H10.9445L12.076 10.1304L13.7167 12.6629L12.5852 14.5716C12.0421 14.5716 12.0421 15.1955 12.5852 15.1955H13.1396L14.7803 13.2991L16.421 15.1955L15.8666 16.419C15.3235 16.419 15.3235 17.0552 15.8666 17.0552V17.6914C16.421 17.6914 16.421 17.6914 16.421 17.0552L17.5525 16.419L19.1932 18.3154L17.5525 20.224V20.8602C17.5525 21.4842 17.5525 21.4842 18.107 21.4842V20.8602L19.7476 19.6368L21.9315 21.5331L20.8 22.7566V23.3928H21.3431L22.4746 22.1693L24.1153 24.7019L22.9838 26.6105C22.4406 26.6105 22.4406 27.2468 22.9838 27.2468H23.5269L25.1676 25.3381L26.8083 27.2468L26.2651 28.4702C25.722 28.4702 25.722 29.1064 26.2651 29.1064V29.7426C26.8083 29.7426 26.8083 29.7426 26.8083 29.1064L27.9398 28.4702L29.5804 30.3788L27.9398 32.2752V32.9114C27.9398 33.5476 27.9398 33.5476 28.4829 33.5476V32.9114L30.1236 31.688L32.3187 34.2205H32.8618C33.0734 34.4785 33.2321 34.7818 33.3277 35.1108C33.4232 35.4397 33.4534 35.7867 33.4163 36.1291C33.3947 36.7667 33.1606 37.3743 32.7571 37.8398C32.3537 38.3052 31.8081 38.5972 31.2211 38.6617H31.1872Z" fill="#9AD8F4"/>
</svg>
