<svg width="18" height="17" viewBox="0 0 18 17" fill="none" xmlns="http://www.w3.org/2000/svg">
<path fill-rule="evenodd" clip-rule="evenodd" d="M9.00003 13.9999L4.91565 16.1472C4.42681 16.4042 3.82218 16.2163 3.56518 15.7274C3.46284 15.5328 3.42753 15.3098 3.4647 15.0931L4.24475 10.545L0.940417 7.32411C0.544933 6.9386 0.536841 6.30549 0.922342 5.91001C1.07585 5.75252 1.27699 5.65004 1.49463 5.61841L6.06111 4.95486L8.1033 0.816935C8.34772 0.321681 8.94734 0.118342 9.4426 0.362764C9.63981 0.460095 9.79944 0.619722 9.89677 0.816935L11.939 4.95486L16.5054 5.61841C17.052 5.69783 17.4307 6.20527 17.3512 6.75182C17.3196 6.96945 17.2171 7.1706 17.0596 7.32411L13.7553 10.545L14.5354 15.0931C14.6287 15.6374 14.2631 16.1544 13.7188 16.2477C13.502 16.2849 13.2791 16.2496 13.0844 16.1472L9.00003 13.9999Z" fill="#F6B900"/>
</svg>
