<svg width="71" height="70" viewBox="0 0 71 70" fill="none" xmlns="http://www.w3.org/2000/svg">
<g clip-path="url(#clip0_1_16128)">
<path d="M23.1814 61.7051C28.0846 69.1766 40.1534 69.6406 45.4634 65.2227C45.3706 65.1743 45.2779 65.1396 45.2136 65.0842C45.0709 64.9596 44.9067 64.7796 44.7569 64.5788C44.2715 63.9071 44.5356 63.4778 44.8211 63.2354C44.9924 63.09 45.2065 63 45.4349 62.9653C46.7838 62.7161 49.5459 62.3214 50.0312 63.0484C50.6236 63.9278 49.7029 66.0883 49.2247 67.3486C48.9963 67.951 48.5752 68.3734 47.9186 68.1518C47.5546 68.0272 47.3191 67.5632 46.9551 67.1685C45.8488 67.6255 45.3992 68.0756 44.1217 68.6227C39.0472 70.8593 34.4152 70.2015 29.5762 67.9441C27.6064 67.03 25.7721 65.6728 24.5017 63.824C24.0164 63.1385 23.6167 62.4114 23.1814 61.7051Z" fill="white"/>
<path d="M19.3773 11.156C10.2489 11.0868 3.29023 20.6634 4.2252 27.3871C4.31798 27.3386 4.39649 27.2832 4.48213 27.2625C4.6677 27.214 4.91036 27.1724 5.16729 27.1655C6.00947 27.1378 6.245 27.581 6.29496 27.948C6.32351 28.1696 6.28782 28.3912 6.19504 28.592C5.67403 29.8245 4.51782 32.2897 3.62568 32.2897C2.54797 32.2897 1.17765 30.3716 0.342607 29.2913C-0.0570714 28.7789 -0.192676 28.2042 0.356881 27.7956C0.65664 27.5671 1.19192 27.6295 1.72721 27.5394C1.93418 26.39 1.79144 25.7806 2.01269 24.4373C2.83346 19.0915 5.92383 15.6708 10.5059 12.9564C12.3686 11.8554 14.5383 11.0937 16.8293 11.0591C17.6858 11.0522 18.5351 11.1214 19.3773 11.156Z" fill="white"/>
<path d="M67.5242 32.483C70.7716 24.2013 63.9414 14.5346 57.1183 13.0459C57.1326 13.1428 57.1611 13.2397 57.154 13.3228C57.1326 13.5098 57.0898 13.7452 57.0113 13.9807C56.7472 14.7562 56.2333 14.8116 55.8622 14.7354C55.6409 14.687 55.4411 14.5693 55.2698 14.4238C54.2635 13.5236 52.2865 11.6125 52.5934 10.8023C52.9645 9.81903 55.2983 9.24429 56.633 8.86344C57.2682 8.68341 57.8677 8.75957 58.0747 9.39663C58.1889 9.74978 57.9462 10.2137 57.8392 10.7331C58.874 11.3147 59.5164 11.4047 60.7368 12.0695C65.6186 14.68 67.8383 18.6824 68.866 23.7927C69.2871 25.8701 69.2586 28.1067 68.4949 30.2048C68.2094 30.9734 67.8525 31.7213 67.5242 32.483Z" fill="white"/>
<path d="M43.415 7.2217C43.415 7.34634 43.415 7.47098 43.4079 7.59563C43.4008 7.72027 43.3936 7.83798 43.3793 7.96263C43.3579 8.14266 43.3365 8.3227 43.3008 8.50274C43.2652 8.69662 43.2223 8.89051 43.1724 9.07747C43.0725 9.43755 42.944 9.7907 42.7941 10.13C42.7727 10.1785 42.7513 10.2269 42.7299 10.2754C42.6514 10.4416 42.5586 10.6078 42.4658 10.7671C42.4372 10.8155 42.4087 10.864 42.3802 10.9125C42.0304 11.4803 41.6093 11.9996 41.1169 12.4566C41.0669 12.4982 41.0241 12.5397 40.9741 12.5813C40.8956 12.6505 40.81 12.7267 40.7243 12.789C40.6672 12.8306 40.6101 12.879 40.5531 12.9206C40.4246 13.0175 40.2961 13.1075 40.1676 13.1976C40.1462 13.2114 40.132 13.2253 40.1106 13.2322C39.9321 13.343 39.7537 13.4538 39.5681 13.5507C39.404 13.6407 39.2255 13.7238 39.0543 13.8C39.0471 13.8069 39.0328 13.8069 39.0257 13.8138C38.676 13.9662 38.3191 14.0908 37.948 14.1878C37.8695 14.2085 37.791 14.2293 37.7125 14.2501C37.3414 14.3332 36.9559 14.3955 36.5634 14.4232C36.4349 14.4301 36.3136 14.4371 36.1851 14.444C36.1209 14.444 36.0567 14.444 35.9924 14.444C35.9282 14.444 35.864 14.444 35.7997 14.444C35.6713 14.444 35.5428 14.4371 35.4215 14.4232C35.0289 14.3955 34.6435 14.3332 34.2724 14.2501C34.1939 14.2293 34.1154 14.2085 34.0369 14.1878C33.6657 14.0908 33.3017 13.9662 32.9592 13.8138C32.952 13.8069 32.9378 13.8069 32.9306 13.8C32.7736 13.7308 32.6237 13.6546 32.4667 13.5784C32.2597 13.4745 32.0599 13.3568 31.8743 13.2322C31.8529 13.2183 31.8386 13.2045 31.8172 13.1976C31.6816 13.1075 31.5532 13.0175 31.4318 12.9206C31.3747 12.879 31.3176 12.8306 31.2605 12.789C31.1749 12.7198 31.0892 12.6505 31.0107 12.5813C30.918 12.4982 30.8323 12.422 30.7467 12.332C30.3113 11.9096 29.9259 11.4318 29.6047 10.9125C29.5762 10.864 29.5476 10.8155 29.5191 10.7671C29.4263 10.6078 29.3406 10.4416 29.255 10.2754C29.2336 10.2269 29.2122 10.1785 29.1908 10.13C29.0409 9.7907 28.9124 9.44447 28.8125 9.07747C28.7625 8.89051 28.7197 8.69662 28.684 8.50274C28.6483 8.3227 28.6269 8.14266 28.6055 7.96263C28.5913 7.83798 28.5841 7.72027 28.577 7.59563C28.5698 7.47098 28.5698 7.34634 28.5698 7.2217C28.5698 7.09706 28.5984 6.97242 28.6055 6.84778C28.6127 6.77161 28.6412 6.69544 28.6412 6.61927C28.6412 6.5708 28.6269 6.52925 28.6341 6.48078C28.6412 6.43231 28.6341 6.39076 28.6412 6.34229C28.6555 6.2038 28.6698 6.07223 28.6983 5.94066C28.734 5.74678 28.7768 5.55289 28.8268 5.36593C28.9267 5.00585 29.048 4.6527 29.205 4.3134C29.2193 4.2857 29.2265 4.26493 29.2407 4.24416C29.255 4.22338 29.2621 4.19568 29.2764 4.17491C29.3549 4.00872 29.4406 3.84253 29.5405 3.68327C29.569 3.6348 29.5976 3.58633 29.6261 3.53785C29.9759 2.97004 30.4041 2.4507 30.8894 1.99369C30.9394 1.95214 30.9822 1.91059 31.0321 1.86904C31.1107 1.7998 31.1963 1.72363 31.2819 1.66131C31.339 1.61976 31.3961 1.57129 31.4532 1.52974C31.5817 1.4328 31.7102 1.34278 31.8386 1.25276C31.86 1.23891 31.8743 1.22506 31.8957 1.21814C32.2312 1.00348 32.5809 0.809592 32.952 0.650328C32.9663 0.643404 32.9734 0.643404 32.9806 0.636479C33.3303 0.48414 33.6872 0.359498 34.0583 0.262555C34.1368 0.241781 34.2153 0.221008 34.2938 0.200234C34.6649 0.11714 35.0503 0.0548193 35.4429 0.0271212C35.5713 0.0201967 35.6927 0.0132722 35.8211 0.00634766C35.8854 0.00634766 35.9496 0.00634766 36.0138 0.00634766C36.0781 0.00634766 36.1423 0.00634766 36.2066 0.00634766C36.335 0.00634766 36.4635 0.0132722 36.5848 0.0271212C36.9774 0.0548193 37.3628 0.11714 37.7339 0.200234C37.8124 0.221008 37.8909 0.241781 37.9694 0.262555C38.3405 0.359498 38.7045 0.48414 39.0471 0.636479C39.0543 0.643404 39.0685 0.643404 39.0757 0.650328C39.4468 0.809592 39.7965 1.00348 40.132 1.21814C40.1534 1.23199 40.1676 1.24584 40.1891 1.25276C40.3247 1.34278 40.4531 1.4328 40.5745 1.52974C40.6316 1.57129 40.6887 1.61976 40.7458 1.66131C40.8314 1.73055 40.917 1.7998 40.9956 1.86904C41.0455 1.91059 41.0883 1.95214 41.1383 1.99369C41.6308 2.4507 42.059 2.97004 42.4016 3.53785C42.4301 3.58633 42.4587 3.6348 42.4872 3.68327C42.58 3.84253 42.6656 4.00872 42.7513 4.17491C42.7727 4.22338 42.7941 4.27185 42.8155 4.32033C42.9654 4.65963 43.0939 5.00585 43.1938 5.37285C43.2437 5.55982 43.2866 5.7537 43.3223 5.94759C43.3579 6.12763 43.3793 6.30766 43.4008 6.4877C43.4079 6.5431 43.415 6.59849 43.415 6.66081C43.4222 6.72314 43.4222 6.79238 43.4293 6.8547C43.4079 6.97242 43.415 7.09706 43.415 7.2217Z" fill="white"/>
<path d="M28.5556 6.61954C28.5556 6.61954 28.5556 6.62646 28.5556 6.61954V6.61954ZM28.42 6.55029C28.4271 6.55029 28.4342 6.55722 28.4414 6.55722C28.4771 6.57799 28.5056 6.59184 28.5556 6.61261C28.5484 6.60569 28.5413 6.60569 28.5342 6.59876C28.4985 6.58492 28.4557 6.57107 28.42 6.55029Z" fill="white"/>
<path d="M28.42 6.55029C28.4557 6.56414 28.4985 6.58492 28.527 6.60569C28.4985 6.59184 28.4699 6.57799 28.4342 6.56414C28.4342 6.55722 28.4271 6.55722 28.42 6.55029Z" fill="white"/>
<path d="M48.2754 21.3545V28.833C48.2754 28.9853 48.2826 29.013 48.1327 29.013H23.8165C23.6667 29.013 23.531 28.9853 23.531 28.833V21.3545C23.531 21.2368 23.5239 21.1121 23.531 20.9944C23.6167 19.2148 24.3518 17.6014 25.5009 16.3896C25.5366 16.355 25.5651 16.3203 25.6008 16.2857C26.1718 15.7041 26.8427 15.2263 27.5849 14.8662C27.6278 14.8454 27.6706 14.8246 27.7205 14.8039C27.9275 14.7139 28.1345 14.6308 28.3486 14.5546C28.3986 14.5407 28.4414 14.52 28.4913 14.5061C28.684 14.4438 28.8767 14.3953 29.0766 14.3469C29.3192 14.5754 29.569 14.7831 29.8331 14.9839C30.504 15.4894 31.232 15.9187 32.0028 16.2511C32.1455 16.3134 32.2954 16.3757 32.4453 16.4311C33.0163 16.6458 33.6015 16.8051 34.1939 16.9159C34.7791 17.0197 35.3715 17.0751 35.971 17.0751C36.6562 17.0751 37.3342 17.0128 37.998 16.8743C38.0836 16.8605 38.1621 16.8258 38.2478 16.8258C38.3691 16.8258 38.4904 16.8258 38.6189 16.8258C38.9401 16.8258 39.2612 16.5835 39.5681 16.4588C39.6895 16.4104 39.8179 16.3065 39.9393 16.2511C40.5459 15.988 41.1169 15.6417 41.6522 15.247C41.7093 15.247 41.7735 15.1916 41.8306 15.1501C42.1803 14.8939 42.5229 14.6308 42.8441 14.333C45.8988 15.0255 48.1612 17.7329 48.3182 20.9944C48.3111 21.1052 48.2754 21.2298 48.2754 21.3545Z" fill="white"/>
<path d="M23.7951 35.7716C23.7951 35.8962 23.7951 36.0209 23.7879 36.1455C23.7808 36.2702 23.7737 36.3879 23.7594 36.5125C23.738 36.6926 23.7166 36.8726 23.6809 37.0526C23.6452 37.2465 23.6024 37.4404 23.5524 37.6274C23.4525 37.9874 23.324 38.3406 23.1741 38.6799C23.1527 38.7284 23.1313 38.7768 23.1099 38.8253C23.0314 38.9915 22.9386 39.1577 22.8458 39.3169C22.8173 39.3654 22.7887 39.4139 22.7602 39.4624C22.4105 40.0302 21.9894 40.5495 21.4969 41.0065C21.447 41.0481 21.4041 41.0896 21.3542 41.1312C21.2757 41.2004 21.19 41.2766 21.1044 41.3389C21.0473 41.3805 20.9902 41.4289 20.9331 41.4705C20.8046 41.5674 20.6761 41.6574 20.5477 41.7475C20.5263 41.7613 20.512 41.7751 20.4906 41.7821C20.3122 41.8929 20.1337 42.0037 19.9482 42.1006C19.784 42.1906 19.6056 42.2737 19.4343 42.3499C19.4272 42.3568 19.4129 42.3568 19.4057 42.3637C19.056 42.5161 18.6992 42.6407 18.328 42.7377C18.2495 42.7584 18.171 42.7792 18.0925 42.8C17.7214 42.8831 17.336 42.9454 16.9434 42.9731C16.815 42.98 16.6936 42.9869 16.5652 42.9939C16.5009 42.9939 16.4367 42.9939 16.3725 42.9939C16.3082 42.9939 16.244 42.9939 16.1798 42.9939C16.0513 42.9939 15.9228 42.9869 15.8015 42.9731C15.409 42.9454 15.0236 42.8831 14.6524 42.8C14.5739 42.7792 14.4954 42.7584 14.4169 42.7377C14.0458 42.6407 13.6818 42.5161 13.3392 42.3637C13.3321 42.3568 13.3178 42.3568 13.3106 42.3499C13.1536 42.2806 13.0038 42.2045 12.8467 42.1283C12.6398 42.0244 12.4399 41.9067 12.2544 41.7821C12.2329 41.7682 12.2187 41.7544 12.1973 41.7475C12.0617 41.6574 11.9332 41.5674 11.8119 41.4705C11.7548 41.4289 11.6977 41.3805 11.6406 41.3389C11.5549 41.2697 11.4693 41.2004 11.3908 41.1312C11.298 41.0481 11.2123 40.9719 11.1267 40.8819C10.6913 40.4595 10.3059 39.9817 9.98476 39.4554C9.95621 39.407 9.92766 39.3585 9.89911 39.31C9.80633 39.1508 9.72068 38.9846 9.63504 38.8184C9.61363 38.7699 9.59221 38.7214 9.5708 38.673C9.42092 38.3337 9.29246 37.9874 9.19254 37.6204C9.14258 37.4335 9.09975 37.2396 9.06407 37.0457C9.02838 36.8657 9.00697 36.6856 8.98556 36.5056C8.97129 36.3809 8.96415 36.2632 8.95701 36.1386C8.94988 36.0139 8.94987 35.8893 8.94987 35.7647C8.94987 35.64 8.94988 35.5154 8.95701 35.3907C8.96415 35.3146 8.96415 35.2384 8.96415 35.1622C8.96415 35.1138 8.97842 35.0722 8.98556 35.0237C8.9927 34.9753 8.99983 34.9337 9.00697 34.8853C9.02125 34.7468 9.04266 34.6152 9.07121 34.4836C9.10689 34.2897 9.14971 34.0959 9.19967 33.9089C9.29959 33.5488 9.42806 33.1957 9.57794 32.8564C9.59221 32.8287 9.59935 32.8079 9.61363 32.7871C9.6279 32.7663 9.63504 32.7387 9.64931 32.7179C9.72782 32.5517 9.8206 32.3855 9.91339 32.2262C9.94193 32.1778 9.97048 32.1293 9.99903 32.0808C10.3487 31.513 10.777 30.9937 11.2623 30.5367C11.3123 30.4951 11.3551 30.4536 11.405 30.412C11.4835 30.3428 11.5692 30.2666 11.6548 30.2043C11.7119 30.1627 11.769 30.1143 11.8261 30.0727C11.9546 29.9758 12.0831 29.8857 12.2115 29.7957C12.2329 29.7819 12.2472 29.768 12.2686 29.7611C12.6041 29.5464 12.9538 29.3526 13.3249 29.1933C13.3321 29.1864 13.3463 29.1864 13.3535 29.1794C13.7032 29.0271 14.06 28.9025 14.4312 28.8055C14.5097 28.7847 14.5882 28.764 14.6667 28.7432C15.0378 28.6601 15.4232 28.5978 15.8158 28.5701C15.9442 28.5632 16.0656 28.5562 16.194 28.5493C16.2583 28.5493 16.3225 28.5493 16.3867 28.5493C16.451 28.5493 16.5152 28.5493 16.5794 28.5493C16.7079 28.5493 16.8364 28.5562 16.9577 28.5701C17.3503 28.5978 17.7357 28.6601 18.1068 28.7432C18.1853 28.764 18.2638 28.7847 18.3423 28.8055C18.7134 28.9025 19.0774 29.0271 19.42 29.1794C19.4343 29.1864 19.4414 29.1864 19.4486 29.1933C19.8197 29.3526 20.1694 29.5464 20.5049 29.7611C20.5263 29.775 20.5405 29.7888 20.562 29.7957C20.6976 29.8857 20.826 29.9758 20.9474 30.0727C21.0045 30.1143 21.0616 30.1627 21.1186 30.2043C21.2043 30.2735 21.2899 30.3428 21.3684 30.412C21.4184 30.4536 21.4612 30.4951 21.5112 30.5367C22.0036 30.9937 22.4319 31.513 22.7745 32.0808C22.803 32.1293 22.8316 32.1778 22.8601 32.2262C22.9529 32.3855 23.0385 32.5517 23.1242 32.7179C23.1456 32.7663 23.167 32.8148 23.1884 32.8633C23.3383 33.2026 23.4668 33.5488 23.5667 33.9158C23.6166 34.1028 23.6595 34.2967 23.6951 34.4906C23.7308 34.6706 23.7522 34.8506 23.7737 35.0307C23.7808 35.0861 23.7879 35.1415 23.7879 35.2038C23.7951 35.2661 23.7951 35.3353 23.8022 35.3977C23.7879 35.5223 23.7951 35.6469 23.7951 35.7716Z" fill="white"/>
<path d="M8.93559 35.1688C8.93559 35.1688 8.93559 35.1757 8.93559 35.1688C8.93559 35.1757 8.93559 35.1757 8.93559 35.1688ZM8.79999 35.1064C8.80712 35.1064 8.81426 35.1134 8.8214 35.1203C8.85709 35.1411 8.88563 35.1549 8.93559 35.1757C8.92846 35.1688 8.92132 35.1688 8.91418 35.1618C8.8785 35.1411 8.83567 35.1203 8.79999 35.1064Z" fill="white"/>
<path d="M8.79999 35.1064C8.83567 35.1203 8.8785 35.1411 8.90705 35.1618C8.8785 35.148 8.84995 35.1341 8.81426 35.1203C8.81426 35.1134 8.80712 35.1064 8.79999 35.1064Z" fill="white"/>
<path d="M28.7982 49.9046V57.3831C28.7982 57.5354 28.6554 57.5493 28.5056 57.5493H4.19655C4.04668 57.5493 3.85397 57.5354 3.85397 57.3831V49.9046C3.85397 49.7869 3.87538 49.6622 3.88252 49.5445C3.96817 47.7649 4.71756 46.1515 5.86664 44.9397C5.90232 44.9051 5.93801 44.8705 5.9737 44.8358C6.54466 44.2542 7.22269 43.7764 7.95781 43.4163C8.00063 43.3955 8.05059 43.3748 8.09342 43.354C8.30039 43.264 8.50737 43.1809 8.72148 43.1047C8.77144 43.0909 8.81427 43.0701 8.86423 43.0562C9.05693 42.9939 9.24963 42.9454 9.44947 42.897C9.69213 43.1255 9.94193 43.3332 10.206 43.534C10.8769 44.0395 11.6049 44.4688 12.3757 44.8012C12.5184 44.8635 12.6683 44.9259 12.8182 44.9813C13.3892 45.1959 13.9744 45.3552 14.5668 45.466C15.152 45.5698 15.7444 45.6252 16.3439 45.6252C17.0291 45.6252 17.7071 45.556 18.3709 45.4175C18.4565 45.4036 18.535 45.3621 18.6207 45.3621C18.742 45.3621 18.8633 45.3621 18.9918 45.3621C19.313 45.3621 19.6341 45.1267 19.941 45.009C20.0624 44.9605 20.1908 44.8497 20.3122 44.7943C20.9188 44.5312 21.4898 44.1849 22.0251 43.7902C22.0822 43.7902 22.1464 43.7487 22.2035 43.7071C22.5532 43.4509 22.8958 43.1947 23.217 42.897C26.2716 43.5894 28.6055 46.2969 28.7625 49.5584C28.7625 49.6553 28.7982 49.7869 28.7982 49.9046Z" fill="white"/>
<path d="M66.0825 36.832C66.0825 36.9567 66.0825 37.0813 66.0753 37.206C66.0682 37.3306 66.0611 37.4483 66.0468 37.573C66.0254 37.753 66.004 37.933 65.9683 38.1131C65.9326 38.307 65.8898 38.5009 65.8398 38.6878C65.7399 39.0479 65.6114 39.401 65.4615 39.7403C65.4401 39.7888 65.4187 39.8373 65.3973 39.8858C65.3188 40.0519 65.226 40.2181 65.1332 40.3774C65.1047 40.4259 65.0761 40.4743 65.0476 40.5228C64.6979 41.0906 64.2768 41.61 63.7843 42.067C63.7344 42.1085 63.6915 42.1501 63.6416 42.1916C63.5631 42.2609 63.4774 42.337 63.3918 42.3994C63.3347 42.4409 63.2776 42.4894 63.2205 42.5309C63.092 42.6279 62.9635 42.7179 62.8351 42.8079C62.8137 42.8218 62.7994 42.8356 62.778 42.8425C62.5995 42.9533 62.4211 43.0641 62.2356 43.1611C62.0714 43.2511 61.893 43.3342 61.7217 43.4103C61.7146 43.4173 61.7003 43.4173 61.6931 43.4242C61.3434 43.5765 60.9866 43.7012 60.6154 43.7981C60.5369 43.8189 60.4584 43.8397 60.3799 43.8604C60.0088 43.9435 59.6234 44.0059 59.2308 44.0336C59.1024 44.0405 58.981 44.0474 58.8526 44.0543C58.7883 44.0543 58.7241 44.0543 58.6599 44.0543C58.5956 44.0543 58.5314 44.0543 58.4672 44.0543C58.3387 44.0543 58.2102 44.0474 58.0889 44.0336C57.6964 44.0059 57.3109 43.9435 56.9398 43.8604C56.8613 43.8397 56.7828 43.8189 56.7043 43.7981C56.3332 43.7012 55.9692 43.5765 55.6266 43.4242C55.6195 43.4173 55.6052 43.4173 55.598 43.4103C55.441 43.3411 55.2911 43.2649 55.1341 43.1888C54.9272 43.0849 54.7273 42.9672 54.5417 42.8425C54.5203 42.8287 54.5061 42.8148 54.4846 42.8079C54.349 42.7179 54.2206 42.6279 54.0992 42.5309C54.0422 42.4894 53.9851 42.4409 53.928 42.3994C53.8423 42.3301 53.7567 42.2609 53.6782 42.1916C53.5854 42.1085 53.4997 42.0324 53.4141 41.9423C52.9787 41.5199 52.5933 41.0422 52.2721 40.5228C52.2436 40.4743 52.2151 40.4259 52.1865 40.3774C52.0937 40.2181 52.0081 40.0519 51.9224 39.8858C51.901 39.8373 51.8796 39.7888 51.8582 39.7403C51.7083 39.401 51.5798 39.0548 51.4799 38.6878C51.43 38.5009 51.3871 38.307 51.3515 38.1131C51.3158 37.933 51.2944 37.753 51.2729 37.573C51.2587 37.4483 51.2515 37.3306 51.2444 37.206C51.2373 37.0813 51.2373 36.9567 51.2373 36.832C51.2373 36.7074 51.1873 36.5828 51.1873 36.4581C51.1944 36.382 51.1445 36.3058 51.1445 36.2296C51.1445 36.1811 51.2087 36.1396 51.2159 36.0911C51.223 36.0427 51.2515 36.0011 51.2587 35.9526C51.273 35.8141 51.3086 35.6826 51.3372 35.551C51.3729 35.3571 51.4228 35.1632 51.4728 34.9763C51.5727 34.6162 51.7012 34.2631 51.8582 33.9238C51.8725 33.8961 51.8796 33.8753 51.8939 33.8545C51.9082 33.8337 51.9153 33.806 51.9296 33.7853C52.0081 33.6191 52.1009 33.4529 52.1936 33.2936C52.2222 33.2451 52.2507 33.1967 52.2793 33.1482C52.629 32.5804 53.0572 32.0611 53.5426 31.604C53.5925 31.5625 53.6353 31.5209 53.6853 31.4794C53.7638 31.4101 53.8494 31.334 53.9351 31.2717C53.9922 31.2301 54.0493 31.1816 54.1064 31.1401C54.2349 31.0432 54.3633 30.9531 54.4918 30.8631C54.5132 30.8493 54.5275 30.8354 54.5489 30.8285C54.8843 30.6138 55.2341 30.4199 55.6052 30.2607C55.6123 30.2538 55.6266 30.2538 55.6337 30.2468C55.9834 30.0945 56.3403 29.9698 56.7114 29.8729C56.7899 29.8521 56.8684 29.8314 56.947 29.8106C57.3181 29.7275 57.7035 29.6652 58.096 29.6375C58.2245 29.6305 58.3458 29.6236 58.4743 29.6167C58.5385 29.6167 58.6028 29.6167 58.667 29.6167C58.7312 29.6167 58.7955 29.6167 58.8597 29.6167C58.9882 29.6167 59.1166 29.6236 59.238 29.6375C59.6305 29.6652 60.0159 29.7275 60.387 29.8106C60.4656 29.8314 60.5441 29.8521 60.6226 29.8729C60.9937 29.9698 61.3577 30.0945 61.7003 30.2468C61.7145 30.2538 61.7217 30.2538 61.7288 30.2607C62.0999 30.4199 62.4497 30.6138 62.7851 30.8285C62.8065 30.8423 62.8208 30.8562 62.8422 30.8631C62.9778 30.9531 63.1063 31.0432 63.2276 31.1401C63.2847 31.1816 63.3418 31.2301 63.3989 31.2717C63.4846 31.3409 63.5702 31.4101 63.6487 31.4794C63.6987 31.5209 63.7415 31.5625 63.7914 31.604C64.2839 32.0611 64.7121 32.5804 65.0547 33.1482C65.0833 33.1967 65.1118 33.2451 65.1404 33.2936C65.2331 33.4529 65.3188 33.6191 65.4044 33.7853C65.4258 33.8337 65.4473 33.8822 65.4687 33.9307C65.6186 34.27 65.747 34.6162 65.8469 34.9832C65.8969 35.1702 65.9397 35.364 65.9754 35.5579C66.0111 35.738 66.0325 35.918 66.0539 36.0981C66.0611 36.1534 66.0682 36.2088 66.0682 36.2712C66.0753 36.3335 66.0753 36.4027 66.0825 36.465C66.0825 36.5828 66.0825 36.7074 66.0825 36.832Z" fill="white"/>
<path d="M51.223 36.2299C51.2301 36.2299 51.2301 36.2368 51.223 36.2299V36.2299ZM51.0874 36.1606C51.0945 36.1606 51.1017 36.1676 51.1088 36.1745C51.1445 36.1953 51.173 36.2091 51.223 36.2299C51.2159 36.223 51.2087 36.223 51.2016 36.216C51.1659 36.1953 51.1231 36.1814 51.0874 36.1606Z" fill="white"/>
<path d="M51.0874 36.1606C51.1231 36.1745 51.1659 36.1953 51.1944 36.216C51.1659 36.2022 51.1373 36.1883 51.1017 36.1745C51.1017 36.1676 51.0945 36.1676 51.0874 36.1606Z" fill="white"/>
<path d="M51.2316 36.229V36.2375V36.229H51.2231H51.2316Z" fill="white"/>
<path d="M70.9857 50.9651V58.4436C70.9857 58.596 70.95 58.7345 70.8001 58.7345H46.484C46.3341 58.7345 46.2413 58.6029 46.2413 58.4436V50.9651C46.2413 50.8474 46.2127 50.7228 46.2199 50.6051C46.3055 48.8255 47.0264 47.212 48.1826 46.0003C48.2183 45.9656 48.2397 45.931 48.2754 45.8964C48.8463 45.3147 49.5172 44.8369 50.2524 44.4769C50.2952 44.4561 50.338 44.4353 50.388 44.4145C50.5949 44.3245 50.8019 44.2414 51.016 44.1653C51.066 44.1514 51.1088 44.1306 51.1588 44.1168C51.3515 44.0545 51.5442 44.006 51.744 43.9575C51.9867 44.186 52.2365 44.3938 52.5005 44.5946C53.1714 45.1001 53.8994 45.5294 54.6702 45.8618C54.813 45.9241 54.9628 45.9864 55.1127 46.0418C55.6837 46.2565 56.2689 46.4157 56.8613 46.5265C57.4466 46.6304 58.0389 46.6858 58.6385 46.6858C59.3236 46.6858 60.0017 46.575 60.6654 46.4434C60.751 46.4296 60.8296 46.3465 60.9152 46.3465C61.0365 46.3465 61.1579 46.3465 61.2863 46.3465C61.6075 46.3465 61.9287 46.1457 62.2356 46.028C62.3569 45.9795 62.4854 45.9518 62.6067 45.8964C63.2134 45.6333 63.7843 45.3632 64.3196 44.9685C64.3767 44.9685 64.4409 44.8646 64.498 44.8231C64.8478 44.5669 65.1903 44.283 65.5115 43.9783C68.5662 44.6707 70.8501 47.3644 71.0071 50.6258C71.0071 50.7297 70.9857 50.8405 70.9857 50.9651Z" fill="white"/>
</g>
<defs>
<clipPath id="clip0_1_16128">
<rect width="71" height="70" fill="white"/>
</clipPath>
</defs>
</svg>
