<svg width="59" height="59" viewBox="0 0 59 59" fill="none" xmlns="http://www.w3.org/2000/svg">
<path d="M18.4375 18.4375H2.45831V55.3125H18.4375V18.4375Z" stroke="white" stroke-width="3" stroke-linecap="round" stroke-linejoin="round"/>
<path d="M11.0625 28.2707C12.4202 28.2707 13.5209 27.17 13.5209 25.8123C13.5209 24.4546 12.4202 23.354 11.0625 23.354C9.70482 23.354 8.60419 24.4546 8.60419 25.8123C8.60419 27.17 9.70482 28.2707 11.0625 28.2707Z" fill="black" stroke="white" stroke-miterlimit="10"/>
<path d="M18.4375 22.1252H24.5833L31.4175 6.50247C31.9441 5.29837 32.8109 4.27427 33.9114 3.55588C35.0119 2.8375 36.2983 2.4561 37.6125 2.45851V2.45851C38.7308 2.4668 39.8295 2.75237 40.8103 3.28963C41.7911 3.82689 42.6233 4.59907 43.2323 5.53698C43.8413 6.47489 44.2082 7.54923 44.3 8.66375C44.3918 9.77828 44.2057 10.8982 43.7583 11.9231L39.3333 22.1252H46.7083C49.3163 22.1252 51.8174 23.1612 53.6615 25.0053C55.5057 26.8494 56.5417 29.3505 56.5417 31.9585V46.7085C56.5417 49.3165 55.5057 51.8176 53.6615 53.6617C51.8174 55.5058 49.3163 56.5418 46.7083 56.5418H34.2077C31.9813 56.5408 29.8462 55.6567 28.2708 54.0835V54.0835C26.6954 52.5103 24.5604 51.6262 22.334 51.6252H18.4375" stroke="white" stroke-width="4" stroke-linecap="round" stroke-linejoin="round"/>
</svg>
