<svg width="50" height="63" viewBox="0 0 50 63" fill="none" xmlns="http://www.w3.org/2000/svg">
<path d="M49.4822 16.1083C49.1084 16.3628 48.6195 16.3816 48.2265 16.146L44.4784 13.931C38.2763 23.9974 29.5627 33.4795 12.7107 33.4795C9.15436 33.4795 5.24332 33.0553 0.9105 32.1316C0.316175 31.9997 -0.086432 31.4341 0.00942692 30.8403C0.0956999 30.2371 0.63251 29.813 1.25559 29.8601C2.30045 29.9449 26.7349 31.5567 36.9918 9.35022L33.1479 7.50282C32.7357 7.30489 32.4768 6.89017 32.496 6.43774C32.5056 5.99475 32.7836 5.58945 33.2054 5.41036L45.9642 0.0943874C46.2901 -0.046995 46.6639 -0.028144 46.9803 0.141515C47.287 0.311174 47.5075 0.612789 47.565 0.961533L49.9807 14.9678C50.0574 15.4108 49.856 15.8538 49.4822 16.1083Z" fill="white"/>
<path d="M14.513 49.4364V58.0701C14.513 60.8318 12.7492 62.9996 10.4966 62.9996H5.00384C2.75116 62.9996 0.977768 60.8318 0.977768 58.0701V49.4364C0.977768 46.6747 2.75116 44.5068 5.00384 44.5068H10.4966C12.7492 44.5068 14.513 46.6747 14.513 49.4364Z" fill="white"/>
<path d="M31.135 41.3407V58.0709C31.135 60.8326 29.3712 63.0005 27.1185 63.0005H21.6162C19.3635 63.0005 17.5997 60.8326 17.5997 58.0709V41.3407C17.5997 38.579 19.3635 36.4111 21.6162 36.4111H27.1185C29.3712 36.4111 31.135 38.579 31.135 41.3407Z" fill="white"/>
<path d="M49.3865 31.6224V58.0703C49.3865 60.832 47.6227 62.9999 45.37 62.9999H39.8773C37.615 62.9999 35.8512 60.832 35.8512 58.0703V31.6224C35.8512 28.8607 37.615 26.6929 39.8773 26.6929H45.37C47.6227 26.6929 49.3865 28.8607 49.3865 31.6224Z" fill="white"/>
</svg>
