<svg width="24" height="24" viewBox="0 0 24 24" fill="none" xmlns="http://www.w3.org/2000/svg">
<path fill-rule="evenodd" clip-rule="evenodd" d="M11.6314 2.56917L4 4.00006V11.9033C4 15.696 5.95382 19.2212 9.17001 21.2313L11.47 22.6688C11.7943 22.8715 12.2057 22.8715 12.53 22.6688L14.83 21.2313C18.0462 19.2212 20 15.696 20 11.9033V4.00006L12.3686 2.56917C12.125 2.52349 11.875 2.52349 11.6314 2.56917ZM10.5042 14.4626C10.6958 14.6542 10.9354 14.7501 11.175 14.7501C11.4146 14.7501 11.6542 14.6542 11.8458 14.4626L15.6792 10.6292C16.0625 10.2459 16.0625 9.67089 15.6792 9.28756C15.2958 8.90423 14.7208 8.90423 14.3375 9.28756L11.175 12.4501L9.92917 11.2042C9.59375 10.8209 8.97083 10.8209 8.5875 11.2042C8.20417 11.5876 8.20417 12.1626 8.5875 12.5459L10.5042 14.4626Z" fill="white"/>
</svg>
