<svg width="73" height="59" viewBox="0 0 73 59" fill="none" xmlns="http://www.w3.org/2000/svg">
<path d="M50.4204 37.991C50.0123 36.3517 50.03 34.5694 50.6777 32.7031C51.5472 30.181 53.5611 28.1213 56.0808 26.9695C58.2545 25.9775 60.3217 25.8093 62.2203 26.1288C62.7261 26.2129 63.1874 25.8178 63.1874 25.3217V3.24508C63.1874 1.4544 61.6525 0 59.7628 0H13.5123C11.6225 0 10.0876 1.4544 10.0876 3.24508V25.2797C10.0876 25.7673 10.5401 26.154 11.0547 26.0784C13.2639 25.7673 15.6948 26.1036 18.2944 27.7514C20.1309 28.9115 21.5771 30.6097 22.2957 32.5854C22.9789 34.4853 23.0055 36.3096 22.5885 37.9826C22.4643 38.4786 22.8813 38.9578 23.4225 38.9578H25.6494C26.0486 38.9578 26.3769 38.6888 26.4745 38.3189C27.5746 34.0398 31.6558 30.8451 36.5089 30.8451C41.3619 30.8451 45.4342 34.0398 46.5433 38.3189C46.6409 38.6888 46.9691 38.9578 47.3684 38.9578H49.5953C50.1276 38.9578 50.5446 38.487 50.4204 37.991ZM44.8487 19.8993L34.4949 25.9102C32.8092 26.8854 30.6444 25.7421 30.6444 23.8673V11.8454C30.6444 9.97065 32.8092 8.8189 34.4949 9.80251L44.8487 15.8135C46.4634 16.7467 46.4634 18.9661 44.8487 19.8993ZM12.5186 42.3206C16.3336 42.3206 19.43 39.3866 19.43 35.7716C19.43 32.1566 16.3336 29.2226 12.5186 29.2226C8.70357 29.2226 5.60719 32.1566 5.60719 35.7716C5.60719 39.3866 8.70357 42.3206 12.5186 42.3206ZM53.57 35.7716C53.57 39.3866 56.6664 42.3206 60.4814 42.3206C64.2964 42.3206 67.3928 39.3866 67.3928 35.7716C67.3928 32.1566 64.2964 29.2226 60.4814 29.2226C56.6664 29.2226 53.57 32.1566 53.57 35.7716ZM67.3662 45.6245H53.5966C51.6093 45.6245 49.8792 46.5997 48.8766 48.071C48.6282 48.4409 48.7081 48.9117 49.0718 49.1891C50.5091 50.2904 51.5915 51.7868 52.1061 53.5187C52.2126 53.8718 52.5408 54.1324 52.9312 54.1324H71.2965C72.2459 54.1324 73.0089 53.4094 73.0089 52.5098V50.9714C73 48.0205 70.4803 45.6245 67.3662 45.6245ZM19.4034 45.6245H5.63381C2.51969 45.6245 0 48.0205 0 50.963V52.5014C0 53.401 0.763004 54.124 1.71232 54.124H20.0777C20.468 54.124 20.7963 53.8634 20.9028 53.5103C21.4174 51.7784 22.4998 50.282 23.937 49.1807C24.3008 48.9033 24.3807 48.4325 24.1322 48.0626C23.1208 46.5997 21.3907 45.6245 19.4034 45.6245Z" fill="white"/>
<path d="M36.4999 47.1879C40.315 47.1879 43.4113 44.2538 43.4113 40.6389C43.4113 37.0239 40.315 34.0898 36.4999 34.0898C32.6849 34.0898 29.5885 37.0239 29.5885 40.6389C29.5885 44.2623 32.6849 47.1879 36.4999 47.1879ZM43.3847 50.4918H29.6152C26.501 50.4918 23.9813 52.8794 23.9813 55.8302V57.3687C23.9813 58.2682 24.7443 58.9912 25.6937 58.9912H47.3062C48.2555 58.9912 49.0185 58.2682 49.0185 57.3687V55.8302C49.0185 52.8878 46.4988 50.4918 43.3847 50.4918Z" fill="white"/>
</svg>
